<svg width="242" height="80" viewBox="0 0 242 80" xmlns="http://www.w3.org/2000/svg" xmlns:sketch="http://www.bohemiancoding.com/sketch/ns"><title>website 1</title><g transform="translate(24 14)" sketch:type="MSShapeGroup" fill="#fff"><path d="M111 1h21v21h-21z"/><rect x="142" y="1" width="22" height="22" rx="8"/><rect x="171" width="23" height="23" rx="40"/><path d="M74.886 13.45l-.664 1.859h6.494l2.192 6.094c.117.418.409.597.818.597h.643c.526 0 .731-.329.585-.866l-7.074-19.536c-.117-.418-.409-.597-.789-.597h-.965c-.38 0-.672.179-.789.597l-6.717 18.55h-10.605v-18.401c0-.478-.263-.747-.701-.747h-.613c-.467 0-.701.269-.701.747v19.506c0 .478.234.747.701.747h12.790999999999999c.409 0 .702-.179.818-.597l2.163-6.094h.014l-.008-.002.587-1.932.045-.019 2.711-7.511c.321-.984.788-2.744.788-2.744h.058s.438 1.76.759 2.744l2.715 7.606h-5.256z"/><path d="M91.857 1h2.94c3.144 0 5.41 2.001 5.41 5.287 0 2.181-1.02 3.764-2.549 4.63 2.039.597 3.342 2.659 3.342 5.198 0 3.734-2.634 5.885-5.976 5.885h-6.344c-.453 0-.68-.269-.68-.747v-19.506c0-.478.227-.747.68-.747h1.285v19.2h5.130000000000001c2.406 0 3.906-1.584 3.906-4.095 0-2.511-1.613-4.155-3.934-4.155h-3.209v-1.95h3.029c2.029 0 3.4-1.481 3.4-3.644 0-2.133-1.286-3.556-3.429-3.556h-3v-1.8zM34.964 22h-1.285c-.453 0-.68-.269-.68-.747v-19.506c0-.478.227-.747.68-.747h6.118c3.144 0 5.41 2.001 5.41 5.287 0 2.181-1.02 3.764-2.549 4.63 2.039.597 3.342 2.659 3.342 5.198 0 3.734-2.634 5.885-5.976 5.885h-3.167v-1.8h3.237c2.406 0 3.906-1.584 3.906-4.095 0-2.511-1.613-4.155-3.934-4.155h-3.209v-1.95h3.029c2.029 0 3.4-1.481 3.4-3.644 0-2.133-1.286-3.556-3.429-3.556h-4.857v.11h-.036v19.09zM21.757 15.309h-6.447l-2.191 6.094c-.118.418-.415.597-.829.597h-.622c-.563 0-.77-.329-.622-.866l7.166-19.536c.118-.418.415-.597.799-.597h.977c.385 0 .681.179.799.597l7.166 19.536c.148.538-.059.866-.592.866h-.651c-.264 0-.48-.073-.632-.233l-3.009-8.317h.011l-2.751-7.606c-.325-.984-.769-2.744-.769-2.744h-.059s-.473 1.76-.799 2.744l-2.78 7.606h5.163l.673 1.859zM.714 22h.624c.446 0 .714-.269.714-.747v-8.663h6.957c.476 0 .714-.269.714-.747v-.388c0-.478-.238-.717-.714-.717h-6.957v-7.886h8.205c.476 0 .743-.269.743-.747v-.358c0-.478-.268-.747-.743-.747h-9.543c-.476 0-.714.269-.714.747v19.506c0 .478.238.747.714.747zM69.496 51h10.008c.321 0 .496-.18.496-.51v-.18c0-.33-.175-.51-.496-.51h-9.249v-19.29c0-.33-.175-.51-.496-.51h-.263c-.321 0-.496.18-.496.51v19.98c0 .33.175.51.496.51zM84.791 51h.419c.512 0 .791-.18.791-.51v-19.98c0-.33-.279-.51-.791-.51h-.419c-.512 0-.791.18-.791.51v19.98c0 .33.279.51.791.51zM90.506 51h.268c.298 0 .476-.18.506-.48l1.25-15.54c.089-1.02.089-2.85.089-2.85.06 0 .714 1.86 1.161 2.85l5.387 11.58c.119.27.298.39.595.39h.476c.298 0 .476-.12.595-.39l5.417-11.58c.476-1.02 1.071-2.79 1.071-2.79.06 0 .06 1.77.149 2.79l1.25 15.54c.03.3.208.48.506.48h.268c.357 0 .506-.18.506-.54l-1.607-19.98c-.03-.3-.208-.48-.506-.48h-.357c-.298 0-.476.12-.595.39l-5.893 12.81c-.476 1.02-1.012 2.37-1.012 2.37-.06 0-.595-1.35-1.071-2.37l-5.893-12.81c-.119-.27-.298-.39-.595-.39h-.357c-.298 0-.476.18-.506.48l-1.607 19.98c0 .36.149.54.506.54zM117.55 51h11.9c.356 0 .55-.18.55-.51v-.18c0-.33-.194-.51-.55-.51h-11.06v-8.79h8.473c.356 0 .55-.18.55-.51v-.18c0-.33-.194-.51-.55-.51h-8.473v-8.61h10.445c.356 0 .55-.18.55-.51v-.18c0-.33-.194-.51-.55-.51h-11.286c-.356 0-.55.18-.55.51v19.98c0 .33.194.51.55.51zM133 31.2v-.69c0-.33.172-.51.488-.51h5.401c1.867 0 2.815.21 3.62.63 1.666.87 2.787 2.64 2.787 5.04 0 3-1.666 5.25-4.022 5.85 0 0 .201.24.46.75l4.194 8.13c.172.36.029.6-.345.6h-.402c-.287 0-.46-.12-.575-.36l-4.596-8.94h-5.774v8.79c0 .33-.172.51-.488.51h-.259c-.316 0-.488-.18-.488-.51v-17.34h1.3v7.35h5.489c2.658 0 4.333-1.98 4.333-4.83 0-1.86-.896-3.36-2.369-4.05-.578-.27-1.213-.42-2.831-.42h-5.922000000000001zM150.791 51h.419c.512 0 .791-.18.791-.51v-19.98c0-.33-.279-.51-.791-.51h-.419c-.512 0-.791.18-.791.51v19.98c0 .33.279.51.791.51zM167.948 51c4.211 0 6.925-2.036 7.86-2.856.25-.243.25-.486.031-.729l-.125-.152c-.25-.243-.499-.243-.749-.03-.936.76-3.369 2.522-7.018 2.522-5.677 0-9.545-4.376-9.545-9.906 0-5.5 3.899-9.602 9.451-9.602 3.369 0 5.646 1.428 6.55 2.066.281.213.53.182.749-.061l.156-.182c.187-.273.187-.517-.062-.729-.905-.729-3.4-2.34-7.424-2.34-6.332 0-10.824 4.68-10.824 10.848 0 6.169 4.398 11.152 10.948 11.152zM180.514 51h.272c.333 0 .514-.18.514-.51v-9.93h3.932l6.261 10.11c.151.24.333.33.605.33h.454c.423 0 .575-.27.333-.6l-6.533-10.44 6.11-9.33c.212-.36.06-.63-.363-.63h-.423c-.272 0-.454.09-.605.33l-5.837 9.03h-3.932v-8.85c0-.33-.181-.51-.514-.51h-.272c-.333 0-.514.18-.514.51v19.98c0 .33.181.51.514.51z"/></g></svg>