<svg width="242" height="80" viewBox="0 0 242 80" xmlns="http://www.w3.org/2000/svg"><title>website 1</title><g transform="translate(24 14)" fill="#fff"><path d="M111 1h21v21h-21z"/><rect x="142" y="1" width="22" height="22" rx="8"/><rect x="171" width="23" height="23" rx="40"/><path d="M74.886 13.45l-.664 1.86h6.494l2.192 6.093c.117.418.41.597.818.597h.643c.526 0 .73-.33.584-.866L77.88 1.597C77.764 1.18 77.47 1 77.09 1h-.963c-.38 0-.673.18-.79.597l-6.716 18.55H58.016v-18.4c0-.478-.262-.747-.7-.747H56.7c-.466 0-.7.27-.7.747v19.506c0 .478.234.747.7.747h12.792c.41 0 .7-.18.818-.597l2.163-6.094h.014l-.008-.003.586-1.932.044-.02 2.71-7.51c.322-.985.79-2.745.79-2.745h.058s.438 1.76.76 2.744l2.714 7.606h-5.256z"/><path d="M91.857 1h2.94c3.144 0 5.41 2 5.41 5.287 0 2.18-1.02 3.764-2.55 4.63 2.04.598 3.343 2.66 3.343 5.198C101 19.85 98.366 22 95.024 22H88.68c-.453 0-.68-.27-.68-.747V1.747c0-.478.227-.747.68-.747h1.284v19.2h5.129C97.5 20.2 99 18.616 99 16.105c0-2.51-1.613-4.155-3.934-4.155h-3.21V10h3.03c2.028 0 3.4-1.48 3.4-3.644 0-2.134-1.286-3.556-3.43-3.556h-3V1zM34.964 22H33.68c-.453 0-.68-.27-.68-.747V1.747c0-.478.227-.747.68-.747h6.117c3.144 0 5.41 2 5.41 5.287 0 2.18-1.02 3.764-2.55 4.63 2.04.598 3.343 2.66 3.343 5.198C46 19.85 43.366 22 40.024 22h-3.167v-1.8h3.237C42.5 20.2 44 18.616 44 16.105c0-2.51-1.613-4.155-3.934-4.155h-3.21V10h3.03c2.028 0 3.4-1.48 3.4-3.644 0-2.134-1.286-3.556-3.43-3.556H35v.11h-.036V22zM21.757 15.31H15.31l-2.19 6.093c-.12.418-.416.597-.83.597h-.622c-.563 0-.77-.33-.622-.866l7.166-19.537c.118-.418.414-.597.8-.597h.976c.385 0 .68.18.8.597l7.165 19.537c.15.537-.06.866-.592.866h-.65c-.264 0-.48-.073-.632-.233l-3.01-8.317h.01l-2.75-7.606c-.325-.984-.77-2.744-.77-2.744H19.5s-.473 1.76-.8 2.744l-2.78 7.606h5.165l.672 1.86zM.714 22h.624c.446 0 .713-.27.713-.747V12.59H9.01c.476 0 .714-.27.714-.746v-.39c0-.477-.238-.716-.714-.716H2.05V2.852h8.207c.475 0 .743-.27.743-.747v-.358C11 1.27 10.732 1 10.257 1H.714C.238 1 0 1.27 0 1.747v19.506c0 .478.238.747.714.747 0 0-.476 0 0 0zM69.496 51h10.008c.32 0 .496-.18.496-.51v-.18c0-.33-.175-.51-.496-.51h-9.25V30.51c0-.33-.174-.51-.495-.51h-.264c-.32 0-.496.18-.496.51v19.98c0 .33.175.51.496.51 0 0-.32 0 0 0zM84.79 51h.42c.51 0 .79-.18.79-.51V30.51c0-.33-.28-.51-.79-.51h-.42c-.51 0-.79.18-.79.51v19.98c0 .33.28.51.79.51 0 0-.51 0 0 0zM90.506 51h.268c.297 0 .476-.18.506-.48l1.25-15.54c.09-1.02.09-2.85.09-2.85.06 0 .713 1.86 1.16 2.85l5.387 11.58c.12.27.297.39.595.39h.476c.298 0 .476-.12.595-.39l5.417-11.58c.476-1.02 1.07-2.79 1.07-2.79.06 0 .06 1.77.15 2.79l1.25 15.54c.03.3.21.48.506.48h.268c.357 0 .506-.18.506-.54l-1.607-19.98c-.03-.3-.208-.48-.506-.48h-.357c-.298 0-.476.12-.595.39l-5.893 12.81c-.477 1.02-1.012 2.37-1.012 2.37-.06 0-.595-1.35-1.072-2.37l-5.893-12.81c-.12-.27-.297-.39-.595-.39h-.357c-.298 0-.476.18-.506.48L90 50.46c0 .36.15.54.506.54 0 0-.357 0 0 0zM117.55 51h11.9c.356 0 .55-.18.55-.51v-.18c0-.33-.194-.51-.55-.51h-11.06v-8.79h8.473c.356 0 .55-.18.55-.51v-.18c0-.33-.194-.51-.55-.51h-8.472V31.2h10.446c.356 0 .55-.18.55-.51v-.18c0-.33-.194-.51-.55-.51H117.55c-.356 0-.55.18-.55.51v19.98c0 .33.194.51.55.51 0 0-.356 0 0 0zM133 31.2v-.69c0-.33.172-.51.488-.51h5.4c1.87 0 2.817.21 3.62.63 1.667.87 2.788 2.64 2.788 5.04 0 3-1.667 5.25-4.022 5.85 0 0 .2.24.46.75l4.194 8.13c.172.36.028.6-.345.6h-.402c-.287 0-.46-.12-.574-.36l-4.596-8.94h-5.775v8.79c0 .33-.172.51-.488.51h-.26c-.315 0-.487-.18-.487-.51V33.15h1.3v7.35h5.49c2.657 0 4.332-1.98 4.332-4.83 0-1.86-.895-3.36-2.37-4.05-.576-.27-1.212-.42-2.83-.42H133zM150.79 51h.42c.51 0 .79-.18.79-.51V30.51c0-.33-.28-.51-.79-.51h-.42c-.51 0-.79.18-.79.51v19.98c0 .33.28.51.79.51 0 0-.51 0 0 0zM167.948 51c4.21 0 6.925-2.036 7.86-2.856.25-.243.25-.487.032-.73l-.125-.152c-.25-.243-.5-.243-.748-.03-.936.76-3.37 2.522-7.02 2.522-5.676 0-9.543-4.376-9.543-9.906 0-5.5 3.9-9.602 9.45-9.602 3.37 0 5.647 1.428 6.55 2.066.282.213.53.182.75-.06l.156-.183c.187-.274.187-.518-.063-.73-.904-.73-3.4-2.34-7.423-2.34C161.492 29 157 33.68 157 39.848 157 46.018 161.398 51 167.948 51c0 0-6.55 0 0 0zM180.514 51h.272c.333 0 .515-.18.515-.51v-9.93h3.932l6.26 10.11c.152.24.334.33.606.33h.454c.423 0 .574-.27.333-.6l-6.533-10.44 6.11-9.33c.21-.36.06-.63-.364-.63h-.423c-.272 0-.454.09-.605.33l-5.838 9.03h-3.93v-8.85c0-.33-.183-.51-.516-.51h-.272c-.333 0-.514.18-.514.51v19.98c0 .33.18.51.514.51 0 0-.333 0 0 0z"/></g></svg>