<svg width="535" height="177" viewBox="0 0 535 177" xmlns="http://www.w3.org/2000/svg" xmlns:sketch="http://www.bohemiancoding.com/sketch/ns"><title>SAUL</title><g sketch:type="MSShapeGroup" fill="#626262" opacity=".65"><path d="M126.189 105.58c0 4.213-1.529 7.498-4.586 9.855-3.058 2.357-7.207 3.536-12.449 3.536-5.679 0-10.047-.731-13.104-2.194v-5.369c1.966.829 4.106 1.484 6.421 1.964 2.315.48 4.608.72 6.88.72 3.713 0 6.508-.704 8.387-2.112 1.878-1.408 2.817-3.367 2.817-5.877 0-1.659-.333-3.018-.999-4.076-.666-1.059-1.78-2.035-3.342-2.93s-3.937-1.91-7.125-3.045c-4.455-1.593-7.639-3.481-9.55-5.664-1.911-2.183-2.867-5.031-2.867-8.545 0-3.689 1.387-6.624 4.161-8.807 2.774-2.183 6.443-3.274 11.008-3.274 4.761 0 9.14.873 13.137 2.619l-1.736 4.846c-3.953-1.659-7.797-2.488-11.532-2.488-2.948 0-5.253.633-6.912 1.899-1.66 1.266-2.49 3.023-2.49 5.271 0 1.659.306 3.018.917 4.076.612 1.059 1.643 2.03 3.096 2.914 1.452.884 3.675 1.861 6.667 2.93 5.023 1.79 8.48 3.711 10.369 5.762 1.889 2.052 2.834 4.715 2.834 7.989zm39.902 12.736l-5.962-15.224h-19.198l-5.897 15.224h-5.635l18.936-48.063h4.685l18.837 48.063h-5.766zm-7.699-20.234l-5.569-14.831c-.721-1.877-1.463-4.18-2.228-6.908-.48 2.095-1.168 4.398-2.064 6.908l-5.635 14.831h15.496zm55.464-27.633v30.973c0 5.5-1.594 9.8-4.783 12.9-3.189 3.099-7.633 4.649-13.334 4.649-5.547 0-9.877-1.555-12.99-4.666-3.112-3.11-4.668-7.448-4.668-13.014v-30.842h3.374v30.973c0 4.606 1.278 8.191 3.833 10.755 2.555 2.565 6.17 3.847 10.844 3.847 4.565 0 8.103-1.26 10.614-3.782 2.512-2.521 3.767-6.019 3.767-10.493v-31.3h3.342zm13.039 47.867v-47.867h3.342v44.724h22.834v3.143h-26.176z"/><path d="M286.15 82.773c0 1.781-.644 3.178-1.933 4.191-1.288 1.014-3.066 1.52-5.332 1.52s-4.121-.352-5.565-1.055v-3.096c.914.429 1.885.767 2.913 1.014 1.028.247 1.985.37 2.871.37 1.298 0 2.255-.247 2.871-.74.617-.493.925-1.155.925-1.986 0-.749-.283-1.383-.85-1.904-.567-.521-1.736-1.137-3.509-1.849-1.827-.74-3.116-1.584-3.865-2.534-.749-.95-1.124-2.091-1.124-3.424 0-1.671.594-2.986 1.782-3.945 1.188-.959 2.782-1.438 4.783-1.438 1.919 0 3.829.42 5.729 1.26l-1.042 2.671c-1.782-.749-3.372-1.123-4.77-1.123-1.06 0-1.864.231-2.412.692-.548.461-.822 1.071-.822 1.829 0 .521.11.966.329 1.336.219.37.58.719 1.083 1.048.503.329 1.407.762 2.714 1.301 1.471.612 2.549 1.183 3.235 1.712.685.53 1.188 1.128 1.508 1.794.32.667.48 1.452.48 2.356zm9.649 5.712c-2.293 0-4.036-.669-5.229-2.007-1.192-1.338-1.789-3.258-1.789-5.76 0-2.548.624-4.506 1.871-5.876 1.247-1.37 3.05-2.055 5.407-2.055 1.599 0 3.038.297 4.317.89l-.973 2.589c-1.361-.53-2.485-.794-3.372-.794-2.622 0-3.934 1.74-3.934 5.219 0 1.699.327 2.975.98 3.828.653.854 1.61 1.281 2.871 1.281 1.435 0 2.791-.356 4.071-1.068v2.808c-.576.338-1.19.58-1.843.726-.653.146-1.446.219-2.378.219zm21.121-.274h-3.235v-9.314c0-1.169-.235-2.041-.706-2.616-.471-.575-1.218-.863-2.241-.863-1.352 0-2.346.404-2.981 1.212-.635.808-.953 2.162-.953 4.061v7.52h-3.221v-21.313h3.221v5.411c0 .868-.055 1.794-.164 2.781h.206c.439-.731 1.049-1.297 1.83-1.698.781-.402 1.693-.603 2.734-.603 3.673 0 5.51 1.849 5.51 5.548v9.876zm17.927-7.602c0 2.475-.635 4.406-1.905 5.794s-3.038 2.082-5.304 2.082c-1.416 0-2.668-.32-3.755-.959-1.087-.639-1.923-1.557-2.508-2.753-.585-1.196-.877-2.584-.877-4.164 0-2.456.63-4.374 1.891-5.753 1.261-1.379 3.038-2.068 5.332-2.068 2.193 0 3.929.705 5.208 2.116 1.279 1.411 1.919 3.313 1.919 5.705zm-11.033 0c0 3.497 1.293 5.246 3.879 5.246 2.558 0 3.838-1.749 3.838-5.246 0-3.461-1.288-5.191-3.865-5.191-1.352 0-2.332.447-2.94 1.342-.608.895-.911 2.178-.911 3.849zm28.18 0c0 2.475-.635 4.406-1.905 5.794s-3.038 2.082-5.304 2.082c-1.416 0-2.668-.32-3.755-.959-1.087-.639-1.923-1.557-2.508-2.753-.585-1.196-.877-2.584-.877-4.164 0-2.456.63-4.374 1.891-5.753 1.261-1.379 3.038-2.068 5.332-2.068 2.193 0 3.929.705 5.208 2.116 1.279 1.411 1.919 3.313 1.919 5.705zm-11.033 0c0 3.497 1.293 5.246 3.879 5.246 2.558 0 3.838-1.749 3.838-5.246 0-3.461-1.288-5.191-3.865-5.191-1.352 0-2.332.447-2.94 1.342-.608.895-.911 2.178-.911 3.849zm17.955 7.602h-3.221v-21.313h3.221v21.313zm25.342-7.602c0 2.475-.635 4.406-1.905 5.794s-3.038 2.082-5.304 2.082c-1.416 0-2.668-.32-3.755-.959-1.087-.639-1.923-1.557-2.508-2.753-.585-1.196-.877-2.584-.877-4.164 0-2.456.63-4.374 1.891-5.753 1.261-1.379 3.038-2.068 5.332-2.068 2.193 0 3.929.705 5.208 2.116 1.279 1.411 1.919 3.313 1.919 5.705zm-11.033 0c0 3.497 1.293 5.246 3.879 5.246 2.558 0 3.838-1.749 3.838-5.246 0-3.461-1.288-5.191-3.865-5.191-1.352 0-2.332.447-2.94 1.342-.608.895-.911 2.178-.911 3.849zm22.341-5.109h-3.701v12.711h-3.235v-12.711h-2.494v-1.507l2.494-.986v-.986c0-1.79.42-3.116 1.261-3.979s2.124-1.294 3.851-1.294c1.133 0 2.248.187 3.344.562l-.85 2.438c-.795-.256-1.553-.384-2.275-.384-.731 0-1.263.226-1.597.678-.334.452-.5 1.13-.5 2.034v.986h3.701v2.438zm-108.538 43.501l-2.001-5.561h-7.662l-1.96 5.561h-3.454l7.497-20.108h3.564l7.497 20.108h-3.481zm-2.865-8.383l-1.878-5.452c-.137-.365-.327-.941-.569-1.726-.242-.785-.409-1.361-.5-1.726-.247 1.123-.608 2.351-1.083 3.685l-1.809 5.219h5.839zm16.338-7.041c.649 0 1.183.046 1.604.137l-.315 3c-.457-.11-.932-.164-1.425-.164-1.288 0-2.332.42-3.132 1.26-.8.84-1.199 1.931-1.199 3.274v7.917h-3.221v-15.15h2.522l.425 2.671h.164c.503-.904 1.158-1.621 1.967-2.151.809-.53 1.679-.794 2.611-.794zm9.964 15.697c-2.293 0-4.036-.669-5.229-2.007-1.192-1.338-1.789-3.258-1.789-5.76 0-2.548.624-4.506 1.871-5.876 1.247-1.37 3.05-2.055 5.407-2.055 1.599 0 3.038.297 4.317.89l-.973 2.589c-1.361-.53-2.485-.794-3.372-.794-2.622 0-3.934 1.74-3.934 5.219 0 1.699.327 2.975.98 3.828.653.854 1.61 1.281 2.871 1.281 1.435 0 2.791-.356 4.071-1.068v2.808c-.576.338-1.19.58-1.843.726-.653.146-1.446.219-2.378.219zm21.121-.274h-3.235v-9.314c0-1.169-.235-2.041-.706-2.616-.471-.575-1.218-.863-2.241-.863-1.352 0-2.346.404-2.981 1.212-.635.808-.953 2.162-.953 4.061v7.52h-3.221v-21.313h3.221v5.411c0 .868-.055 1.794-.164 2.781h.206c.439-.731 1.049-1.297 1.83-1.698.781-.402 1.693-.603 2.734-.603 3.673 0 5.51 1.849 5.51 5.548v9.876zm7.703 0h-3.221v-15.15h3.221v15.15zm-3.413-19.163c0-.575.158-1.018.473-1.329.315-.31.765-.466 1.35-.466.567 0 1.007.155 1.323.466.315.31.473.753.473 1.329 0 .548-.158.979-.473 1.294-.315.315-.756.473-1.323.473-.585 0-1.035-.158-1.35-.473-.315-.315-.473-.747-.473-1.294zm13.665 16.834c.786 0 1.572-.123 2.357-.37v2.424c-.356.155-.816.285-1.377.39-.562.105-1.144.158-1.748.158-3.052 0-4.578-1.607-4.578-4.822v-8.164h-2.07v-1.425l2.22-1.178 1.096-3.205h1.987v3.37h4.317v2.438h-4.317v8.109c0 .776.194 1.349.583 1.719.388.37.898.555 1.528.555zm12.006 2.603c-2.357 0-4.201-.687-5.53-2.061-1.329-1.374-1.994-3.267-1.994-5.678 0-2.475.617-4.42 1.85-5.835 1.234-1.415 2.929-2.123 5.085-2.123 2.001 0 3.582.607 4.742 1.822 1.16 1.215 1.741 2.886 1.741 5.013v1.74h-10.101c.046 1.47.443 2.6 1.192 3.39.749.79 1.805 1.185 3.166 1.185.895 0 1.729-.084 2.501-.253.772-.169 1.601-.45 2.488-.842v2.616c-.786.374-1.581.639-2.385.794-.804.155-1.722.233-2.755.233zm-.589-13.259c-1.023 0-1.843.324-2.46.973-.617.648-.985 1.593-1.103 2.835h6.88c-.018-1.251-.32-2.198-.905-2.842-.585-.644-1.389-.966-2.412-.966zm16.255 13.259c-2.293 0-4.036-.669-5.229-2.007-1.192-1.338-1.789-3.258-1.789-5.76 0-2.548.624-4.506 1.871-5.876 1.247-1.37 3.05-2.055 5.407-2.055 1.599 0 3.038.297 4.317.89l-.973 2.589c-1.361-.53-2.485-.794-3.372-.794-2.622 0-3.934 1.74-3.934 5.219 0 1.699.327 2.975.98 3.828.653.854 1.61 1.281 2.871 1.281 1.435 0 2.791-.356 4.071-1.068v2.808c-.576.338-1.19.58-1.843.726-.653.146-1.446.219-2.378.219zm13.432-2.603c.786 0 1.572-.123 2.357-.37v2.424c-.356.155-.816.285-1.377.39-.562.105-1.144.158-1.748.158-3.052 0-4.578-1.607-4.578-4.822v-8.164h-2.07v-1.425l2.22-1.178 1.096-3.205h1.987v3.37h4.317v2.438h-4.317v8.109c0 .776.194 1.349.583 1.719.388.37.898.555 1.528.555zm16.077 2.329l-.452-1.986h-.164c-.448.703-1.085 1.256-1.912 1.657-.827.402-1.77.603-2.83.603-1.837 0-3.207-.457-4.112-1.37-.905-.913-1.357-2.297-1.357-4.15v-9.903h3.248v9.342c0 1.16.238 2.03.713 2.609.475.58 1.22.87 2.234.87 1.352 0 2.346-.404 2.981-1.212.635-.808.953-2.162.953-4.061v-7.547h3.235v15.15h-2.536zm14.816-15.423c.649 0 1.183.046 1.604.137l-.315 3c-.457-.11-.932-.164-1.425-.164-1.288 0-2.332.42-3.132 1.26-.8.84-1.199 1.931-1.199 3.274v7.917h-3.221v-15.15h2.522l.425 2.671h.164c.503-.904 1.158-1.621 1.967-2.151.809-.53 1.679-.794 2.611-.794zm10.471 15.697c-2.357 0-4.201-.687-5.53-2.061-1.329-1.374-1.994-3.267-1.994-5.678 0-2.475.617-4.42 1.85-5.835 1.234-1.415 2.929-2.123 5.085-2.123 2.001 0 3.582.607 4.742 1.822 1.16 1.215 1.741 2.886 1.741 5.013v1.74h-10.101c.046 1.47.443 2.6 1.192 3.39.749.79 1.805 1.185 3.166 1.185.895 0 1.729-.084 2.501-.253.772-.169 1.601-.45 2.488-.842v2.616c-.786.374-1.581.639-2.385.794-.804.155-1.722.233-2.755.233zm-.589-13.259c-1.023 0-1.843.324-2.46.973-.617.648-.985 1.593-1.103 2.835h6.88c-.018-1.251-.32-2.198-.905-2.842-.585-.644-1.389-.966-2.412-.966z"/></g></svg>