<svg width="535" height="177" viewBox="0 0 535 177" xmlns="http://www.w3.org/2000/svg"><title>SAUL</title><g fill="#626262" opacity=".65"><path d="M126.19 105.58c0 4.212-1.53 7.497-4.587 9.855-3.058 2.357-7.208 3.536-12.45 3.536-5.678 0-10.046-.73-13.104-2.193v-5.37c1.965.83 4.105 1.485 6.42 1.965 2.316.48 4.61.72 6.88.72 3.713 0 6.51-.704 8.387-2.112 1.878-1.407 2.817-3.366 2.817-5.876 0-1.66-.333-3.018-1-4.077-.665-1.058-1.78-2.035-3.34-2.93-1.562-.895-3.937-1.91-7.126-3.045-4.455-1.593-7.638-3.48-9.55-5.664-1.91-2.183-2.866-5.03-2.866-8.545 0-3.69 1.387-6.625 4.16-8.807 2.774-2.183 6.443-3.274 11.008-3.274 4.76 0 9.14.873 13.137 2.62l-1.736 4.844c-3.952-1.658-7.796-2.488-11.53-2.488-2.95 0-5.254.633-6.913 1.9-1.66 1.265-2.49 3.022-2.49 5.27 0 1.66.306 3.018.917 4.077.612 1.058 1.644 2.03 3.096 2.913 1.452.884 3.675 1.86 6.667 2.93 5.023 1.79 8.48 3.71 10.368 5.763 1.89 2.053 2.834 4.716 2.834 7.99zM-25.91-15.684L64.13 36.09H44.93l-5.897 15.226H33.4L52.335 3.253h4.685l18.838 48.063h-5.766zm-7.7-20.234l-5.568-14.83c-.72-1.878-1.464-4.18-2.228-6.91-.48 2.096-1.17 4.4-2.064 6.91l-5.635 14.83h15.496zM117.858 3.45V34.42c0 5.5-1.595 9.8-4.783 12.9-3.19 3.1-7.633 4.65-13.334 4.65-5.547 0-9.877-1.557-12.99-4.667-3.112-3.11-4.668-7.448-4.668-13.014V3.45h3.374V34.42c0 4.605 1.278 8.19 3.833 10.755 2.555 2.565 6.17 3.847 10.843 3.847 4.565 0 8.103-1.26 10.615-3.782 2.51-2.52 3.767-6.018 3.767-10.493V3.45h3.342zm13.04 47.866V3.45h3.34v44.723h22.834v3.143h-26.174z"/><path d="M286.15 82.773c0 1.78-.645 3.177-1.933 4.19-1.288 1.015-3.066 1.52-5.332 1.52s-4.12-.35-5.564-1.053v-3.096c.914.43 1.885.767 2.913 1.014 1.028.246 1.985.37 2.872.37 1.297 0 2.254-.247 2.87-.74.618-.493.926-1.155.926-1.986 0-.75-.282-1.384-.85-1.904-.565-.52-1.735-1.137-3.507-1.85-1.828-.74-3.116-1.584-3.865-2.533-.75-.95-1.124-2.092-1.124-3.425 0-1.67.594-2.986 1.78-3.945 1.19-.96 2.784-1.438 4.785-1.438 1.918 0 3.827.42 5.728 1.26l-1.042 2.67c-1.78-.748-3.37-1.122-4.77-1.122-1.06 0-1.863.23-2.412.692-.548.46-.822 1.07-.822 1.828 0 .52.11.966.33 1.336.218.37.58.72 1.082 1.05.502.328 1.407.76 2.714 1.3 1.47.612 2.55 1.183 3.234 1.712.685.53 1.188 1.128 1.508 1.795.32.666.48 1.452.48 2.356zm-86.35-61.29c-2.295 0-4.038-.667-5.23-2.005-1.193-1.338-1.79-3.258-1.79-5.76 0-2.548.625-4.507 1.872-5.876 1.247-1.37 3.05-2.055 5.407-2.055 1.598 0 3.037.297 4.316.89l-.973 2.59c-1.36-.53-2.485-.795-3.37-.795-2.624 0-3.935 1.74-3.935 5.22 0 1.697.327 2.973.98 3.827.653.853 1.61 1.28 2.87 1.28 1.436 0 2.793-.356 4.072-1.07v2.81c-.576.337-1.19.58-1.843.725-.654.146-1.446.22-2.378.22zm21.12-.272h-3.235v-9.314c0-1.17-.235-2.04-.706-2.616-.472-.575-1.22-.863-2.242-.863-1.352 0-2.346.404-2.98 1.212-.636.807-.954 2.16-.954 4.06v7.52h-3.22V-.102h3.22v5.41c0 .868-.054 1.795-.164 2.78h.206c.438-.73 1.048-1.295 1.83-1.697.78-.402 1.692-.603 2.734-.603 3.673 0 5.51 1.85 5.51 5.548v9.876zm17.927-7.602c0 2.475-.635 4.406-1.905 5.794s-3.038 2.082-5.304 2.082c-1.417 0-2.67-.32-3.756-.958-1.087-.64-1.923-1.557-2.508-2.754-.585-1.196-.877-2.584-.877-4.164 0-2.456.63-4.374 1.89-5.753 1.262-1.38 3.04-2.068 5.333-2.068 2.193 0 3.93.705 5.208 2.116 1.28 1.41 1.92 3.313 1.92 5.705zm-11.033 0c0 3.498 1.292 5.247 3.878 5.247 2.56 0 3.838-1.75 3.838-5.247 0-3.46-1.288-5.19-3.865-5.19-1.352 0-2.332.446-2.94 1.34-.608.896-.91 2.18-.91 3.85zm28.18 0c0 2.475-.636 4.406-1.906 5.794s-3.038 2.082-5.304 2.082c-1.417 0-2.668-.32-3.756-.958-1.087-.64-1.923-1.557-2.508-2.754-.585-1.196-.877-2.584-.877-4.164 0-2.456.63-4.374 1.89-5.753 1.262-1.38 3.04-2.068 5.333-2.068 2.193 0 3.93.705 5.208 2.116 1.28 1.41 1.92 3.313 1.92 5.705zm-11.034 0c0 3.498 1.293 5.247 3.88 5.247 2.557 0 3.836-1.75 3.836-5.247 0-3.46-1.288-5.19-3.865-5.19-1.35 0-2.33.446-2.94 1.34-.606.896-.91 2.18-.91 3.85zm17.955 7.603h-3.22V-.102h3.22V21.21zm25.342-7.602c0 2.475-.635 4.406-1.905 5.794s-3.038 2.082-5.304 2.082c-1.417 0-2.668-.32-3.756-.958-1.087-.64-1.923-1.557-2.508-2.754-.585-1.196-.877-2.584-.877-4.164 0-2.456.63-4.374 1.89-5.753 1.262-1.38 3.04-2.068 5.333-2.068 2.193 0 3.93.705 5.208 2.116 1.28 1.41 1.92 3.313 1.92 5.705zm-11.033 0c0 3.498 1.293 5.247 3.878 5.247 2.56 0 3.838-1.75 3.838-5.247 0-3.46-1.288-5.19-3.865-5.19-1.352 0-2.332.446-2.94 1.34-.608.896-.91 2.18-.91 3.85zm22.34-5.11h-3.7v12.713h-3.235V8.5h-2.495V6.99l2.494-.986V5.02c0-1.79.42-3.116 1.26-3.98.84-.862 2.125-1.294 3.85-1.294 1.135 0 2.25.188 3.346.562l-.85 2.438c-.795-.255-1.553-.383-2.275-.383-.73 0-1.262.226-1.596.678-.333.453-.5 1.13-.5 2.035v.986h3.7V8.5zM191.027 52l-2-5.56h-7.663l-1.96 5.56h-3.454l7.497-20.108h3.564L194.51 52h-3.48zm-2.865-8.383l-1.878-5.452c-.137-.365-.326-.94-.568-1.725-.243-.786-.41-1.36-.5-1.726-.247 1.123-.608 2.35-1.083 3.684l-1.81 5.22h5.84zm16.338-7.04c.648 0 1.183.045 1.603.137l-.315 3c-.457-.11-.932-.165-1.425-.165-1.29 0-2.333.42-3.132 1.26-.8.84-1.198 1.93-1.198 3.273V52h-3.22V36.85h2.52l.425 2.672h.165c.502-.905 1.158-1.62 1.967-2.15.807-.53 1.678-.795 2.61-.795zm9.964 15.697c-2.294 0-4.036-.67-5.23-2.007-1.19-1.338-1.788-3.257-1.788-5.76 0-2.547.624-4.506 1.87-5.876 1.25-1.37 3.05-2.053 5.408-2.053 1.6 0 3.038.296 4.318.89l-.973 2.59c-1.363-.53-2.487-.796-3.373-.796-2.623 0-3.934 1.74-3.934 5.22 0 1.7.327 2.975.98 3.83.654.852 1.61 1.28 2.872 1.28 1.434 0 2.79-.357 4.07-1.07v2.81c-.575.337-1.19.58-1.843.725-.653.146-1.446.22-2.378.22zm21.12-.274h-3.234v-9.314c0-1.17-.235-2.04-.706-2.617-.47-.576-1.217-.864-2.24-.864-1.353 0-2.347.405-2.982 1.213-.635.807-.952 2.16-.952 4.06V52h-3.22V30.687h3.22v5.41c0 .868-.055 1.794-.165 2.78h.206c.44-.73 1.05-1.296 1.83-1.698.782-.403 1.693-.603 2.735-.603 3.673 0 5.51 1.85 5.51 5.547V52zm7.704 0h-3.22V36.85h3.22V52zm-3.413-19.163c0-.575.157-1.018.473-1.33.315-.31.765-.464 1.35-.464.566 0 1.007.155 1.322.465.316.31.473.754.473 1.33 0 .547-.157.978-.473 1.294-.315.315-.756.472-1.322.472-.585 0-1.035-.157-1.35-.472-.316-.316-.473-.747-.473-1.295zM253.54 49.67c.786 0 1.57-.122 2.357-.368v2.424c-.356.155-.815.285-1.377.39-.562.105-1.145.158-1.748.158-3.052 0-4.578-1.607-4.578-4.822V39.29h-2.07v-1.426l2.22-1.178 1.098-3.205h1.987v3.37h4.316v2.44h-4.317v8.108c0 .776.193 1.35.58 1.72.39.368.9.553 1.53.553zm12.006 2.604c-2.357 0-4.2-.687-5.53-2.062-1.33-1.374-1.994-3.266-1.994-5.677 0-2.475.616-4.42 1.85-5.835 1.233-1.416 2.928-2.123 5.085-2.123 2 0 3.582.607 4.742 1.82 1.16 1.216 1.74 2.887 1.74 5.015v1.74h-10.102c.046 1.47.444 2.6 1.193 3.39.75.79 1.805 1.184 3.167 1.184.895 0 1.73-.084 2.5-.253.773-.17 1.603-.45 2.49-.843v2.617c-.787.374-1.582.64-2.386.794-.803.156-1.72.234-2.754.234zm-.59-13.26c-1.023 0-1.843.325-2.46.973-.616.65-.984 1.594-1.103 2.836h6.88c-.018-1.25-.32-2.2-.904-2.843-.586-.643-1.39-.965-2.413-.965zm16.256 13.26c-2.293 0-4.036-.67-5.23-2.007-1.19-1.338-1.787-3.257-1.787-5.76 0-2.547.623-4.506 1.87-5.876 1.248-1.37 3.05-2.053 5.407-2.053 1.6 0 3.04.296 4.318.89l-.973 2.59c-1.362-.53-2.486-.796-3.372-.796-2.622 0-3.934 1.74-3.934 5.22 0 1.7.328 2.975.98 3.83.655.852 1.612 1.28 2.873 1.28 1.434 0 2.79-.357 4.07-1.07v2.81c-.575.337-1.19.58-1.843.725-.653.146-1.446.22-2.378.22zm13.432-2.603c.786 0 1.572-.122 2.357-.368v2.424c-.355.155-.814.285-1.376.39-.562.105-1.145.158-1.748.158-3.05 0-4.577-1.607-4.577-4.822V39.29h-2.07v-1.426l2.22-1.178 1.096-3.205h1.987v3.37h4.318v2.44h-4.317v8.108c0 .776.194 1.35.583 1.72.388.368.897.553 1.528.553zM310.72 52l-.45-1.986h-.166c-.447.703-1.085 1.255-1.912 1.657-.827.403-1.77.604-2.83.604-1.837 0-3.207-.457-4.112-1.37-.904-.913-1.357-2.296-1.357-4.15V36.85h3.25v9.342c0 1.16.236 2.03.71 2.61.477.58 1.22.87 2.235.87 1.353 0 2.346-.405 2.98-1.213.637-.81.954-2.163.954-4.062V36.85h3.235V52h-2.536zm14.817-15.423c.65 0 1.184.045 1.604.137l-.314 3c-.457-.11-.932-.165-1.426-.165-1.288 0-2.332.42-3.132 1.26-.8.84-1.2 1.93-1.2 3.273V52h-3.22V36.85h2.522l.425 2.672h.164c.502-.905 1.158-1.62 1.966-2.15.81-.53 1.68-.795 2.61-.795zm10.472 15.697c-2.36 0-4.202-.687-5.532-2.062-1.33-1.374-1.994-3.266-1.994-5.677 0-2.475.617-4.42 1.85-5.835 1.234-1.416 2.93-2.123 5.085-2.123 2 0 3.58.607 4.742 1.82 1.16 1.216 1.74 2.887 1.74 5.015v1.74h-10.1c.045 1.47.442 2.6 1.19 3.39.75.79 1.806 1.184 3.167 1.184.895 0 1.73-.084 2.5-.253.773-.17 1.602-.45 2.488-.843v2.617c-.785.374-1.58.64-2.384.794-.805.156-1.723.234-2.755.234zm-.59-13.26c-1.024 0-1.844.325-2.46.973-.618.65-.986 1.594-1.104 2.836h6.88c-.018-1.25-.32-2.2-.904-2.843-.585-.643-1.39-.965-2.413-.965z"/></g></svg>