<svg width="535" height="177" viewBox="0 0 535 177" xmlns="http://www.w3.org/2000/svg" xmlns:sketch="http://www.bohemiancoding.com/sketch/ns"><title>UL</title><g sketch:type="MSLayerGroup" fill="#A19F9E"><path d="M161 74.902v-.655c0-.211-.127-.247-.287-.247-1.145 0-2.1.175-4.078.175-1.305 0-2.195-.175-3.182-.175-.158 0-.287.139-.287.314v.691c0 .241.222.38.477.38 1.847 0 2.484.313 2.484 2.528v11.529c0 5.127-2.706 6.996-7.229 6.996-3.471 0-5.7-1.455-5.7-5.612v-12.981c0-2.114.668-2.461 2.545-2.461.287 0 .447-.034.447-.277v-.794c0-.245-.063-.314-.287-.314-1.465 0-2.421.175-3.979.175-1.531 0-4.048-.175-5.512-.175-.255 0-.413.105-.413.35v.794c0 .207.223.241.384.241 1.78 0 2.577.105 2.577 2.045v13.538c0 6.437 4.365 8.031 9.651 8.031 2.452 0 5.096-.9 6.975-2.628 2.195-2.045 2.452-4.607 2.452-7.619v-10.251c0-2.284.128-3.116 2.514-3.116.417 0 .447-.07.447-.484" sketch:type="MSShapeGroup"/><path d="M182.686 79c-.703 0-1.384.135-2.481.135-.861 0-2.061-.135-3.391-.135-.236 0-.392.054-.392.304v.469c0 .28.262.332.496.332 1.827 0 1.958.638 1.958 2.411v8.534c0 .636-.051 1.908-.131 1.908-.078 0-.184-.137-.34-.358l-5.61-6.898c-.966-1.165-1.88-2.325-2.793-3.49l-2.036-2.578c-.156-.193-.312-.634-.652-.634l-3.315.135c-.888 0-1.776-.135-2.715-.135-.207 0-.285.135-.285.272v.587c0 .137.101.246.259.246 2.637 0 2.977.251 2.977 4.766v9.698c0 2.77-.89 2.879-2.428 2.879-.184 0-.262.139-.262.306v.471c0 .218.105.33.471.33 1.224 0 2.452-.139 3.445-.139.966 0 1.407.139 2.505.139.287 0 .392-.054.392-.248v-.608c0-.251-.211-.251-.471-.251-1.589 0-2.087-.167-2.087-3.104v-10.024c0-.169-.051-1.248.129-1.248.156 0 .369.306.705.717l10.571 13.025c.418.499.81.996 1.566 1.826.39.334.494.36 1.433.36.238 0 .264-.053.264-.221 0-.888-.027-2.55-.027-4.654v-10.61c-.053-2.798.338-3.351 1.641-3.41.707 0 .916-.083.916-.276v-.557c0-.246-.131-.272-.314-.272" sketch:type="MSShapeGroup"/><path d="M191.67 99c.203 0 .33-.056.33-.313v-.562c0-.171-.075-.257-.279-.257-1.257 0-2.087-.2-2.087-1.783v-14.254c0-1.276.654-1.7 1.812-1.7.275 0 .502-.029.502-.169v-.791c0-.144-.125-.171-.326-.171-.628 0-2.115.138-3.822.138-1.739 0-3.199-.138-3.549-.138-.176 0-.2.111-.2.278v.656c0 .142.174.196.376.196 1.206 0 1.862.169 1.862 1.7v14.254c0 1.53-.757 1.783-1.937 1.783-.251 0-.352.086-.352.226v.739c0 .111.101.167.176.167l3.947-.142 3.547.142" sketch:type="MSShapeGroup"/><path d="M211.773 79l-2.176.135c-1.898 0-2.53-.135-3.161-.135-.205 0-.356.081-.356.272v.557c0 .137.05.276.203.276 1.214 0 2.022.028 2.022.942 0 .638-.3 1.526-.529 2.162l-3.341 9.418c-.101.306-.354.968-.453.968-.125 0-.177-.111-.356-.58l-3.236-8.808c-.811-2.302-1.087-2.939-1.087-3.381 0-.692.936-.721 1.869-.721.205 0 .254-.109.254-.276v-.497c0-.223-.076-.332-.278-.332-1.922 0-3.061.135-4.428.135-1.29 0-2.431-.135-3.417-.135-.225 0-.302.081-.302.272v.529c0 .165.077.304.302.304 1.292 0 1.747.251 2.379 1.415.684 1.244 5.643 15.403 6.478 17.228.127.251.076.199.584.251h.479c.276 0 .328 0 .455-.36 2.022-5.568 4.073-11.163 6.172-16.705.28-.722.558-1.83 1.799-1.83.278 0 .352-.109.352-.358v-.387c0-.193-.022-.36-.227-.36" sketch:type="MSShapeGroup"/><path d="M227.078 94.553c-.125 0-.225.056-.451.424l-.773 1.33c-.525.912-.722 1.422-1.847 1.422h-3.42c-1.671 0-1.971-.714-1.971-2.27v-6.514h2.396c1.049 0 1.773-.029 2.047.762.198.597.198 1.19.198 1.643 0 .173.075.228.225.228h.574c.124 0 .2-.171.2-.424l-.027-2.551.027-3.146c0-.113-.053-.2-.276-.2h-.422c-.127 0-.176.059-.202.2-.375 2.326-1.198 2.211-3.043 2.211h-1.698v-4.957c0-2.297.3-2.437 1.647-2.437h2.372c1.643 0 2.296.34 2.447 2.52.024.428.049.566.169.566h.502c.2 0 .324-.111.324-.311l-.022-1.812.022-1.898c0-.144 0-.34-.224-.34l-8.037.138c-1.271-.027-3.245-.138-4.241-.138-.251 0-.476 0-.476.278v.57c0 .282.176.282.425.282.774 0 1.773 0 1.773 1.474v14.05c0 1.873-.725 2.157-1.449 2.213-.7.058-.849.111-.849.399v.509c0 .169.124.225.2.225l4.467-.142 9.237.142c.398-1.416.722-2.491 1.024-3.597.049-.142.073-.284.073-.426 0-.311-.722-.424-.922-.424" sketch:type="MSShapeGroup"/><path d="M249.841 97.868c-1.42 0-2.24-.819-2.95-2.069l-2.662-4.589c-.683-1.19-1.503-2.466-2.583-3.288 2.163-.395 4.218-1.643 4.218-4.136 0-3.767-3.585-4.786-5.272-4.786-2.211.056-1.29 0-4.241.138-2.002 0-3.925-.138-5.113-.138-.132 0-.184.083-.184.251v.683c0 .111.052.196.157.196h.846c1.211 0 1.447.795 1.447 3.656v10.938c0 2.635-.209 3.005-2.186 3.144-.265.029-.319.257-.319.399v.535c0 .173.054.198.345.198.921 0 3.343-.142 4.453-.142l3.161.142c.157 0 .29-.025.29-.225v-.681c0-.14-.052-.226-.211-.226-1.184 0-2.031-.451-2.031-2.833v-6.09c1.979 0 2.215.453 2.929 1.698l3.449 6.46c.766 1.418 1.002 1.896 1.583 1.896.526 0 1.213-.142 1.869-.142 1.054 0 2.111.117 3.163.142v-.963c0-.083-.052-.14-.159-.169zm-11.793-10.868c-.339 0-.707 0-1.048-.027v-4.774c0-1.208.08-2.198 1.728-2.198 2.252 0 3.272 1.53 3.272 3.539 0 2.362-1.78 3.461-3.952 3.461z" sketch:type="MSShapeGroup"/><path d="M251.887 82.383c0-2.08 1.457-3.103 3.233-3.103 2.146 0 3.206 1.534 3.551 3.815h1.191v-3.531c-.452-.709-2.808-1.563-4.504-1.563-3.418 0-6.253 2.107-6.253 6.031 0 6.661 9.115 5.464 9.115 10.418 0 2.134-1.721 3.271-3.867 3.271-2.677 0-3.63-1.964-4.294-3.728h-1.058c.131 1.28.289 2.558.396 3.84 1.536.854 3.231 1.168 4.929 1.168 3.499 0 6.675-2.22 6.675-6.232 0-6.972-9.113-5.522-9.113-10.385" sketch:type="MSShapeGroup"/><path d="M271 98.687v-.562c0-.171-.075-.257-.279-.257-1.257 0-2.085-.2-2.085-1.783v-14.254c0-1.276.65-1.7 1.809-1.7.277 0 .502-.029.502-.169v-.791c0-.144-.125-.171-.324-.171-.63 0-2.115.138-3.824.138-1.737 0-3.194-.138-3.549-.138-.174 0-.2.111-.2.278v.656c0 .142.176.196.377.196 1.208 0 1.862.169 1.862 1.7v14.254c0 1.53-.755 1.783-1.937 1.783-.253 0-.352.086-.352.226v.739c0 .111.099.167.174.167l3.951-.142 3.547.142c.2 0 .328-.056.328-.313" sketch:type="MSShapeGroup"/><path d="M308.796 79c-.412 0-1.289.138-2.778.138-1.006 0-1.879-.138-2.471-.138-.178 0-.229.138-.229.311v.453c0 .198.077.367.307.367.822 0 1.647.029 1.647.512 0 .397-.362 1.163-.925 2.096l-2.935 4.988-3.392-5.5c-.515-.791-.847-1.416-.847-1.672 0-.365.716-.424 1.72-.424.234 0 .335-.054.335-.282v-.653c0-.14-.101-.196-.388-.196-.691 0-1.825.138-3.111.138-1.695 0-2.93-.138-4.344-.138-.283 0-.384.138-.384.278v.486c0 .225.126.367.332.367 1.234 0 1.826.819 2.701 2.238l4.219 6.972c.18.311.204.566.204.764v6.092c0 1.672-1.493 1.672-2.111 1.672-.154 0-.279.058-.279.284v.624c0 .169.105.225.257.225 1.182 0 2.237-.142 3.675-.142 1.57 0 2.806.142 4.089.142.155 0 .26-.056.26-.253v-.539c0-.198-.052-.34-.208-.34-.82 0-2.261-.171-2.261-1.585v-6.431c0-.257.154-.511.538-1.161l2.596-4.479c.363-.593.721-1.192 1.081-1.756.644-.992 1.517-2.324 2.549-2.324.257 0 .358-.084.358-.282v-.57c0-.251-.077-.278-.204-.278" sketch:type="MSShapeGroup"/><path d="M375.657 95.39c.172-.709.343-1.59.343-1.769 0-.248-.964-.426-1.204-.426-.174 0-.309.104-.447.352-1.997 3.683-2.34 3.861-6.576 3.861-3.48 0-3.957-.884-3.957-3.081v-16.713c0-1.843 1.271-2.197 2.89-2.197.309 0 .344-.212.344-.389v-.745c0-.175-.069-.283-.241-.283-1.481 0-2.993.179-4.509.179-3.339 0-5.338-.179-5.887-.179-.311 0-.414.142-.414.358v.739c0 .214.103.32.343.32 2.138 0 2.896.922 2.896 3.685v14.872c0 2.975-.518 3.61-2.86 3.61-.275 0-.378.142-.378.389v.78c0 .177.139.246.277.246 2.649 0 6.987-.177 9.262-.177 2.235 0 6.091.177 9.19.177.275-1.13.618-2.334.928-3.61" sketch:type="MSShapeGroup"/><path d="M385.688 97.868c-1.417 0-2.352-.2-2.352-1.783v-14.254c0-1.276.736-1.7 2.04-1.7.312 0 .567-.029.567-.169v-.791c0-.144-.142-.171-.37-.171-.707 0-2.377.138-4.302.138-1.951 0-3.594-.138-3.987-.138-.199 0-.228.111-.228.278v.656c0 .142.197.196.426.196 1.357 0 2.093.169 2.093 1.7v14.254c0 1.53-.849 1.783-2.18 1.783-.284 0-.395.086-.395.226v.739c0 .111.111.167.197.167l4.445-.142 3.989.142c.226 0 .368-.056.368-.313v-.562c0-.171-.086-.257-.312-.257" sketch:type="MSShapeGroup"/><path d="M413 98.336v-.61c0-.169-.138-.25-.39-.278-.335-.028-.896-.109-1.26-.248-.868-.362-.953-1.664-.953-3.907v-11.608c0-1.135.142-1.58 1.764-1.58.337 0 .557-.028.557-.246v-.64c0-.193-.193-.22-.528-.22-.727 0-1.959.135-2.936.135l-3.163-.135c-.136.413-.278.914-.474 1.357-1.733 3.877-3.298 7.866-5.033 11.745l-5.899-13.102c-1.233.054-2.519.135-3.245.135-.474 0-2.771-.135-3.107-.135-.138 0-.169.026-.169.272v.475c0 .25.03.358.169.358 1.764 0 2.743.415 2.743 2.383l-.028 1.413-.282 7.424c-.081 1.58-.222 3.132-.305 4.71-.057 1.135-.278 1.218-1.54 1.359l-.64.054c-.225.028-.28.109-.28.251v.662c0 .169.165.193.502.193l2.908-.139c1.065 0 2.072.139 2.798.139.311 0 .477-.054.477-.22v-.555c0-.193-.057-.304-.225-.332-1.565-.221-2.574-.441-2.574-2.186 0-1.246.083-2.466.142-3.712l.447-8.478h.057c2.205 5.209 4.755 10.276 6.459 15.707.057.137.14.221.449.221.11 0 .362 0 .417-.195 1.928-5.733 4.027-11.467 6.795-16.87h.055c.114 1.83.114 3.488.114 12.578 0 2.52-.14 2.935-2.599 2.935-.142 0-.169.109-.169.306v.471c0 .218 0 .33.362.33 1.51 0 2.099-.139 4.559-.139 1.258 0 2.432.139 3.525.139.278 0 .502 0 .502-.22" sketch:type="MSShapeGroup"/><path d="M430.914 95.403c.056-.142.086-.284.086-.426 0-.311-.822-.424-1.048-.424-.144 0-.255.056-.51.424l-.879 1.33c-.592.912-.818 1.422-2.092 1.422h-3.872c-1.895 0-2.234-.714-2.234-2.27v-6.514h2.716c1.186 0 2.006-.029 2.316.762.228.597.228 1.19.228 1.643 0 .173.082.228.255.228h.649c.14 0 .226-.171.226-.424l-.031-2.551.031-3.146c0-.113-.057-.2-.31-.2h-.483c-.142 0-.199.059-.226.2-.425 2.326-1.358 2.211-3.448 2.211h-1.923v-4.957c0-2.297.339-2.437 1.864-2.437h2.686c1.868 0 2.603.34 2.772 2.52.031.428.057.566.199.566h.563c.23 0 .37-.111.37-.311l-.029-1.812.029-1.898c0-.144 0-.34-.257-.34l-9.103.138c-1.444-.027-3.678-.138-4.808-.138-.284 0-.538 0-.538.278v.57c0 .282.199.282.483.282.875 0 2.01 0 2.01 1.474v14.05c0 1.873-.824 2.157-1.642 2.213-.793.058-.964.111-.964.399v.509c0 .169.144.225.226.225l5.061-.142 10.466.142c.45-1.416.82-2.491 1.161-3.597" sketch:type="MSShapeGroup"/><path d="M451.05 99.002v-.002l-.05.002h.05" sketch:type="MSShapeGroup"/><path d="M451.786 98.833v-.739c0-.106.062-.18.214-.211l-.042-.015c-1.509 0-2.373-.819-3.127-2.069l-2.821-4.589c-.722-1.19-1.59-2.466-2.732-3.288 2.288-.395 4.464-1.643 4.464-4.136 0-3.767-3.797-4.786-5.583-4.786-2.344.056-1.365 0-4.494.138-2.119 0-4.158-.138-5.413-.138-.14 0-.197.083-.197.251v.683c0 .111.057.196.168.196h.894c1.284 0 1.533.795 1.533 3.656v10.938c0 2.635-.223 3.005-2.314 3.144-.282.029-.337.257-.337.399v.535c0 .173.055.198.361.198.979 0 3.545-.142 4.719-.142l3.35.142c.166 0 .306-.025.306-.225v-.681c0-.14-.055-.226-.223-.226-1.257 0-2.15-.451-2.15-2.833v-6.09c2.095 0 2.343.453 3.101 1.698l3.655 6.46c.809 1.418 1.061 1.896 1.673 1.896.562 0 1.286-.142 1.981-.142 1.055 0 2.106.1 3.159.136-.07-.015-.147-.067-.147-.161zm-12.738-11.833c-.339 0-.706 0-1.048-.027v-4.774c0-1.208.078-2.198 1.729-2.198 2.248 0 3.271 1.53 3.271 3.539 0 2.362-1.78 3.461-3.952 3.461z" sketch:type="MSShapeGroup"/><path d="M459.689 97.868c-1.424 0-2.366-.2-2.366-1.783v-14.254c0-1.276.741-1.7 2.049-1.7.316 0 .573-.029.573-.169v-.791c0-.144-.145-.171-.374-.171-.712 0-2.393.138-4.328.138-1.964 0-3.618-.138-4.016-.138-.199 0-.228.111-.228.278v.656c0 .142.199.196.428.196 1.364 0 2.107.169 2.107 1.7v14.254c0 1.53-.857 1.783-2.194 1.783l-.181.015c.083.031.127.083.127.154v.962c1.436-.008 2.895-.14 4.328-.14l4.016.142c.23 0 .369-.056.369-.313v-.562c0-.171-.085-.257-.311-.257" sketch:type="MSShapeGroup"/><path d="M451.05 99.006h.102l-.152-.006.05.006" sketch:type="MSShapeGroup"/><path d="M451.226 98c-.16.032-.226.11-.226.22v.77c0 .098.082.152.156.168l.152.006.05-.002v-1.002c0-.074-.046-.128-.132-.16" sketch:type="MSShapeGroup"/><path d="M478.938 93.027c-.215 0-.352.567-.435.736-1.304 2.847-2.607 3.813-5.708 3.813-4.758 0-7.719-4.582-7.719-9.219 0-4.666 2.635-8.934 7.446-8.934 3.239 0 4.377 1.964 5.846 4.609l.843-.226c.136-.029.164-.087.164-.173 0-.197-.302-2.446-.462-3.637-.028-.145-.245-.316-.545-.488-1.766-1.023-4.053-1.507-6.036-1.507-5.489 0-11.333 3.87-11.333 10.131 0 7.114 5.082 10.869 11.497 10.869 2.309 0 4.43-.482 6.553-1.451l.816-3.358c.079-.31.134-.598.134-.684 0-.254-.843-.48-1.062-.48" sketch:type="MSShapeGroup"/><path d="M500.75 97.868c-1.08 0-1.858-.397-2.664-1.7-1.137-1.842-2.356-3.625-3.493-5.437l-3.218-5.101 4.494-4.819c.611-.62 1.471-.679 2.521-.679.25 0 .308-.111.308-.282v-.597c0-.196-.141-.251-.391-.251-.859 0-2.412.138-3.853.138-1.274 0-2.166-.138-2.69-.138-.167 0-.304.056-.304.278v.541c0 .2.054.311.25.311 1.249.059 1.941.029 1.941.708 0 1.247-5.326 6.149-6.463 7.197v-5.894c0-1.842.554-2.011 2.023-2.011.278 0 .415-.054.415-.251v-.601c0-.196-.083-.278-.302-.278-1.249 0-2.634.138-3.994.138-1.11 0-2.689-.138-3.938-.138-.225 0-.361.056-.361.278v.512c0 .228.054.34.276.34 1.58 0 2.191.144 2.191 2.351v13.575c0 1.585-.748 1.812-2.082 1.812-.331 0-.415.142-.415.284v.535c0 .146.085.313.306.313.86 0 1.913-.142 3.716-.142 1.332 0 2.634.142 4.271.142.225 0 .31-.025.31-.167v-.708c0-.228-.115-.257-.252-.257-1.195 0-2.164-.029-2.164-1.812v-6.462l1.415-1.075 4.744 7.621c.248.368.554.85.554 1.219 0 .397-.695.48-1.86.509-.165 0-.222.142-.222.257v.593c0 .226.113.282.304.282.808 0 1.802-.142 3.498-.142 1.636 0 3.38.142 5.157.142.141 0 .222-.115.222-.253v-.595c0-.142-.028-.284-.25-.284" sketch:type="MSShapeGroup"/><path d="M332 87.283c0-3.349-2.692-5.283-4.951-5.283-4.08 0-8.049 3.54-8.049 7.633 0 2.96 2.066 5.367 4.786 5.367 3.317 0 8.214-2.962 8.214-7.717zm-4.841 6.335c-.331.367-1.185 1.382-2.841 1.382-1.93 0-2.318-1.86-2.318-3.042 0-3.238 2.014-8.958 5.6-8.958 1.93 0 2.4 1.749 2.4 3.099 0 2.054-.991 5.294-2.841 7.519z" sketch:type="MSShapeGroup"/><path d="M344.73 79.594c.606 0 1.27-.467 1.27-1.205 0-.868-.94-1.389-2.044-1.389-1.746 0-3.459 1.009-4.505 1.994-1.249 1.118-1.72 2.455-2.132 3.629h-2.019c-.334 0-.471.655-.471.655 0 .109.029.247.193.247h2.019c-1.657 5.433-2.074 6.96-3.676 12.859-.36 1.337-1.024 3.797-2.13 3.797-.469 0-.665-.548-.749-.821-.189-.546-.412-1.173-1.298-1.173-.719 0-1.188.518-1.188 1.148 0 .87.993 1.664 2.351 1.664 1.272 0 2.378-.548 3.289-1.256 1.769-1.393 2.101-2.297 5.033-12.699l.997-3.52h2.654c.303 0 .442-.516.442-.655 0-.107-.029-.247-.193-.247h-2.629c.387-1.446 1.274-4.669 2.519-4.669.303 0 .469.273.662.601.582.956 1.413 1.039 1.605 1.039" sketch:type="MSShapeGroup"/><path d="M285.349 97.879c-1.429 0-2.132-.559-2.132-2.63l.011-14.619h3.16c1.533 0 2.105 1.822 2.575 2.604.078.14.155.197.284.197.649 0 .753-.083.753-.449 0-.224-.519-3.358-.649-4.786 0-.142-.078-.195-.182-.195h-.858c-.284.645-.831 1.231-1.768 1.231h-10.083c-.939 0-1.482-.586-1.77-1.231h-.858c-.104 0-.182.053-.182.195-.129 1.428-.651 4.563-.651 4.786 0 .366.106.449.755.449.129 0 .206-.057.288-.197.466-.781 1.037-2.604 2.569-2.604h3.146v14.786c0 2.016-.337 2.463-2.258 2.463-.182 0-.237.138-.237.364v.533c0 .197.184.224.468.224.757 0 1.611-.14 3.197-.14 1.405 0 3.82.14 4.447.14.204 0 .337-.027.337-.197v-.671c0-.167-.133-.252-.363-.252" sketch:type="MSShapeGroup"/><path d="M144.362 122c-1.191 0-2.244.432-3.096 1.349-.79.842-1.266 1.982-1.266 3.192 0 1.253.514 2.558 1.429 3.345.826.719 2.118 1.115 3.159 1.115 2.343 0 4.413-1.844 4.413-4.511 0-2.808-2.255-4.489-4.638-4.489zm.379 8c-.99 0-1.704-.798-2.133-1.632-.418-.838-.607-1.8-.607-2.735 0-1.399.54-3.633 2.259-3.633 1.99 0 2.741 2.715 2.741 4.347 0 1.401-.522 3.653-2.259 3.653z" sketch:type="MSShapeGroup"/><path d="M165.754 128.899c-.518 0-.544 1.557-2.422 1.557-.931 0-1.034-.497-1.034-1.174v-4.538c0-.853-.065-1.104.816-1.245.155-.028.359-.053.359-.253 0-.205-.142-.246-.319-.246l-1.853.053-1.993-.053c-.183 0-.309.04-.309.246 0 .213.259.226.414.253.827.141.751.468.751 1.245v4.538c0 .831.041 1.034-.816 1.174-.155.024-.348.114-.348.319 0 .189.127.215.309.215l3.055-.051 2.951.051c.311 0 .453.092.479-.266.039-.512.207-1.033.207-1.53 0-.182-.041-.295-.246-.295" sketch:type="MSShapeGroup"/><path d="M180.754 128.899c-.516 0-.544 1.557-2.421 1.557-.929 0-1.032-.497-1.032-1.174v-4.538c0-.853-.067-1.104.814-1.245.155-.028.359-.053.359-.253 0-.205-.142-.246-.318-.246l-1.853.053-1.993-.053c-.182 0-.311.04-.311.246 0 .213.261.226.417.253.825.141.749.468.749 1.245v4.538c0 .831.039 1.034-.814 1.174-.156.024-.352.114-.352.319 0 .189.128.215.311.215l3.054-.051 2.952.051c.307 0 .451.092.477-.266.039-.512.207-1.033.207-1.53 0-.182-.039-.295-.246-.295" sketch:type="MSShapeGroup"/><path d="M193.677 125.238l-.662-.24c-.555-.188-1.192-.465-1.192-1.19 0-.802.791-1.244 1.467-1.244.856 0 1.246.731 1.491 1.501.05.178.129.372.351.372.288 0 .26-.305.26-.521v-.935c0-.265.039-.481-.206-.624-.406-.22-1.237-.358-1.691-.358-1.491 0-3.375.964-3.375 2.782 0 1.372 1.26 1.994 2.286 2.446.805.345 1.934.677 1.934 1.792 0 .988-.947 1.457-1.766 1.457-.478 0-.985-.125-1.347-.495-.314-.331-.404-.701-.523-1.141-.065-.238-.129-.648-.441-.648-.31 0-.26.519-.26.743v.756c0 .453-.037.632.377.851.559.289 1.57.455 2.194.455.871 0 1.716-.234 2.39-.828.609-.549 1.035-1.331 1.035-2.196 0-1.6-1.02-2.303-2.323-2.739" sketch:type="MSShapeGroup"/><path d="M212.736 128.386c-.168 0-.259.139-.325.289-.231.465-.465.921-.854 1.265-.388.331-.854.525-1.362.525-.933 0-1.713-.564-2.205-1.376-.451-.758-.644-1.75-.644-2.644 0-.909.205-1.913.711-2.669.492-.729 1.282-1.24 2.138-1.24 1.752 0 1.789 1.64 2.384 1.64.142 0 .246-.085.246-.234 0-.135-.024-.261-.05-.4l-.104-.701c-.063-.388-.063-.44-.416-.55-.595-.176-1.334-.291-1.942-.291-1.242 0-2.63.372-3.641 1.158-1.026.814-1.671 2.05-1.671 3.408 0 1.325.659 2.634 1.643 3.416.935.741 2.27 1.018 3.41 1.018.841 0 1.761-.166 2.489-.634.401-.246.39-.426.416-.881l.035-.576c.015-.206.028-.523-.257-.523" sketch:type="MSShapeGroup"/><path d="M227.359 122c-1.191 0-2.241.432-3.094 1.349-.788.842-1.265 1.982-1.265 3.192 0 1.253.514 2.558 1.427 3.345.828.719 2.118 1.115 3.161 1.115 2.344 0 4.412-1.844 4.412-4.511 0-2.808-2.257-4.489-4.641-4.489zm.381 8c-.993 0-1.709-.798-2.136-1.632-.414-.838-.604-1.8-.604-2.735 0-1.399.538-3.633 2.256-3.633 1.993 0 2.744 2.715 2.744 4.347 0 1.401-.524 3.653-2.26 3.653z" sketch:type="MSShapeGroup"/><path d="M245.597 123.5c.173-.028.403-.053.403-.253 0-.206-.158-.246-.36-.246l-2.065.053-2.225-.053c-.204 0-.349.04-.349.246 0 .213.293.226.464.253.926.141.838.468.838 1.247v4.531c0 .83.044 1.049-.911 1.188-.173.024-.391.088-.391.296 0 .187.146.239.349.239l2.078-.051 2.225.051c.189 0 .347-.051.347-.239 0-.233-.272-.272-.462-.296-.911-.129-.853-.435-.853-1.188v-4.531c0-.854-.073-1.106.911-1.247" sketch:type="MSShapeGroup"/><path d="M260.754 128.899c-.519 0-.544 1.557-2.42 1.557-.931 0-1.037-.497-1.037-1.174v-4.538c0-.853-.061-1.104.817-1.245.155-.028.363-.053.363-.253 0-.205-.143-.246-.326-.246l-1.851.053-1.99-.053c-.181 0-.311.04-.311.246 0 .213.261.226.413.253.83.141.752.468.752 1.245v4.538c0 .831.037 1.034-.815 1.174-.156.024-.35.114-.35.319 0 .189.13.215.311.215l3.051-.051 2.949.051c.311 0 .454.092.48-.266.041-.512.209-1.033.209-1.53 0-.182-.041-.295-.246-.295" sketch:type="MSShapeGroup"/><path d="M288.752 128.899c-.516 0-.542 1.557-2.417 1.557-.931 0-1.034-.497-1.034-1.174v-4.538c0-.853-.065-1.104.814-1.245.153-.028.363-.053.363-.253 0-.205-.143-.246-.326-.246l-1.849.053-1.993-.053c-.181 0-.311.04-.311.246 0 .213.261.226.417.253.825.141.745.468.745 1.245v4.538c0 .831.043 1.034-.812 1.174-.155.024-.35.114-.35.319 0 .189.13.215.311.215l3.052-.051 2.95.051c.313 0 .453.092.48-.266.039-.512.207-1.033.207-1.53 0-.182-.037-.295-.248-.295" sketch:type="MSShapeGroup"/><path d="M306.713 123l-1.117.027-1.131-.027c-.188 0-.426 0-.426.254 0 .285.287.209.491.236.275.036.524.097.665.363.123.265.11.727.11 1.002v3.183c0 .617.027 1.207-.385 1.718-.417.54-1.12.704-1.776.704-.737 0-1.478-.276-1.767-1.016-.188-.439-.175-1.455-.175-1.967v-2.761c0-.839-.061-1.086.791-1.225.152-.027.351-.052.351-.249 0-.202-.137-.242-.314-.242l-1.792.052-1.935-.052c-.177 0-.302.04-.302.242 0 .209.251.222.401.249.806.139.732.46.732 1.225v3.425c0 .965.123 1.743 1.028 2.294.699.426 1.682.565 2.508.565.894 0 1.796-.164 2.501-.727.752-.617.739-1.366.739-2.234v-3.257c0-.224.013-.662.078-.891.098-.31.275-.363.562-.399.188-.027.452.011.452-.236 0-.179-.136-.254-.287-.254" sketch:type="MSShapeGroup"/><path d="M320.598 123.5c.173-.028.402-.053.402-.253 0-.206-.154-.246-.358-.246l-2.069.053-2.227-.053c-.202 0-.346.04-.346.246 0 .213.287.226.462.253.926.141.839.468.839 1.247v4.531c0 .83.044 1.049-.914 1.188-.173.024-.387.088-.387.296 0 .187.144.239.346.239l2.082-.051 2.227.051c.192 0 .346-.051.346-.239 0-.233-.273-.272-.462-.296-.912-.129-.851-.435-.851-1.188v-4.531c0-.854-.073-1.106.912-1.247" sketch:type="MSShapeGroup"/><path d="M339.487 130.477c-.224-.011-.392-.051-.498-.266-.106-.23-.121-.652-.132-.894l-.143-4.771c-.013-.5-.077-1.008.548-1.045.198-.015.537.024.537-.231 0-.228-.181-.268-.379-.268h-2.529c-.247 0-.271.259-.349.446l-1.966 4.555-2.032-4.654c-.104-.231-.089-.347-.366-.347h-2.437c-.207 0-.507 0-.507.268 0 .255.366.217.562.231.667.037.588.305.56.878l-.26 5.129c-.026.474.026.894-.548.97-.196.026-.548.039-.548.298 0 .2.156.226.326.226l1.189-.026 1.182.026c.168 0 .39-.051.39-.266 0-.309-.43-.281-.63-.281-.743 0-.743-.562-.716-1.148l.168-4.43 2.437 5.627c.092.231.141.408.417.408.409 0 .449-.343.552-.648l2.316-5.475.092 4.771c.013.485.028.83-.575.894-.222.024-.605.013-.605.321 0 .213.211.226.383.226l1.661-.051 1.938.051c.185 0 .475 0 .475-.253 0-.257-.328-.257-.513-.27" sketch:type="MSShapeGroup"/><path d="M357.645 123l-1.119.03-1.134-.03c-.191 0-.469 0-.469.29 0 .304.264.221.482.25.293.04.548.137.685.469.104.246.104.705.104.98v3.356l-3.64-4.888c-.319-.427-.284-.457-.788-.457h-2.244c-.174 0-.432 0-.432.246 0 .306.295.278.498.294.636.04.586.664.586 1.2v4.292c0 .471.026 1.202-.115 1.629-.103.304-.256.401-.537.415-.2.012-.522-.014-.522.29 0 .219.169.288.348.288l1.207-.056 1.196.056c.18 0 .381-.056.381-.288 0-.304-.354-.278-.535-.29-.343-.028-.608-.111-.736-.525-.09-.29-.09-1.009-.09-1.339v-4.555l5.025 6.804c.181.248.346.537.663.537.434 0 .37-.244.37-.632v-6.546c0-.539-.075-1.2.522-1.282.214-.03.648.068.648-.26 0-.236-.167-.28-.355-.28" sketch:type="MSShapeGroup"/><path d="M371.598 123.5c.175-.028.402-.053.402-.253 0-.206-.154-.246-.358-.246l-2.066.053-2.228-.053c-.204 0-.348.04-.348.246 0 .213.287.226.464.253.925.141.835.468.835 1.247v4.531c0 .83.044 1.049-.908 1.188-.175.024-.392.088-.392.296 0 .187.144.239.348.239l2.078-.051 2.232.051c.187 0 .342-.051.342-.239 0-.233-.271-.272-.46-.296-.908-.129-.854-.435-.854-1.188v-4.531c0-.854-.071-1.106.912-1.247" sketch:type="MSShapeGroup"/><path d="M388.694 126.501l-.509.053h-2.979c-.203 0-.509.012-.509.319 0 .234.181.287.355.287.293.014.639-.012.83.275.176.275.139.895.139 1.224v.578c0 .248.011.731-.128.935-.139.208-.625.265-.841.265-1.999 0-2.748-2.174-2.748-4.004 0-.883.191-1.887.648-2.626.473-.747 1.224-1.244 2.087-1.244 1.759 0 1.641 1.64 2.253 1.64.192 0 .291-.113.291-.317 0-.206-.048-.465-.088-.675-.114-.81-.011-.77-.698-.947-.573-.15-1.119-.265-1.705-.265-2.508 0-5.093 1.707-5.093 4.665 0 1.337.584 2.588 1.605 3.343.929.701 2.242.992 3.372.992.751 0 1.588-.125 2.29-.44.244-.123.852-.465.852-.826l-.035-.525-.066-1.25c-.024-.622.051-.717.588-.84.174-.044.394-.085.394-.345 0-.21-.13-.275-.306-.275" sketch:type="MSShapeGroup"/><path d="M407.631 122.638c.158-.025.368-.047.369-.247 0-.2-.141-.24-.321-.241l-1.866.02-2.004-.081c-.182-.004-.313.032-.313.231-.008.214.253.231.411.256.831.153.746.476.735 1.24l-.021 1.213c-.007.467.006.454-.441.447l-2.318-.038c-.456-.005-.465-.005-.459-.456l.021-1.216c.013-.838-.049-1.09.842-1.215.156-.022.364-.043.369-.243 0-.202-.139-.241-.323-.245l-1.864.023-2.003-.085c-.186-.002-.315.034-.319.238-.004.209.257.225.414.254.827.15.743.474.733 1.24l-.079 4.442c-.011.813.023 1.025-.842 1.15-.154.023-.353.083-.354.285-.004.186.128.241.308.245.626.007 1.253-.034 1.879-.022l2.004.079c.171.004.313-.043.317-.232.004-.225-.244-.267-.414-.292-.816-.141-.758-.438-.746-1.179l.028-1.753c.011-.514-.028-.465.518-.456l2.318.04c.353.005.379-.034.384.303l-.03 1.919c-.013.813.023 1.025-.842 1.15-.158.025-.351.083-.354.283-.004.189.128.238.308.243l1.879-.022 2.003.085c.169.004.313-.049.315-.234.004-.225-.242-.269-.413-.296-.818-.139-.759-.438-.748-1.177l.077-4.444c.017-.84-.045-1.089.842-1.211" sketch:type="MSShapeGroup"/><path d="M74.486 70h6.028c-1.391-3.232-1.776-6.39-1.781-13.52.441.037 3.741.642 5.267 1.235v-4.716s-2.903 1.085-6.498 1.07c-3.602-.017-6.502-1.07-6.502-1.07v4.716c1.526-.594 4.826-1.199 5.271-1.235-.011 7.129-.395 10.288-1.785 13.52" sketch:type="MSShapeGroup"/><path d="M95.996 59.692l.704-.068c-.388-.416-.9-.624-1.474-.624h-.226c.29.276.544.738.996.692" sketch:type="MSShapeGroup"/><path d="M84.518 102l-.518 1.02h8l-.516-1.02h-6.967" sketch:type="MSShapeGroup"/><path d="M57 61.364l.168.024c.11-.072.21-.192.248-.32l-.02-.068c-.158.078-.406.146-.396.364" sketch:type="MSShapeGroup"/><path d="M84 103h8v4h-8v-4z" sketch:type="MSShapeGroup"/><path d="M99.41 61.364c.012-.218-.234-.286-.392-.364l-.018.068c.038.128.136.248.246.32l.164-.024" sketch:type="MSShapeGroup"/><path d="M111 94.128c-.555-.253-.99-.749-1.482-1.128h-.102c-.163.322-.252.669-.484.967-.678.774-1.651 1.555-2.883 1.344-.14.077.073.136 0 .238 1.24-.096 2.329.127 3.367.451.684-.572 1.261-1.175 1.584-1.872" sketch:type="MSShapeGroup"/><path d="M59.698 59.692c.454.046.712-.416.996-.692h-.226c-.57 0-1.086.208-1.468.624l.698.068" sketch:type="MSShapeGroup"/><path d="M107.508 92.953c.164-.068.541-.309.541-.309s1.171 1.43 1.785 1.771c.164-.47.274-1.183 0-1.633-.397-.713-1.16-.928-1.855-.687-.751.587-1.547 1.353-1.978 2.237.077.217.183.47.358.603.334.126 1.614.299 1.15-1.983" sketch:type="MSShapeGroup"/><path d="M106 47h-56v36.301c-.113 23.04 19.447 31.393 27.949 35.699 8.502-4.306 28.058-12.658 28.051-35.699v-36.301zm-1.001 35.827c.089 18.714-11.162 27.109-26.997 35.173-15.837-8.063-27.087-16.459-27.002-35.173v-34.827h53.999v34.827z" sketch:type="MSShapeGroup"/><path d="M60.477 89.886c-.206-.099-.337-.326-.479-.495l-.019.027.062.756c-.434-.059-.87-.179-1.132-.568-.062-.253-.23-.489-.195-.756.513.05 1.05.03 1.46-.246.17.383.314.787.35 1.238l9.916-9.513c-.161-.152-.329-.272-.502-.402l-.017.03c.054.234.065.499.084.756-.56-.04-1.061-.295-1.43-.691-.037-.284-.131-.613 0-.876l.036.025c.391-.025.797-.017 1.093-.261.432.369.775.815.754 1.406l7.648-7.334 23.735 23.018c1.203-3.021 2.124-7.871 2.158-12.21v-34.79h-52v34.79c.051 4.201.558 7.919 2.117 12.197l6.361-6.1zm11.999-24.766c-.971.015-1.703.663-2.474 1.17-.429.279-.881.444-1.365.575l.064.041.673.045-.862.664c-.413.046-1.116.021-1.507.112l1.086.225-.839.593c-.38.012-1.011-.244-1.376-.194.202.143.684.424.896.548-.272.271-.602.492-.899.715-.229.043-.384-.081-.549-.165-.681-.426-1.598-1.273-2.343-1.523 0 0 .963 1.091 1.248 1.598l-.139.213c-.818.794-1.617 2.635-2.521 3.192-.58.517-.982 1.189-.982 1.951.51-1.098 1.65-1.654 2.657-1.991 1.081-.217 2.283-.066 3.175.552.617.496.646 1.35.534 2.131-.237 1.236-1.097 2.206-1.798 3.254-.044.074-.09.19-.037.285.083.186.218 0 .33 0 .989-.622 2.024-1.375 3.272-1.064.262.126.591.422.655.726-.253.291-.584.368-.945.358l-.195-.048-.042-.068c-.527.068-.974.364-1.42.645-.855.508-1.644 1.182-2.663 1.265-.257-.037-.53-.076-.673-.335-.117-.277-.057-.595-.039-.905.11-.767.464-1.486.328-2.301-.165-.597-.774-.759-1.253-.883-.42-.126-.875-.163-1.301-.267l-.018.017c.692 1.112 1.419 2.201 1.463 3.592-.143 1.476-1.699 2.189-2.782 2.698-.602.316-1.538.527-1.62 1.42-.156.767-.028 2.156.384 2.759.451.641 1.274 1.141 1.38 1.951-.373.372-1.007.401-1.472.219-.246-.502-.719-.788-1.239-.798-.299-.201-.189-.622-.18-.93.473-1.526-1.009-3.055-.782-4.535.328-.694 1.145-.624 1.683-1.036.391-.347.545-.866.435-1.422-.319-1.085-1.63-1.689-1.991-2.764-.182-.482-.228-1.029-.228-1.594-.272.692-.218 1.602-.044 2.323.134.604.435 1.133.879 1.594.029.056.029.165 0 .221-.097.058-.207.01-.288-.041-1.395-1.455-2.176-3.543-1.51-5.575.426-1.191 1.129-2.255 2.026-3.237.91-1.027 1.398-3.512 1.909-4.709l-.202.141-.65.798-.046-1.036c.536-.664 1.33-1.736 1.33-1.736l-1.349 1.025c.084-.519-.202-.92.246-1.17l1.329-1.238-.018-.021c-.347.163-1.075.632-1.437.767.218-.641.574-1.236 1.053-1.767.545.048 1.101.012 1.593-.134-.029.182-.029.413 0 .597.317-.242.697-.358.945-.73.037.134.072.279.147.393.552-.624.901-1.373.883-2.276.617.281 1.219.606 1.798.971.154.182.211.401.273.624-.138-.006-.466-.118-.602-.062l.831.705c.106.308.207.626.272.951-.237-.107-.727-.374-.971-.395.279.331.824.734 1.061 1.077.101.376.057.736.035 1.139-.226-.246-.752-.608-1.039-.835 0 0 .861 1.329 1.121 1.895.521.308 1.285.184 1.786-.068l2.982-1.375c.782-.335 1.573-.641 2.426-.792.119.496-.189.938-.497 1.286zm2.942-3.68l.418.17c-.328.398-.742.656-1.188.794-.2-.092-.43-.102-.648-.16l.21-.316c.324-.246-.03-1.042.574-.914.4-.008.782-.008 1.142.092-.22.12-.508.166-.754.276.058.088.178.012.246.058zm-1.074 1.61c.533-.078 1.162-.078 1.656.092-.275.116-.551.238-.838.314.275.1.563.19.82.346-.249.29-.565.508-.868.684-.358-.048-.73-.078-1.114-.07.275-.384.454-.872.344-1.366zm6.656.092c.489-.17 1.121-.17 1.654-.092-.109.496.07.982.346 1.37-.386-.01-.757.018-1.115.066-.306-.176-.62-.394-.865-.684.252-.156.539-.246.815-.346-.284-.076-.563-.198-.835-.314zm0-2.036c.354-.1.742-.1 1.14-.092.602-.128.246.668.574.914l.208.316c-.22.058-.446.068-.646.16-.444-.138-.862-.396-1.186-.794l.414-.17c.07-.046.186.03.25-.058-.25-.11-.54-.156-.754-.276zm6.932 19.062c-.377.414-.893.684-1.462.726.019-.27.025-.548.086-.794l-.019-.032c-.184.14-.364.272-.535.44-.034-.638.326-1.11.77-1.508.303.256.722.248 1.123.274l.036-.026c.132.276.038.622 0 .92zm9.804 9.884c-.278.408-.744.534-1.212.596l.07-.794-.02-.028c-.168.198-.316.476-.574.556.028-.508.188-.954.388-1.382.432.29 1.012.31 1.554.258.04.28-.136.528-.206.794zm2.062-14.241c0 .566-.048 1.112-.229 1.594-.363 1.075-1.673 1.68-1.993 2.764-.108.556.046 1.075.437 1.422.538.413 1.354.343 1.684 1.036.226 1.48-1.255 3.008-.785 4.535.011.308.119.728-.178.93-.521.01-.993.296-1.24.798-.462.182-1.097.153-1.473-.219.112-.81.928-1.31 1.383-1.951.409-.602.538-1.991.383-2.759-.083-.893-1.022-1.104-1.62-1.42-1.083-.509-2.637-1.222-2.783-2.698.046-1.391.774-2.48 1.464-3.592l-.017-.017c-.428.105-.883.141-1.301.267-.484.124-1.09.287-1.255.883-.136.816.218 1.534.327 2.301.018.31.083.628-.037.905-.147.26-.418.298-.673.335-1.018-.083-1.809-.757-2.662-1.265-.448-.281-.892-.577-1.42-.645l-.046.068-.189.048c-.363.01-.692-.068-.947-.358.064-.304.391-.601.655-.726 1.244-.312 2.283.442 3.273 1.064.11 0 .246.186.328 0 .055-.095.007-.211-.035-.285-.703-1.048-1.567-2.019-1.804-3.254-.106-.781-.083-1.635.538-2.131.89-.618 2.09-.769 3.176-.552 1.007.337 2.143.893 2.651 1.991 0-.761-.402-1.434-.982-1.951-.899-.558-1.699-2.398-2.519-3.192l-.139-.213c.286-.508 1.25-1.598 1.25-1.598-.745.25-1.662 1.096-2.347 1.523-.161.083-.316.207-.545.165-.301-.223-.628-.444-.899-.715.207-.124.692-.405.895-.548-.365-.05-.996.205-1.38.194l-.835-.593 1.086-.225c-.391-.091-1.097-.066-1.505-.112l-.864-.664.673-.045.064-.041c-.483-.132-.938-.296-1.365-.575-.774-.508-1.501-1.155-2.473-1.17-.31-.347-.618-.79-.501-1.286.857.151 1.646.457 2.429.792l2.982 1.375c.503.252 1.266.376 1.782.068.264-.566 1.121-1.895 1.121-1.895-.283.227-.813.589-1.039.835-.018-.403-.064-.763.039-1.139.233-.343.778-.746 1.061-1.077-.242.021-.734.289-.971.395.061-.325.161-.643.273-.951l.828-.705c-.136-.056-.462.056-.598.062.061-.223.114-.442.272-.624.58-.364 1.18-.69 1.8-.971-.022.903.325 1.652.881 2.276.072-.114.112-.26.147-.393.244.372.628.488.947.73.024-.184.024-.415 0-.597.49.145 1.042.182 1.591.134.481.531.835 1.126 1.053 1.767-.365-.136-1.094-.604-1.437-.767l-.018.021 1.327 1.238c.451.25.165.651.248 1.17l-1.349-1.025s.793 1.071 1.33 1.736l-.048 1.036-.648-.798-.2-.141c.508 1.197.994 3.683 1.906 4.709.899.982 1.598 2.046 2.028 3.237.662 2.032-.121 4.12-1.512 5.575-.083.05-.191.099-.29.041-.026-.056-.026-.165 0-.221.444-.461.745-.99.881-1.594.176-.721.229-1.631-.042-2.323zm-13.763-21.028c.403.146.824.263 1.244.344l.03-.024c-.193-.526-.41-1.043-.468-1.619 0-.263-.119-.661.102-.839.21.427.347.908.761 1.221.08-.538.191-1.053.446-1.514.102-.107.197-.315.358-.291.084.661-.035 1.423.421 1.892.403-.663.943-1.437 1.651-1.757.097.018.206-.04.253.097-.221.615-.499 1.199-.659 1.844-.156.625-.156 1.375 0 2.003.275 1.201 1.458 2.098 2.538 2.311.355.059.83.139 1.07-.243.266-.39-.015-.829-.08-1.219l.128-.022c.427.15.715.635.823 1.057.076.184-.091.574.228.546.225 0 .312-.192.486-.501.145-.378.019-.797-.102-1.15.149.022.305.047.425.135.384.255.347.732.594 1.065.732-.212 1.428-.829 1.831-1.551.585-1.084.373-2.626-.191-3.651-.121-.271-.349-.505-.457-.788.061-.111.152.018.245-.02.596.332 1.255.916 1.549 1.569.349-.447.357-1.041.392-1.64l.067-.038c.492.362.702.978.724 1.619.381-.194.429-.661.693-.974.11-.008.11.085.149.168.098.797-.119 1.52-.468 2.153.41.018.787-.194 1.183-.291v.087c-.286.536-.852.888-1.283 1.239.256.146.587.089.888.139.091.008.054.117.054.174-.394.509-.986.645-1.454.966.217.263.512.323.758.479.084.081.011.156-.061.208-.479.17-.971.049-1.476.018-.028.235.204.42.295.623.035.109.137.265.024.342-.438.03-.83-.178-1.16-.469-.065.332.221.606.145.938l-.256-.071c-.41-.289-.836-.73-1.389-.534l-.745.245s.479.099 1.549.995c.661.596 1.445 1.288 1.666 2.157-.11.509-.668.34-1.034.408l-.468-.382c-.264-.182-.548-.398-.888-.34.405.382.869.576 1.29.9v.117c-.026.097-.126.085-.21.085-.524-.299-1.016-.671-1.604-.807-.914 0-1.784.067-2.516-.412-.037.089-.011.263-.019.295l-.468-.92c-.102.176-.137.372-.21.568-.21-.439-.275-.976-.21-1.512l-.019-.022c-.349.119-.733-.057-1.081.069-.186.049-.342.235-.486.362v-.137c.019-.576.566-.938.997-1.136l-.046-.036c-.668-.042-1.393-.14-2.05 0-.457.01-.732.487-1.181.534.089-.235.21-.465.275-.72.026-.099.046-.214.026-.313-.399.273-.824.617-1.305.534.05-.368.271-.677.457-.999-.533-.034-1.164.055-1.688-.073.193-.35.589-.467.86-.742-.511-.313-1.088-.447-1.537-.922v-.044c.312-.235.715-.196 1.034-.39-.254-.166-.494-.362-.758-.516-.247-.253-.642-.467-.715-.851l.035-.028zm2.413 8.276c.467.158.952.288 1.451.368-.026.879.037 1.73.101 2.573l-.21-.136-1.995-1.596c-1.298-.963-2.58-1.94-4.156-2.149-.32-.306-.61-.661-.64-1.119 1.02.21 1.997.557 2.946.941l2.502 1.119zm-17.448-11.06s3.487 1.657 7.503 1.682c4.009.027 7.497-1.682 7.497-1.682v7.565c-1.763-.83-4.709-1.586-5.45-1.647-.026 7.175.565 10.611 2.444 14.082h-8.987c1.875-3.471 2.474-6.908 2.444-14.082-.739.062-3.687.817-5.452 1.647v-7.565zm2 9c-.028.457-.32.813-.638 1.119-1.578.21-2.864 1.193-4.157 2.149l-1.997 1.596-.208.136c.061-.843.125-1.694.099-2.573.5-.08.984-.21 1.447-.368l2.509-1.119c.944-.384 1.922-.731 2.945-.941zm-19-6.236v-.087c.394.097.769.309 1.181.291-.347-.633-.566-1.356-.466-2.153.035-.083.035-.176.147-.168.266.313.312.78.696.974.019-.641.228-1.257.722-1.619l.063.038c.037.6.048 1.193.394 1.64.295-.653.954-1.237 1.549-1.569.093.038.184-.091.247.02-.108.283-.338.516-.457.788-.568 1.025-.78 2.567-.191 3.651.401.722 1.099 1.34 1.831 1.551.247-.332.212-.809.596-1.065.119-.087.275-.113.42-.135-.119.352-.245.772-.1 1.15.173.309.26.501.485.501.323.028.156-.362.228-.546.113-.421.395-.906.824-1.057l.13.022c-.065.39-.347.829-.084 1.219.24.382.715.303 1.073.243 1.081-.214 2.26-1.11 2.535-2.311.156-.627.156-1.377 0-2.003-.156-.645-.438-1.229-.659-1.844.046-.137.156-.079.258-.097.704.321 1.248 1.094 1.649 1.757.457-.469.338-1.231.421-1.892.163-.024.254.184.355.291.258.461.368.976.449 1.514.414-.313.551-.794.759-1.221.221.178.104.576.104.839-.058.576-.275 1.092-.468 1.619l.026.024c.421-.081.841-.198 1.248-.344l.035.028c-.076.384-.468.598-.713.851-.269.154-.505.35-.761.516.321.194.724.154 1.032.39v.044c-.446.475-1.023.609-1.537.922.275.275.67.392.863.742-.522.129-1.157.04-1.686.073.184.323.401.631.457.999-.486.083-.908-.261-1.309-.534-.019.099 0 .214.028.313.063.255.182.485.277.72-.453-.047-.726-.524-1.183-.534-.659-.14-1.385-.042-2.052 0l-.045.036c.429.198.98.56.997 1.136v.137c-.149-.127-.305-.313-.485-.362-.349-.127-.733.049-1.083-.069l-.017.022c.061.536 0 1.073-.21 1.512-.078-.196-.11-.392-.215-.568l-.464.92c-.011-.032.019-.206-.017-.295-.733.479-1.604.412-2.522.412-.585.137-1.081.509-1.602.807-.082 0-.18.012-.21-.085v-.117c.421-.325.888-.518 1.29-.9-.338-.057-.622.158-.888.34l-.466.382c-.366-.067-.925.101-1.036-.408.219-.869 1.006-1.561 1.667-2.157 1.066-.896 1.549-.995 1.549-.995l-.743-.245c-.561-.196-.98.245-1.393.534l-.256.071.147-.938c-.329.291-.724.499-1.162.469-.111-.077-.009-.234.026-.342.091-.204.321-.388.293-.623-.503.032-.997.152-1.474-.018-.072-.051-.147-.127-.065-.208.247-.156.542-.216.761-.479-.468-.321-1.062-.457-1.458-.966 0-.057-.035-.166.056-.174.303-.049.633.008.888-.139-.431-.35-.999-.702-1.281-1.239z" sketch:type="MSShapeGroup"/><path d="M83.494 101.51l.506-5.51h-13l.516 5.488c.288.615.671 1.179 1.004 1.775 0 0 .226.272.073.403-.153.123-.376.225-.609.233v3.101h1.824v-2.314c-.039-.978.052-1.89.183-2.795.265-1.158.632-2.299 1.594-3.151.901-.74 2.36-.802 3.394-.308 1.686 1.026 2.041 2.895 2.222 4.689l.022 3.879h1.826v-3.101h-.306c-.336-.021-.344-.297-.305-.545.378-.606.72-1.221 1.056-1.843zm-9.963-2.51l-1.53-.99c.459-.348.98-.683 1.476-1.01.508.335 1.016.662 1.524.992l-1.47 1.008zm8.003 0l-1.534-.99c.466-.348.982-.683 1.483-1.01.504.335 1.013.662 1.517.992-.449.357-.968.679-1.466 1.008z" sketch:type="MSShapeGroup"/><path d="M75.645 78.531c-.279 0-.542.16-.645.402.103.243.366.404.645.404 0 .116.19.498.659.498-.038-.092-.275-.498.253-.498h1.003l-.004 2.04c-.623.079-1.212.341-1.762.623h4.264c-.53-.282-1.036-.502-1.616-.633v-2.031h.999c.534 0 .293.406.253.498.471 0 .659-.382.659-.498.281 0 .546-.16.645-.404-.099-.242-.364-.402-.645-.402 0-.118-.188-.5-.659-.5.04.094.281.5-.253.5h-.999v-1.114c0-.481.447-.262.544-.227 0-.428-.419-.603-.544-.603 0-.251-.178-.494-.443-.587-.265.092-.443.336-.443.587-.125 0-.544.175-.544.603.103-.035.544-.255.544.227l.004 1.114h-1.003c-.528 0-.291-.406-.253-.5-.469 0-.659.382-.659.5" sketch:type="MSShapeGroup"/><path d="M64 88l.05 2.157.751.843h5.408l.718-.827.073-2.173h-1.446v.787h-1.176v-.787h-1.91v.787h-1.055v-.787h-1.413" sketch:type="MSShapeGroup"/><path d="M71 92.016l.221 1.984h13.592l.186-1.984h-1.013l.129 1h-2.453l-.094-1h-.698c.04.318.012.691.023 1h-2.34l-.042-1h-.844l-.075 1h-2.357l.054-1c-.283 0-.594-.036-.846 0 0 .347-.083.675-.112 1h-2.434l.117-1h-1.015" sketch:type="MSShapeGroup"/><path d="M101.46 109.95c.723.238 1.208-.433 1.732-.862 1.586-2.084 2.912-4.355 4.843-6.321 1.509-1.465 2.902-3.233 4.969-3.254.235.032.265.318.336.511.139.853.723 1.363 1.347 1.919 1.141-1.9 1.672-4.479 1.051-6.771-1.86-1.099-3.617-3.033-4.298-5.171-.361.042-.724.172-1.005.318l.381.134c.677.374.863 1.133.88 1.881-.299 2.244-1.675 4.044-3.371 5.629l-3.405 4.075-1.985 2.744c-.823 1.352-1.739 2.668-1.934 4.307.089.318.117.7.46.862" sketch:type="MSShapeGroup"/><path d="M63.511 102l-.511 1.02h8l-.514-1.02h-6.975" sketch:type="MSShapeGroup"/><path d="M64 103h8v4h-8v-4z" sketch:type="MSShapeGroup"/><path d="M71 100l-.81-8h-4.83l-1.359 8h7zm-3.242-8c1 .27.738 1.42.828 1.742h-1.586c.066-.31-.13-1.364.758-1.742zm-2.218 4.448c.214 0 .396.124.484.307h.731v-.73c-.179-.09-.301-.273-.301-.484 0-.297.244-.54.542-.54.296 0 .54.244.54.54 0 .215-.13.399-.311.486v.728h.755c.087-.176.27-.297.484-.297.297 0 .537.239.537.539 0 .297-.239.537-.537.537-.217 0-.4-.13-.487-.309h-.752v.754c.178.087.297.271.297.481 0 .297-.239.54-.537.54-.301 0-.542-.244-.542-.54 0-.213.128-.397.311-.486v-.749h-.735c-.085.179-.27.297-.48.297-.301 0-.54-.239-.54-.539 0-.295.239-.535.54-.535z" sketch:type="MSShapeGroup"/><path d="M85.819 92l-.819 8h7l-1.365-8h-4.817zm2.943 0c.996.27.734 1.42.824 1.742h-1.586c.066-.31-.13-1.364.762-1.742zm.699 5.534c-.213 0-.399-.13-.487-.309h-.748v.754c.178.087.297.271.297.481 0 .297-.241.54-.539.54-.297 0-.538-.244-.538-.54 0-.213.126-.397.307-.486v-.749h-.731c-.09.179-.273.297-.483.297-.3 0-.539-.239-.539-.539 0-.295.239-.535.539-.535.213 0 .399.124.487.307h.727v-.73c-.178-.09-.297-.273-.297-.484 0-.297.241-.54.541-.54.295 0 .536.244.536.54 0 .215-.126.399-.307.486v.728h.751c.089-.176.273-.297.483-.297.297 0 .539.239.539.539 0 .297-.242.537-.539.537z" sketch:type="MSShapeGroup"/><path d="M81 102.918l-.032-.57h-.721v-1.538h.506l-.148-.57h-.359v-.815c-.211-.393-.513-.824-.926-1.067h-1.041v-.34c-.18-.025-.413-.025-.587 0v.34h-1c-.481.231-.955 1.086-.955 1.086v.795h-.342l-.151.57h.476v1.538h-.686c-.011.184-.041.379-.031.57h.717v1.347h-.461l.758.734.768-.734c-.159-.007-.324.048-.461 0v-1.347h1.369v1.347h-.468l.768.734.757-.734h-.468v-1.347h1.38v1.347h-.476l.771.734.753-.734h-.461v-1.347h.753zm-5-1.918h1.512v1.722h-1.512v-1.722zm0-2h1.512v1.45h-1.512v-1.45zm2 2h1.532v1.722h-1.532v-1.722zm0-2h1.532v1.45h-1.532v-1.45z" sketch:type="MSShapeGroup"/><path d="M85 88l.069 2.173.718.827h5.411l.75-.843.052-2.157h-1.413v.787h-1.057v-.787h-1.908v.787h-1.177v-.787h-1.445" sketch:type="MSShapeGroup"/><path d="M73 89h11c-.105-2.629-.559-5.118-2.581-7h-5.827c-2.125 1.796-2.552 4.868-2.593 7" sketch:type="MSShapeGroup"/><path d="M72 91.118h.631l-.114.879h.65s.028-.591.101-.879h2.489l-.039.879h.609l.041-.879h2.483l.017.879c.213-.006.457.018.631-.015.041-.306 0-.864 0-.864h2.269l.091.879h.678l-.142-.879s.405.011.605 0l-.177-1.118h-10.662l-.161 1.118" sketch:type="MSShapeGroup"/><path d="M45.167 94.415c.613-.341 1.784-1.771 1.784-1.771s.38.242.543.309c-.462 2.282.815 2.109 1.149 1.983.176-.133.282-.386.358-.603-.431-.884-1.224-1.651-1.977-2.237-.697-.242-1.46-.027-1.856.687-.274.45-.166 1.163 0 1.633" sketch:type="MSShapeGroup"/><path d="M42.662 100.023c.071-.193.097-.478.336-.511 2.064.021 3.46 1.789 4.968 3.254 1.933 1.966 3.256 4.237 4.846 6.321.52.429 1.007 1.1 1.73.862.343-.163.37-.545.458-.862-.193-1.639-1.113-2.955-1.933-4.307l-1.986-2.744-3.406-4.075c-1.696-1.585-3.072-3.385-3.373-5.629.018-.749.203-1.507.883-1.881l.38-.134c-.283-.146-.644-.276-1.006-.318-.679 2.139-2.436 4.073-4.3 5.171-.617 2.292-.088 4.871 1.051 6.771.626-.556 1.208-1.066 1.351-1.919" sketch:type="MSShapeGroup"/><path d="M114.55 103.656c.688 1.162 1.476 2.274 2.421 3.206-.056.047-.092.123-.173.095-1.978-1.469-3.638-3.627-4.288-5.956-.473.183-.945.336-1.388.597.306.208.705.382.87.775.553.875.126 1.992-.347 2.752-2.239 3.393-5.076 6.529-8.269 9.145-6.328 4.788-13.455 8.449-21.07 9.024-1.506.113-2.933.178-4.307.174-1.373 0-2.803-.06-4.309-.174-7.613-.575-14.74-4.236-21.068-9.024-3.193-2.616-6.03-5.752-8.271-9.145-.471-.76-.898-1.877-.345-2.752.165-.393.563-.567.872-.775-.446-.261-.915-.414-1.388-.597-.653 2.329-2.312 4.487-4.29 5.956-.081.028-.116-.047-.171-.095.943-.932 1.731-2.043 2.421-3.206-1.361.796-2.784 1.452-3.936 2.792-.39.767-.735 1.773-.345 2.656 4.941 9.071 13.557 15.159 21.987 19.129 5.514 2.348 11.505 3.741 17.824 3.75.341.008.683.023 1.018.017l1.014-.017c6.321-.009 12.313-1.403 17.824-3.75 8.434-3.969 17.048-10.058 21.989-19.129.392-.883.047-1.888-.345-2.656-1.149-1.34-2.574-1.996-3.932-2.792zm-72.966 9.236l.309-.222c-.092-.149-.989-1.163-1.247-1.447-.138-.151-.475-.503-.646-.671l.128-.053c.068.068.347.319.495.415.108-.051 1.069-.697 1.636-1.091l.237-.168c.463-.324 1.271-.909 1.414-1.037-.058-.102-.273-.401-.357-.522l.092-.095c.189.224.527.617.714.816.132.144 1.099 1.204 1.247 1.298l.275-.133.118.088c-.13.056-.983.555-1.151.657l-.054-.123.371-.259c.076-.186-.491-.925-.712-1.167-.084.04-1.097.717-1.398.929l-.104.072c.355.384.792.799.934.874l.263-.112.098.089-1.069.557-.038-.116.353-.233c-.046-.194-.337-.569-.69-.955l-.104.072c-.315.219-1.422 1.023-1.558 1.141.413.45.842.844 1.165.955.227-.074.407-.161.543-.217l.126.086c-.178.07-1.051.52-1.326.681l-.066-.109zm5.305 4.994l-.085.115c-.047-.068-.51-.558-.76-.816-.132-.137-.673-.671-.809-.792l.122-.076c.179.153.362.301.541.417.165-.327.844-1.669.909-1.886-.165-.166-.943-.896-1.143-1.049-.096.041-1.252.671-1.667.986.083.153.22.331.335.481l-.081.119c-.134-.16-.551-.608-.689-.745-.12-.129-.443-.436-.561-.54l.116-.084c.148.123.313.243.468.348.472-.125 3.973-1.704 4.219-1.817-.075-.133-.209-.309-.307-.442l.096-.104c.13.155.51.567.59.644.195.203.675.675.819.804l-.114.086c-.136-.11-.283-.223-.419-.305-.155.264-.647 1.268-.968 1.947-.238.497-.75 1.585-.956 2.224l.346.485zm4.552 1.405l-.13.151c-.154.171-.371.417-.477.558-.365-.142-1.095-.555-1.444-.809-.331-.242-.897-.708-1.154-1.22-.387-.766-.293-1.564.221-2.148.582-.658 1.356-.866 2.05-.815.724.051 1.316.344 1.836.728.441.322.923.778 1.043.96.088-.062.371-.28.475-.369l.138.065c-.191.158-.977.94-1.344 1.386l-.07-.146c.132-.164.249-.346.323-.467-.004-.24-.094-.818-.927-1.43-.891-.651-2.014-.486-2.672.258-.67.76-.821 2.255.283 3.067.132.098.451.298.754.358.072-.064.217-.218.423-.451l.221-.247c.126-.146.249-.295.307-.387-.094-.085-.391-.342-.471-.431l.056-.122c.257.209.644.5.825.631.245.182.744.54.814.577l-.114.078c-.048-.029-.355-.216-.489-.273-.084.065-.361.369-.479.498zm3.817 1.787l-.345-2.17c-.085.093-1.797 2.775-1.844 3 .065.068.455.338.554.406l-.055.115c-.093-.065-.658-.397-.802-.476-.164-.092-.599-.322-.766-.401l.089-.099c.167.07.353.153.506.189.234-.158 2.195-2.953 2.307-3.12-.112-.095-.364-.271-.569-.399l.051-.122c.315.165.837.449 1.283.672.006.239.264 2.132.297 2.274.049.219.274 1.686.359 1.92.378-.559 1.558-2.331 1.625-2.657-.097-.083-.363-.286-.51-.385l.041-.12c.1.068.69.412.812.48.12.07.587.316.709.37l-.093.092-.469-.162c-.197.158-.703.854-.822 1.01-.175.226-1.643 2.321-1.811 2.506-.073-.235-.508-2.718-.548-2.923zm5.668.749c-.151-.047-.317-.09-.461-.115-.045.255-.144 1.203-.206 1.836-.042.469-.13 1.487-.1 2.053.147.102.302.193.461.283l-.038.116c-.062-.038-.627-.292-.925-.418-.166-.071-.808-.33-.967-.385l.085-.095c.204.069.414.132.606.168.032-.311.187-1.581.174-1.77-.2-.083-1.114-.425-1.339-.484-.07.059-.869.908-1.125 1.283.123.095.298.194.449.279l-.032.118c-.17-.087-.678-.314-.84-.38-.147-.064-.534-.215-.668-.26l.074-.097c.17.05.353.097.521.13.368-.24 2.889-2.555 3.07-2.718-.108-.083-.287-.182-.414-.257l.049-.113.723.335c.24.099.806.33.976.389l-.074.102zm9.485 4.242l-.13-.083c.03-.124.081-.434.089-.548-.047-.314-.504-.929-1.282-1.134-1.099-.292-1.988.381-2.216 1.391-.293 1.263.434 2.59 1.707 2.926.457.118 1.021.187 1.512.026l-.151.256c-.166.085-.838.193-1.782-.059-.225-.059-.876-.26-1.304-.643-.689-.625-.985-1.484-.797-2.316.208-.892.782-1.442 1.397-1.683.734-.29 1.314-.227 1.922-.065.53.14 1.065.404 1.22.503.06-.075.227-.475.262-.545l.143.006c-.255.687-.442 1.351-.589 1.967zm6.535-.375l-.655.021c-.045.122-.192 1.412-.207 1.581l-.045.438c-.081.727-.172 1.764-.155 1.979.128.038.506.136.635.153l.014.136c-.116-.027-.761-.103-1.06-.134-.273-.029-.872-.078-1.087-.086l.045-.13c.095.002.519-.011.637-.023.06-.207.143-1.005.215-1.667l.037-.365c-.298-.021-2.553-.136-2.644-.124l-.027.22c-.064.639-.124 1.445-.124 1.678.17.054.48.132.608.149l.015.134c-.132-.025-.756-.101-1.029-.13-.329-.034-.926-.082-1.12-.09l.052-.126c.147.01.546-.01.67-.023.052-.287.17-1.341.223-1.818l.06-.587c.019-.197.138-1.378.134-1.59-.11-.033-.5-.122-.655-.151l-.019-.136c.107.025.707.098 1.112.14.395.04.936.082 1.038.078l-.046.13c-.178-.006-.517.01-.624.023-.043.166-.143.903-.205 1.445l-.029.304c.159.013 2.375.27 2.633.253l.031-.291c.048-.486.136-1.29.112-1.45-.105-.036-.434-.119-.616-.149l-.019-.136c.107.023.694.096 1.087.136.415.042.947.082 1.062.082l-.054.128zm5.023.454l-.448.112c-.016.101.057.954.065 1.138l.016.322.049.838c.035.766 0 1.421-.512 1.908-.312.287-.748.506-1.439.533-1.441.058-2.14-.783-2.193-1.972l-.047-1.055c-.026-.611.108-1.346.08-1.536l-.512-.07-.027-.14c.185.004.595 0 1.093-.023.294-.012.793-.047.954-.068l-.027.14c-.175.031-.463.076-.665.128-.016.116-.108.977-.084 1.559l.041.904c.061 1.439.709 1.902 1.461 1.869.461-.017.764-.138.989-.363.361-.363.342-.96.306-1.78l-.029-.619c-.008-.219-.077-1.462-.112-1.683-.149-.023-.536-.06-.709-.064l-.051-.145c.165.006.65 0 1.048-.017.332-.014.677-.043.785-.062l-.031.147zm20.699-11.147l.612.308c-.152.098-.984 1.466-1.05 1.592l-.23-.146c.058-.062.566-1.46.668-1.754zm-17.003 12.664l-1.691-1.404c.002.12.635 3.156.751 3.352.092.013.537-.025.651-.031l.042.117c-.109.005-.716.104-.872.135-.17.027-.622.122-.792.167l-.004-.127c.159-.054.344-.104.47-.169.056-.26-.479-3.533-.516-3.724-.141-.005-.431.016-.657.045l-.047-.115c.326-.074.877-.178 1.33-.284.163.174 1.61 1.424 1.728 1.51.183.136 1.321 1.088 1.536 1.21-.116-.643-.497-2.684-.671-2.964-.123-.002-.441.009-.608.029l-.049-.118c.114-.007.745-.11.876-.135.128-.023.611-.122.733-.158v.127l-.432.162c-.027.241.092 1.063.118 1.251.031.275.434 2.724.441 2.966-.204-.129-2.173-1.715-2.335-1.842zm10.973-1.062c-.367.166-1.036.434-1.61.393-.858-.055-1.543-.561-1.84-1.328-.337-.866-.184-1.666.167-2.262.363-.618.888-.999 1.461-1.265.488-.223 1.109-.42 1.323-.432l-.119-.618.115-.091c.06.253.422 1.37.662 1.934l-.16-.012c-.091-.205-.205-.407-.285-.537-.218-.122-.776-.341-1.693.083-.981.454-1.327 1.547-.943 2.532.391.999 1.675 1.918 2.892 1.354.145-.067.469-.247.655-.489l-.221-.618-.128-.32c-.076-.193-.156-.385-.214-.484-.115.041-.48.172-.595.195l-.084-.111c.298-.126.733-.32.93-.409.272-.126.813-.385.878-.428l.022.14c-.05.032-.352.209-.465.298.026.111.175.521.244.691l.076.197c.087.227.214.549.294.72-.287.253-.981.691-1.362.87zm3.294-3.286c.093-.023.504-.208.606-.251l.079.095c-.099.044-.645.341-.776.417-.15.085-.55.323-.692.422l-.051-.118c.133-.099.29-.21.389-.311-.038-.261-1.695-3.101-1.794-3.267-.135.039-.404.162-.606.263l-.086-.094c.285-.175.767-.457 1.16-.708.217.108 2.026.779 2.168.816.221.062 1.635.562 1.879.6-.338-.554-1.412-2.31-1.677-2.509-.113.039-.413.155-.563.226l-.089-.088c.104-.049.667-.357.782-.42.113-.065.539-.32.641-.39l.044.115-.351.297c.055.23.46.95.546 1.116.13.242 1.366 2.37 1.459 2.587-.243-.051-2.661-.851-2.857-.913l-2.099-.727c.047.108 1.71 2.7 1.887 2.843zm5.179-1.928c-.156.129-.578.49-.711.612l-.051-.122c.075-.069.359-.378.445-.476-.124-.235-.746-1.206-1.08-1.716l-.2-.306c-.112-.173-.751-1.143-.886-1.306-.105.055-.441.267-.536.329l-.093-.096c.093-.061.53-.4.896-.7.238-.194.632-.531.704-.608l.049.133-.443.469c.049.124.438.729.856 1.371l.212.322c.438.68 1.012 1.547 1.098 1.635.137-.065.438-.261.536-.325l.093.088c-.105.075-.599.461-.889.696zm6.244-6.162c-.202.186-.683.651-.803.78l-.075-.104.437-.51c-.157-.158-2.359-1.838-2.711-2.125l-.018.019c.128.389 1.192 3.373 1.288 3.755-.377-.166-3.223-1.649-3.431-1.773l-.016.017c.501.8 1.363 2.3 1.904 2.871l.448-.303.102.078c-.071.048-.594.517-.676.595l-.477.474-.053-.125.264-.35c-.157-.374-1.669-3.061-1.933-3.496l-.494.346-.111-.069c.064-.048.417-.359.652-.577.191-.179.534-.512.65-.638l.067.114c-.113.13-.21.272-.277.372.494.292 2.356 1.273 2.8 1.487-.1-.378-1.004-2.968-1.09-3.078-.109.048-.266.154-.359.216l-.107-.074c.153-.127.459-.393.616-.538.142-.134.507-.486.601-.59l.071.106-.315.411c.536.426 2.824 2.132 3.156 2.35l.423-.281.111.076c-.16.128-.434.367-.645.564zm4.947-4.641c-.174.208-.543.669-.669.843l-.083-.11c.058-.072.276-.428.328-.53-.143-.163-.765-.665-1.291-1.081l-.282-.229c-.185.229-1.517 2.011-1.559 2.093l.174.136c.502.403 1.148.888 1.343 1.015.141-.108.379-.322.462-.413l.124.055c-.095.098-.502.566-.674.775-.209.252-.578.71-.692.862l-.079-.112c.091-.112.296-.447.352-.557-.216-.203-1.038-.869-1.412-1.172l-.46-.367c-.158-.125-1.09-.864-1.267-.977-.091.074-.383.339-.491.453l-.126-.057c.079-.074.471-.527.728-.833.249-.299.582-.718.638-.803l.083.108c-.1.142-.274.43-.325.523.118.125.684.61 1.107.949l.242.195c.1-.121 1.528-1.794 1.656-2.015l-.226-.182c-.384-.309-1.016-.811-1.163-.879-.087.064-.338.288-.464.419l-.124-.057c.075-.076.46-.515.709-.816.265-.313.589-.722.653-.818l.079.11-.34.547c.079.104 1.082.928 1.215 1.03l.344.278c.57.458 1.391 1.098 1.588 1.199.099-.08.388-.339.475-.432l.124.057c-.087.085-.508.568-.697.795z" sketch:type="MSShapeGroup"/><path d="M59 123.417l1.242.583c.05-.438.164-1.631.214-1.996l-.01-.004-1.446 1.417" sketch:type="MSShapeGroup"/><path d="M46.874 112c-.562.262-1.674.756-1.874.86l.948 1.004c.208-.406.756-1.522.936-1.856l-.01-.008" sketch:type="MSShapeGroup"/><path d="M50.685 107.958c-1.381-2.083-2.927-4.207-4.802-5.958-.391.112-.817.483-.867.929-.061.329.077.674.163.982 1.234 3.089 3.829 5.769 6.341 8.089 1.027-.42 3.29-.501 3.439-.485l.041-.49c-2.507 1.158-3.324-1.867-4.315-3.067" sketch:type="MSShapeGroup"/><path d="M48.068 93.967c-.233-.298-.323-.645-.486-.967h-.098c-.496.379-.93.875-1.484 1.128.323.697.896 1.301 1.582 1.872 1.038-.323 2.128-.546 3.369-.451-.071-.102.14-.161 0-.238-1.23.211-2.208-.57-2.883-1.344" sketch:type="MSShapeGroup"/><path d="M109.819 103.911c.088-.308.228-.653.165-.982-.054-.446-.478-.817-.867-.929-1.876 1.751-3.418 3.875-4.801 5.958-.991 1.2-1.808 4.225-4.316 3.067l.043.49c.151-.017 2.411.064 3.44.485 2.506-2.32 5.104-5 6.336-8.089" sketch:type="MSShapeGroup"/></g></svg>