<svg width="535" height="177" viewBox="0 0 535 177" xmlns="http://www.w3.org/2000/svg"><title>UL</title><g fill="#A19F9E"><path d="M161 74.902v-.655c0-.21-.127-.247-.287-.247-1.145 0-2.1.175-4.078.175-1.305 0-2.195-.175-3.182-.175-.158 0-.287.14-.287.314v.69c0 .242.222.382.477.382 1.847 0 2.484.312 2.484 2.528v11.53c0 5.126-2.706 6.996-7.23 6.996-3.47 0-5.698-1.456-5.698-5.613v-12.98c0-2.115.667-2.46 2.544-2.46.287 0 .447-.035.447-.278v-.796c0-.244-.062-.314-.286-.314-1.465 0-2.42.175-3.98.175-1.53 0-4.047-.175-5.51-.175-.256 0-.414.105-.414.35v.795c0 .207.223.24.384.24 1.78 0 2.577.106 2.577 2.045v13.54c0 6.435 4.365 8.03 9.652 8.03 2.452 0 5.096-.9 6.975-2.628 2.195-2.045 2.452-4.607 2.452-7.62v-10.25c0-2.284.128-3.116 2.513-3.116.417 0 .447-.07.447-.484"/><path d="M182.686 79c-.703 0-1.384.135-2.48.135-.862 0-2.06-.135-3.392-.135-.235 0-.39.054-.39.304v.47c0 .28.26.33.495.33 1.826 0 1.957.64 1.957 2.413v8.534c0 .637-.052 1.91-.13 1.91-.08 0-.186-.138-.342-.36l-5.61-6.897c-.965-1.165-1.88-2.325-2.792-3.49l-2.036-2.58c-.156-.192-.312-.633-.652-.633-1.148 0-2.17.135-3.315.135-.888 0-1.776-.135-2.715-.135-.207 0-.285.135-.285.272v.587c0 .136.1.245.26.245 2.635 0 2.975.252 2.975 4.767v9.698c0 2.77-.89 2.878-2.427 2.878-.184 0-.262.14-.262.306v.47c0 .22.104.33.47.33 1.225 0 2.453-.138 3.446-.138.965 0 1.406.14 2.505.14.287 0 .392-.055.392-.248V97.7c0-.252-.212-.252-.473-.252-1.59 0-2.087-.167-2.087-3.104V84.32c0-.17-.05-1.248.13-1.248.155 0 .368.306.704.717l10.572 13.024c.418.5.81.996 1.566 1.826.39.334.494.36 1.434.36.237 0 .264-.053.264-.22 0-.89-.027-2.552-.027-4.655v-10.61c-.053-2.798.34-3.352 1.64-3.41.708 0 .917-.082.917-.276v-.558c0-.246-.13-.272-.314-.272"/><path d="M191.67 99c.204 0 .33-.056.33-.313v-.562c0-.17-.075-.257-.28-.257-1.256 0-2.086-.2-2.086-1.783V81.83c0-1.275.655-1.7 1.813-1.7.274 0 .502-.028.502-.168v-.79c0-.145-.126-.172-.327-.172-.63 0-2.115.138-3.823.138-1.74 0-3.2-.138-3.55-.138-.175 0-.2.11-.2.278v.657c0 .142.175.195.377.195 1.206 0 1.862.17 1.862 1.7v14.255c0 1.53-.758 1.783-1.938 1.783-.25 0-.352.086-.352.226v.74c0 .11.1.166.176.166 1.31 0 2.64-.142 3.947-.142 1.185 0 2.365.142 3.547.142"/><path d="M211.773 79c-.632 0-1.544.135-2.176.135-1.898 0-2.53-.135-3.16-.135-.205 0-.356.08-.356.272v.557c0 .136.05.275.203.275 1.215 0 2.022.028 2.022.942 0 .638-.3 1.526-.53 2.162l-3.34 9.417c-.1.306-.354.97-.453.97-.126 0-.177-.112-.356-.58l-3.236-8.81c-.81-2.302-1.087-2.938-1.087-3.38 0-.694.936-.722 1.868-.722.206 0 .256-.11.256-.276v-.498c0-.223-.076-.332-.28-.332-1.92 0-3.06.135-4.427.135-1.29 0-2.432-.135-3.418-.135-.225 0-.302.08-.302.272v.53c0 .164.077.303.302.303 1.292 0 1.747.252 2.38 1.415.683 1.244 5.642 15.403 6.477 17.23.126.25.075.197.583.25h.48c.276 0 .327 0 .455-.36 2.02-5.568 4.072-11.164 6.17-16.705.28-.723.56-1.83 1.8-1.83.278 0 .352-.11.352-.358v-.387c0-.193-.022-.36-.227-.36"/><path d="M227.078 94.553c-.125 0-.225.056-.45.424l-.773 1.33c-.526.912-.722 1.422-1.847 1.422h-3.42c-1.67 0-1.97-.714-1.97-2.27v-6.515h2.396c1.05 0 1.772-.028 2.047.762.2.597.2 1.19.2 1.643 0 .173.073.228.224.228h.575c.122 0 .2-.17.2-.424 0-.88-.03-1.785-.03-2.55 0-1.05.03-2.096.03-3.146 0-.113-.054-.2-.278-.2h-.42c-.13 0-.178.06-.203.2-.376 2.326-1.2 2.21-3.045 2.21h-1.697v-4.956c0-2.298.3-2.438 1.647-2.438h2.372c1.643 0 2.296.34 2.447 2.52.024.428.05.566.17.566h.5c.2 0 .324-.11.324-.31 0-.595-.02-1.22-.02-1.812 0-.624.02-1.276.02-1.898 0-.144 0-.34-.223-.34-2.67 0-5.367.138-8.037.138-1.27-.027-3.245-.138-4.242-.138-.25 0-.476 0-.476.278v.57c0 .282.176.282.425.282.775 0 1.773 0 1.773 1.474v14.05c0 1.874-.725 2.158-1.45 2.214-.7.057-.848.11-.848.4v.507c0 .17.124.225.2.225 1.498 0 2.97-.142 4.467-.142 3.07 0 6.164.142 9.237.142.398-1.416.72-2.49 1.023-3.597.05-.142.073-.284.073-.426 0-.31-.722-.424-.922-.424"/><path d="M249.84 97.868c-1.42 0-2.24-.82-2.95-2.07l-2.66-4.588c-.684-1.19-1.504-2.466-2.584-3.288 2.163-.395 4.218-1.642 4.218-4.136 0-3.767-3.585-4.786-5.272-4.786-2.21.056-1.29 0-4.24.138-2.003 0-3.926-.138-5.114-.138-.132 0-.184.083-.184.25v.685c0 .11.052.195.157.195h.847c1.21 0 1.448.795 1.448 3.656v10.938c0 2.635-.21 3.005-2.186 3.144-.266.028-.32.257-.32.4v.534c0 .173.054.198.345.198.922 0 3.344-.142 4.453-.142 1.054 0 2.107.142 3.16.142.158 0 .29-.025.29-.225v-.68c0-.14-.05-.227-.21-.227-1.185 0-2.03-.45-2.03-2.833v-6.09c1.978 0 2.214.453 2.928 1.7l3.45 6.46c.764 1.417 1 1.895 1.582 1.895.526 0 1.213-.142 1.87-.142 1.053 0 2.11.117 3.162.142v-.963c0-.083-.052-.14-.16-.17zM166.05-5c-.34 0-.707 0-1.048-.027v-4.775c0-1.208.08-2.198 1.728-2.198 2.253 0 3.272 1.53 3.272 3.54 0 2.36-1.78 3.46-3.952 3.46z"/><path d="M251.887 82.383c0-2.08 1.457-3.103 3.233-3.103 2.146 0 3.205 1.534 3.55 3.814h1.19v-3.53c-.45-.71-2.807-1.564-4.503-1.564-3.418 0-6.253 2.107-6.253 6.03 0 6.663 9.115 5.466 9.115 10.42 0 2.133-1.722 3.27-3.868 3.27-2.677 0-3.63-1.964-4.294-3.728H249c.13 1.28.29 2.558.396 3.84 1.536.854 3.23 1.168 4.93 1.168 3.497 0 6.674-2.22 6.674-6.232 0-6.97-9.113-5.522-9.113-10.385"/><path d="M271 98.687v-.562c0-.17-.075-.257-.28-.257-1.256 0-2.084-.2-2.084-1.783V81.83c0-1.275.65-1.7 1.81-1.7.275 0 .5-.028.5-.168v-.79c0-.145-.124-.172-.323-.172-.63 0-2.115.138-3.825.138-1.737 0-3.193-.138-3.55-.138-.173 0-.2.11-.2.278v.657c0 .142.177.195.38.195 1.206 0 1.86.17 1.86 1.7v14.255c0 1.53-.754 1.783-1.936 1.783-.253 0-.352.086-.352.226v.74c0 .11.1.166.174.166 1.31 0 2.642-.142 3.95-.142 1.182 0 2.366.142 3.548.142.2 0 .328-.056.328-.313"/><path d="M308.796 79c-.412 0-1.29.138-2.778.138-1.006 0-1.88-.138-2.47-.138-.18 0-.23.138-.23.31v.454c0 .198.077.366.308.366.822 0 1.646.03 1.646.513 0 .397-.36 1.163-.925 2.096l-2.936 4.987-3.39-5.5c-.516-.792-.848-1.417-.848-1.672 0-.365.716-.425 1.72-.425.234 0 .335-.053.335-.282v-.652c0-.14-.1-.196-.387-.196-.692 0-1.825.138-3.112.138-1.695 0-2.93-.138-4.344-.138-.283 0-.384.138-.384.278v.486c0 .224.126.366.332.366 1.234 0 1.826.82 2.7 2.238l4.22 6.973c.18.312.204.567.204.765v6.09c0 1.673-1.493 1.673-2.112 1.673-.153 0-.28.057-.28.284v.623c0 .17.106.225.258.225 1.182 0 2.237-.142 3.675-.142 1.57 0 2.806.142 4.09.142.155 0 .26-.056.26-.253v-.54c0-.197-.053-.34-.208-.34-.822 0-2.262-.17-2.262-1.585v-6.43c0-.258.154-.51.538-1.162l2.596-4.48c.363-.592.72-1.19 1.08-1.755.645-.993 1.518-2.325 2.55-2.325.257 0 .358-.084.358-.282v-.57c0-.25-.077-.278-.204-.278"/><path d="M375.657 95.39c.173-.71.343-1.59.343-1.77 0-.248-.964-.425-1.204-.425-.174 0-.308.104-.447.352-1.998 3.684-2.34 3.86-6.576 3.86-3.48 0-3.957-.883-3.957-3.08V77.614c0-1.843 1.27-2.197 2.89-2.197.308 0 .344-.212.344-.39v-.744c0-.175-.068-.283-.24-.283-1.48 0-2.993.18-4.51.18-3.34 0-5.338-.18-5.886-.18-.31 0-.414.142-.414.358v.74c0 .213.103.32.343.32 2.137 0 2.895.92 2.895 3.684v14.873c0 2.974-.518 3.61-2.86 3.61-.275 0-.378.142-.378.39v.78c0 .176.14.245.277.245 2.65 0 6.987-.177 9.262-.177 2.234 0 6.09.177 9.19.177.274-1.13.617-2.334.927-3.61"/><path d="M385.688 97.868c-1.417 0-2.353-.2-2.353-1.783V81.83c0-1.275.737-1.7 2.04-1.7.313 0 .567-.028.567-.168v-.79c0-.145-.14-.172-.37-.172-.707 0-2.376.138-4.3.138-1.953 0-3.595-.138-3.988-.138-.2 0-.228.11-.228.278v.657c0 .142.197.195.425.195 1.358 0 2.094.17 2.094 1.7v14.255c0 1.53-.85 1.783-2.18 1.783-.283 0-.394.086-.394.226v.74c0 .11.11.166.197.166 1.473 0 2.974-.142 4.446-.142 1.328 0 2.657.142 3.99.142.225 0 .367-.056.367-.313v-.562c0-.17-.086-.257-.312-.257"/><path d="M413 98.336v-.61c0-.17-.138-.25-.39-.278-.335-.028-.896-.11-1.26-.248-.867-.362-.953-1.664-.953-3.907V81.685c0-1.135.142-1.58 1.764-1.58.338 0 .558-.028.558-.246v-.64c0-.194-.193-.22-.53-.22-.726 0-1.957.135-2.935.135-1.06 0-2.097-.135-3.163-.135-.137.413-.28.914-.474 1.357-1.733 3.877-3.298 7.866-5.033 11.745L394.685 79c-1.233.054-2.52.135-3.245.135-.474 0-2.77-.135-3.107-.135-.138 0-.168.026-.168.272v.475c0 .25.03.358.168.358 1.764 0 2.743.415 2.743 2.383 0 .47-.028.942-.028 1.413l-.282 7.425c-.082 1.58-.222 3.132-.305 4.71-.056 1.135-.278 1.218-1.54 1.36l-.64.053c-.225.028-.28.11-.28.252v.662c0 .17.165.193.502.193 1.066 0 1.875-.14 2.908-.14 1.064 0 2.072.14 2.797.14.31 0 .478-.054.478-.22v-.555c0-.193-.057-.304-.226-.332-1.565-.22-2.575-.44-2.575-2.186 0-1.246.083-2.466.142-3.712l.447-8.478h.057c2.206 5.21 4.755 10.276 6.46 15.707.057.136.14.22.45.22.11 0 .36 0 .416-.195 1.928-5.733 4.027-11.468 6.795-16.87h.055c.114 1.83.114 3.488.114 12.578 0 2.52-.14 2.935-2.6 2.935-.142 0-.168.11-.168.306v.47c0 .22 0 .33.36.33 1.51 0 2.1-.138 4.56-.138 1.26 0 2.433.14 3.526.14.278 0 .502 0 .502-.22"/><path d="M430.914 95.403c.055-.142.086-.284.086-.426 0-.31-.822-.424-1.048-.424-.144 0-.255.056-.51.424l-.88 1.33c-.59.912-.817 1.422-2.09 1.422H422.6c-1.895 0-2.234-.714-2.234-2.27v-6.515h2.716c1.186 0 2.006-.028 2.316.762.228.597.228 1.19.228 1.643 0 .173.083.228.255.228h.65c.14 0 .227-.17.227-.424 0-.88-.03-1.785-.03-2.55 0-1.05.03-2.096.03-3.146 0-.113-.058-.2-.31-.2h-.483c-.142 0-.2.06-.226.2-.426 2.326-1.36 2.21-3.45 2.21h-1.922v-4.956c0-2.298.34-2.438 1.864-2.438h2.686c1.868 0 2.603.34 2.772 2.52.03.428.057.566.2.566h.562c.23 0 .37-.11.37-.31 0-.595-.03-1.22-.03-1.812 0-.624.03-1.276.03-1.898 0-.144 0-.34-.257-.34-3.023 0-6.076.138-9.103.138-1.445-.027-3.678-.138-4.81-.138-.282 0-.537 0-.537.278v.57c0 .282.2.282.483.282.875 0 2.01 0 2.01 1.474v14.05c0 1.874-.824 2.158-1.642 2.214-.794.057-.964.11-.964.4v.507c0 .17.144.225.226.225 1.697 0 3.366-.142 5.06-.142 3.482 0 6.99.142 10.467.142.45-1.416.82-2.49 1.16-3.597"/><path d="M451.05 99.002V99l-.05.002h.05"/><path d="M451.786 98.833v-.74c0-.104.063-.18.214-.21-.015-.004-.026-.01-.042-.015-1.508 0-2.372-.82-3.127-2.07l-2.82-4.588c-.722-1.19-1.59-2.466-2.732-3.288 2.288-.395 4.464-1.642 4.464-4.136 0-3.767-3.796-4.786-5.583-4.786-2.346.056-1.366 0-4.495.138-2.12 0-4.158-.138-5.414-.138-.138 0-.195.083-.195.25v.685c0 .11.057.195.168.195h.894c1.284 0 1.534.795 1.534 3.656v10.938c0 2.635-.222 3.005-2.313 3.144-.282.028-.337.257-.337.4v.534c0 .173.055.198.36.198.98 0 3.546-.142 4.72-.142 1.116 0 2.235.142 3.35.142.167 0 .307-.025.307-.225v-.68c0-.14-.055-.227-.223-.227-1.257 0-2.15-.45-2.15-2.833v-6.09c2.095 0 2.343.453 3.1 1.7l3.656 6.46c.81 1.417 1.06 1.895 1.673 1.895.562 0 1.286-.142 1.98-.142 1.056 0 2.108.1 3.16.136-.07-.015-.147-.067-.147-.16zM367.048-5c-.34 0-.706 0-1.048-.027v-4.775c0-1.208.078-2.198 1.73-2.198 2.247 0 3.27 1.53 3.27 3.54 0 2.36-1.78 3.46-3.952 3.46z"/><path d="M459.69 97.868c-1.425 0-2.366-.2-2.366-1.783V81.83c0-1.275.74-1.7 2.05-1.7.315 0 .572-.028.572-.168v-.79c0-.145-.145-.172-.374-.172-.712 0-2.393.138-4.33.138-1.963 0-3.617-.138-4.014-.138-.2 0-.228.11-.228.278v.657c0 .142.2.195.428.195 1.365 0 2.108.17 2.108 1.7v14.255c0 1.53-.857 1.783-2.194 1.783-.07 0-.13.005-.182.015.083.03.128.083.128.154v.96c1.435-.007 2.894-.14 4.328-.14 1.34 0 2.674.143 4.015.143.23 0 .37-.056.37-.313v-.562c0-.17-.085-.257-.31-.257"/><path d="M451.05 99.006h.102L451 99c.02.002.036.006.05.006"/><path d="M451.226 98c-.16.032-.226.11-.226.22v.77c0 .098.082.152.156.168l.152.006.05-.002V98.16c0-.074-.046-.128-.132-.16"/><path d="M478.938 93.027c-.216 0-.352.566-.435.736-1.304 2.847-2.607 3.813-5.708 3.813-4.758 0-7.718-4.582-7.718-9.22 0-4.666 2.634-8.934 7.446-8.934 3.238 0 4.376 1.965 5.846 4.61l.842-.226c.136-.03.164-.087.164-.174 0-.196-.302-2.446-.462-3.637-.028-.145-.245-.316-.545-.488-1.767-1.023-4.054-1.507-6.037-1.507C466.843 78 461 81.87 461 88.13c0 7.115 5.082 10.87 11.497 10.87 2.31 0 4.43-.482 6.553-1.45l.816-3.36c.08-.31.134-.597.134-.683 0-.255-.843-.48-1.062-.48"/><path d="M500.75 97.868c-1.08 0-1.858-.398-2.664-1.7-1.137-1.843-2.356-3.626-3.493-5.438l-3.218-5.1 4.494-4.82c.61-.62 1.47-.68 2.52-.68.25 0 .308-.11.308-.282v-.597c0-.194-.14-.25-.39-.25-.86 0-2.413.138-3.854.138-1.274 0-2.166-.138-2.69-.138-.167 0-.305.056-.305.278v.54c0 .2.054.312.25.312 1.25.06 1.94.03 1.94.71 0 1.246-5.326 6.148-6.463 7.196v-5.894c0-1.843.554-2.012 2.023-2.012.278 0 .416-.053.416-.25v-.602c0-.195-.083-.278-.303-.278-1.25 0-2.634.138-3.994.138-1.112 0-2.69-.138-3.94-.138-.225 0-.36.056-.36.278v.513c0 .23.055.34.276.34 1.58 0 2.19.144 2.19 2.35v13.576c0 1.585-.747 1.812-2.08 1.812-.33 0-.416.142-.416.284v.535c0 .146.085.313.306.313.86 0 1.913-.142 3.717-.142 1.332 0 2.634.142 4.27.142.226 0 .31-.025.31-.167v-.708c0-.23-.115-.257-.252-.257-1.194 0-2.163-.03-2.163-1.812v-6.462l1.415-1.075 4.744 7.62c.248.37.554.85.554 1.22 0 .396-.695.48-1.86.508-.165 0-.222.142-.222.257v.593c0 .226.113.282.305.282.807 0 1.8-.142 3.498-.142 1.637 0 3.38.142 5.158.142.14 0 .222-.115.222-.253v-.595c0-.142-.028-.284-.25-.284"/><path d="M332 87.283c0-3.35-2.692-5.283-4.95-5.283-4.08 0-8.05 3.54-8.05 7.633 0 2.96 2.066 5.367 4.786 5.367 3.317 0 8.214-2.962 8.214-7.717zM255.16 1.618c-.332.367-1.186 1.382-2.842 1.382-1.93 0-2.318-1.86-2.318-3.042 0-3.24 2.014-8.958 5.6-8.958 1.93 0 2.4 1.75 2.4 3.1 0 2.053-.99 5.293-2.84 7.518z"/><path d="M344.73 79.594c.607 0 1.27-.467 1.27-1.205 0-.87-.94-1.39-2.044-1.39-1.746 0-3.458 1.01-4.505 1.994-1.248 1.118-1.72 2.454-2.13 3.63h-2.02c-.333 0-.47.654-.47.654 0 .11.028.247.192.247h2.02c-1.658 5.433-2.075 6.96-3.677 12.86-.36 1.336-1.024 3.796-2.13 3.796-.47 0-.665-.547-.75-.82-.188-.546-.41-1.172-1.297-1.172-.72 0-1.188.517-1.188 1.148 0 .87.993 1.664 2.35 1.664 1.272 0 2.378-.548 3.29-1.256 1.77-1.393 2.1-2.296 5.033-12.7l.997-3.52h2.654c.303 0 .442-.515.442-.654 0-.108-.028-.247-.192-.247h-2.63c.388-1.446 1.274-4.67 2.52-4.67.302 0 .468.274.66.602.582.956 1.414 1.04 1.606 1.04"/><path d="M285.35 97.88c-1.43 0-2.133-.56-2.133-2.63l.01-14.62h3.16c1.534 0 2.106 1.823 2.576 2.604.077.14.155.197.284.197.65 0 .753-.082.753-.448 0-.224-.52-3.36-.65-4.787 0-.142-.077-.195-.18-.195h-.86c-.283.645-.83 1.23-1.767 1.23H276.46c-.938 0-1.482-.585-1.77-1.23h-.857c-.104 0-.182.053-.182.195-.128 1.428-.65 4.563-.65 4.787 0 .366.106.45.755.45.13 0 .207-.058.288-.198.466-.78 1.038-2.604 2.57-2.604h3.145v14.786c0 2.016-.337 2.463-2.258 2.463-.182 0-.237.138-.237.363v.533c0 .197.184.224.468.224.758 0 1.612-.14 3.198-.14 1.405 0 3.82.14 4.447.14.205 0 .337-.027.337-.197v-.672c0-.165-.132-.25-.363-.25"/><path d="M144.362 122c-1.19 0-2.244.432-3.096 1.35-.79.84-1.266 1.98-1.266 3.19 0 1.254.514 2.56 1.43 3.345.825.72 2.117 1.115 3.157 1.115 2.344 0 4.413-1.844 4.413-4.51 0-2.81-2.255-4.49-4.638-4.49zm-35.62-38c-.992 0-1.705-.798-2.135-1.632-.417-.838-.607-1.8-.607-2.735 0-1.398.54-3.633 2.26-3.633 1.99 0 2.74 2.715 2.74 4.347 0 1.4-.522 3.653-2.26 3.653z"/><path d="M165.754 128.9c-.518 0-.544 1.556-2.42 1.556-.933 0-1.035-.497-1.035-1.174v-4.538c0-.853-.066-1.104.815-1.245.154-.03.36-.054.36-.254 0-.206-.142-.246-.32-.246-.612 0-1.23.053-1.853.053-.672 0-1.32-.053-1.993-.053-.183 0-.31.04-.31.246 0 .213.26.225.414.253.827.14.75.467.75 1.244v4.538c0 .83.04 1.034-.816 1.174-.154.024-.348.113-.348.32 0 .188.127.213.31.213 1.007 0 2.044-.052 3.054-.052.984 0 1.965.05 2.95.05.312 0 .453.093.48-.264.038-.512.206-1.033.206-1.53 0-.182-.04-.295-.246-.295"/><path d="M180.754 128.9c-.516 0-.544 1.556-2.42 1.556-.93 0-1.032-.497-1.032-1.174v-4.538c0-.853-.067-1.104.813-1.245.155-.03.36-.054.36-.254 0-.206-.142-.246-.32-.246-.61 0-1.23.053-1.85.053-.674 0-1.32-.053-1.994-.053-.182 0-.31.04-.31.246 0 .213.26.225.417.253.825.14.75.467.75 1.244v4.538c0 .83.038 1.034-.815 1.174-.156.024-.352.113-.352.32 0 .188.128.213.31.213 1.01 0 2.046-.052 3.055-.052.983 0 1.965.05 2.952.05.307 0 .45.093.476-.264.04-.512.207-1.033.207-1.53 0-.182-.04-.295-.246-.295"/><path d="M193.677 125.238l-.66-.24c-.556-.188-1.194-.465-1.194-1.19 0-.802.79-1.244 1.467-1.244.856 0 1.247.73 1.492 1.5.05.18.128.374.35.374.29 0 .26-.305.26-.52v-.936c0-.265.04-.48-.205-.624-.405-.22-1.237-.358-1.69-.358-1.492 0-3.376.964-3.376 2.782 0 1.372 1.26 1.994 2.286 2.446.806.344 1.935.677 1.935 1.792 0 .988-.947 1.457-1.765 1.457-.48 0-.985-.125-1.348-.495-.314-.33-.404-.7-.523-1.14-.066-.238-.13-.648-.44-.648s-.26.52-.26.743v.756c0 .454-.038.632.377.852.56.29 1.57.455 2.195.455.87 0 1.715-.234 2.39-.828.61-.548 1.035-1.33 1.035-2.196 0-1.6-1.02-2.303-2.323-2.738"/><path d="M212.736 128.386c-.168 0-.26.14-.324.29-.232.465-.465.92-.855 1.265-.388.33-.854.525-1.362.525-.932 0-1.712-.564-2.205-1.376-.45-.76-.643-1.75-.643-2.644 0-.91.205-1.913.71-2.67.493-.728 1.282-1.24 2.138-1.24 1.752 0 1.79 1.64 2.384 1.64.14 0 .246-.085.246-.233 0-.135-.025-.262-.05-.4l-.105-.7c-.063-.39-.063-.44-.415-.552-.595-.175-1.334-.29-1.942-.29-1.243 0-2.63.372-3.642 1.158-1.025.814-1.67 2.05-1.67 3.408 0 1.325.66 2.634 1.643 3.416.935.74 2.27 1.018 3.41 1.018.842 0 1.762-.166 2.49-.634.4-.245.39-.425.415-.88l.036-.577c.015-.207.028-.524-.258-.524"/><path d="M227.36 122c-1.192 0-2.242.432-3.095 1.35-.79.84-1.265 1.98-1.265 3.19 0 1.254.514 2.56 1.427 3.345.828.72 2.12 1.115 3.16 1.115 2.345 0 4.413-1.844 4.413-4.51 0-2.81-2.257-4.49-4.64-4.49zm-35.62-38c-.993 0-1.71-.798-2.136-1.632-.414-.838-.604-1.8-.604-2.735 0-1.398.538-3.633 2.256-3.633 1.993 0 2.744 2.715 2.744 4.347 0 1.4-.524 3.653-2.26 3.653z"/><path d="M245.597 123.5c.172-.028.403-.054.403-.254 0-.206-.158-.246-.36-.246-.678 0-1.375.053-2.065.053-.755 0-1.477-.053-2.226-.053-.204 0-.35.04-.35.246 0 .213.293.226.464.254.925.14.838.468.838 1.247v4.53c0 .83.044 1.05-.91 1.19-.174.022-.392.087-.392.294 0 .19.146.24.35.24.692 0 1.383-.05 2.077-.05.755 0 1.475.05 2.226.05.19 0 .347-.05.347-.24 0-.232-.272-.27-.462-.294-.91-.13-.852-.436-.852-1.19v-4.53c0-.853-.073-1.105.91-1.246"/><path d="M260.754 128.9c-.52 0-.543 1.556-2.42 1.556-.93 0-1.037-.497-1.037-1.174v-4.538c0-.853-.06-1.104.817-1.245.155-.03.363-.054.363-.254 0-.206-.143-.246-.325-.246-.607 0-1.23.053-1.85.053-.67 0-1.317-.053-1.99-.053-.182 0-.312.04-.312.246 0 .213.26.225.413.253.83.14.752.467.752 1.244v4.538c0 .83.038 1.034-.815 1.174-.156.024-.35.113-.35.32 0 .188.13.213.31.213 1.01 0 2.045-.052 3.052-.052.985 0 1.968.05 2.95.05.31 0 .453.093.48-.264.04-.512.208-1.033.208-1.53 0-.182-.04-.295-.246-.295"/><path d="M288.752 128.9c-.516 0-.542 1.556-2.417 1.556-.93 0-1.033-.497-1.033-1.174v-4.538c0-.853-.066-1.104.813-1.245.153-.03.364-.054.364-.254 0-.206-.145-.246-.327-.246-.607 0-1.23.053-1.85.053-.672 0-1.318-.053-1.992-.053-.18 0-.31.04-.31.246 0 .213.26.225.417.253.825.14.745.467.745 1.244v4.538c0 .83.043 1.034-.812 1.174-.154.024-.35.113-.35.32 0 .188.13.213.31.213 1.008 0 2.046-.052 3.053-.052.983 0 1.968.05 2.95.05.313 0 .452.093.48-.264.04-.512.207-1.033.207-1.53 0-.182-.037-.295-.248-.295"/><path d="M306.713 123c-.378 0-.756.027-1.117.027-.376 0-.753-.027-1.13-.027-.19 0-.427 0-.427.254 0 .286.286.21.49.237.275.037.524.098.665.364.123.265.11.727.11 1v3.185c0 .616.027 1.206-.385 1.717-.417.54-1.12.703-1.776.703-.737 0-1.478-.276-1.767-1.016-.188-.438-.175-1.454-.175-1.967v-2.76c0-.84-.062-1.087.79-1.226.153-.026.352-.05.352-.248 0-.202-.138-.242-.315-.242-.588 0-1.193.052-1.793.052-.654 0-1.28-.052-1.935-.052-.177 0-.302.04-.302.242 0 .21.25.222.4.25.807.138.733.46.733 1.224v3.425c0 .967.123 1.745 1.028 2.295.7.426 1.683.565 2.51.565.893 0 1.795-.164 2.5-.727.75-.617.74-1.366.74-2.234v-3.26c0-.223.01-.66.076-.89.098-.31.275-.363.562-.4.188-.026.452.012.452-.236 0-.178-.136-.254-.287-.254"/><path d="M320.598 123.5c.173-.028.402-.054.402-.254 0-.206-.154-.246-.358-.246-.68 0-1.374.053-2.07.053-.75 0-1.475-.053-2.226-.053-.202 0-.346.04-.346.246 0 .213.287.226.462.254.926.14.84.468.84 1.247v4.53c0 .83.043 1.05-.915 1.19-.173.022-.387.087-.387.294 0 .19.144.24.346.24.695 0 1.388-.05 2.08-.05.753 0 1.477.05 2.228.05.192 0 .346-.05.346-.24 0-.232-.273-.27-.462-.294-.912-.13-.85-.436-.85-1.19v-4.53c0-.853-.074-1.105.91-1.246"/><path d="M339.487 130.477c-.224-.01-.392-.052-.497-.267-.106-.23-.12-.652-.132-.894l-.143-4.77c-.014-.5-.078-1.01.548-1.046.198-.015.537.023.537-.232 0-.228-.18-.268-.38-.268h-2.528c-.247 0-.272.26-.35.446L334.578 128l-2.032-4.653c-.103-.23-.088-.347-.365-.347h-2.437c-.208 0-.507 0-.507.268 0 .255.365.217.56.232.67.036.59.304.56.877l-.26 5.13c-.025.474.027.894-.548.97-.196.025-.548.038-.548.297 0 .2.156.226.326.226.394 0 .784-.026 1.19-.026.393 0 .784.026 1.18.026.17 0 .39-.05.39-.266 0-.31-.428-.28-.628-.28-.743 0-.743-.563-.716-1.15l.167-4.43 2.436 5.628c.093.232.142.408.417.408.41 0 .45-.343.552-.648l2.317-5.475.092 4.77c.013.486.028.83-.575.896-.223.024-.606.013-.606.32 0 .214.21.227.383.227.56 0 1.112-.05 1.66-.05.656 0 1.282.05 1.938.05.185 0 .475 0 .475-.253 0-.258-.328-.258-.513-.27"/><path d="M357.645 123c-.37 0-.75.03-1.12.03-.383 0-.754-.03-1.134-.03-.19 0-.468 0-.468.29 0 .304.264.22.482.25.293.04.548.138.685.47.104.246.104.705.104.98v3.356l-3.64-4.89c-.32-.426-.284-.456-.788-.456h-2.244c-.174 0-.432 0-.432.246 0 .306.295.28.498.295.636.04.586.664.586 1.2v4.293c0 .47.026 1.202-.115 1.63-.104.304-.258.4-.538.415-.2.012-.522-.014-.522.29 0 .22.17.288.348.288.392 0 .8-.055 1.207-.055.41 0 .788.056 1.196.056.18 0 .383-.055.383-.288 0-.304-.354-.278-.535-.29-.343-.028-.61-.11-.737-.525-.09-.29-.09-1.01-.09-1.34v-4.554l5.026 6.803c.182.25.346.537.663.537.434 0 .37-.244.37-.632v-6.546c0-.538-.076-1.2.522-1.28.214-.03.648.066.648-.262 0-.236-.167-.28-.355-.28"/><path d="M371.598 123.5c.175-.028.402-.054.402-.254 0-.206-.154-.246-.358-.246-.68 0-1.375.053-2.066.053-.756 0-1.476-.053-2.228-.053-.204 0-.348.04-.348.246 0 .213.287.226.464.254.925.14.835.468.835 1.247v4.53c0 .83.043 1.05-.908 1.19-.175.022-.392.087-.392.294 0 .19.144.24.348.24.69 0 1.387-.05 2.078-.05.754 0 1.48.05 2.232.05.188 0 .342-.05.342-.24 0-.232-.27-.27-.46-.294-.908-.13-.854-.436-.854-1.19v-4.53c0-.853-.07-1.105.912-1.246"/><path d="M388.694 126.5l-.51.054h-2.978c-.203 0-.51.012-.51.32 0 .233.182.286.356.286.293.014.64-.01.83.276.176.275.14.895.14 1.223v.578c0 .247.01.73-.13.934-.138.208-.624.266-.84.266-1.998 0-2.748-2.175-2.748-4.004 0-.884.19-1.887.65-2.626.472-.747 1.223-1.244 2.085-1.244 1.758 0 1.64 1.64 2.253 1.64.192 0 .29-.113.29-.317 0-.206-.047-.465-.087-.675-.114-.81-.01-.77-.698-.947-.573-.15-1.12-.265-1.705-.265-2.508 0-5.093 1.707-5.093 4.665 0 1.337.584 2.588 1.605 3.343.928.7 2.242.992 3.372.992.75 0 1.588-.125 2.29-.44.244-.122.852-.465.852-.825 0-.18-.027-.36-.036-.525l-.066-1.25c-.024-.62.05-.716.588-.84.174-.043.394-.084.394-.344 0-.21-.13-.275-.306-.275"/><path d="M407.63 122.638c.158-.025.368-.047.37-.247 0-.2-.14-.24-.32-.24-.618-.013-1.24.028-1.866.02-.674-.013-1.326-.07-2.005-.082-.183-.003-.314.033-.314.23-.007.216.253.232.41.257.83.153.747.476.736 1.24l-.02 1.213c-.008.466.005.454-.442.447l-2.317-.038c-.456-.006-.465-.006-.46-.456l.02-1.216c.014-.838-.048-1.09.843-1.214.156-.022.364-.044.37-.244 0-.2-.14-.24-.323-.245-.61-.008-1.24.034-1.864.025-.678-.013-1.327-.072-2.004-.085-.185-.002-.315.034-.318.238-.004.21.256.225.414.254.827.15.743.474.733 1.24l-.08 4.442c-.01.813.024 1.026-.84 1.15-.154.023-.353.083-.355.285-.004.184.128.24.308.244.626.007 1.252-.034 1.878-.022.677.01 1.33.07 2.005.08.172.003.314-.044.318-.233.004-.226-.244-.268-.415-.293-.815-.14-.757-.438-.746-1.18l.028-1.752c.012-.514-.028-.465.518-.456l2.317.04c.353.004.38-.036.385.3l-.03 1.92c-.013.814.022 1.026-.842 1.15-.158.026-.35.083-.355.283-.003.19.128.238.308.244.626.01 1.253-.03 1.88-.022.672.013 1.323.072 2 .085.17.003.315-.05.316-.234.004-.226-.24-.27-.412-.296-.818-.14-.76-.438-.748-1.177l.077-4.444c.016-.84-.046-1.09.84-1.212"/><path d="M74.486 70h6.028c-1.39-3.232-1.776-6.39-1.78-13.52.44.037 3.74.642 5.266 1.236V53s-2.903 1.085-6.498 1.07C73.9 54.053 71 53 71 53v4.716c1.526-.594 4.826-1.2 5.27-1.236-.01 7.13-.395 10.288-1.784 13.52"/><path d="M95.996 59.692l.704-.068c-.388-.416-.9-.624-1.474-.624H95c.29.276.544.738.996.692"/><path d="M84.518 102L84 103.02h8l-.516-1.02h-6.966"/><path d="M57 61.364l.168.024c.11-.072.21-.192.248-.32l-.02-.068c-.158.078-.406.146-.396.364"/><path d="M84 103h8v4h-8v-4z"/><path d="M99.41 61.364c.012-.218-.234-.286-.392-.364l-.018.068c.038.128.136.248.246.32l.164-.024"/><path d="M111 94.128c-.555-.253-.99-.75-1.482-1.128h-.102c-.163.322-.253.67-.484.967-.678.774-1.65 1.555-2.883 1.344-.14.078.072.137 0 .24 1.24-.096 2.327.127 3.366.45.683-.572 1.26-1.175 1.584-1.872"/><path d="M59.698 59.692c.454.046.712-.416.996-.692h-.226c-.57 0-1.086.208-1.468.624l.698.068"/><path d="M107.508 92.953c.164-.068.54-.31.54-.31s1.17 1.43 1.785 1.772c.165-.47.274-1.183 0-1.633-.397-.713-1.16-.93-1.855-.687-.75.587-1.547 1.354-1.978 2.238.077.217.183.47.358.603.333.126 1.613.298 1.15-1.983"/><path d="M106 47H50v36.3c-.113 23.042 19.447 31.394 27.95 35.7 8.502-4.306 28.058-12.658 28.05-35.7V47zM33-9.173C69.087 55.54 57.837 63.937 42.002 72 26.166 63.937 14.915 55.54 15 36.827V2h54v34.827z"/><path d="M60.477 89.886c-.206-.1-.337-.325-.48-.495l-.017.028.06.756c-.433-.06-.87-.18-1.13-.568-.063-.253-.23-.49-.195-.756.512.05 1.05.03 1.46-.245.17.383.314.786.35 1.238l9.916-9.513c-.16-.153-.33-.273-.5-.402l-.018.03c.054.234.066.5.084.756-.56-.04-1.06-.295-1.43-.69-.037-.285-.13-.614 0-.877l.036.025c.39-.025.797-.018 1.093-.26.432.368.775.814.754 1.404l7.648-7.334L101.842 96c1.204-3.02 2.124-7.87 2.158-12.21V49H52v34.79c.05 4.2.558 7.92 2.117 12.197l6.36-6.1zm-24-70.766c-.97.015-1.704.662-2.474 1.17-.43.28-.88.444-1.366.575l.065.04.673.046-.862.665c-.413.047-1.116.02-1.507.112l1.086.225-.838.593c-.38.012-1.01-.244-1.377-.194.202.145.685.425.896.55-.272.27-.602.49-.9.714-.23.043-.383-.08-.548-.164-.68-.427-1.598-1.273-2.343-1.523 0 0 .963 1.09 1.248 1.598l-.14.213c-.818.794-1.617 2.635-2.52 3.193-.58.518-.983 1.19-.983 1.95.51-1.097 1.65-1.653 2.657-1.99 1.08-.217 2.283-.066 3.175.552.615.496.645 1.35.533 2.13-.237 1.237-1.098 2.207-1.8 3.255-.043.074-.09.19-.035.285.082.186.218 0 .33 0 .99-.622 2.024-1.375 3.272-1.063.262.125.59.42.655.725-.253.29-.583.368-.945.36-.055-.05-.136 0-.194-.05.01-.027-.024-.037-.043-.068-.526.068-.974.364-1.42.645-.855.508-1.644 1.182-2.663 1.265-.257-.036-.53-.075-.673-.335-.118-.277-.057-.594-.04-.904.11-.768.465-1.486.33-2.302-.165-.596-.775-.76-1.254-.883-.42-.126-.875-.163-1.3-.268l-.02.018c.693 1.112 1.42 2.2 1.463 3.59-.143 1.478-1.7 2.19-2.782 2.7-.6.316-1.537.527-1.62 1.42-.156.767-.027 2.156.384 2.758.45.643 1.273 1.142 1.38 1.952-.373.372-1.008.4-1.472.22-.246-.503-.72-.79-1.24-.8-.298-.2-.188-.62-.18-.93.475-1.525-1.008-3.054-.78-4.534.328-.693 1.145-.624 1.682-1.036.39-.347.545-.866.435-1.422-.32-1.085-1.63-1.69-1.99-2.764-.183-.483-.228-1.03-.228-1.595-.272.693-.22 1.603-.044 2.324.135.604.435 1.133.88 1.594.03.056.03.165 0 .22-.098.06-.208.01-.29-.04-1.393-1.454-2.175-3.543-1.51-5.575.427-1.19 1.13-2.255 2.027-3.237.91-1.027 1.398-3.512 1.91-4.71l-.203.142-.65.798-.046-1.036c.536-.664 1.33-1.736 1.33-1.736L22.26 19.58c.084-.52-.202-.92.246-1.17l1.328-1.24-.018-.02c-.347.163-1.075.63-1.437.767.218-.64.574-1.236 1.053-1.767.545.05 1.1.012 1.592-.133-.03.182-.03.412 0 .596.318-.242.698-.358.945-.73.037.134.072.28.147.393.553-.624.9-1.373.883-2.276.617.28 1.218.606 1.798.97.155.183.21.402.274.624-.138-.006-.466-.118-.602-.062l.83.705c.108.308.21.626.273.952-.237-.108-.727-.375-.97-.397.278.332.823.735 1.06 1.077.1.376.057.737.035 1.14-.226-.246-.753-.61-1.04-.835 0 0 .862 1.33 1.122 1.894.52.307 1.285.183 1.786-.07l2.982-1.374c.78-.335 1.572-.64 2.426-.792.12.496-.19.937-.498 1.286zm2.94-3.68l.42.17c-.33.398-.743.656-1.19.794-.2-.092-.43-.102-.647-.16.062-.112.148-.206.21-.316.324-.246-.03-1.042.574-.914.4-.008.782-.008 1.142.092-.22.12-.508.166-.754.276.058.088.178.012.246.058zm-1.073 1.61c.534-.078 1.162-.078 1.656.092-.275.116-.55.238-.838.314.275.1.563.19.82.346-.25.29-.565.508-.868.684-.358-.048-.73-.078-1.114-.07.275-.384.454-.872.344-1.366zm6.656.092c.49-.17 1.12-.17 1.654-.092-.11.496.07.982.346 1.37-.386-.01-.757.018-1.115.066-.306-.176-.62-.394-.865-.684.252-.156.54-.246.815-.346-.284-.076-.563-.198-.835-.314zm0-2.036c.354-.1.742-.1 1.14-.092.602-.128.246.668.574.914.06.11.148.21.208.316-.22.058-.446.068-.646.16-.444-.138-.862-.396-1.186-.794l.414-.17c.07-.046.186.03.25-.058-.25-.11-.54-.156-.754-.276zm6.932 19.062c-.378.414-.893.684-1.462.726.02-.27.025-.548.086-.794l-.02-.032c-.183.14-.363.272-.534.44-.034-.638.326-1.11.77-1.508.303.256.723.248 1.123.274l.037-.026c.132.276.038.622 0 .92zm9.804 9.884c-.278.408-.744.534-1.212.596l.07-.794-.02-.028c-.168.198-.316.476-.574.556.028-.508.188-.954.388-1.382.432.29 1.012.31 1.554.258.04.28-.136.528-.206.794zm2.062-14.24c0 .565-.048 1.11-.23 1.594-.363 1.075-1.673 1.68-1.992 2.764-.108.556.046 1.075.437 1.422.537.412 1.354.343 1.684 1.036.226 1.48-1.255 3.01-.785 4.535.01.308.12.73-.178.93-.52.01-.993.296-1.24.798-.463.183-1.098.154-1.474-.218.112-.81.928-1.31 1.383-1.95.41-.603.538-1.992.384-2.76-.083-.892-1.022-1.103-1.62-1.42-1.083-.51-2.637-1.22-2.784-2.698.046-1.39.775-2.48 1.464-3.59l-.016-.02c-.427.106-.882.143-1.3.27-.484.123-1.09.286-1.255.882-.136.816.218 1.534.327 2.302.018.31.082.627-.037.904-.147.26-.418.3-.673.335-1.02-.083-1.81-.757-2.663-1.265-.45-.28-.893-.577-1.42-.645-.018.03-.058.04-.047.068-.053.05-.136 0-.19.05-.362.008-.69-.07-.946-.36.065-.304.39-.6.655-.726 1.244-.313 2.283.44 3.274 1.062.11 0 .246.186.328 0 .055-.095.008-.21-.035-.285-.703-1.048-1.568-2.018-1.804-3.254-.107-.78-.083-1.635.537-2.13.89-.62 2.09-.77 3.176-.553 1.007.337 2.143.893 2.65 1.99 0-.76-.4-1.432-.98-1.95-.9-.557-1.7-2.398-2.52-3.192l-.14-.213c.287-.507 1.25-1.598 1.25-1.598-.745.25-1.662 1.096-2.347 1.523-.16.083-.315.207-.545.164-.3-.223-.627-.443-.9-.715.208-.125.693-.405.897-.55-.366-.05-.997.207-1.38.195l-.835-.593 1.086-.225c-.39-.09-1.097-.065-1.504-.112l-.865-.664.674-.044.065-.04c-.483-.132-.938-.297-1.365-.576-.774-.508-1.5-1.155-2.474-1.17-.31-.347-.618-.79-.5-1.286.856.15 1.645.457 2.43.792L52.435 20c.503.253 1.267.377 1.782.07.264-.566 1.12-1.895 1.12-1.895-.28.226-.812.59-1.037.835-.018-.403-.064-.764.04-1.14.232-.342.777-.745 1.06-1.077-.242.022-.734.29-.97.396.06-.327.16-.645.273-.953l.827-.705c-.136-.056-.462.056-.598.062.06-.222.114-.44.27-.623.58-.364 1.18-.69 1.8-.97-.02.903.326 1.652.882 2.276.072-.114.112-.26.147-.393.245.372.628.488.948.73.024-.184.024-.414 0-.596.49.145 1.042.182 1.59.133.48.53.835 1.126 1.054 1.767-.365-.136-1.094-.604-1.437-.767l-.018.02 1.326 1.24c.452.25.165.65.248 1.17l-1.348-1.026s.793 1.072 1.33 1.736l-.047 1.036-.648-.798-.2-.14c.51 1.196.995 3.68 1.907 4.708.9.982 1.598 2.046 2.027 3.237.664 2.032-.12 4.12-1.51 5.575-.083.05-.192.1-.29.04-.026-.055-.026-.164 0-.22.443-.46.744-.99.88-1.594.176-.72.23-1.63-.042-2.323zM50.035 8.78c.403.148.825.265 1.244.346l.03-.024c-.194-.526-.41-1.043-.47-1.62 0-.262-.118-.66.103-.838.21.428.347.91.762 1.22.08-.537.19-1.052.445-1.513.102-.106.197-.314.36-.29.082.66-.037 1.422.42 1.89.403-.662.943-1.435 1.65-1.756.097.018.207-.04.253.097-.22.615-.5 1.2-.66 1.844-.155.626-.155 1.376 0 2.003.276 1.202 1.46 2.098 2.54 2.312.354.06.83.14 1.07-.243.264-.39-.016-.83-.08-1.22.025-.038.08-.01.127-.022.427.15.715.635.823 1.057.076.184-.09.574.228.546.226 0 .313-.19.488-.5.144-.378.018-.797-.103-1.15.15.022.305.048.426.135.385.255.348.732.595 1.065.73-.212 1.428-.83 1.83-1.552.585-1.084.374-2.626-.19-3.65-.12-.272-.35-.505-.457-.788.06-.11.152.018.245-.02.596.332 1.255.916 1.548 1.57.35-.448.358-1.042.393-1.64.03-.01.037-.047.067-.04.492.363.702.98.724 1.62.38-.194.43-.66.693-.974.11-.008.11.085.148.168.1.798-.12 1.52-.468 2.153.41.018.788-.194 1.183-.29v.087c-.286.536-.852.888-1.283 1.238.256.147.587.09.888.14.09.007.053.116.053.173-.393.51-.986.645-1.454.966.218.264.513.323.758.48.084.08.01.156-.06.207-.48.17-.972.05-1.477.018-.028.236.204.42.295.623.035.11.137.266.024.343-.438.03-.83-.177-1.16-.468-.065.332.22.605.144.938l-.256-.07c-.41-.29-.835-.732-1.39-.536-.535.174-.743.246-.743.246s.478.1 1.547.995c.66.596 1.445 1.288 1.666 2.157-.11.51-.67.34-1.034.408l-.47-.382c-.263-.182-.547-.398-.887-.34.405.38.87.575 1.29.9v.116c-.025.097-.126.086-.21.086-.523-.3-1.015-.67-1.604-.808-.914 0-1.785.067-2.517-.41-.037.088-.01.262-.018.293l-.468-.92c-.102.176-.137.372-.21.568-.21-.44-.275-.975-.21-1.512l-.018-.02c-.35.118-.735-.058-1.082.07-.186.048-.342.234-.486.36v-.136c.018-.575.566-.938.997-1.135l-.048-.037c-.668-.042-1.392-.14-2.05 0-.456.01-.73.487-1.18.534.09-.235.21-.465.274-.72.026-.1.047-.214.026-.313-.4.273-.824.618-1.305.535.05-.37.27-.678.457-1-.533-.034-1.164.055-1.688-.074.193-.35.59-.467.86-.742-.51-.313-1.088-.447-1.538-.922v-.044c.312-.235.715-.196 1.034-.39-.254-.166-.493-.362-.757-.516-.247-.253-.643-.467-.715-.85.02 0 .026-.01.035-.03zm2.413 8.278c.467.157.953.287 1.45.367-.025.88.038 1.73.102 2.573-.064-.036-.127-.118-.21-.136l-1.995-1.596c-1.298-.963-2.58-1.94-4.155-2.15-.32-.305-.61-.66-.64-1.118 1.02.21 1.997.557 2.946.94l2.502 1.12zM35 6s3.487 1.657 7.503 1.682C46.513 7.71 50 6 50 6v7.565c-1.763-.83-4.71-1.586-5.45-1.647-.026 7.174.565 10.61 2.444 14.082h-8.987c1.876-3.47 2.475-6.908 2.445-14.082-.74.06-3.687.817-5.452 1.647V6zm2 9c-.028.457-.32.813-.638 1.12-1.578.208-2.864 1.19-4.157 2.148l-1.997 1.596c-.083.018-.147.1-.208.136.06-.843.125-1.694.1-2.573.5-.08.983-.21 1.447-.367l2.508-1.12C35 15.558 35.977 15.21 37 15zM18 8.764v-.087c.394.096.77.308 1.18.29-.346-.633-.565-1.355-.465-2.153.035-.083.035-.176.147-.168.265.313.31.78.696.974.018-.64.228-1.257.722-1.62.028-.007.037.03.063.04.037.598.05 1.192.394 1.64.295-.654.954-1.238 1.548-1.57.093.038.184-.09.247.02-.107.283-.338.516-.456.787-.57 1.025-.78 2.567-.192 3.65.4.724 1.1 1.34 1.83 1.553.248-.333.213-.81.597-1.065.12-.087.276-.113.42-.134-.118.353-.244.772-.1 1.15.173.31.26.5.485.5.323.03.156-.36.23-.545.112-.422.394-.907.823-1.057.046.012.1-.016.13.022-.065.39-.347.83-.084 1.22.24.38.715.302 1.074.242 1.08-.214 2.26-1.11 2.534-2.31.156-.628.156-1.378 0-2.004-.156-.645-.438-1.23-.66-1.844.047-.137.157-.08.26-.097.703.32 1.247 1.094 1.648 1.757.457-.47.338-1.23.42-1.892.165-.023.256.185.356.29.258.462.368.977.45 1.515.414-.312.55-.793.76-1.22.22.177.103.575.103.838-.06.576-.276 1.093-.47 1.62l.027.023c.42-.08.84-.198 1.248-.345.007.02.018.028.035.028-.076.385-.468.6-.713.852-.27.154-.505.35-.76.516.32.194.723.155 1.03.39v.044c-.445.475-1.022.61-1.536.922.275.275.67.392.864.742-.522.13-1.157.04-1.686.073.184.322.4.63.457 1-.487.082-.908-.263-1.31-.536-.018.1 0 .214.03.313.062.255.18.485.275.72-.453-.047-.726-.524-1.182-.534-.66-.14-1.386-.042-2.052 0l-.045.036c.43.196.982.56.998 1.134v.137c-.148-.126-.304-.312-.484-.36-.35-.128-.734.048-1.083-.07l-.016.02c.062.538 0 1.074-.21 1.513-.077-.196-.11-.392-.215-.568l-.465.92c-.01-.03.02-.205-.017-.294-.733.48-1.604.412-2.52.412-.586.137-1.082.51-1.604.808-.08 0-.18.01-.21-.086v-.116c.422-.325.888-.52 1.29-.9-.337-.058-.62.158-.886.34l-.467.382c-.364-.068-.923.1-1.035-.408.22-.87 1.007-1.56 1.668-2.157 1.066-.896 1.548-.995 1.548-.995s-.208-.072-.74-.246c-.562-.196-.982.246-1.394.535l-.256.07c-.073-.333.21-.606.147-.938-.33.29-.725.5-1.163.47-.11-.078-.01-.235.026-.344.09-.203.32-.387.294-.623-.504.032-.998.153-1.475-.018-.073-.05-.147-.126-.066-.207.247-.157.542-.216.762-.48-.468-.32-1.063-.456-1.458-.965 0-.057-.035-.166.056-.174.302-.05.633.01.887-.138-.43-.35-.998-.702-1.28-1.238z"/><path d="M83.494 101.51L84 96H71l.516 5.488c.288.615.67 1.18 1.003 1.775 0 0 .226.272.072.403-.153.123-.375.225-.61.233v3.1h1.825v-2.314c-.04-.98.052-1.89.183-2.795.266-1.157.632-2.298 1.594-3.15.9-.74 2.36-.802 3.394-.308 1.686 1.025 2.04 2.895 2.222 4.69l.023 3.878h1.826v-3.1h-.308c-.336-.022-.344-.3-.304-.546.377-.606.72-1.22 1.056-1.844zM1.53 7L36 52.01c.46-.348.98-.683 1.476-1.01.508.335 1.016.662 1.524.992-.488.336-.984.67-1.47 1.008zm8.004 0L44 52.01c.466-.348.982-.683 1.483-1.01.504.335 1.013.662 1.517.992-.45.357-.968.68-1.466 1.008z"/><path d="M75.645 78.53c-.28 0-.542.16-.645.403.103.243.366.404.645.404 0 .116.19.498.66.498-.04-.093-.275-.498.253-.498h1.003l-.003 2.04c-.623.08-1.212.34-1.762.623h4.264c-.53-.282-1.036-.502-1.617-.633v-2.03h1c.533 0 .293.405.252.498.472 0 .66-.382.66-.498.28 0 .546-.16.645-.404-.1-.242-.364-.402-.645-.402 0-.117-.188-.5-.66-.5.04.095.28.5-.253.5h-1v-1.113c0-.482.448-.262.545-.227 0-.428-.42-.603-.544-.603 0-.25-.178-.495-.443-.587-.265.092-.443.336-.443.587-.125 0-.544.175-.544.603.103-.035.544-.255.544.227l.004 1.114H76.56c-.528 0-.292-.405-.253-.5-.47 0-.66.383-.66.5"/><path d="M64 88l.05 2.157.75.843h5.41l.717-.827L71 88h-1.446v.787h-1.176V88h-1.91v.787h-1.055V88H64"/><path d="M71 92.016L71.22 94h13.594L85 92.016h-1.013l.13 1H81.66l-.094-1h-.698c.04.318.012.69.023 1h-2.34l-.042-1h-.843l-.075 1h-2.357l.054-1c-.283 0-.595-.036-.847 0 0 .347-.082.675-.11 1h-2.435l.117-1H71"/><path d="M101.46 109.95c.723.238 1.208-.433 1.732-.862 1.585-2.084 2.912-4.355 4.843-6.32 1.51-1.466 2.9-3.234 4.97-3.255.234.032.263.317.335.51.138.853.722 1.364 1.346 1.92 1.14-1.9 1.672-4.48 1.052-6.772-1.86-1.097-3.617-3.03-4.298-5.17-.36.042-.724.172-1.006.318l.382.134c.677.374.863 1.133.88 1.88-.3 2.246-1.676 4.046-3.37 5.63l-3.406 4.075-1.986 2.744c-.823 1.353-1.74 2.67-1.934 4.308.09.318.117.7.46.862"/><path d="M63.51 102l-.51 1.02h8l-.514-1.02H63.51"/><path d="M64 103h8v4h-8v-4z"/><path d="M71 100l-.81-8h-4.83L64 100h7zM-4.242 0c1 .27.738 1.42.828 1.742H31c.066-.31-.13-1.364.758-1.742zm-2.218 4.448c.214 0 .396.124.483.306h.732v-.73c-.18-.09-.3-.272-.3-.484 0-.296.243-.54.54-.54.296 0 .54.244.54.54 0 .215-.13.4-.31.486v.728h.755c.087-.175.27-.296.483-.296.298 0 .537.24.537.54 0 .295-.24.536-.537.536-.217 0-.4-.13-.486-.31h-.752v.755c.177.086.297.27.297.48 0 .296-.24.54-.537.54-.3 0-.54-.244-.54-.54 0-.214.127-.398.31-.486v-.75h-.735c-.085.18-.27.298-.48.298-.3 0-.54-.24-.54-.54 0-.294.24-.534.54-.534z"/><path d="M85.82 92l-.82 8h7l-1.365-8H85.82zM16.76 0c.996.27.734 1.42.824 1.742H52c.066-.31-.13-1.364.762-1.742zm.7 5.534c-.215 0-.4-.13-.488-.31h-.748v.755c.178.086.297.27.297.48 0 .296-.24.54-.54.54-.296 0-.537-.244-.537-.54 0-.214.126-.398.307-.486v-.75h-.73c-.09.18-.274.298-.484.298-.3 0-.54-.24-.54-.54 0-.294.24-.534.54-.534.213 0 .4.124.486.306h.727v-.73c-.177-.09-.297-.272-.297-.484 0-.296.24-.54.54-.54.297 0 .538.244.538.54 0 .215-.127.4-.308.486v.728h.75c.09-.175.275-.296.485-.296.298 0 .54.24.54.54 0 .295-.242.536-.54.536z"/><path d="M81 102.918l-.032-.57h-.72v-1.538h.505l-.148-.57h-.358v-.815c-.21-.393-.514-.824-.926-1.067h-1.04v-.34c-.18-.024-.413-.024-.588 0v.34h-1c-.48.23-.955 1.087-.955 1.087v.795h-.342l-.15.57h.474v1.538h-.687c-.01.184-.042.38-.03.57h.716v1.348h-.462c.258.225.497.507.76.734l.766-.734c-.158-.008-.324.048-.46 0v-1.348h1.368v1.348h-.468l.767.734.758-.734h-.47v-1.348h1.382v1.348h-.476l.77.734.754-.734h-.46v-1.348H81zM4 9h1.512v1.722H40V55zm0-2h1.512v1.45H40V53zm2 2h1.532v1.722H42V55zm0-2h1.532v1.45H42V53z"/><path d="M85 88l.07 2.173.717.827h5.41l.75-.843L92 88h-1.413v.787H89.53V88H87.62v.787h-1.177V88H85"/><path d="M73 89h11c-.105-2.63-.56-5.118-2.58-7h-5.827c-2.125 1.796-2.552 4.868-2.593 7"/><path d="M72 91.118h.63l-.113.88h.65s.028-.592.1-.88h2.49l-.04.88h.61l.04-.88h2.484l.018.88c.213-.007.457.017.63-.016.042-.306 0-.864 0-.864h2.27l.09.88h.68c-.05-.29-.143-.88-.143-.88s.405.01.605 0L82.823 90H72.16L72 91.118"/><path d="M45.167 94.415c.613-.342 1.784-1.772 1.784-1.772s.38.242.544.31c-.463 2.28.814 2.11 1.148 1.983.177-.134.283-.386.358-.603-.43-.884-1.224-1.65-1.977-2.238-.697-.242-1.46-.026-1.856.687-.274.45-.166 1.163 0 1.633"/><path d="M42.662 100.023c.072-.193.097-.478.336-.51 2.064.02 3.46 1.79 4.968 3.254 1.933 1.966 3.256 4.237 4.846 6.32.52.43 1.007 1.1 1.73.863.343-.162.37-.544.458-.862-.193-1.64-1.113-2.955-1.933-4.307l-1.985-2.743-3.406-4.075c-1.696-1.584-3.072-3.384-3.373-5.63.018-.747.203-1.506.884-1.88l.38-.134c-.284-.146-.645-.276-1.006-.318-.678 2.14-2.436 4.073-4.3 5.17-.616 2.293-.087 4.872 1.052 6.773.626-.556 1.208-1.067 1.35-1.92"/><path d="M114.55 103.656c.69 1.162 1.476 2.274 2.42 3.205-.055.05-.09.124-.17.096-1.98-1.47-3.64-3.627-4.29-5.956-.472.183-.945.336-1.387.597.306.208.705.382.87.775.553.875.126 1.992-.347 2.752-2.24 3.393-5.076 6.53-8.27 9.145-6.327 4.787-13.454 8.448-21.07 9.023-1.504.113-2.93.177-4.306.174-1.372 0-2.803-.06-4.31-.174-7.61-.575-14.738-4.236-21.066-9.024-3.194-2.617-6.03-5.753-8.27-9.146-.472-.76-.9-1.877-.346-2.752.165-.393.562-.567.872-.775-.447-.26-.915-.414-1.388-.597-.652 2.33-2.312 4.487-4.29 5.956-.08.028-.116-.047-.17-.095.943-.93 1.73-2.042 2.42-3.204-1.36.795-2.784 1.45-3.936 2.79-.39.77-.735 1.774-.345 2.657 4.942 9.07 13.558 15.16 21.988 19.13 5.515 2.346 11.505 3.74 17.824 3.75.34.006.683.02 1.018.016.338-.003.68-.01 1.015-.018 6.32-.01 12.313-1.403 17.824-3.75 8.433-3.97 17.047-10.058 21.987-19.13.392-.882.047-1.887-.345-2.655-1.15-1.34-2.574-1.996-3.932-2.79zM-30.416 20.89c.14-.095.233-.162.31-.22-.093-.15-.99-1.164-1.248-1.448-.14-.15-.476-.503-.646-.67l.128-.054c.07.07.347.32.496.415.108-.05 1.07-.697 1.636-1.09l.237-.17c.463-.323 1.27-.908 1.413-1.036-.058-.102-.272-.402-.357-.522L7.646 62c.188.224.527.617.714.816.132.144 1.1 1.204 1.247 1.3.076-.03.174-.08.275-.135l.118.09c-.13.055-.983.554-1.15.656l-.055-.123c.036-.028.273-.185.37-.26.077-.185-.49-.924-.71-1.166-.085.04-1.098.717-1.4.93l-.103.07c.355.384.792.8.934.875.1-.032.183-.067.263-.112l.097.09c-.104.052-.886.465-1.07.556l-.037-.115c.113-.07.25-.16.353-.232-.046-.195-.337-.57-.69-.955l-.104.072c-.316.22-1.423 1.023-1.56 1.14.414.45.843.845 1.166.955.227-.074.407-.16.544-.217l.126.086c-.18.07-1.05.52-1.326.68l-.066-.11zm5.306 4.995l-.086.115c-.047-.068-.51-.558-.76-.816-.132-.137-.673-.67-.81-.792l.122-.076c.18.154.362.3.54.418.166-.328.845-1.67.91-1.886-.165-.166-.943-.896-1.142-1.05-.096.04-1.253.67-1.668.986.084.154.22.332.336.48l-.082.12c-.134-.16-.55-.608-.69-.745-.12-.13-.442-.437-.56-.54l.116-.085c.148.123.313.243.468.348.47-.125 3.972-1.704 4.218-1.817-.075-.133-.21-.31-.307-.442L11.59 66c.13.155.51.567.59.644.196.203.676.675.82.804l-.114.086c-.136-.11-.282-.223-.42-.305-.153.263-.645 1.268-.967 1.947-.238.497-.75 1.585-.956 2.224.108.164.226.322.346.485zm4.552 1.406l-.13.152c-.153.17-.37.416-.476.558-.365-.142-1.095-.555-1.444-.81-.33-.24-.897-.707-1.154-1.22-.387-.766-.294-1.564.22-2.148.583-.658 1.357-.866 2.05-.815.724.05 1.317.344 1.837.728.44.322.923.778 1.043.96.088-.062.37-.28.474-.37l.138.066c-.19.16-.977.942-1.344 1.387l-.07-.145c.132-.164.25-.346.323-.468-.005-.24-.094-.818-.928-1.43-.89-.65-2.014-.485-2.672.26-.67.76-.82 2.254.283 3.066.132.098.45.298.754.358.072-.064.217-.218.423-.45l.22-.248c.127-.146.25-.295.308-.388-.093-.085-.39-.342-.47-.43l.056-.123c.257.208.644.5.825.63.244.182.743.54.813.577l-.114.078c-.05-.03-.356-.216-.49-.273-.083.066-.36.37-.478.5zm3.817 1.787c-.03-.117-.29-1.874-.346-2.17-.085.094-1.797 2.776-1.844 3 .065.07.455.34.553.407l-.055.115c-.092-.066-.658-.398-.802-.477-.163-.092-.6-.322-.766-.4l.09-.1c.166.07.35.153.505.19.234-.16 2.195-2.955 2.307-3.122-.112-.094-.364-.27-.57-.398l.052-.122c.315.165.837.45 1.282.672.006.24.264 2.132.298 2.274.05.22.274 1.686.36 1.92.377-.56 1.557-2.332 1.624-2.657-.097-.084-.363-.287-.51-.386l.04-.12c.102.068.69.412.813.48.12.07.588.316.71.37l-.093.092c-.078-.03-.307-.097-.468-.162-.2.158-.705.854-.823 1.01-.175.227-1.643 2.32-1.81 2.506-.074-.235-.51-2.718-.548-2.923zm5.666.75c-.15-.048-.317-.09-.46-.115-.046.255-.144 1.202-.206 1.836-.042.468-.13 1.487-.1 2.053.147.103.302.193.46.284l-.037.116c-.063-.038-.627-.292-.926-.418-.166-.07-.808-.33-.966-.386l.086-.095c.204.07.413.133.606.17.032-.31.187-1.582.174-1.77-.2-.084-1.115-.426-1.34-.485-.07.06-.868.908-1.125 1.282.124.096.3.195.45.28l-.03.118c-.17-.087-.68-.314-.842-.38-.147-.064-.534-.215-.668-.26l.074-.098c.17.05.353.097.52.13.37-.24 2.89-2.554 3.07-2.717-.107-.084-.286-.183-.412-.257l.05-.113c.165.083.63.293.722.335.24.1.806.33.976.39l-.074.1zm9.485 4.24l-.13-.083c.03-.123.082-.433.09-.547-.048-.314-.505-.93-1.282-1.134-1.1-.292-1.988.382-2.217 1.392-.29 1.263.436 2.59 1.708 2.926.457.118 1.02.187 1.512.027l-.15.256c-.167.085-.84.192-1.783-.06-.225-.058-.876-.26-1.305-.642-.69-.624-.985-1.483-.796-2.315.207-.892.78-1.442 1.397-1.683.734-.29 1.314-.227 1.922-.065.53.14 1.064.404 1.22.503.06-.075.226-.474.262-.545L35 78.1c-.255.688-.442 1.35-.59 1.968zm6.536-.374c-.124 0-.47.017-.655.02-.044.123-.19 1.413-.206 1.58l-.045.44c-.082.727-.173 1.764-.156 1.978.128.04.506.137.636.154l.013.136c-.116-.027-.76-.103-1.06-.134-.273-.03-.87-.078-1.086-.086l.044-.13c.096.002.52-.012.638-.023.06-.207.144-1.005.216-1.667l.036-.365c-.298-.02-2.553-.136-2.644-.125l-.027.22c-.065.64-.125 1.445-.125 1.68.17.052.48.13.608.148l.016.134c-.133-.025-.757-.102-1.03-.13-.33-.035-.926-.083-1.12-.09l.052-.127c.148.01.547-.01.67-.023.053-.287.17-1.34.223-1.817l.06-.588c.02-.197.138-1.378.134-1.59-.11-.033-.5-.122-.656-.15l-.02-.137c.108.025.708.098 1.113.14.395.04.936.082 1.038.078l-.046.13c-.18-.005-.518.01-.625.023-.043.168-.143.904-.205 1.446l-.03.304c.16.014 2.376.27 2.634.253l.03-.29c.05-.487.136-1.29.113-1.452-.105-.035-.434-.117-.616-.148l-.02-.136c.108.023.695.096 1.088.136.415.042.948.082 1.062.082l-.054.13zm5.023.454c-.11.03-.284.066-.45.11-.015.102.058.955.066 1.14l.015.32c.013.267.04.594.05.84.036.766 0 1.42-.512 1.907-.312.287-.748.506-1.44.533-1.44.058-2.14-.782-2.192-1.972l-.047-1.055c-.026-.61.107-1.346.08-1.536-.138-.027-.336-.05-.513-.07l-.027-.14c.185.003.595 0 1.093-.024.295-.012.794-.047.955-.068l-.028.14c-.175.032-.463.077-.665.13-.016.114-.108.975-.085 1.558l.04.904c.062 1.44.71 1.902 1.462 1.87.46-.018.764-.14.99-.365.36-.364.34-.96.306-1.78l-.03-.62c-.008-.22-.076-1.462-.112-1.683-.15-.023-.536-.06-.708-.064l-.052-.145c.165.007.65 0 1.05-.016.33-.015.676-.043.784-.062l-.03.147zM66.667 69l.612.308c-.152.098-.984 1.466-1.05 1.592l-.23-.146c.058-.062.566-1.46.668-1.754zM49.665 81.664c-.096-.072-1.457-1.22-1.692-1.404.002.12.635 3.157.75 3.352.093.013.538-.025.652-.03l.042.116c-.11.006-.717.105-.872.135-.17.027-.622.122-.792.167l-.004-.127c.158-.054.343-.105.47-.17.055-.26-.48-3.532-.516-3.723-.14-.005-.43.016-.657.045L47 79.91c.326-.073.877-.178 1.33-.283.162.174 1.61 1.423 1.727 1.51.183.136 1.32 1.087 1.536 1.21-.116-.643-.497-2.685-.67-2.965-.124 0-.443.01-.61.03l-.048-.12c.114-.007.745-.11.876-.134.13-.023.612-.122.733-.158v.127c-.074.026-.28.11-.432.162-.026.24.093 1.062.12 1.25.03.275.433 2.724.44 2.966-.204-.13-2.173-1.714-2.335-1.842zm10.973-1.06c-.367.165-1.037.432-1.61.392-.858-.055-1.542-.562-1.84-1.328-.337-.865-.184-1.666.167-2.262.363-.618.888-1 1.46-1.265.49-.222 1.11-.418 1.324-.43-.02-.108-.088-.477-.12-.62l.115-.09c.06.253.423 1.37.663 1.934l-.16-.012c-.09-.205-.205-.408-.285-.538-.218-.12-.776-.34-1.693.084-.98.454-1.327 1.546-.944 2.53.39 1 1.675 1.92 2.892 1.355.145-.067.47-.247.655-.488-.03-.1-.106-.31-.22-.618l-.13-.32c-.076-.193-.156-.386-.214-.485-.116.04-.48.172-.596.194l-.084-.11c.298-.127.733-.32.93-.41.272-.126.814-.386.88-.428l.02.14c-.05.032-.35.208-.464.298.026.11.175.52.244.69l.076.197c.087.227.214.55.294.72-.287.253-.98.69-1.362.87zm3.294-3.287c.093-.023.504-.21.606-.25l.078.094c-.098.045-.644.342-.776.418-.15.085-.55.323-.692.422l-.05-.118c.132-.1.29-.21.388-.31-.04-.262-1.695-3.102-1.794-3.268-.135.04-.403.163-.606.263L61 74.474c.285-.175.767-.458 1.16-.708.217.107 2.025.778 2.168.816.22.06 1.635.56 1.88.6-.34-.555-1.413-2.31-1.677-2.51-.113.04-.412.156-.562.227l-.09-.09c.105-.05.667-.356.782-.42.114-.065.54-.32.64-.39l.045.115c-.06.047-.224.196-.35.296.054.23.46.95.546 1.117.13.242 1.367 2.37 1.46 2.587-.243-.05-2.66-.85-2.857-.913-.122-.034-1.81-.633-2.098-.726.047.108 1.71 2.7 1.887 2.843zm5.18-1.93c-.157.13-.58.49-.712.613l-.05-.122c.075-.068.358-.378.444-.476-.124-.235-.746-1.206-1.08-1.716l-.2-.306c-.112-.172-.75-1.143-.886-1.305-.105.054-.44.266-.535.33L66 72.307c.093-.06.53-.4.896-.7.238-.194.632-.532.704-.608l.05.133c-.087.087-.29.312-.444.47.05.122.438.728.856 1.37l.212.32c.438.682 1.012 1.548 1.098 1.636.136-.065.437-.26.535-.326l.093.088c-.105.075-.6.46-.89.696zm6.243-6.16c-.202.186-.683.65-.803.78l-.075-.105c.056-.06.36-.417.437-.51-.157-.158-2.36-1.838-2.71-2.125l-.02.02c.128.388 1.192 3.372 1.29 3.754-.378-.165-3.224-1.648-3.432-1.773l-.016.017c.5.8 1.363 2.3 1.904 2.87.094-.055.373-.252.448-.302l.102.078c-.07.048-.594.517-.676.596-.12.113-.337.33-.477.474l-.053-.125c.064-.08.19-.23.264-.35-.157-.373-1.67-3.06-1.933-3.496-.135.092-.437.308-.494.345l-.11-.07c.064-.047.417-.358.652-.575.192-.18.534-.512.65-.64l.068.115c-.113.13-.21.272-.277.372.494.292 2.356 1.273 2.8 1.487-.1-.378-1.003-2.968-1.09-3.078-.108.05-.265.155-.358.216l-.107-.074c.153-.127.46-.393.615-.538.143-.134.507-.486.602-.59l.07.106c-.052.065-.24.3-.314.41.536.427 2.825 2.134 3.156 2.35.135-.077.335-.22.423-.28l.11.077c-.16.128-.434.366-.645.563zm4.948-4.642c-.174.21-.543.67-.67.843l-.082-.11c.06-.072.277-.428.33-.53-.144-.163-.766-.665-1.29-1.082l-.283-.23c-.186.23-1.517 2.013-1.56 2.094l.174.136c.504.404 1.15.89 1.344 1.016.14-.108.38-.322.462-.413l.124.054c-.095.098-.503.566-.675.774-.208.252-.577.71-.69.862l-.08-.112c.09-.11.295-.447.35-.557-.215-.2-1.037-.868-1.41-1.17l-.46-.368c-.16-.125-1.09-.864-1.27-.978-.09.074-.38.34-.49.453L74 65.21c.08-.074.47-.526.728-.833.25-.3.582-.718.638-.803l.083.108c-.1.142-.275.43-.326.523.118.125.684.61 1.108.948l.24.195c.102-.12 1.53-1.793 1.657-2.015l-.227-.18c-.385-.31-1.016-.812-1.163-.88-.087.064-.338.288-.464.418l-.124-.056c.076-.075.46-.515.71-.816.264-.312.59-.72.652-.818l.08.11c-.068.108-.246.392-.34.547.08.104 1.082.928 1.215 1.03l.343.28c.57.457 1.39 1.097 1.588 1.198.1-.08.39-.34.476-.432l.124.057c-.087.085-.508.568-.697.795z"/><path d="M59 123.417l1.242.583c.05-.438.164-1.63.214-1.996l-.01-.004c-.43.43-1.294 1.255-1.446 1.417"/><path d="M46.874 112c-.562.262-1.674.756-1.874.86l.948 1.004c.208-.406.756-1.522.936-1.856l-.01-.008"/><path d="M50.685 107.958c-1.38-2.083-2.928-4.207-4.803-5.958-.39.112-.817.483-.867.93-.06.327.077.672.164.98 1.232 3.09 3.827 5.77 6.34 8.09 1.027-.42 3.29-.5 3.44-.485l.04-.49c-2.507 1.16-3.324-1.866-4.315-3.067"/><path d="M48.068 93.967c-.234-.298-.323-.645-.486-.967h-.098c-.496.38-.93.875-1.484 1.128.323.697.896 1.3 1.582 1.872 1.038-.323 2.13-.546 3.37-.45-.072-.103.14-.162 0-.24-1.23.212-2.21-.57-2.884-1.343"/><path d="M109.82 103.91c.087-.308.227-.653.164-.98-.054-.447-.477-.818-.867-.93-1.876 1.75-3.418 3.875-4.8 5.958-.992 1.2-1.81 4.226-4.317 3.067l.043.49c.15-.016 2.41.065 3.44.485 2.506-2.32 5.104-5 6.336-8.09"/></g></svg>