<?xml version="1.0" encoding="UTF-8" standalone="no"?>
<svg width="242px" height="80px" viewBox="0 0 242 80" version="1.1" xmlns="http://www.w3.org/2000/svg" xmlns:xlink="http://www.w3.org/1999/xlink" xmlns:sketch="http://www.bohemiancoding.com/sketch/ns">
    <title>website 1</title>
    <description>Created with Sketch (http://www.bohemiancoding.com/sketch)</description>
    <defs></defs>
    <g id="Page-1-Copy-Copy-Copy" stroke="none" stroke-width="1" fill="none" fill-rule="evenodd" sketch:type="MSPage">
        <g id="researches-copy-7" sketch:type="MSArtboardGroup" transform="translate(-577.000000, 0.000000)" fill="#FFFFFF">
            <g id="logos" sketch:type="MSLayerGroup" transform="translate(577.000000, 0.000000)">
                <g id="Logo" sketch:type="MSShapeGroup">
                    <g id="Group" transform="translate(24.000000, 14.000000)">
                        <rect id="Rectangle-1" x="111" y="1" width="21" height="21"></rect>
                        <rect id="Rectangle-1-copy" x="142" y="1" width="22" height="22" rx="8"></rect>
                        <rect id="Rectangle-1-copy-2" x="171" y="0" width="23" height="23" rx="40"></rect>
                        <path d="M74.8856809,13.45 L74.2217693,15.3086771 L80.7157654,15.3086771 L82.9079873,21.4025605 C83.0249057,21.8207682 83.317202,22 83.7264167,22 L84.3694685,22 C84.8956016,22 85.100209,21.6714082 84.9540609,21.1337126 L77.8804918,1.59743954 C77.7635733,1.17923186 77.471277,1 77.091292,1 L76.1267144,1 C75.7467292,1 75.454433,1.17923186 75.3375145,1.59743954 L68.6208685,20.1479377 L58.0154182,20.1479374 L58.0154182,1.74679944 C58.0154182,1.26884779 57.7525376,1 57.3144031,1 L56.7010149,1 C56.2336717,1 56,1.26884779 56,1.74679944 L56,21.2532005 C56,21.7311522 56.2336717,22 56.7010149,22 L69.0897246,22 L69.4915896,22 C69.9008044,22 70.1931007,21.8207682 70.3100191,21.4025605 L72.4730113,15.3086771 L72.4867308,15.3086771 L72.478828,15.3069093 L73.0657198,13.3749999 L73.1102397,13.3555094 L75.8207828,5.84409221 C76.1419641,4.85979828 76.6091371,3.1 76.6091371,3.1 L76.6675336,3.1 C76.6675336,3.1 77.1055083,4.85979828 77.4266896,5.84409221 L80.142132,13.45 L74.8856809,13.45 L74.8856809,13.45 L74.8856809,13.45 L74.8856809,13.45 Z" id="LIMERICK"></path>
                        <path d="M91.8571429,1 L94.7973856,1 C97.9411764,1 100.206972,3.00142248 100.206972,6.28733997 C100.206972,8.4679943 99.1873639,10.0512091 97.657952,10.9174964 C99.6971677,11.514936 101,13.5761024 101,16.1152205 C101,19.8492176 98.3660131,22 95.0239651,22 L88.6797386,22 C88.2265796,22 88,21.7311522 88,21.2532005 L88,1.74679944 C88,1.26884779 88.2265796,1 88.6797386,1 L89.9642857,1 L89.9642857,20.2 L90.9285714,20.2 L95.0943396,20.2 C97.5,20.2 99,18.6157609 99,16.1048913 C99,13.5940217 97.3867924,11.95 95.0660377,11.95 L91.8571429,11.95 L91.8571429,10 L94.8857143,10 C96.9142857,10 98.2857143,8.51851852 98.2857143,6.35555555 C98.2857143,4.22222222 97,2.8 94.8571429,2.8 L91.8571429,2.8 L91.8571429,1 L91.8571429,1 L91.8571429,1 L91.8571429,1 Z" id="Path"></path>
                        <path d="M34.9642857,22 L33.6797386,22 C33.2265796,22 33,21.7311522 33,21.2532005 L33,1.74679944 C33,1.26884779 33.2265796,1 33.6797386,1 L39.7973856,1 C42.9411764,1 45.2069717,3.00142248 45.2069717,6.28733997 C45.2069717,8.4679943 44.1873639,10.0512091 42.657952,10.9174964 C44.6971677,11.514936 46,13.5761024 46,16.1152205 C46,19.8492176 43.3660131,22 40.0239651,22 L36.8571429,22 L36.8571429,20.2 L40.0943396,20.2 C42.5,20.2 44,18.6157609 44,16.1048913 C44,13.5940217 42.3867924,11.95 40.0660377,11.95 L36.8571429,11.95 L36.8571429,10 L39.8857143,10 C41.9142857,10 43.2857143,8.51851852 43.2857143,6.35555555 C43.2857143,4.22222222 42,2.8 39.8571429,2.8 L35,2.8 L35,2.9095 L34.9642857,2.9095 L34.9642857,22 L34.9642857,22 L34.9642857,22 L34.9642857,22 Z" id="Path"></path>
                        <path d="M21.7570914,15.3086771 L15.3100771,15.3086771 L13.1189516,21.4025605 C13.0005124,21.8207682 12.7044143,22 12.2898771,22 L11.6680712,22 C11.1054849,22 10.8982163,21.6714082 11.0462653,21.1337126 L18.2118378,1.59743954 C18.3302771,1.17923186 18.6263751,1 19.0113026,1 L19.9884261,1 C20.3733535,1 20.6694516,1.17923186 20.7878908,1.59743954 L27.9534634,21.1337126 C28.1015124,21.6714082 27.8942438,22 27.3612674,22 L26.7098517,22 C26.4460402,22 26.2301971,21.9274102 26.077586,21.7668319 L23.068209,13.45 L23.0789474,13.45 L20.3281862,5.84409221 C20.0028274,4.85979828 19.5591561,3.1 19.5591561,3.1 L19.5,3.1 C19.5,3.1 19.0267507,4.85979828 18.7013919,5.84409221 L15.9210526,13.45 L21.0845444,13.45 L21.7570914,15.3086771 L21.7570914,15.3086771 L21.7570914,15.3086771 L21.7570914,15.3086771 Z" id="Path"></path>
                        <path d="M0.713513514,22 L1.33783784,22 C1.78378378,22 2.05135135,21.7311522 2.05135135,21.2532005 L2.05135135,12.5903272 L9.00810811,12.5903272 C9.48378378,12.5903272 9.72162162,12.3214794 9.72162162,11.8435277 L9.72162162,11.455192 C9.72162162,10.9772404 9.48378378,10.7382646 9.00810811,10.7382646 L2.05135135,10.7382646 L2.05135135,2.85206259 L10.2567568,2.85206259 C10.7324324,2.85206259 11,2.58321479 11,2.10526317 L11,1.74679944 C11,1.26884779 10.7324324,1 10.2567568,1 L0.713513514,1 C0.237837838,1 0,1.26884779 0,1.74679944 L0,21.2532005 C0,21.7311522 0.237837838,22 0.713513514,22 C0.713513514,22 0.237837838,22 0.713513514,22 L0.713513514,22 L0.713513514,22 Z" id="Path"></path>
                        <path d="M69.4960212,51 L79.5039788,51 C79.8249337,51 80,50.82 80,50.49 L80,50.31 C80,49.98 79.8249337,49.8 79.5039788,49.8 L70.254642,49.8 L70.254642,30.51 C70.254642,30.18 70.0795756,30 69.7586207,30 L69.4960212,30 C69.1750663,30 69,30.18 69,30.51 L69,50.49 C69,50.82 69.1750663,51 69.4960212,51 C69.4960212,51 69.1750663,51 69.4960212,51 L69.4960212,51 L69.4960212,51 Z" id="Path"></path>
                        <path d="M84.7906978,51 L85.2093022,51 C85.7209302,51 86,50.82 86,50.49 L86,30.51 C86,30.18 85.7209302,30 85.2093022,30 L84.7906978,30 C84.2790698,30 84,30.18 84,30.51 L84,50.49 C84,50.82 84.2790698,51 84.7906978,51 C84.7906978,51 84.2790698,51 84.7906978,51 L84.7906978,51 L84.7906978,51 Z" id="Path"></path>
                        <path d="M90.5059524,51 L90.7738096,51 C91.0714285,51 91.25,50.82 91.2797619,50.52 L92.5297619,34.98 C92.6190476,33.96 92.6190476,32.13 92.6190476,32.13 C92.6785715,32.13 93.3333333,33.99 93.7797619,34.98 L99.1666667,46.56 C99.2857143,46.83 99.4642857,46.95 99.7619048,46.95 L100.238095,46.95 C100.535714,46.95 100.714286,46.83 100.833333,46.56 L106.25,34.98 C106.72619,33.96 107.321429,32.19 107.321429,32.19 C107.380952,32.19 107.380952,33.96 107.470238,34.98 L108.720238,50.52 C108.75,50.82 108.928571,51 109.22619,51 L109.494048,51 C109.85119,51 110,50.82 110,50.46 L108.392857,30.48 C108.363095,30.18 108.184524,30 107.886905,30 L107.529762,30 C107.232143,30 107.053571,30.12 106.934524,30.39 L101.041667,43.2 C100.565476,44.22 100.029762,45.57 100.029762,45.57 C99.9702381,45.57 99.4345239,44.22 98.9583333,43.2 L93.0654761,30.39 C92.9464285,30.12 92.7678572,30 92.4702381,30 L92.1130952,30 C91.8154761,30 91.6369048,30.18 91.6071428,30.48 L90,50.46 C90,50.82 90.1488096,51 90.5059524,51 C90.5059524,51 90.1488096,51 90.5059524,51 L90.5059524,51 L90.5059524,51 Z" id="Path"></path>
                        <path d="M117.549751,51 L129.450249,51 C129.80597,51 130,50.82 130,50.49 L130,50.31 C130,49.98 129.80597,49.8 129.450249,49.8 L118.390547,49.8 L118.390547,41.01 L126.863184,41.01 C127.218905,41.01 127.412935,40.83 127.412935,40.5 L127.412935,40.32 C127.412935,39.99 127.218905,39.81 126.863184,39.81 L118.390547,39.81 L118.390547,31.2 L128.835821,31.2 C129.191542,31.2 129.385572,31.02 129.385572,30.69 L129.385572,30.51 C129.385572,30.18 129.191542,30 128.835821,30 L117.549751,30 C117.19403,30 117,30.18 117,30.51 L117,50.49 C117,50.82 117.19403,51 117.549751,51 C117.549751,51 117.19403,51 117.549751,51 L117.549751,51 L117.549751,51 Z" id="Path"></path>
                        <path d="M133,31.2 L133,30.51 C133,30.18 133.172368,30 133.488377,30 L138.889254,30 C140.756579,30 141.704605,30.21 142.508991,30.63 C144.17522,31.5 145.295614,33.27 145.295614,35.67 C145.295614,38.67 143.629386,40.92 141.273684,41.52 C141.273684,41.52 141.474781,41.76 141.733334,42.27 L145.927632,50.4 C146.1,50.76 145.95636,51 145.582895,51 L145.180702,51 C144.893421,51 144.721053,50.88 144.606141,50.64 L140.009649,41.7 L134.235307,41.7 L134.235307,50.49 C134.235307,50.82 134.062939,51 133.74693,51 L133.488377,51 C133.172368,51 133,50.82 133,50.49 L133,33.15 L134.3,33.15 L134.3,40.5 L139.788889,40.5 C142.446667,40.5 144.122222,38.52 144.122222,35.67 C144.122222,33.81 143.226667,32.31 141.753333,31.62 C141.175556,31.35 140.54,31.2 138.922222,31.2 L136.177778,31.2 L133,31.2 L133,31.2 L133,31.2 L133,31.2 Z" id="Path"></path>
                        <path d="M150.790698,51 L151.209302,51 C151.720931,51 152,50.82 152,50.49 L152,30.51 C152,30.18 151.720931,30 151.209302,30 L150.790698,30 C150.279069,30 150,30.18 150,30.51 L150,50.49 C150,50.82 150.279069,51 150.790698,51 C150.790698,51 150.279069,51 150.790698,51 L150.790698,51 L150.790698,51 Z" id="Path"></path>
                        <path d="M167.948379,51 C172.159295,51 174.872995,48.9640884 175.808754,48.1436464 C176.05829,47.9005525 176.05829,47.6574585 175.839947,47.4143646 L175.715178,47.2624309 C175.465642,47.019337 175.216107,47.019337 174.966571,47.2320442 C174.030812,47.9917127 171.597839,49.7541436 167.948379,49.7541436 C162.271443,49.7541436 158.403639,45.378453 158.403639,39.8480663 C158.403639,34.3480663 162.302634,30.2458564 167.854803,30.2458564 C171.223536,30.2458564 173.500549,31.6740331 174.405115,32.3121546 C174.685843,32.5248618 174.935379,32.4944751 175.153723,32.2513812 L175.309683,32.0690608 C175.496835,31.7955801 175.496835,31.5524861 175.2473,31.339779 C174.342731,30.6104973 171.847374,29 167.823612,29 C161.491642,29 157,33.6795579 157,39.8480663 C157,46.0165746 161.398067,51 167.948379,51 C167.948379,51 161.398067,51 167.948379,51 L167.948379,51 L167.948379,51 Z" id="Path"></path>
                        <path d="M180.514171,51 L180.786379,51 C181.119078,51 181.30055,50.82 181.30055,50.49 L181.30055,40.56 L185.232447,40.56 L191.493236,50.67 C191.644464,50.91 191.825937,51 192.098145,51 L192.551825,51 C192.975259,51 193.126487,50.73 192.884524,50.4 L186.351526,39.96 L192.461088,30.63 C192.672807,30.27 192.521579,30 192.098145,30 L191.674709,30 C191.402501,30 191.221028,30.09 191.069802,30.33 L185.232447,39.36 L181.30055,39.36 L181.30055,30.51 C181.30055,30.18 181.119078,30 180.786379,30 L180.514171,30 C180.181472,30 180,30.18 180,30.51 L180,50.49 C180,50.82 180.181472,51 180.514171,51 C180.514171,51 180.181472,51 180.514171,51 L180.514171,51 L180.514171,51 Z" id="Path"></path>
                    </g>
                </g>
            </g>
        </g>
    </g>
</svg>