<?xml version="1.0" encoding="UTF-8" standalone="no"?>
<svg width="535px" height="177px" viewBox="0 0 535 177" version="1.1" xmlns="http://www.w3.org/2000/svg" xmlns:xlink="http://www.w3.org/1999/xlink" xmlns:sketch="http://www.bohemiancoding.com/sketch/ns">
    <title>SAUL</title>
    <description>Created with Sketch (http://www.bohemiancoding.com/sketch)</description>
    <defs></defs>
    <g id="Page-1" stroke="none" stroke-width="1" fill="none" fill-rule="evenodd" sketch:type="MSPage">
        <g id="SAUL" sketch:type="MSArtboardGroup" fill="#626262" opacity="0.65">
            <g id="SAUL--+-School-of-" sketch:type="MSLayerGroup" transform="translate(96.000000, 67.000000)">
                <g sketch:type="MSShapeGroup">
                    <path d="M30.1892738,38.5797183 C30.1892738,42.7923559 28.6604587,46.0772908 25.6027827,48.4346217 C22.5451067,50.7919526 18.3954658,51.9706003 13.1537355,51.9706003 C7.47519434,51.9706003 3.10715128,51.2394022 0.0494752682,49.776984 L0.0494752682,44.407535 C2.01512413,45.2369662 4.15546523,45.8917705 6.47056278,46.3719675 C8.78566033,46.8521645 11.0788829,47.0922595 13.3502994,47.0922595 C17.0631917,47.0922595 19.8587393,46.3883448 21.7370259,44.9804944 C23.6153126,43.5726441 24.5544419,41.6136879 24.5544419,39.103567 C24.5544419,37.4447046 24.2213786,36.0859856 23.5552421,35.0273694 C22.8891055,33.9687533 21.7752545,32.9920035 20.2136557,32.0970909 C18.6520569,31.2021782 16.2769335,30.1872316 13.0882142,29.0522204 C8.63274344,27.4588393 5.44953206,25.5708203 3.53848455,23.3881065 C1.62743705,21.2053927 0.671927629,18.356994 0.671927629,14.8428248 C0.671927629,11.1540386 2.0587813,8.2183326 4.83253025,6.03561883 C7.6062792,3.85290507 11.2754354,2.76156456 15.8401088,2.76156456 C20.6013472,2.76156456 24.9803104,3.63463697 28.9771297,5.38080798 L27.2408152,10.2264083 C23.287677,8.56754584 19.4437991,7.73812706 15.7090662,7.73812706 C12.7605929,7.73812706 10.4564502,8.37110455 8.79656897,9.63707854 C7.13668771,10.9030525 6.30675953,12.6601107 6.30675953,14.9083059 C6.30675953,16.5671684 6.61252254,17.9258873 7.22405774,18.9845035 C7.83559295,20.0431197 8.86754312,21.0144127 10.3199392,21.8984118 C11.7723353,22.7824109 13.9945772,23.7591606 16.9867316,24.8286904 C22.0100565,26.6185157 25.4662706,28.539275 27.3554775,30.5910259 C29.2446845,32.6427768 30.1892738,35.3056477 30.1892738,38.5797183 Z M70.0917462,51.3157895 L64.1293078,36.0914371 L44.9315666,36.0914371 L39.0346495,51.3157895 L33.3998176,51.3157895 L52.3354736,3.2526727 L57.0202466,3.2526727 L75.8576207,51.3157895 L70.0917462,51.3157895 Z M62.3929933,31.082134 L56.8236827,16.2506682 C56.1029448,14.3735343 55.3603775,12.0708059 54.5959585,9.34241365 C54.1154665,11.4378189 53.4274997,13.7405473 52.5320375,16.2506682 L46.8972056,31.082134 L62.3929933,31.082134 Z M117.856775,3.44911595 L117.856775,34.4216694 C117.856775,39.9221081 116.262439,44.2219897 113.07372,47.3214433 C109.885,50.4208968 105.440517,51.9706003 99.740135,51.9706003 C94.1926371,51.9706003 89.8628144,50.4154401 86.750537,47.305073 C83.6382596,44.1947059 82.0821443,39.8566273 82.0821443,34.2907072 L82.0821443,3.44911595 L85.4564913,3.44911595 L85.4564913,34.4216694 C85.4564913,39.0271955 86.7341439,42.612249 89.2894874,45.1769377 C91.844831,47.7416264 95.4593866,49.0239515 100.133263,49.0239515 C104.697936,49.0239515 108.236051,47.7634532 110.747714,45.2424188 C113.259376,42.7213844 114.515188,39.2236381 114.515188,34.7490748 L114.515188,3.44911595 L117.856775,3.44911595 Z M130.895514,51.3157895 L130.895514,3.44911595 L134.2371,3.44911595 L134.2371,48.1726974 L157.071273,48.1726974 L157.071273,51.3157895 L130.895514,51.3157895 Z" id="SAUL-"></path>
                    <path d="M190.149502,15.7725894 C190.149502,17.553283 189.505327,18.9504215 188.216958,19.9640471 C186.928589,20.9776726 185.151397,21.4844778 182.885329,21.4844778 C180.619261,21.4844778 178.764403,21.1329102 177.320698,20.4297646 L177.320698,17.3341129 C178.234435,17.7633057 179.205266,18.1011758 180.233221,18.3477333 C181.261175,18.5942909 182.2183,18.7175678 183.104625,18.7175678 C184.402131,18.7175678 185.359256,18.471014 185.976029,17.9778988 C186.592801,17.4847837 186.901183,16.8227409 186.901183,15.9917506 C186.901183,15.2429462 186.617929,14.6082982 186.051412,14.0877878 C185.484895,13.5672774 184.315329,12.9508927 182.542679,12.2386153 C180.715205,11.4989426 179.426855,10.6542674 178.677591,9.70456414 C177.928327,8.75486093 177.5537,7.61340784 177.5537,6.28017064 C177.5537,4.60905826 178.14762,3.2941043 179.335478,2.33526933 C180.523337,1.37643435 182.117784,0.897024054 184.118868,0.897024054 C186.037715,0.897024054 187.947397,1.31707879 189.84797,2.15720086 L188.806315,4.8282278 C187.024528,4.07942334 185.434649,3.70502673 184.036632,3.70502673 C182.976697,3.70502673 182.17262,3.93560025 181.624378,4.39675421 C181.076136,4.85790818 180.802019,5.46744413 180.802019,6.22538035 C180.802019,6.74589076 180.911666,7.19105746 181.130963,7.56089381 C181.35026,7.93073016 181.71118,8.2800148 182.213736,8.60875822 C182.716291,8.93750164 183.620877,9.37125382 184.927521,9.91002775 C186.398638,10.5218558 187.476831,11.0925823 188.162134,11.6222245 C188.847436,12.1518667 189.349984,12.7499881 189.669792,13.4166067 C189.9896,14.0832253 190.149502,14.868545 190.149502,15.7725894 Z M199.798516,21.4844778 C197.505036,21.4844778 195.762109,20.8155863 194.569682,19.4777832 C193.377256,18.1399801 192.781051,16.220056 192.781051,13.7179533 C192.781051,11.1701918 193.404667,9.21145833 194.651918,7.84169408 C195.899169,6.47192983 197.701489,5.78705798 200.05893,5.78705798 C201.65797,5.78705798 203.097084,6.08383578 204.376316,6.67740029 L203.403191,9.26624178 C202.041723,8.7365996 200.917843,8.47178248 200.031518,8.47178248 C197.409093,8.47178248 196.0979,10.211357 196.0979,13.6905582 C196.0979,15.3890659 196.424556,16.6652104 197.077878,17.5190301 C197.7312,18.3728498 198.688325,18.7997533 199.949282,18.7997533 C201.383849,18.7997533 202.740728,18.4436199 204.01996,17.7313425 L204.01996,20.5393452 C203.444306,20.8772204 202.829827,21.1192084 202.176505,21.2653166 C201.523183,21.4114248 200.730528,21.4844778 199.798516,21.4844778 Z M220.919441,21.2105263 L217.684829,21.2105263 L217.684829,11.896176 C217.684829,10.7273105 217.449545,9.85524034 216.97897,9.27993935 C216.508396,8.70463837 215.761427,8.41699219 214.738041,8.41699219 C213.385711,8.41699219 212.392037,8.82106658 211.756989,9.62922749 C211.121942,10.4373884 210.804423,11.7911518 210.804423,13.6905582 L210.804423,21.2105263 L207.583517,21.2105263 L207.583517,-0.102898849 L210.804423,-0.102898849 L210.804423,5.30764289 C210.804423,6.17516024 210.7496,7.10202015 210.639952,8.08825041 L210.845541,8.08825041 C211.284135,7.35770948 211.894045,6.79154875 212.675291,6.38975123 C213.456536,5.98795372 214.367975,5.78705798 215.409635,5.78705798 C219.082858,5.78705798 220.919441,7.63621198 220.919441,11.3345755 L220.919441,21.2105263 Z M238.846872,13.6083727 C238.846872,16.0830802 238.211834,18.0144188 236.94174,19.4024465 C235.671645,20.7904743 233.903591,21.4844778 231.637523,21.4844778 C230.22123,21.4844778 228.96943,21.1648709 227.882083,20.5256476 C226.794735,19.8864243 225.958679,18.968696 225.373887,17.7724352 C224.789095,16.5761745 224.496704,15.1881675 224.496704,13.6083727 C224.496704,11.1519288 225.127173,9.23428766 226.38813,7.85539165 C227.649087,6.47649564 229.426279,5.78705798 231.719759,5.78705798 C233.912728,5.78705798 235.648802,6.49247598 236.928034,7.90333316 C238.207265,9.31419034 238.846872,11.2158512 238.846872,13.6083727 Z M227.813553,13.6083727 C227.813553,17.1058375 229.106471,18.8545436 231.692347,18.8545436 C234.25081,18.8545436 235.530023,17.1058375 235.530023,13.6083727 C235.530023,10.1474351 234.241673,8.41699219 231.664935,8.41699219 C230.312604,8.41699219 229.332636,8.8644418 228.725001,9.75935444 C228.117366,10.6542671 227.813553,11.9372604 227.813553,13.6083727 Z M255.993061,13.6083727 C255.993061,16.0830802 255.358023,18.0144188 254.087929,19.4024465 C252.817834,20.7904743 251.04978,21.4844778 248.783712,21.4844778 C247.36742,21.4844778 246.115619,21.1648709 245.028272,20.5256476 C243.940925,19.8864243 243.104868,18.968696 242.520076,17.7724352 C241.935284,16.5761745 241.642893,15.1881675 241.642893,13.6083727 C241.642893,11.1519288 242.273362,9.23428766 243.534319,7.85539165 C244.795276,6.47649564 246.572468,5.78705798 248.865948,5.78705798 C251.058917,5.78705798 252.794991,6.49247598 254.074223,7.90333316 C255.353454,9.31419034 255.993061,11.2158512 255.993061,13.6083727 Z M244.959742,13.6083727 C244.959742,17.1058375 246.25266,18.8545436 248.838536,18.8545436 C251.396999,18.8545436 252.676212,17.1058375 252.676212,13.6083727 C252.676212,10.1474351 251.387862,8.41699219 248.811124,8.41699219 C247.458793,8.41699219 246.478825,8.8644418 245.87119,9.75935444 C245.263555,10.6542671 244.959742,11.9372604 244.959742,13.6083727 Z M262.914584,21.2105263 L259.693677,21.2105263 L259.693677,-0.102898849 L262.914584,-0.102898849 L262.914584,21.2105263 Z M288.256953,13.6083727 C288.256953,16.0830802 287.621915,18.0144188 286.351821,19.4024465 C285.081726,20.7904743 283.313672,21.4844778 281.047604,21.4844778 C279.631312,21.4844778 278.379511,21.1648709 277.292164,20.5256476 C276.204817,19.8864243 275.36876,18.968696 274.783968,17.7724352 C274.199177,16.5761745 273.906785,15.1881675 273.906785,13.6083727 C273.906785,11.1519288 274.537254,9.23428766 275.798211,7.85539165 C277.059168,6.47649564 278.83636,5.78705798 281.12984,5.78705798 C283.322809,5.78705798 285.058883,6.49247598 286.338115,7.90333316 C287.617347,9.31419034 288.256953,11.2158512 288.256953,13.6083727 Z M277.223634,13.6083727 C277.223634,17.1058375 278.516552,18.8545436 281.102428,18.8545436 C283.660892,18.8545436 284.940104,17.1058375 284.940104,13.6083727 C284.940104,10.1474351 283.651754,8.41699219 281.075016,8.41699219 C279.722685,8.41699219 278.742717,8.8644418 278.135082,9.75935444 C277.527447,10.6542671 277.223634,11.9372604 277.223634,13.6083727 Z M299.564392,8.49917763 L295.863775,8.49917763 L295.863775,21.2105263 L292.629163,21.2105263 L292.629163,8.49917763 L290.134673,8.49917763 L290.134673,6.99244449 L292.629163,6.00621916 L292.629163,5.01999383 C292.629163,3.23016855 293.049475,1.90380006 293.890113,1.04084858 C294.730751,0.177897104 296.014533,-0.253572163 297.741496,-0.253572163 C298.874529,-0.253572163 299.989272,-0.0663738567 301.085756,0.308028372 L300.235985,2.74619655 C299.441034,2.49050722 298.682644,2.36266447 297.960791,2.36266447 C297.229802,2.36266447 296.697558,2.58867218 296.364044,3.04069439 C296.03053,3.49271659 295.863775,4.17073972 295.863775,5.07478413 L295.863775,6.06100946 L299.564392,6.06100946 L299.564392,8.49917763 Z M191.026685,52 L189.025611,46.438785 L181.363964,46.438785 L179.404008,52 L175.9501,52 L183.447274,31.8919613 L187.010831,31.8919613 L194.508005,52 L191.026685,52 Z M188.162134,43.6170847 L186.284414,38.1654502 C186.147353,37.8001798 185.957755,37.2248874 185.715615,36.4395559 C185.473475,35.6542244 185.30672,35.0789321 185.215347,34.7136616 C184.968638,35.8368683 184.607717,37.0650718 184.132574,38.398309 L182.323384,43.6170847 L188.162134,43.6170847 Z M204.49967,36.5765317 C205.148423,36.5765317 205.682951,36.6221898 206.10327,36.7135074 L205.788032,39.7132761 C205.331164,39.603695 204.856028,39.5489052 204.36261,39.5489052 C203.074241,39.5489052 202.030312,39.96896 201.230792,40.809082 C200.431272,41.6492041 200.031518,42.7404333 200.031518,44.0828022 L200.031518,52 L196.810611,52 L196.810611,36.8504831 L199.332513,36.8504831 L199.757398,39.5215101 L199.92187,39.5215101 C200.424425,38.6174657 201.080022,37.9006331 201.888679,37.370991 C202.697336,36.8413488 203.567658,36.5765317 204.49967,36.5765317 Z M214.463922,52.2739515 C212.170442,52.2739515 210.427515,51.60506 209.235088,50.2672569 C208.042661,48.9294538 207.446457,47.0095297 207.446457,44.507427 C207.446457,41.9596655 208.070073,40.000932 209.317324,38.6311678 C210.564575,37.2614035 212.366894,36.5765317 214.724336,36.5765317 C216.323375,36.5765317 217.762489,36.8733095 219.041721,37.466874 L218.068596,40.0557155 C216.707128,39.5260733 215.583248,39.2612562 214.696924,39.2612562 C212.074498,39.2612562 210.763305,41.0008307 210.763305,44.4800319 C210.763305,46.1785395 211.089961,47.4546841 211.743283,48.3085038 C212.396605,49.1623235 213.353731,49.589227 214.614688,49.589227 C216.049255,49.589227 217.406134,49.2330936 218.685366,48.5208162 L218.685366,51.3288189 C218.109711,51.6666941 217.495232,51.9086821 216.84191,52.0547903 C216.188588,52.2008985 215.395934,52.2739515 214.463922,52.2739515 Z M235.584847,52 L232.350234,52 L232.350234,42.6856497 C232.350234,41.5167842 232.11495,40.644714 231.644376,40.069413 C231.173801,39.494112 230.426832,39.2064659 229.403447,39.2064659 C228.051116,39.2064659 227.057442,39.6105403 226.422395,40.4187012 C225.787348,41.2268621 225.469829,42.5806254 225.469829,44.4800319 L225.469829,52 L222.248922,52 L222.248922,30.6865748 L225.469829,30.6865748 L225.469829,36.0971166 C225.469829,36.9646339 225.415005,37.8914938 225.305357,38.8777241 L225.510947,38.8777241 C225.949541,38.1471832 226.559451,37.5810224 227.340696,37.1792249 C228.121941,36.7774274 229.03338,36.5765317 230.07504,36.5765317 C233.748263,36.5765317 235.584847,38.4256857 235.584847,42.1240491 L235.584847,52 Z M243.287611,52 L240.066704,52 L240.066704,36.8504831 L243.287611,36.8504831 L243.287611,52 Z M239.874821,32.837094 C239.874821,32.261793 240.032438,31.8189092 240.347677,31.5084293 C240.662916,31.1979494 241.112925,31.0427118 241.697717,31.0427118 C242.264234,31.0427118 242.705105,31.1979494 243.020345,31.5084293 C243.335584,31.8189092 243.493201,32.261793 243.493201,32.837094 C243.493201,33.3849997 243.335584,33.8164689 243.020345,34.1315147 C242.705105,34.4465605 242.264234,34.604081 241.697717,34.604081 C241.112925,34.604081 240.662916,34.4465605 240.347677,34.1315147 C240.032438,33.8164689 239.874821,33.3849997 239.874821,32.837094 Z M253.539689,49.6714124 C254.325503,49.6714124 255.111305,49.5481355 255.897119,49.3015779 L255.897119,51.7260485 C255.540761,51.8812885 255.081615,52.0114141 254.519667,52.1164294 C253.957719,52.2214446 253.37522,52.2739515 252.772154,52.2739515 C249.720272,52.2739515 248.194354,50.6667855 248.194354,47.4524054 L248.194354,39.2886513 L246.12475,39.2886513 L246.12475,37.8641036 L248.34512,36.6861123 L249.441599,33.4808799 L251.428967,33.4808799 L251.428967,36.8504831 L255.746353,36.8504831 L255.746353,39.2886513 L251.428967,39.2886513 L251.428967,47.3976151 C251.428967,48.1738149 251.623133,48.7468243 252.011472,49.1166607 C252.39981,49.486497 252.909211,49.6714124 253.539689,49.6714124 Z M265.546133,52.2739515 C263.188692,52.2739515 261.345255,51.5867967 260.015768,50.2124666 C258.68628,48.8381365 258.021547,46.9456072 258.021547,44.5348222 C258.021547,42.0601148 258.63831,40.1150787 259.871855,38.6996556 C261.1054,37.2842326 262.800357,36.5765317 264.956776,36.5765317 C266.95786,36.5765317 268.538601,37.1837847 269.699047,38.398309 C270.859493,39.6128333 271.439707,41.2839206 271.439707,43.4116211 L271.439707,45.151213 L261.338395,45.151213 C261.384082,46.6214266 261.781552,47.7514652 262.530816,48.5413626 C263.280081,49.3312599 264.335431,49.7262027 265.696899,49.7262027 C266.592361,49.7262027 267.426134,49.6417352 268.198242,49.4727976 C268.970349,49.30386 269.799553,49.0230625 270.685878,48.6303968 L270.685878,51.2466334 C269.900064,51.6210357 269.105125,51.8858528 268.301037,52.0410927 C267.496948,52.1963327 266.578656,52.2739515 265.546133,52.2739515 Z M264.956776,39.0146998 C263.93339,39.0146998 263.113324,39.3388725 262.496551,39.9872276 C261.879779,40.6355827 261.512005,41.5807058 261.393219,42.8226254 L268.273625,42.8226254 C268.25535,41.5715741 267.953821,40.624168 267.36903,39.9803788 C266.784238,39.3365896 265.980161,39.0146998 264.956776,39.0146998 Z M281.212076,52.2739515 C278.918596,52.2739515 277.175669,51.60506 275.983242,50.2672569 C274.790815,48.9294538 274.194611,47.0095297 274.194611,44.507427 C274.194611,41.9596655 274.818227,40.000932 276.065478,38.6311678 C277.312729,37.2614035 279.115048,36.5765317 281.47249,36.5765317 C283.071529,36.5765317 284.510644,36.8733095 285.789875,37.466874 L284.81675,40.0557155 C283.455282,39.5260733 282.331403,39.2612562 281.445078,39.2612562 C278.822652,39.2612562 277.51146,41.0008307 277.51146,44.4800319 C277.51146,46.1785395 277.838116,47.4546841 278.491438,48.3085038 C279.144759,49.1623235 280.101885,49.589227 281.362842,49.589227 C282.797409,49.589227 284.154288,49.2330936 285.43352,48.5208162 L285.43352,51.3288189 C284.857865,51.6666941 284.243386,51.9086821 283.590064,52.0547903 C282.936743,52.2008985 282.144088,52.2739515 281.212076,52.2739515 Z M294.643943,49.6714124 C295.429756,49.6714124 296.215558,49.5481355 297.001372,49.3015779 L297.001372,51.7260485 C296.645015,51.8812885 296.185869,52.0114141 295.623921,52.1164294 C295.061972,52.2214446 294.479474,52.2739515 293.876407,52.2739515 C290.824526,52.2739515 289.298608,50.6667855 289.298608,47.4524054 L289.298608,39.2886513 L287.229004,39.2886513 L287.229004,37.8641036 L289.449374,36.6861123 L290.545853,33.4808799 L292.533221,33.4808799 L292.533221,36.8504831 L296.850606,36.8504831 L296.850606,39.2886513 L292.533221,39.2886513 L292.533221,47.3976151 C292.533221,48.1738149 292.727387,48.7468243 293.115725,49.1166607 C293.504063,49.486497 294.013464,49.6714124 294.643943,49.6714124 Z M310.721065,52 L310.268767,50.0138518 L310.104295,50.0138518 C309.656564,50.7169974 309.019242,51.2694607 308.19231,51.6712582 C307.365378,52.0730557 306.421959,52.2739515 305.362024,52.2739515 C303.525413,52.2739515 302.154828,51.8173702 301.250228,50.9041941 C300.345628,49.9910179 299.893335,48.6075768 299.893335,46.7538292 L299.893335,36.8504831 L303.141654,36.8504831 L303.141654,46.1922286 C303.141654,47.3519624 303.379222,48.2217496 303.854365,48.8016165 C304.329509,49.3814833 305.074193,49.6714124 306.088441,49.6714124 C307.440772,49.6714124 308.434446,49.267338 309.069493,48.4591771 C309.704541,47.6510162 310.022059,46.2972528 310.022059,44.3978464 L310.022059,36.8504831 L313.256672,36.8504831 L313.256672,52 L310.721065,52 Z M325.537236,36.5765317 C326.185989,36.5765317 326.720517,36.6221898 327.140836,36.7135074 L326.825599,39.7132761 C326.36873,39.603695 325.893594,39.5489052 325.400176,39.5489052 C324.111807,39.5489052 323.067878,39.96896 322.268358,40.809082 C321.468838,41.6492041 321.069084,42.7404333 321.069084,44.0828022 L321.069084,52 L317.848178,52 L317.848178,36.8504831 L320.370079,36.8504831 L320.794965,39.5215101 L320.959437,39.5215101 C321.461992,38.6174657 322.117588,37.9006331 322.926246,37.370991 C323.734903,36.8413488 324.605224,36.5765317 325.537236,36.5765317 Z M336.00861,52.2739515 C333.651168,52.2739515 331.807732,51.5867967 330.478244,50.2124666 C329.148757,48.8381365 328.484023,46.9456072 328.484023,44.5348222 C328.484023,42.0601148 329.100786,40.1150787 330.334331,38.6996556 C331.567876,37.2842326 333.262833,36.5765317 335.419252,36.5765317 C337.420336,36.5765317 339.001078,37.1837847 340.161524,38.398309 C341.32197,39.6128333 341.902184,41.2839206 341.902184,43.4116211 L341.902184,45.151213 L331.800872,45.151213 C331.846559,46.6214266 332.244028,47.7514652 332.993293,48.5413626 C333.742557,49.3312599 334.797907,49.7262027 336.159376,49.7262027 C337.054838,49.7262027 337.88861,49.6417352 338.660718,49.4727976 C339.432826,49.30386 340.26203,49.0230625 341.148355,48.6303968 L341.148355,51.2466334 C340.362541,51.6210357 339.567602,51.8858528 338.763513,52.0410927 C337.959424,52.1963327 337.041133,52.2739515 336.00861,52.2739515 Z M335.419252,39.0146998 C334.395867,39.0146998 333.5758,39.3388725 332.959028,39.9872276 C332.342255,40.6355827 331.974482,41.5807058 331.855696,42.8226254 L338.736101,42.8226254 C338.717826,41.5715741 338.416298,40.624168 337.831506,39.9803788 C337.246714,39.3365896 336.442638,39.0146998 335.419252,39.0146998 Z" id="School-of-"></path>
                </g>
            </g>
        </g>
    </g>
</svg>