<svg xmlns="http://www.w3.org/2000/svg"><defs><font horiz-adv-x="1255"><font-face units-per-em="2048" ascent="1536" descent="-512"/><glyph horiz-adv-x="2048"/><glyph horiz-adv-x="2048"/><glyph horiz-adv-x="2048"/><glyph horiz-adv-x="512"/><glyph horiz-adv-x="512"/><glyph horiz-adv-x="512"/><glyph unicode="!" horiz-adv-x="530" d="M164 68v65q0 68 67 68h70q68 0 68-68V68q0-68-68-68h-70q-67 0-67 68zm0 1310q0 68 65 68h70q68 0 68-68l-11-913q-3-68-69-68h-45q-32 0-50 18t-18 50z"/><glyph unicode="&quot;" horiz-adv-x="673" d="M115 1104v299q0 67 67 67h21q67 0 67-67v-299q0-68-67-68h-21q-32 0-49.5 18t-17.5 50zm288 0v299q0 67 68 67h21q67 0 67-67v-299q0-32-17.5-50t-49.5-18h-21q-68 0-68 68z"/><glyph unicode="#" horiz-adv-x="1437" d="M82 463l4 18q9 62 74 62h205l59 344H233q-72 0-63 71l4 19q9 59 72 59h205l59 350q12 60 74 60h30q35 0 51.5-19t10.5-53l-60-338h318l59 350q12 60 76 60h29q35 0 51-19t10-53l-59-338h192q35 0 52-18.5t12-52.5l-4-19q-9-59-72-59h-205l-61-344h190q35 0 52-20t12-54l-4-16q-9-62-74-62H987L932 61Q920 0 856 0h-29q-35 0-51 19t-10 53l55 319H504L446 61q-9-61-73-61h-29q-35 0-51 19t-10 53l55 319H145q-35 0-51.5 19T82 463zm448 80h318l61 344H590z"/><glyph unicode="$" horiz-adv-x="1097" d="M102 1067q0 150 105 261t274 136v125q0 68 66 68h16q64 0 64-60v-131q167-9 303-104 48-31 18-92l-26-51q-34-58-95-19-127 82-260 82-114 0-188-61.5T305 1071q0-46 24.5-84t65.5-66 94-53.5 112-50 117.5-52T830 702t94-79 65.5-104.5T1014 383q0-157-104-269.5T627-20v-121q0-68-64-68h-16q-66 0-66 59v130Q286-2 127 123q-53 41-10 94l33 47q37 50 96 12 148-112 313-112 106 0 179 57t73 156q0 48-24.5 88T721 534.5 627 591t-112 53-117.5 53.5-111.5 63-94 77T126.5 938 102 1067z"/><glyph unicode="%" horiz-adv-x="1546" d="M90 1167q0 125 91 214t220 89q128 0 220-89.5t92-213.5q0-126-92-214.5T401 864q-129 0-220 88.5T90 1167zM172 24q-12 24 14 58l1012 1325q29 39 82 39h37q43 0 55-24t-14-58L346 41Q313 0 264 0h-37q-43 0-55 24zm78 1143q0-65 43-108t108-43q63 0 107.5 43.5T553 1167q0 63-44.5 108.5T401 1321q-64 0-107.5-45T250 1167zm584-888q0 125 90 214t219 89 220-89 91-214q0-126-91-215t-220-89-219 89-90 215zm159 0q0-64 43.5-108t106.5-44q64 0 107.5 43.5T1294 279q0 64-43.5 108.5T1143 432q-63 0-106.5-45T993 279z"/><glyph unicode="&" horiz-adv-x="1318" d="M92 406q0 124 69 227.5T348 776v4q-8 3-21 9t-46 31-58 57-46 91-21 130q0 176 123 274t321 98h94q68 0 68-67v-37q0-32-18-50t-50-18h-84q-113 0-181.5-61.5T360 1077q0-38 11.5-74t38.5-72.5 83-58.5 134-22h268v129q0 68 68 68h63q68 0 68-58V850h125q67 0 67-68v-41q0-67-67-67h-125V481q0-240-133.5-373T594-25Q371-25 231.5 97.5T92 406zm207 10q0-107 81.5-180.5T594 162q143 0 222 81t79 246v185H618q-153 0-236-68t-83-190z"/><glyph unicode="'" horiz-adv-x="385" d="M113 1151v252q0 67 67 67h25q65 0 65-67v-252q0-66-65-66h-25q-67 0-67 66z"/><glyph unicode="(" horiz-adv-x="563" d="M100 696q0 403 211 764 23 45 80 45h31q40 0 53-21.5t-6-56.5q-188-356-188-733 0-428 192-809 17-35 4-57.5T426-195h-35q-53 0-76 41Q213 30 156.5 248.5T100 696z"/><glyph unicode=")" horiz-adv-x="563" d="M85-171.5Q72-148 90-111q189 378 189 805 0 379-187 733-19 35-7 56.5t50 21.5h35q57 0 80-45 209-358 209-764 0-228-54.5-445.5T250-150q-25-45-82-45h-31q-39 0-52 23.5z"/><glyph unicode="*" horiz-adv-x="968" d="M98 1151l13 39q11 32 33 43.5t51-.5l208-78-8 221q-6 70 64 70h47q69 0 63-68l-10-223 209 76q31 12 54 2t32-41l14-39q19-67-45-82l-215-61v-4l135-172q47-53-10-95l-33-24q-56-41-92 16L485 915h-4L360 735q-39-60-94-20l-35 24q-26 19-29 43t19 49l135 175v4l-211 59q-32 8-44.5 29.5T98 1151z"/><glyph unicode="+" d="M86 571v25q0 68 68 68h391v436q0 67 67 67h33q32 0 50-17.5t18-49.5V664h389q32 0 49.5-18t17.5-50v-25q0-67-67-67H713V68q0-68-68-68h-33q-67 0-67 68v436H154q-68 0-68 67z"/><glyph unicode="," horiz-adv-x="485" d="M51-178l107 336q15 57 75 57h64q38 0 53-22t0-56L211-203q-19-51-80-51h-22q-37 0-52 20.5T51-178z"/><glyph unicode="-" horiz-adv-x="860" d="M131 563v41q0 32 18 50t50 18h463q67 0 67-68v-41q0-67-67-67H199q-68 0-68 67z"/><glyph unicode="." horiz-adv-x="466" d="M127 68v79q0 68 68 68h77q68 0 68-68V68q0-68-68-68h-77q-68 0-68 68z"/><glyph unicode="/" horiz-adv-x="808" d="M82-10l477 1478q17 56 78 56h37q36 0 51.5-21.5t3.5-54.5L252-31q-21-55-78-55h-37q-37 0-52 21t-3 55z"/><glyph unicode="0" horiz-adv-x="1273" d="M125 725q0 129 16 237.5t53.5 204T290 1328t146 104 201 38 201.5-38T985 1328t95-161.5 53-204 16-237.5q0-130-16-239t-53-205-95-162.5-146.5-105T637-25 436 13.5t-146 105T194.5 281 141 486t-16 239zm209 0q0-125 14.5-222t48-176.5 94-122T637 162t147 42.5 94 122T925.5 503 940 725t-14.5 221-47.5 175-94 121-147 42q-69 0-122-28.5t-87-77.5-55.5-121.5-30-153T334 725z"/><glyph unicode="1" horiz-adv-x="960" d="M92 68v41q0 67 68 67h252v934l2 88h-4q-19-33-64-78l-92-90q-51-47-94 2l-29 29q-48 48 0 96l262 256q36 33 82 33h66q67 0 67-68V176h250q68 0 68-67V68q0-68-68-68H160Q92 0 92 68z"/><glyph unicode="2" horiz-adv-x="1144" d="M98 68v43q0 83 24.5 156.5t65.5 130T282 505t111.5 94T511 682.5 623 763t94 81.5 65.5 91.5 24.5 104q0 107-72.5 173.5T547 1280q-150 0-256-133-49-53-96-14l-37 28q-55 42-19 92 25 35 58 67.5t84.5 69T406 1448t155 22q200 0 328.5-114.5T1018 1055q0-76-23.5-144t-64-120.5T838 690t-109.5-88.5-115.5-79T502.5 445t-93-79-65-88.5T319 176h654q67 0 67-67V68q0-68-67-68H170q-32 0-52 17.5T98 68z"/><glyph unicode="3" horiz-adv-x="1138" d="M98 223l33 47q39 50 94 13 142-115 297-115 124 0 209.5 74.5T817 432q0 127-97 196.5T481 698h-45q-53 0-76 50l-6 12q-21 47 17 88l278 330q21 24 43.5 47.5T727 1260l12 12v4q-43-6-123-6H195q-32 0-50 17.5t-18 49.5v41q0 68 68 68h729q67 0 67-64v-18q0-49-30-82L598 864q61-6 118.5-24.5t114-53 98-81.5T996 589.5t26-149.5q0-93-35.5-177.5t-98.5-148T731.5 13 530-25q-223 0-421 154-49 40-11 94z"/><glyph unicode="4" horiz-adv-x="1222" d="M47 455v12q0 43 27 84l614 852q28 43 80 43h113q67 0 67-68V559h129q32 0 50-17.5t18-49.5v-37q0-68-58-68H948V68q0-68-67-68h-66q-67 0-67 68v319H115q-68 0-68 68zm225 104h476v526q0 30 2.5 66t5.5 57l2 21h-4q-35-68-72-119L272 563v-4z"/><glyph unicode="5" horiz-adv-x="1132" d="M123 225l33 45q39 50 92 9 116-111 266-111 131 0 224 82t93 211-94 213-235 84q-94 0-199-51-51-18-90-5l-18 7q-56 22-50 79l62 594q6 64 69 64h598q68 0 68-68v-41q0-67-68-67H389l-35-305q-1-19-3.5-38t-4.5-29l-2-9h4q9 5 25.5 12.5t65.5 20 96 12.5q149 0 264.5-63.5t177-170.5 61.5-237q0-209-146.5-348.5T526-25q-233 0-397 158-50 41-6 92z"/><glyph unicode="6" horiz-adv-x="1212" d="M113 653q0 96 17.5 192t52 188 89.5 171 125 138.5 164.5 93.5 202.5 34q121 0 217-34 64-22 39-86l-19-52q-11-32-31.5-41t-49.5 0q-79 27-148 27-97 0-177-42t-132.5-113T378 972.5 334 791h4q46 64 135 104.5T672 936q197 0 321.5-133T1118 471q0-216-131.5-356T651-25q-233 0-385.5 188T113 653zm211-100q0-85 40.5-174.5t118-153T651 162q121 0 192.5 83T915 461q0 134-80 218.5T612 764q-120 0-204-62.5T324 553z"/><glyph unicode="7" horiz-adv-x="1054" d="M55 1337v41q0 68 68 68h831q68 0 68-64v-32q0-47-18-82L393 49Q371 0 315 0h-67q-38 0-52 22.5t3 57.5l524 1059q19 36 39 69.5t30 48.5l11 15v4q-29-6-101-6H123q-68 0-68 67z"/><glyph unicode="8" horiz-adv-x="1226" d="M111 408q0 65 21 127t47 102 65 80 57 54 41 30q-174 116-174 291 0 74 28 140.5t82 120.5 142 85.5 198 31.5q204 0 331.5-104.5T1077 1090q0-193-172-379 205-123 205-314 0-83-35.5-159T976 103.5 818.5 10 614-25Q397-25 254 98.5T111 408zm202 20q0-121 89-197.5T614 154q116 0 202.5 70T903 397q0 31-9.5 58T870 503t-40 42-50 35.5-63 33.5-69.5 32-78.5 33.5-82 35.5q-24-18-35-27t-42.5-40-48.5-58.5-32.5-71.5-15.5-90zm54 662q0-30 9.5-57.5t23-48.5 39.5-42 48.5-35.5 60-33T611 844t71-30 70-30q127 137 127 283 0 106-72 166.5T618 1294q-118 0-184.5-58T367 1090z"/><glyph unicode="9" horiz-adv-x="1212" d="M94 981q0 214 131.5 351.5T559 1470q115 0 215-49t172-136 113-213.5 41-276.5q0-117-24-231t-76.5-221-127-188.5T688.5 24 449-25q-125 0-218 37-62 18-38 84l18 54q11 31 32 39t50-1q96-26 147-26 78 0 146 28t116.5 75 86 111 59 134T879 655h-5q-46-64-137.5-103.5T539 512q-194 0-319.5 134T94 981zm203 4q0-134 80-218.5T600 682q120 0 204.5 63T889 893q0 63-24.5 131.5T798 1151t-105 95.5-132 37.5q-121 0-192.5-83T297 985z"/><glyph unicode=":" horiz-adv-x="475" d="M135 68v75q0 68 66 68h73q68 0 68-68V68q0-68-68-68h-73q-66 0-66 68zm0 825v76q0 67 66 67h73q68 0 68-67v-76q0-68-68-68h-73q-66 0-66 68z"/><glyph unicode=";" horiz-adv-x="559" d="M98-180l90 338q15 57 76 57h64q38 0 52.5-21.5t.5-56.5L258-201q-17-53-78-53h-24q-35 0-50.5 20T98-180zM201 889v80q0 67 67 67h72q68 0 68-67v-80q0-68-68-68h-72q-67 0-67 68z"/><glyph unicode="<" d="M121 571v23q0 58 51 80l823 366q35 15 57.5 1.5T1075 991v-41q0-55-53-78L342 586v-4l680-289q53-20 53-78v-39q0-38-22.5-52t-57.5 1L172 494q-51 19-51 77z"/><glyph unicode="=" d="M139 377v24q0 68 68 68h842q32 0 49.5-18t17.5-50v-24q0-32-17.5-50t-49.5-18H207q-68 0-68 68zm0 387v24q0 68 68 68h842q67 0 67-68v-24q0-32-17.5-50t-49.5-18H207q-68 0-68 68z"/><glyph unicode=">" d="M180 176v39q0 58 51 78l680 289v4L231 872q-51 23-51 78v41q0 38 21.5 51.5t56.5-.5l825-368q52-24 52-80v-23q0-56-52-77L258 125q-35-15-56.5-1T180 176z"/><glyph unicode="?" horiz-adv-x="933" d="M94 1292q-39 58 12 92 140 91 304 91 179 0 303.5-104.5T838 1100q0-67-19-124t-50-98.5-68-79-75.5-71T555 660t-54-77-26-91v-43q-9-52-65-52h-60q-32 0-49.5 18T283 465v41q0 58 19 109.5t50 89.5 68 73.5 74 69 68 67.5 50 78 19 92q0 87-67 145t-169 58q-92 0-178-51-64-31-96 18zM276 68v65q0 68 68 68h72q67 0 67-68V68q0-68-67-68h-72q-68 0-68 68z"/><glyph unicode="@" horiz-adv-x="1626" d="M106 494q0 156 59 296t159 241 239 160.5 293 59.5q142 0 247.5-33.5t165.5-93 88.5-131.5 28.5-157V256h80q68 0 68-68v-14q0-68-68-68H975q-187 0-305.5 114T551 494q0 102 51.5 189T752 823.5 975 877h221q-3 91-91 150.5T864 1087q-155 0-284-81.5T378 788t-73-294q0-230 143.5-396.5T821-92q66-6 66-70v-26q0-33-18.5-51T817-254q-206 15-368.5 118T196 132t-90 362zm646 2q0-101 68-170.5T991 256h205v483H995q-106 0-174.5-70.5T752 496z"/><glyph unicode="A" horiz-adv-x="1271" d="M37 78l475 1313q17 55 76 55h98q59 0 76-55L1237 78q5-16 5-28 0-16-8-28-15-22-52-22h-70q-58 0-76 55L907 416H362L236 55Q221 0 162 0H92Q54 0 40 21q-8 11-8 27 0 14 5 30zm379 506h438l-160 458q-11 33-25 84t-22 86l-8 35h-4q-32-131-57-205z"/><glyph unicode="B" horiz-adv-x="1263" d="M184 68v1310q0 68 68 68h438q187 0 302.5-98.5T1108 1077q0-105-47-186.5T930 766v-4q111-33 174-129t63-221q0-99-37-178.5t-101-130-148-77T700 0H252q-68 0-68 68zm201 108h326q116 0 183 67.5T961 422t-68.5 179.5T711 670H385V176zm0 662h305q97 0 155 61t58 158-58 155-159 58H385V838z"/><glyph unicode="C" horiz-adv-x="1447" d="M94 731q0 208 93 376.5T448.5 1373t380.5 97q278 0 480-149 27-21 27-48 0-21-15-46l-27-41q-21-32-50-32-20 0-44 15-171 115-362 115-123 0-225-43t-169-118-104-175.5T303 733q0-115 37.5-218.5t105-182 170-124.5T840 162q212 0 393 141 25 19 47 19 26 0 47-27l31-41q17-23 17-44 0-26-27-50Q1124-25 834-25 616-25 446 75.5t-261 272T94 731z"/><glyph unicode="D" horiz-adv-x="1492" d="M184 68v1310q0 68 68 68h412q335 0 534-191.5T1397 725q0-340-199.5-532.5T664 0H252q-68 0-68 68zm201 108h264q249 0 394 143t145 406q0 261-145.5 403T649 1270H385V176z"/><glyph unicode="E" horiz-adv-x="1136" d="M184 68v1310q0 68 68 68h704q68 0 68-68v-41q0-67-68-67H385V817h453q67 0 67-67v-41q0-68-67-68H385V176h606q68 0 68-67V68q0-68-68-68H252q-68 0-68 68z"/><glyph unicode="F" horiz-adv-x="1034" d="M184 68v1310q0 68 68 68h661q68 0 68-68v-41q0-32-18-49.5t-50-17.5H385V795h438q68 0 68-68v-41q0-68-68-68H385V68q0-68-68-68h-65q-68 0-68 68z"/><glyph unicode="G" horiz-adv-x="1538" d="M94 719q0 158 56 297.5t153 239 234.5 157T831 1470q160 0 284-43.5t192-91.5q30-23 30-50 0-20-16-42l-29-43q-20-30-51-30-19 0-43 12-165 102-356 102-162 0-286-75t-188.5-201T303 727q0-162 69.5-291.5t190-201.5T831 162q74 0 144 19t116.5 46.5 82.5 55 52 46.5l17 19v203h-168q-67 0-67 67v41q0 32 17.5 50t49.5 18h285q67 0 67-68V68q0-68-67-68h-39q-32 0-50 15.5T1253 57v54l2 45h-4q-6-7-18-19.5T1178.5 93t-90-55T964-5.5 805-25q-145 0-275.5 56T303 184 150.5 420.5 94 719z"/><glyph unicode="H" horiz-adv-x="1521" d="M184 68v1310q0 68 68 68h65q68 0 68-68V809h752v569q0 68 67 68h68q65 0 65-68V68q0-68-65-68h-68q-67 0-67 68v567H385V68q0-68-68-68h-65q-68 0-68 68z"/><glyph unicode="I" horiz-adv-x="569" d="M184 68v1310q0 68 68 68h65q68 0 68-68V68q0-68-68-68h-65q-68 0-68 68z"/><glyph unicode="J" horiz-adv-x="1069" d="M45 420q0 67 68 67h69q33 0 47-15t19-54q6-116 61-186t164-70q46 0 85 14t72 43 51.5 80T700 418v852H403q-65 0-65 67v41q0 68 65 68h431q67 0 67-68V416q0-91-24.5-166T811 125t-96-84.5-115.5-50T475-25q-83 0-157.5 26.5T181 79.5 82 219 45 420z"/><glyph unicode="K" horiz-adv-x="1239" d="M184 68v1310q0 68 68 68h65q68 0 68-68V838h217l338 563q25 45 80 45h76q40 0 53.5-23.5t-6.5-58.5L768 760v-4l401-676q14-21 14-38 1-10-5-19-14-23-54-23h-84q-53 0-79 47L602 664H385V68q0-68-68-68h-65q-68 0-68 68z"/><glyph unicode="L" horiz-adv-x="1044" d="M184 68v1310q0 68 68 68h65q68 0 68-68V176h582q67 0 67-67V68q0-68-67-68H252q-68 0-68 68z"/><glyph unicode="M" horiz-adv-x="1730" d="M135 70l107 1312q6 64 69 64h92q59 0 76-53l314-729q15-36 32.5-84.5T854 500l10-31h4q37 115 70 195l313 729q17 53 76 53h92q64 0 70-64L1595 70v-6q0-64-65-64h-66q-63 0-69 66l-66 845q-4 39-5 93v86l1 34h-4q-45-133-78-213L977 313q-20-53-78-53h-68q-57 0-77 53L487 911l-77 217h-4q1-35 1-67 0-86-6-150L336 66q-6-66-68-66h-67q-66 0-66 64v6z"/><glyph unicode="N" horiz-adv-x="1523" d="M184 68v1310q0 68 68 68h78q55 0 82-45l616-895q23-35 52.5-87t47.5-87l19-35h4q-12 129-12 209v872q0 68 67 68h66q67 0 67-68V68q0-68-67-68h-78q-55 0-80 45L496 938q-23 36-52.5 88.5T396 1114l-19 35h-4q12-129 12-211V68q0-68-68-68h-65q-68 0-68 68z"/><glyph unicode="O" horiz-adv-x="1669" d="M92 733q0 154 56 290.5T302 1258t237 155 297 57 296.5-57 235.5-155 153-234.5 56-290.5q0-158-56-298t-153-241-235.5-160T836-25 539 34 302.5 194t-154 241T92 733zm209 0q0-120 40.5-225.5T453 326t170.5-120T836 162q229 0 380.5 163.5T1368 733q0 236-151.5 393.5T836 1284q-151 0-274-72t-192-198-69-281z"/><glyph unicode="P" horiz-adv-x="1220" d="M184 68v1310q0 68 68 68h461q200 0 326-124.5T1165 993t-126.5-331T713 535H385V68q0-68-68-68h-65q-68 0-68 68zm201 643h295q130 0 205.5 75.5T961 993q0 130-74.5 203.5T682 1270H385V711z"/><glyph unicode="Q" horiz-adv-x="1671" d="M94 731q0 155 56 291.5t153.5 235T539 1413t295 57q160 0 299-57t236.5-155.5 153.5-235 56-291.5q0-133-45-256t-125-221l119-119q27-23 27-49 0-22-21-45l-27-29q-25-25-49-25-22 0-43 21l-123 123Q1097-25 834-25 623-25 453 75.5T188.5 349 94 731zm209 0q0-158 69-288t191-205.5T834 162q188 0 315 106l-121 121q-26 22-26 47 0 23 22 47l27 27q25 28 49 28 21 0 41-20l123-125q106 145 106 338 0 237-153.5 395T834 1284q-227 0-379-158T303 731z"/><glyph unicode="R" horiz-adv-x="1263" d="M184 68v1310q0 68 68 68h389q185 0 270-39 105-47 166.5-145.5T1139 1028q0-140-69.5-249T881 631v-4q18-21 43-66l260-481q12-21 12-38 0-12-5-20-13-22-52-22h-82q-57 0-80 47L694 575H385V68q0-68-68-68h-65q-68 0-68 68zm201 684h291q118 0 188 73t70 195q0 166-135 225-58 25-172 25H385V752z"/><glyph unicode="S" horiz-adv-x="1099" d="M111 219l34 49q21 28 49 28 20 0 44-15 161-117 315-117 115 0 184.5 56.5T807 371q0 64-38.5 114.5t-100 85T533 637t-148 69-135.5 82.5-100 117.5-38.5 163q0 180 133.5 290.5T580 1470q116 0 213-34.5t149-75.5q31-22 31-53 0-18-10-39l-29-51q-19-33-49-33-19 0-43 14-140 84-267 84-114 0-187-55.5T315 1079q0-63 38.5-111.5t100-81 135.5-63T737.5 756t136-82.5 100-119T1012 387q0-176-124-294T553-25q-138 0-251.5 47T119 125q-26 24-26 49 0 22 18 45z"/><glyph unicode="T" horiz-adv-x="1218" d="M12 1337v41q0 68 68 68h1061q65 0 65-68v-41q0-67-65-67H711V68q0-68-68-68h-68q-65 0-65 68v1202H80q-68 0-68 67z"/><glyph unicode="U" horiz-adv-x="1468" d="M166 512v866q0 68 67 68h68q66 0 66-68V514q0-164 99.5-258T733 162q168 0 267.5 94.5T1100 516v862q0 68 67 68h68q68 0 68-68V512q0-241-157-389T735-25q-255 0-412 148T166 512z"/><glyph unicode="V" horiz-adv-x="1275" d="M31 1368q-5 16-5 30 0 16 8 27 14 21 52 21h78q59 0 76-55l340-967q12-35 26-84.5t22-81.5l7-33h4q30 121 55 199l344 967q17 55 76 55h76q38 0 52-21 8-11 8-27 0-13-5-30L764 55Q747 0 688 0h-98q-58 0-78 55z"/><glyph unicode="W" horiz-adv-x="1935" d="M80 1372q-3 12-3 23 1 20 11 32 16 19 51 19h72q61 0 76-60L526 385q8-35 15-73.5t9-59.5l3-21h4q12 74 35 154l268 1004q15 57 76 57h57q62 0 74-57l268-1004q10-36 18.5-74.5T1365 252l3-21h4q11 76 29 154l252 1001q15 60 76 60h69q35 0 51-20 11-14 11-34 0-9-2-20L1511 57q-15-57-75-57h-113q-59 0-74 57l-237 881q-12 41-23 92t-17 82l-5 31h-6q-21-113-46-205L678 57Q663 0 602 0H489q-60 0-75 59z"/><glyph unicode="X" horiz-adv-x="1202" d="M62 23q-5 9-5 20 0 17 13 37l405 665-377 621q-22 34-8.5 57t53.5 23h86q51 0 80-45l199-346 92-172h4q43 92 90 172l203 346q25 45 78 45h86q40 0 53.5-23t-8.5-57L725 745l408-665q14-21 14-38 1-10-5-19-14-23-55-23h-79q-54 0-80 47L692 444l-92 166h-4q-41-86-88-166L274 47Q248 0 195 0h-78Q76 0 62 23z"/><glyph unicode="Y" horiz-adv-x="1161" d="M34 1423q14 23 54 23h82q55 0 78-47l244-428q19-36 41-82t35-73l12-28h4q43 101 88 183l241 428q23 47 78 47h82q40 0 53-23 6-9 6-20 0-17-12-37L682 612V68q0-68-68-68h-67q-68 0-68 68v544L41 1366q-12 20-12 37 0 11 5 20z"/><glyph unicode="Z" horiz-adv-x="1204" d="M66 68v20q0 45 28 86l668 965q24 36 50 69.5t40 48.5l14 15v4q-38-6-108-6H170q-68 0-68 67v41q0 68 68 68h881q67 0 67-66v-20q0-44-26-86L422 307q-24-36-50.5-68.5T331 191l-14-15v-4q39 4 109 4h633q67 0 67-67V68q0-68-67-68H133Q66 0 66 68z"/><glyph unicode="[" horiz-adv-x="583" d="M164-127v1567q0 65 67 65h205q66 0 66-65v-17q0-67-64-67H338V-43h98q66 0 66-68v-16q0-68-66-68H231q-67 0-67 68z"/><glyph unicode="\" horiz-adv-x="808" d="M80 1448q-11 34 4.5 55t52.5 21h35q61 0 78-56L729-10q11-34-4.5-55T672-86h-37q-57 0-78 55z"/><glyph unicode="]" horiz-adv-x="583" d="M82-111q0 68 65 68h99v1399h-99q-65 0-65 67v17q0 65 65 65h205q68 0 68-65V-127q0-68-68-68H147q-65 0-65 68v16z"/><glyph unicode="^" d="M175 528.5q-14 22.5 1 57.5l352 809q19 51 78 51h19q58 0 77-51l353-809q15-35 .5-57.5T1001 506h-34q-57 0-78 53l-275 668-272-668q-21-53-78-53h-37q-38 0-52 22.5z"/><glyph unicode="_" horiz-adv-x="1126" d="M12-68Q12 0 80 0h967q67 0 67-68v-24q0-68-67-68H80q-32 0-50 18T12-92v24z"/><glyph unicode="`" horiz-adv-x="1021" d="M376 1782q10 24 52 24h61q54 0 80-47l80-139q18-29 9.5-51.5T616 1546h-41q-48 0-81 41l-101 137q-27 34-17 58z"/><glyph unicode="a" horiz-adv-x="1058" d="M59 283q0 67 23.5 121t61 90.5 92 63.5 108 42 118 24.5 114 12T678 639h53v27q0 227-225 227-119 0-234-66-20-9-37-9-33 0-55 34l-16 29q-12 23-12 42 0 32 34 50 153 88 336 88 194 0 301-105t107-301V68q0-68-68-68h-51q-68 0-68 68v61q0 17 1.5 33t3.5 24l2 7h-5q-4-9-12-23.5t-37-52T631.5 51 536-1.5 408-25q-144 0-246.5 84T59 283zm201 16q0-67 51.5-116.5T453 133q83 0 149 51t98.5 125.5T733 463v45h-53q-420 0-420-209z"/><glyph unicode="b" horiz-adv-x="1212" d="M145 68v1310q0 68 68 68h63q66 0 66-68V958q0-23-1.5-45t-2.5-33l-2-10h4q4 8 11.5 21t36.5 45.5 64.5 58 96 46T678 1061q204 0 328-150t124-391q0-246-131.5-395.5T662-25q-68 0-127.5 20.5T439 45t-62 57.5-37 49.5l-10 20h-4q6-24 6-61V59q0-28-18-43.5T264 0h-51q-68 0-68 68zm193 450q0-98 31-180.5T468 201t161-54q129 0 215 99t86 270q0 167-81.5 269T637 887q-127 0-213-93.5T338 518z"/><glyph unicode="c" horiz-adv-x="1087" d="M76 518q0 232 156 387.5T629 1061q200 0 342-111 30-20 30-46 0-21-18-46l-20-31q-20-30-49-30-20 0-44 14-108 78-231 78-157 0-258.5-104.5T279 520t102.5-266.5T643 147q138 0 264 95 22 15 42 15 29 0 50-34l17-30q12-22 12-40 0-29-31-51Q843-25 629-25q-243 0-398 154T76 518z"/><glyph unicode="d" horiz-adv-x="1212" d="M80 518q0 245 131 394t338 149q67 0 124.5-18.5t92-44.5 59.5-52 35-44l10-19h4q-6 30-6 69v426q0 68 68 68h63q68 0 68-68V68q0-68-68-68h-53q-67 0-67 63v60l4 51h-4q-4-8-11-21.5t-36-48T767.5 44 670-3.5 537-25q-209 0-333 149.5T80 518zm203 0q0-168 81-269.5T575 147q60 0 112 21.5t95 65T849.5 351 874 520q0 71-18.5 135.5t-53.5 117-92.5 83.5T580 887q-127 0-212-99t-85-270z"/><glyph unicode="e" horiz-adv-x="1116" d="M78 518q0 244 146.5 393.5T596 1061q211 0 328.5-136T1042 567q0-28-19.5-48.5T973 498H281q9-163 111.5-257T639 147q138 0 248 82 23 11 41 11 32 0 51-33l18-31q16-26 11-50.5T977 86Q820-25 627-25q-160 0-286 71.5t-194.5 195T78 518zm211 111h555q-4 132-74.5 204T592 905q-116 0-199-73.5T289 629z"/><glyph unicode="f" horiz-adv-x="659" d="M55 932v26q0 32 18 50t50 18h65v49q0 93 29.5 165t71.5 111.5 97 64.5 97 32.5 80 7.5h25q67 0 67-67v-39q0-62-71-68-29-2-50.5-5.5t-51-16.5-48.5-34.5-33-62.5-14-96v-41h178q32 0 50-18t18-50v-26q0-32-18-50t-50-18H387V68q0-68-68-68h-63q-68 0-68 68v796h-65q-32 0-50 18t-18 50z"/><glyph unicode="g" horiz-adv-x="1198" d="M82 545q0 228 122.5 372T545 1061q72 0 131.5-18t93.5-43.5 57.5-51T860 905l8-18h4q-4 13-4 33v59q0 57 68 57h49q68 0 68-67V43q0-99-29.5-180T945-271.5t-116-90T689.5-414 539-430q-171 0-301 57-43 18-43 55 0 16 8 35l14 35q18 42 54 42 15 0 32-7 122-45 225-45 68 0 125.5 16t103 49.5 71.5 91T854 33v90l6 65h-4Q761 12 549 12q-142 0-249 70T137.5 272.5 82 545zm203 8q0-168 80-268.5T584 184q56 0 103.5 18.5t87 58T836 371t22 168q0 350-287 350-137 0-211.5-90T285 553z"/><glyph unicode="h" horiz-adv-x="1212" d="M145 68v1310q0 68 68 68h63q66 0 66-68V909q0-22-1.5-43.5T338 834l-2-11h4q18 40 51 79.5t80.5 76.5 114.5 59.5 141 22.5q182 0 269-98.5t87-298.5V68q0-68-67-68h-64q-67 0-67 68v550q0 60-8 103t-28 81-60.5 57.5T688 879q-149 0-247.5-110T342 492V68q0-68-66-68h-63q-68 0-68 68z"/><glyph unicode="i" horiz-adv-x="485" d="M141 1311v67q0 68 68 68h70q67 0 67-68v-67q0-32-17.5-50t-49.5-18h-70q-68 0-68 68zm2-1243v901q0 67 68 67h63q68 0 68-67V68q0-68-68-68h-63q-68 0-68 68z"/><glyph unicode="j" horiz-adv-x="487" d="M-123-317q0 35 18 49.5t50 17.5q24 2 43 5.5T32-232t43.5 25 35 39.5T136-107t9 84v992q0 67 68 67h63q66 0 66-67V-31q0-96-30-170.5T240-316t-97-65.5-96-33-78-7.5h-24q-68 0-68 68v37zm264 1628v67q0 68 68 68h70q67 0 67-68v-67q0-68-67-68h-70q-32 0-50 18t-18 50z"/><glyph unicode="k" horiz-adv-x="1042" d="M145 68v1310q0 68 68 68h63q66 0 66-68V657h150l251 336q25 43 80 43h76q41 0 53.5-24T940 954L653 580v-5L985 82q14-22 14-39 0-9-5-19-13-24-54-24h-82q-54 0-80 47L496 485H342V68q0-68-66-68h-63q-68 0-68 68z"/><glyph unicode="l" horiz-adv-x="536" d="M143 283v1095q0 68 68 68h63q68 0 68-68V307q0-78 26-105.5t68-31.5q53-7 53-59V61q0-69-69-69-39 0-72 5t-73 23-67 48-46 85-19 130z"/><glyph unicode="m" horiz-adv-x="1847" d="M143 68v901q0 67 68 67h57q68 0 68-67v-92l-6-60h4q41 97 142 170.5t218 73.5q256 0 312-236h4q44 97 145 166.5t221 69.5q175 0 258.5-98.5T1718 664V68q0-68-67-68h-64q-67 0-67 68v553q0 60-7.5 103t-26 80.5-56 57T1337 881q-93 0-164.5-58.5t-107-148T1030 483V68q0-68-65-68h-66q-65 0-65 68v553q0 58-6 99t-24 80.5-56 60-95 20.5q-94 0-167-60T377.5 671.5 342 483V68q0-68-68-68h-63q-68 0-68 68z"/><glyph unicode="n" horiz-adv-x="1210" d="M143 68v901q0 67 68 67h57q68 0 68-67v-92l-6-60h4q17 38 47.5 76.5t78 78.5 117.5 64.5 150 24.5q181 0 267.5-98.5T1081 664V68q0-68-67-68h-64q-67 0-67 68v550q0 60-7.5 103T848 802t-60 57.5T688 879q-150 0-248-110t-98-273V68q0-68-68-68h-63q-68 0-68 68z"/><glyph unicode="o" horiz-adv-x="1267" d="M76 520q0 153 74.5 277.5t202 194T633 1061q115 0 217.5-41t178-112T1148 736t44-216q0-154-75-279.5T914 45 633-25 352.5 45t-202 195.5T76 520zm200 0q0-160 104.5-266.5T633 147q150 0 253 106t103 267q0 159-103 264T633 889q-149 0-253-105T276 520z"/><glyph unicode="p" horiz-adv-x="1212" d="M145-342V969q0 67 68 67h47q68 0 68-57v-61l-4-56h4q4 8 11.5 21.5t36.5 48 65 60.5 99 47.5 136 21.5q208 0 331-149.5T1130 518q0-245-131.5-394T662-25q-66 0-123.5 19T446 40t-60 54.5-36 46.5l-10 19h-4q6-37 6-90v-412q0-68-66-68h-63q-68 0-68 68zm193 856q0-95 32.5-177t101-136T631 147q128 0 213.5 99T930 516q0 167-81.5 269T637 887q-128 0-213.5-93.5T338 514z"/><glyph unicode="q" horiz-adv-x="1212" d="M80 518q0 245 131.5 394T551 1061q69 0 128.5-20t95-48 61.5-56.5 36-48.5l11-20h4q-4 25-4 58v53q0 57 67 57h49q68 0 68-67V-342q0-68-68-68h-63q-68 0-68 68V78q0 24 1.5 46.5T872 158l2 10h-4q-3-8-10-21t-35-46-63-58.5T665.5-4 532-25q-203 0-327.5 150.5T80 518zm203 0q0-168 81-269.5T575 147q60 0 112 21.5t95 65T849.5 351 874 520q0 71-18.5 135.5t-53.5 117-92.5 83.5T580 887q-127 0-212-99t-85-270z"/><glyph unicode="r" horiz-adv-x="729" d="M143 68v901q0 67 68 67h57q68 0 68-67V850l-6-78h4q37 112 122 192t195 80q66 0 66-67v-57q0-68-74-68-73 0-132-37t-95-98.5T361 581t-19-153V68q0-68-68-68h-63q-68 0-68 68z"/><glyph unicode="s" horiz-adv-x="899" d="M88 180l21 29q20 26 42 29t52-15q127-84 254-84 79 0 127.5 36.5T633 276q0 41-29.5 72T527 400.5 423 442t-114.5 46T204 547.5 127.5 636 98 762q0 142 107.5 220.5T473 1061q161 0 287-80 27-13 32.5-38T782 891l-18-31q-17-33-49-33-18 0-41 11-101 59-211 59-77 0-125.5-33.5T289 766q0-42 29.5-73.5T395 640t104-40.5T613 554t104-59 76.5-88T823 281q0-133-103-219.5T451-25Q252-25 102 88q-30 20-30 47 0 21 16 45z"/><glyph unicode="t" horiz-adv-x="700" d="M55 932v26q0 68 68 68h74v227q0 68 67 68h60q67 0 67-68v-227h180q68 0 68-68v-26q0-68-66-68H391V403q0-56 13.5-99t33.5-66.5 48.5-39 51.5-21 50-7.5q40-3 55.5-18t15.5-50V59q0-67-81-67-165 0-275 97.5T193 373v491h-72q-66 0-66 68z"/><glyph unicode="u" horiz-adv-x="1202" d="M131 373v596q0 67 68 67h63q66 0 66-67V418q0-59 7.5-101.5t27.5-80 60-57 99-19.5q103 0 181.5 55.5T821 359t39 192v418q0 67 68 67h63q68 0 68-67V68q0-68-68-68h-57q-68 0-68 68v92l6 59h-4q-18-41-51.5-81.5t-81-78-114-61T483-25q-177 0-264.5 97T131 373z"/><glyph unicode="v" horiz-adv-x="1021" d="M39 958q-6 16-6 29 0 15 8 27 14 22 51 22h70q59 0 76-55l233-645q9-25 18-60.5t14-57.5l5-23h4q19 84 37 141l233 645q17 55 76 55h70q38 0 52-22 8-11 7-26 0-14-6-30L645 53Q628 0 569 0H455q-59 0-76 53z"/><glyph unicode="w" horiz-adv-x="1644" d="M47 961q-4 14-4 26 0 17 9 29 15 20 52 20h68q61 0 76-57l203-670 24-110h4q13 57 29 110l209 668q12 57 74 57h63q61 0 76-57l209-668 26-110h4q11 57 27 110l203 670q12 57 74 57h67q37 0 52-20 9-12 9-29 0-12-4-26L1305 57q-15-57-76-57h-101q-60 0-75 57L854 666q-8 24-15.5 52T828 762l-3 16h-4q-12-59-30-112L594 57Q579 0 518 0H416q-61 0-76 57z"/><glyph unicode="x" horiz-adv-x="989" d="M62 24q-5 8-5 18 0 18 15 40l301 450L90 954q-22 35-9 58.5t54 23.5h78q55 0 78-47l168-268 33-62h4q20 35 34 62l166 268q26 47 80 47h76q42 0 55-23.5T897 954L616 532 918 82q14-22 14-40 0-10-4-18-14-24-56-24h-73q-54 0-80 47L528 346l-32 57h-4q-15-32-31-57L270 47Q244 0 190 0h-73Q75 0 62 24z"/><glyph unicode="y" horiz-adv-x="1028" d="M22-360q-3 9-3 18 0 17 8 33l16 35q16 38 52 38 11 0 24-4 55-22 82-22 59 0 105 44t73 112l51 118L29 958q-8 18-8 32t7 24q15 22 52 22h80q59 0 76-53l243-625 37-125h4q17 70 35 123l236 625q17 55 75 55h74q37 0 52-22 7-11 7-26 0-13-6-30L537-182q-45-119-135-183.5T201-430q-62 0-144 33-28 12-35 37z"/><glyph unicode="z" horiz-adv-x="1024" d="M63 57v17q0 39 29 78l494 618q20 24 41.5 48t32.5 36l12 12v4q-33-4-101-4H154q-68 0-68 68v35q0 67 68 67h718q68 0 68-57v-16q0-39-29-78L418 264q-19-24-41-47.5T342 182l-12-12v-4q32 4 100 4h459q67 0 67-66V68q0-68-67-68H131Q63 0 63 57z"/><glyph unicode="{" horiz-adv-x="665" d="M55 637v59q0 27 13.5 43t42.5 31q118 58 118 211v170q0 88 23.5 156t56.5 105 76 60 75 30 60 7h23q67 0 67-67v-25q0-67-67-67-16 0-30.5-3t-36-15.5T440 1297t-26-63.5-11-98.5V930q0-41-9-78t-23.5-62.5-32-47T303 708t-32.5-22-23.5-12l-9-4v-4q7-2 18-6.5t39.5-24.5 50-46 39.5-75 18-108V174q0-56 11-97.5T440 13t36-35 36-16 31-3q67 0 67-68v-24q0-32-17.5-50T543-201h-23q-28 0-60 7t-75 30.5-76 60.5T252.5 2 229 158v196q0 89-35.5 138T111 561q-29 15-42.5 31T55 637z"/><glyph unicode="|" horiz-adv-x="497" d="M162-258v1812q0 68 67 68h39q68 0 68-68V-258q0-68-68-68h-39q-67 0-67 68z"/><glyph unicode="}" horiz-adv-x="667" d="M55-109q0 68 68 68 16 0 30.5 3T189-22t36 35 26 63.5 11 97.5v232q0 59 17 107.5t41.5 75.5 49 45.5T411 660l17 6v4q-7 2-18 7t-39.5 26-50.5 47.5-40 74.5-18 105v205q0 57-11 98.5t-26 63.5-36 34.5-35.5 15.5-30.5 3q-32 0-50 17.5T55 1417v25q0 67 68 67h22q29 0 61-7t74.5-30 76-60 56.5-105 23-156V981q0-153 119-211 29-15 42-31t13-43v-59q0-29-13-45t-42-31q-47-20-83-69t-36-138V158q0-88-23-156t-56.5-105-76-60.5-75-30.5-60.5-7h-22q-32 0-50 18t-18 50v24z"/><glyph unicode="~" horiz-adv-x="1206" d="M121 506q18 130 90.5 194T401 764q50 0 93-15t70.5-37 55.5-48.5 51-48.5 55.5-37 68.5-15q100 0 127 129 12 33 27 48.5t44 15.5h31q33 0 50-19.5t13-52.5q-13-139-86-206.5T807 410q-59 0-107.5 20.5t-80 49.5-60.5 58-65.5 49.5T414 608q-101 0-127-129-11-32-27-46.5T215 418h-31q-34 0-51.5 23T121 506z"/><glyph unicode="¡" horiz-adv-x="518" d="M156 903v66q0 67 67 67h70q67 0 67-67v-66q0-67-67-67h-70q-67 0-67 67zm2-1245l10 913q2 32 20 50t50 18h45q32 0 49.5-18t17.5-50l10-913q0-68-65-68h-70q-67 0-67 68z"/><glyph unicode="¢" horiz-adv-x="1144" d="M98 723q0 227 116.5 387.5T528 1298v105q0 67 66 67h16q64 0 64-57v-115q115-14 209.5-84.5T1030 1044q31-60-35-88l-57-22q-36-9-52.5-1.5T850 967q-90 147-240 147-147 0-228-108.5T301 721q0-174 79.5-280.5T610 334t240 147q36 52 88 33l57-22q66-28 35-89-51-99-146-171t-210-82V41q0-68-64-68h-16q-66 0-66 68v109q-197 27-313.5 187T98 723z"/><glyph unicode="£" horiz-adv-x="1183" d="M109 68v41q0 67 67 67h62v477h-43q-62 0-62 66v12q0 66 62 66h43v278q0 171 125.5 283T682 1470q153 0 289-88 55-40 8-94l-31-41q-37-45-94-10-86 49-170 49-111 0-176.5-62.5T442 1067V797h310q67 0 67-66v-12q0-66-67-66H442V176h598q68 0 68-67V68q0-68-68-68H176q-67 0-67 68z"/><glyph unicode="¥" horiz-adv-x="1208" d="M77 1423.5q14 22.5 54 22.5h84q58 0 78-51l221-400q20-43 42-95t34-83l12-31h4q43 113 88 209l221 400q20 51 78 51h84q40 0 54-22.5t-5-57.5L829 840h142q67 0 67-58v-12q0-59-67-59H760l-53-99v-75h264q67 0 67-58v-12q0-59-67-59H707V68q0-68-68-68h-70q-67 0-67 68v340H236q-68 0-68 59v12q0 58 68 58h266v75l-56 99H236q-68 0-68 59v12q0 58 59 58h152L82 1366q-19 35-5 57.5z"/><glyph unicode="§" horiz-adv-x="899" d="M131 1120q0 153 104.5 251.5T518 1470q131 0 234-65 56-35 16-94l-18-25q-35-43-93-16-77 35-139 35-97 0-158-53.5T299 1098q0-36 12-82l121-715q8-34-8-54t-51-20h-25q-62 0-74 60l-133 739q-10 52-10 94zm6-1087l17 26q33 49 92 19 68-39 143-39 94 0 155.5 56T606 254q0 40-12 92l-119 696q-8 34 8.5 54t51.5 20h24q62 0 74-59l131-740q10-55 10-92 0-155-104.5-253.5T387-127q-126 0-233 68-57 36-17 92z"/><glyph unicode="¨" horiz-adv-x="1021" d="M258 1667v72q0 67 68 67h28q68 0 68-67v-72q0-68-68-68h-28q-68 0-68 68zm342 0v72q0 67 68 67h28q68 0 68-67v-72q0-68-68-68h-28q-68 0-68 68z"/><glyph unicode="©" horiz-adv-x="1671" d="M104 723q0 153 57.5 291.5T316 1253t231.5 158.5T831 1470q150 0 286.5-58.5t235-158.5 156.5-238.5 58-291.5-58-292-156.5-238.5-235-158.5T831-25q-149 0-283.5 59T316 192.5 161.5 431 104 723zm150 0q0-126 44.5-239T420 290t184-128 227-47q122 0 230.5 47.5t186.5 128T1371.5 484t45.5 239-45 239-123 194-187 128-231 47q-120 0-227-47t-184-128-121.5-194T254 723zm190-2q0 168 112 288.5T850 1130q100 0 177-45t118-98q16-24 13-43.5t-19-32.5l-27-22q-19-17-41-12.5t-41 26.5q-76 86-176 86-119 0-187.5-77.5T598 719q0-112 67.5-189T854 453q109 0 184 90 36 43 74 8l25-19q40-35 8-79-45-54-120.5-98T850 311q-123 0-217 57.5t-141.5 150T444 721z"/><glyph unicode="ª" horiz-adv-x="819" d="M127 598v8q0 53 68 53h428q67 0 67-53v-8q0-55-67-55H195q-68 0-68 55zm0 385q0 223 387 223h21v13q0 129-129 129-59 0-123-31-55-22-76 18l-6 13q-27 49 32 75 88 43 189 43 127 0 193.5-66.5T682 1208V864q0-67-61-67h-9q-63 0-63 63v43h-4q-2-5-6.5-13t-22-29-37.5-37-54.5-29-72.5-13q-91 0-158 54t-67 147zm149 8q0-37 28-62.5t77-25.5q67 0 110.5 56.5T535 1085v17h-25q-234 0-234-111z"/><glyph unicode="«" horiz-adv-x="1071" d="M102 530q-41 48 0 95l265 336q32 38 84 38h41q43 0 54.5-23.5T530 918L262 578l268-338q28-34 19-58t-49-24h-49q-51 0-84 39zm412 0q-38 48 0 95l266 336q32 38 82 38h43q43 0 54.5-23.5T944 918L676 578l268-338q28-34 18-58t-51-24h-49q-49 0-82 39z"/><glyph unicode="¬" horiz-adv-x="1263" d="M135 764v24q0 68 68 68h841q68 0 68-68V377q0-68-68-68h-30q-68 0-68 68v319H203q-68 0-68 68z"/><glyph unicode="­" horiz-adv-x="860" d="M131 563v41q0 32 18 50t50 18h463q67 0 67-68v-41q0-67-67-67H199q-68 0-68 67z"/><glyph unicode="®" horiz-adv-x="1671" d="M104 723q0 153 57.5 291.5t155 238.5 232 158.5T831 1470q202 0 371-99.5t267-271 98-376.5-98-377-267-271.5T831-25q-197 0-364.5 99.5t-265 272T104 723zm150 0q0-126 44.5-239T420 290t184-128 227-47q122 0 231 47t187 128 123 194 45 239-45 239-123 194-187 128-231 47q-120 0-227-47t-184-128-121.5-194T254 723zm328-317v638q0 68 67 68h232q109 0 175-64t66-171q0-82-43.5-136.5T981 672v-4q9-8 27-43l106-207q19-35 8.5-56.5T1077 340h-24q-58 0-80 49L854 639H727V406q0-66-63-66h-19q-63 0-63 66zm145 339h123q58 0 91.5 35t33.5 97q0 59-32.5 91.5T852 1001H727V745z"/><glyph unicode="¯" horiz-adv-x="1021" d="M250 1671v15q0 65 67 65h388q67 0 67-65v-15q0-65-67-65H317q-67 0-67 65z"/><glyph unicode="°" horiz-adv-x="782" d="M80 1167q0 125 90.5 214t220.5 89q128 0 219.5-89.5T702 1167q0-126-91.5-214.5T391 864q-130 0-220.5 88.5T80 1167zm160 0q0-63 43.5-107t107.5-44q63 0 107.5 44t44.5 107-44.5 108.5T391 1321q-64 0-107.5-45T240 1167z"/><glyph unicode="±" d="M86 571v25q0 68 68 68h391v436q0 67 67 67h33q32 0 50-17.5t18-49.5V664h389q32 0 49.5-18t17.5-50v-25q0-67-67-67H713V68q0-68-68-68h-33q-67 0-67 68v436H154q-68 0-68 67zm33-833q0 67 67 67h883q68 0 68-67v-25q0-32-18-49.5t-50-17.5H186q-67 0-67 67v25z"/><glyph unicode="²" horiz-adv-x="731" d="M59 940q0 71 24 130t62.5 99.5 84.5 75 92.5 63.5 85 57.5T470 1430t24 77q0 57-42 95t-106 38q-65 0-127-53-28-20-47.5-21.5T127 1585l-8 6q-51 48-4 92 109 99 239 99 128 0 211.5-74.5T649 1513q0-61-22.5-112t-59-87-80.5-67-89-58-82-54-62-61-27-73h369q68 0 68-63v-8q0-64-68-64H127q-68 0-68 74z"/><glyph unicode="³" horiz-adv-x="731" d="M72 1026l8 10q19 25 41 27t49-14q71-62 162-62 68 0 118 45t50 111-52.5 105.5T326 1288h-27q-52 0-66 39-15 40 19 82l145 168q9 10 22 22.5t21 19.5l9 7v4q-39-6-74-6H152q-68 0-68 66v8q0 63 68 63h421q68 0 68-49v-10q0-37-33-76l-190-221q101-15 169-81t68-181q0-122-89.5-209.5T338 846q-155 0-256 92-50 36-10 88z"/><glyph unicode="´" horiz-adv-x="1021" d="M364.5 1568.5Q352 1591 371 1622l82 137q26 47 79 47h60q42 0 53-24t-16-58l-101-137q-33-41-82-41h-34q-35 0-47.5 22.5z"/><glyph unicode="¶" horiz-adv-x="1210" d="M74 971q0 131 66 241t177 172 242 62h488q67 0 67-68v-41q0-67-67-67H713V-35q0-67-68-67h-18q-68 0-68 67v529q-130 0-241.5 62.5T140 729.5 74 971zM840-35v1120q0 68 67 68h19q32 0 49.5-18t17.5-50V-35q0-67-67-67h-19q-67 0-67 67z"/><glyph unicode="·" horiz-adv-x="473" d="M133 553v82q0 67 66 67h73q68 0 68-67v-82q0-68-68-68h-73q-66 0-66 68z"/><glyph unicode="¸" horiz-adv-x="1021" d="M356-365q0 28 10 45t27 17q8 0 24-3t29-3q39 0 64 16t25 49q0 55-97 66-21 2-30 17t-2 40l38 160h109l-29-141q66-8 107-47t41-103q0-88-60.5-130T463-424q-107 0-107 59z"/><glyph unicode="¹" horiz-adv-x="620" d="M61 930v8q0 63 60 63h131v510l4 54h-4q-6-14-35-41l-43-43q-34-27-65 4l-17 18q-42 44 6 92l133 131q35 35 84 35h23q32 0 50-17.5t18-49.5v-693h120q68 0 68-63v-8q0-64-68-64H129q-68 0-68 64z"/><glyph unicode="º" horiz-adv-x="927" d="M113 1130q0 145 102 241.5t248 96.5q147 0 248.5-96.5T813 1130q0-149-101-246.5T463 786q-147 0-248.5 97.5T113 1130zm32-532v8q0 53 68 53h504q67 0 67-53v-8q0-55-67-55H213q-68 0-68 55zm117 532q0-92 58-151t143-59 143 59 58 151q0 90-58.5 148.5T463 1337t-142.5-58.5T262 1130z"/><glyph unicode="»" horiz-adv-x="1071" d="M110 975.5q10 23.5 50 23.5h49q50 0 82-38l266-336q41-47 0-95L291 197q-33-39-82-39h-43q-43 0-54 24t15 58l268 338-268 340q-27 34-17 57.5zm412.5 0Q532 999 573 999h50q50 0 82-38l266-336q38-47 0-95L705 197q-33-39-82-39h-43q-43 0-54 24t15 58l268 338-268 340q-28 34-18.5 57.5z"/><glyph unicode="¼" horiz-adv-x="1927" d="M100 616v9q0 63 60 63h131v510l4 53h-4q-6-14-35-41l-43-43q-15-12-33-11.5t-33 15.5l-16 19q-42 44 6 92l133 131q35 35 84 35h23q32 0 49.5-18t17.5-50V688h121q68 0 68-63v-9q0-63-68-63H168q-68 0-68 63zM546 22.5Q536 45 553 80l627 1317q22 49 80 49h22q34 0 44-21.5t-7-58.5L694 51Q671 0 614 0h-24q-34 0-44 22.5zM1149 270v19q0 34 25 69l356 494q28 43 82 43h45q67 0 67-68V354h72q59 0 59-63v-8q0-64-59-64h-72V68q0-68-67-68h-17q-67 0-67 68v151h-356q-68 0-68 51zm166 84h258v252q0 24 2 53.5t4 47.5l2 18h-4q-28-55-61-98l-201-269v-4z"/><glyph unicode="½" horiz-adv-x="1896" d="M96 616v9q0 63 60 63h131v510l4 53h-4q-6-14-35-41l-43-43q-15-12-33-11.5t-33 15.5l-16 19q-42 44 6 92l133 131q35 35 84 35h23q32 0 49.5-18t17.5-50V688h121q68 0 68-63v-9q0-63-68-63H164q-68 0-68 63zM544 22.5Q534 45 551 80l627 1317q22 49 79 49h23q34 0 44-21.5t-7-58.5L692 51Q669 0 612 0h-24q-34 0-44 22.5zM1204 74q0 71 24 130t62 99.5 84.5 75 93 63.5 84.5 57.5 62 64.5 24 77q0 57-41.5 95T1491 774q-65 0-127-53-28-20-47.5-21.5T1272 719l-8 6q-51 48-4 92 108 98 239 98 128 0 211.5-74t83.5-194q0-61-22.5-112t-59-87-80.5-67-89-58-82-54-62-61-27-73h369q67 0 67-63v-9q0-63-67-63h-469q-68 0-68 74z"/><glyph unicode="¾" horiz-adv-x="1957" d="M104 713l9 10q19 25 41 26.5t49-14.5q70-61 162-61 68 0 117.5 44.5T532 829t-52.5 106T358 975h-26q-52 0-66 39-15 40 19 82l145 168q9 10 21.5 22.5T472 1306l9 7v4q-38-6-73-6H184q-67 0-67 65v8q0 64 67 64h422q68 0 68-49v-10q0-37-33-76l-190-221q100-15 168.5-81.5T688 829q0-122-89.5-209.5T371 532q-153 0-256 93-50 36-11 88zM577 22.5Q567 45 584 80l626 1317q22 49 80 49h23q34 0 44-21.5t-7-58.5L725 51Q702 0 645 0h-24q-34 0-44 22.5zM1182 270v19q0 36 24 69l357 494q28 43 82 43h45q67 0 67-68V354h72q59 0 59-63v-8q0-64-59-64h-72V68q0-68-67-68h-17q-67 0-67 68v151h-357q-67 0-67 51zm166 84h258v252q0 24 2 53.5t4 47.5l2 18h-4q-29-55-62-98l-200-269v-4z"/><glyph unicode="¿" horiz-adv-x="942" d="M121-63q0 67 19 124t49.5 98.5 68 79 75.5 71 70 67.5 54 77 26 91v43q9 51 66 51h59q32 0 50-18t18-50v-41q0-58-19-109.5T607 331t-68-73.5-74-69-68-67.5-50-78-19-92q0-87 66.5-145T563-252q92 0 178 51 65 31 97-18l26-37q39-58-12-92-139-90-303-90-179 0-303.5 104.5T121-63zm354 966v66q0 67 68 67h71q68 0 68-67v-66q0-67-68-67h-71q-68 0-68 67z"/><glyph unicode="À" horiz-adv-x="1271" d="M37 78l475 1313q17 55 76 55h98q59 0 76-55L1237 78q12-35-3-56.5T1182 0h-70q-58 0-76 55L907 416H362L236 55Q221 0 162 0H92Q54 0 39.5 21T37 78zm370 1704q10 24 52 24h61q54 0 80-47l80-139q18-29 9.5-51.5T647 1546h-41q-49 0-82 41l-100 137q-27 34-17 58zm9-1198h438l-160 458q-11 33-25 84t-22 86l-8 35h-4q-32-131-57-205z"/><glyph unicode="Á" horiz-adv-x="1271" d="M37 78l475 1313q17 55 76 55h98q59 0 76-55L1237 78q12-35-3-56.5T1182 0h-70q-58 0-76 55L907 416H362L236 55Q221 0 162 0H92Q54 0 39.5 21T37 78zm379 506h438l-160 458q-11 33-25 84t-22 86l-8 35h-4q-32-131-57-205zm165.5 984.5Q569 1591 588 1622l82 137q26 47 80 47h59q42 0 53-24t-16-58l-101-137q-33-41-81-41h-35q-35 0-47.5 22.5z"/><glyph unicode="Â" horiz-adv-x="1271" d="M37 78l475 1313q17 55 76 55h98q59 0 76-55L1237 78q12-35-3-56.5T1182 0h-70q-58 0-76 55L907 416H362L236 55Q221 0 162 0H92Q54 0 39.5 21T37 78zm357 1491.5q-9 23.5 14 58.5l94 133q31 45 84 45h100q55 0 82-45l96-133q23-35 14-58.5t-44-23.5h-46q-27 0-41 9.5t-30 35.5l-80 119h-4l-80-119q-14-26-29-35.5t-43-9.5h-41q-37 0-46 23.5zM416 584h438l-160 458q-11 33-25 84t-22 86l-8 35h-4q-32-131-57-205z"/><glyph unicode="Ã" horiz-adv-x="1271" d="M37 78l475 1313q17 55 76 55h98q59 0 76-55L1237 78q12-35-3-56.5T1182 0h-70q-58 0-76 55L907 416H362L236 55Q221 0 162 0H92Q54 0 39.5 21T37 78zm260 1536q0 84 53.5 139t138.5 55q41 0 75.5-14.5t58.5-35 45.5-40.5 45.5-34.5 48-14.5q35 0 54.5 26.5T838 1761q2 19 18 30t43 11h16q60 0 60-57 0-92-52.5-147.5T782 1542q-41 0-75.5 14.5t-58.5 35-45 40.5-45 34.5-48 14.5q-36 0-56-26.5t-22-65.5q-7-41-59-41h-17q-59 0-59 66zM416 584h438l-160 458q-11 33-25 84t-22 86l-8 35h-4q-32-131-57-205z"/><glyph unicode="Ä" horiz-adv-x="1271" d="M37 78l475 1313q17 55 76 55h98q59 0 76-55L1237 78q12-35-3-56.5T1182 0h-70q-58 0-76 55L907 416H362L236 55Q221 0 162 0H92Q54 0 39.5 21T37 78zm346 1589v72q0 67 68 67h28q68 0 68-67v-72q0-68-68-68h-28q-68 0-68 68zm33-1083h438l-160 458q-11 33-25 84t-22 86l-8 35h-4q-32-131-57-205zm309 1083v72q0 67 68 67h28q68 0 68-67v-72q0-68-68-68h-28q-68 0-68 68z"/><glyph unicode="Å" horiz-adv-x="1271" d="M37 78l475 1313q17 55 76 55h98q59 0 76-55L1237 78q12-35-3-56.5T1182 0h-70q-58 0-76 55L907 416H362L236 55Q221 0 162 0H92Q54 0 39.5 21T37 78zm379 506h438l-160 458q-11 33-25 84t-22 86l-8 35h-4q-32-131-57-205zm47 1089q0 70 51 112t123 42q71 0 122.5-42.5T811 1673q0-68-51.5-109.5T637 1522q-72 0-123 41.5T463 1673zm106 0q0-29 18.5-48t49.5-19q29 0 48.5 19t19.5 48q0 32-19 52t-49 20q-31 0-49.5-20t-18.5-52z"/><glyph unicode="Æ" horiz-adv-x="1759" d="M26.5 22Q12 44 27 78l542 1317q19 51 78 51h934q68 0 68-68v-41q0-67-68-67h-571V817h452q68 0 68-67v-41q0-68-68-68h-452V176h606q67 0 67-67V68q0-68-67-68H877q-68 0-68 68v575H461L225 53Q205 0 147 0H78Q41 0 26.5 22zM528 811h281v459h-96z"/><glyph unicode="Ç" horiz-adv-x="1452" d="M96 731q0 208 93 376.5T450.5 1373t380.5 97q278 0 480-149 48-36 12-94l-27-41q-36-54-94-17-171 115-362 115-123 0-225-43t-169-118-104-175.5T305 733q0-115 37.5-218.5t105-182 170-124.5T842 162q212 0 393 141 55 42 94-8l31-41q39-51-10-94Q1135-16 864-25l-16-77q66-8 106.5-47T995-252q0-88-60.5-130T786-424q-106 0-106 59 0 28 10 45t27 17q8 0 24-3t29-3q39 0 63.5 16t24.5 49q0 56-96 66-21 2-30.5 17t-2.5 40l25 101Q557-2 406.5 101.5T176 369 96 731z"/><glyph unicode="È" horiz-adv-x="1136" d="M184 68v1310q0 68 68 68h704q68 0 68-68v-41q0-67-68-67H385V817h453q67 0 67-67v-41q0-68-67-68H385V176h606q68 0 68-67V68q0-68-68-68H252q-68 0-68 68zm213 1714q10 24 52 24h61q54 0 80-47l80-139q18-29 9.5-51.5T637 1546h-41q-49 0-82 41l-100 137q-27 34-17 58z"/><glyph unicode="É" horiz-adv-x="1136" d="M184 68v1310q0 68 68 68h704q68 0 68-68v-41q0-67-68-67H385V817h453q67 0 67-67v-41q0-68-67-68H385V176h606q68 0 68-67V68q0-68-68-68H252q-68 0-68 68zm387 1500.5q-12 22.5 7 53.5l81 137q26 47 80 47h60q42 0 53-24t-16-58l-101-137q-33-41-82-41h-35q-35 0-47 22.5z"/><glyph unicode="Ê" horiz-adv-x="1136" d="M184 68v1310q0 68 68 68h704q68 0 68-68v-41q0-67-68-67H385V817h453q67 0 67-67v-41q0-68-67-68H385V176h606q68 0 68-67V68q0-68-68-68H252q-68 0-68 68zm199.5 1501.5Q374 1593 397 1628l95 133q31 45 83 45h101q55 0 82-45l96-133q23-35 14-58.5t-45-23.5h-45q-27 0-41 9.5t-30 35.5l-80 119h-4l-80-119q-14-26-29-35.5t-43-9.5h-41q-37 0-46.5 23.5z"/><glyph unicode="Ë" horiz-adv-x="1136" d="M184 68v1310q0 68 68 68h704q68 0 68-68v-41q0-67-68-67H385V817h453q67 0 67-67v-41q0-68-67-68H385V176h606q68 0 68-67V68q0-68-68-68H252q-68 0-68 68zm189 1599v72q0 67 67 67h29q68 0 68-67v-72q0-68-68-68h-29q-67 0-67 68zm342 0v72q0 67 67 67h29q68 0 68-67v-72q0-68-68-68h-29q-67 0-67 68z"/><glyph unicode="Ì" horiz-adv-x="569" d="M59 1782q10 24 52 24h61q54 0 80-47l80-139q18-29 9.5-51.5T299 1546h-41q-49 0-82 41L76 1724q-27 34-17 58zM184 68v1310q0 68 68 68h65q68 0 68-68V68q0-68-68-68h-65q-68 0-68 68z"/><glyph unicode="Í" horiz-adv-x="569" d="M184 68v1310q0 68 68 68h65q68 0 68-68V68q0-68-68-68h-65q-68 0-68 68zm49.5 1500.5Q221 1591 240 1622l82 137q26 47 79 47h60q42 0 53-24t-16-58l-101-137q-33-41-82-41h-34q-35 0-47.5 22.5z"/><glyph unicode="Î" horiz-adv-x="569" d="M45.5 1569.5Q36 1593 59 1628l95 133q31 45 84 45h100q55 0 82-45l96-133q23-35 14-58.5t-45-23.5h-45q-27 0-41 9.5t-30 35.5l-80 119h-4l-80-119q-14-26-29-35.5t-43-9.5H92q-37 0-46.5 23.5zM184 68v1310q0 68 68 68h65q68 0 68-68V68q0-68-68-68h-65q-68 0-68 68z"/><glyph unicode="Ï" horiz-adv-x="569" d="M35 1667v72q0 67 67 67h29q68 0 68-67v-72q0-68-68-68h-29q-67 0-67 68zM184 68v1310q0 68 68 68h65q68 0 68-68V68q0-68-68-68h-65q-68 0-68 68zm193 1599v72q0 67 67 67h29q68 0 68-67v-72q0-68-68-68h-29q-67 0-67 68z"/><glyph unicode="Ð" horiz-adv-x="1495" d="M66 707v32q0 68 45 68h75v571q0 68 68 68h412q334 0 532.5-191T1397 725q0-340-198.5-532.5T666 0H254q-68 0-68 68v571h-53q-67 0-67 68zm321-531h264q249 0 393 143t144 406q0 261-144.5 403T651 1270H387V807h240q67 0 67-68v-32q0-68-65-68H387V176z"/><glyph unicode="Ñ" horiz-adv-x="1523" d="M184 68v1310q0 68 68 68h78q55 0 82-45l616-895q23-35 52.5-87t47.5-87l19-35h4q-12 129-12 209v872q0 68 67 68h66q67 0 67-68V68q0-68-67-68h-78q-55 0-80 45L496 938q-23 36-52.5 88.5T396 1114l-19 35h-4q12-129 12-211V68q0-68-68-68h-65q-68 0-68 68zm240 1546q0 84 53.5 139t138.5 55q41 0 75.5-14.5t58.5-35 45.5-40.5 45.5-34.5 48-14.5q35 0 54.5 26.5T965 1761q2 19 18 30t43 11h16q60 0 60-57 0-92-52.5-147.5T909 1542q-41 0-75.5 14.5t-58.5 35-45 40.5-45 34.5-48 14.5q-36 0-56-26.5t-22-65.5q-7-41-59-41h-17q-59 0-59 66z"/><glyph unicode="Ò" horiz-adv-x="1669" d="M92 733q0 154 56 290.5T302 1258t237 155 297 57 296.5-57 235.5-155 153-234.5 56-290.5q0-158-56-298t-153-241-235.5-160T836-25 539 34 302.5 194t-154 241T92 733zm209 0q0-120 40.5-225.5T453 326t170.5-120T836 162q229 0 380.5 163.5T1368 733q0 236-151.5 393.5T836 1284q-151 0-274-72t-192-198-69-281zm304.5 1049q9.5 24 51.5 24h62q54 0 80-47l80-139q18-29 9.5-51.5T846 1546h-41q-49 0-82 41l-100 137q-27 34-17.5 58z"/><glyph unicode="Ó" horiz-adv-x="1669" d="M92 733q0 154 56 290.5T302 1258t237 155 297 57 296.5-57 235.5-155 153-234.5 56-290.5q0-158-56-298t-153-241-235.5-160T836-25 539 34 302.5 194t-154 241T92 733zm209 0q0-120 40.5-225.5T453 326t170.5-120T836 162q229 0 380.5 163.5T1368 733q0 236-151.5 393.5T836 1284q-151 0-274-72t-192-198-69-281zm478.5 835.5Q767 1591 786 1622l82 137q26 47 80 47h60q42 0 52.5-24t-16.5-58l-100-137q-33-41-82-41h-35q-35 0-47.5 22.5z"/><glyph unicode="Ô" horiz-adv-x="1669" d="M92 733q0 154 56 290.5T302 1258t237 155 297 57 296.5-57 235.5-155 153-234.5 56-290.5q0-158-56-298t-153-241-235.5-160T836-25 539 34 302.5 194t-154 241T92 733zm209 0q0-120 40.5-225.5T453 326t170.5-120T836 162q229 0 380.5 163.5T1368 733q0 236-151.5 393.5T836 1284q-151 0-274-72t-192-198-69-281zm291.5 836.5Q583 1593 606 1628l94 133q31 45 84 45h101q55 0 82-45l96-133q23-35 14-58.5t-45-23.5h-45q-27 0-41.5 9.5T915 1591l-79 119h-5l-79-119q-14-26-29-35.5t-43-9.5h-41q-37 0-46.5 23.5z"/><glyph unicode="Õ" horiz-adv-x="1669" d="M92 733q0 154 56 290.5T302 1258t237 155 297 57 296.5-57 235.5-155 153-234.5 56-290.5q0-158-56-298t-153-241-235.5-160T836-25 539 34 302.5 194t-154 241T92 733zm209 0q0-120 40.5-225.5T453 326t170.5-120T836 162q229 0 380.5 163.5T1368 733q0 236-151.5 393.5T836 1284q-151 0-274-72t-192-198-69-281zm195 881q0 84 53.5 139t138.5 55q41 0 75.5-14.5t58.5-35 45.5-40.5 45.5-34.5 48-14.5q35 0 54 26.5t21 65.5q2 19 18 30t44 11h16q60 0 60-57 0-92-52.5-147.5T981 1542q-41 0-75.5 14.5t-58.5 35-45 40.5-45 34.5-48 14.5q-36 0-56-26.5t-22-65.5q-7-41-60-41h-16q-59 0-59 66z"/><glyph unicode="Ö" horiz-adv-x="1669" d="M92 733q0 154 56 290.5T302 1258t237 155 297 57 296.5-57 235.5-155 153-234.5 56-290.5q0-158-56-298t-153-241-235.5-160T836-25 539 34 302.5 194t-154 241T92 733zm209 0q0-120 40.5-225.5T453 326t170.5-120T836 162q229 0 380.5 163.5T1368 733q0 236-151.5 393.5T836 1284q-151 0-274-72t-192-198-69-281zm281 934v72q0 67 67 67h29q67 0 67-67v-72q0-68-67-68h-29q-67 0-67 68zm342 0v72q0 67 67 67h29q67 0 67-67v-72q0-68-67-68h-29q-67 0-67 68z"/><glyph unicode="×" d="M139 162l377 422-377 422q-44 51 2 94l19 18q49 49 94-2l373-414 372 414q45 51 97 2l16-18q46-43 2-94L735 584l379-422q44-51-2-94l-16-19q-52-49-97 2L627 465 254 51q-45-51-94-2l-19 19q-46 43-2 94z"/><glyph unicode="Ø" horiz-adv-x="1667" d="M92 731q0 154 58 291.5T307 1258t237 155 292 57q206 0 378-102l54 78q42 54 92 18 47-35 20-75l-63-89q122-103 191-250t69-319q0-208-97.5-381.5T1212 75.5 836-25Q618-25 444 86L385 2q-41-53-90-18t-19 79l68 95Q225 264 158.5 413T92 731zm209 0q0-119 43.5-225T463 324l637 886q-120 74-264 74-146 0-268.5-71.5t-194.5-199T301 731zm256-487q124-82 277-82 110 0 208.5 43.5t170 119T1326 506t42 225q0 122-45 227t-125 179z"/><glyph unicode="Ù" horiz-adv-x="1468" d="M166 512v866q0 68 67 68h68q66 0 66-68V514q0-164 99.5-258T733 162q168 0 267.5 94.5T1100 516v862q0 68 67 68h68q68 0 68-68V512q0-241-157-389T735-25q-255 0-412 148T166 512zm339 1270q10 24 52 24h61q54 0 80-47l80-139q18-29 9.5-51.5T745 1546h-40q-49 0-82 41l-101 137q-27 34-17 58z"/><glyph unicode="Ú" horiz-adv-x="1468" d="M166 512v866q0 68 67 68h68q66 0 66-68V514q0-164 99.5-258T733 162q168 0 267.5 94.5T1100 516v862q0 68 67 68h68q68 0 68-68V512q0-241-157-389T735-25q-255 0-412 148T166 512zm511.5 1056.5Q665 1591 684 1622l82 137q26 47 80 47h59q42 0 53-24t-16-58l-100-137q-33-41-82-41h-35q-35 0-47.5 22.5z"/><glyph unicode="Û" horiz-adv-x="1468" d="M166 512v866q0 68 67 68h68q66 0 66-68V514q0-164 99.5-258T733 162q168 0 267.5 94.5T1100 516v862q0 68 67 68h68q68 0 68-68V512q0-241-157-389T735-25q-255 0-412 148T166 512zm324.5 1057.5Q481 1593 504 1628l94 133q31 45 84 45h100q55 0 82-45l97-133q23-35 14-58.5t-45-23.5h-45q-27 0-41.5 9.5T813 1591l-80 119h-4l-80-119q-14-26-28.5-35.5T578 1546h-41q-37 0-46.5 23.5z"/><glyph unicode="Ü" horiz-adv-x="1468" d="M166 512v866q0 68 67 68h68q66 0 66-68V514q0-164 99.5-258T733 162q168 0 267.5 94.5T1100 516v862q0 68 67 68h68q68 0 68-68V512q0-241-157-389T735-25q-255 0-412 148T166 512zm315 1155v72q0 67 68 67h29q67 0 67-67v-72q0-68-67-68h-29q-68 0-68 68zm342 0v72q0 67 68 67h29q67 0 67-67v-72q0-68-67-68h-29q-68 0-68 68z"/><glyph unicode="Ý" horiz-adv-x="1161" d="M34.5 1423q13.5 23 53.5 23h82q55 0 78-47l244-428q19-36 41-82t35-73l12-28h4q43 101 88 183l241 428q23 47 78 47h82q40 0 53.5-23t-6.5-57L682 612V68q0-68-68-68h-67q-68 0-68 68v544L41 1366q-20 34-6.5 57zm491 145.5Q513 1591 532 1622l82 137q26 47 80 47h60q42 0 53-24t-16-58l-101-137q-33-41-82-41h-35q-35 0-47.5 22.5z"/><glyph unicode="Þ" horiz-adv-x="1224" d="M184 68v1310q0 68 68 68h65q68 0 68-66v-180h328q200 0 326-124t126-328q0-205-127-332T711 289H385V68q0-68-68-68h-65q-68 0-68 68zm201 397h295q130 0 205.5 76T961 748q0 130-74.5 203T682 1024H385V465z"/><glyph unicode="ß" horiz-adv-x="1191" d="M145 68v1017q0 91 37.5 166T283 1372.5t141.5 72T588 1470q168 0 278.5-95.5T977 1141q0-47-15-89t-38-71-49.5-59-49.5-53-38-52-15-57q0-30 27-61.5t67.5-58 88-63 88-73.5 67.5-91.5 27-115.5q0-100-50.5-172.5T958.5 19 788-14q-127 0-237 41-53 14-53 75v39q0 74 63 58 98-41 203-41 74 0 123 37t49 110q0 45-38 88t-92 79.5T698.5 548 607 640.5 569 754q0 47 21.5 90t51.5 76.5 60.5 66 52 72T776 1139q0 65-52 112t-144 47q-97 0-167.5-59T342 1071V68q0-68-66-68h-63q-68 0-68 68z"/><glyph unicode="à" horiz-adv-x="1058" d="M59 283q0 67 23.5 121t61 90.5 92 63.5 108 42 118 24.5 114 12T678 639h53v27q0 227-225 227-119 0-234-66-59-27-92 25l-16 29q-32 63 22 92 153 88 336 88 194 0 301-105t107-301V68q0-68-68-68h-51q-68 0-68 68v61q0 17 1.5 33t3.5 24l2 7h-5q-4-9-12-23.5t-37-52T631.5 51 536-1.5 408-25q-144 0-246.5 84T59 283zm201 16q0-67 51.5-116.5T453 133q83 0 149 51t98.5 125.5T733 463v45h-53q-420 0-420-209zm40 1125q10 24 52 24h62q54 0 80-47l79-139q18-29 10-51.5t-42-22.5h-41q-49 0-82 41l-101 137q-27 34-17 58z"/><glyph unicode="á" horiz-adv-x="1058" d="M59 283q0 67 23.5 121t61 90.5 92 63.5 108 42 118 24.5 114 12T678 639h53v27q0 227-225 227-119 0-234-66-59-27-92 25l-16 29q-32 63 22 92 153 88 336 88 194 0 301-105t107-301V68q0-68-68-68h-51q-68 0-68 68v61q0 17 1.5 33t3.5 24l2 7h-5q-4-9-12-23.5t-37-52T631.5 51 536-1.5 408-25q-144 0-246.5 84T59 283zm201 16q0-67 51.5-116.5T453 133q83 0 149 51t98.5 125.5T733 463v45h-53q-420 0-420-209zm208.5 911.5Q456 1233 475 1264l82 137q26 47 80 47h59q42 0 53-24t-16-58l-100-137q-33-41-82-41h-35q-35 0-47.5 22.5z"/><glyph unicode="â" horiz-adv-x="1058" d="M59 283q0 67 23.5 121t61 90.5 92 63.5 108 42 118 24.5 114 12T678 639h53v27q0 227-225 227-119 0-234-66-59-27-92 25l-16 29q-32 63 22 92 153 88 336 88 194 0 301-105t107-301V68q0-68-68-68h-51q-68 0-68 68v61q0 17 1.5 33t3.5 24l2 7h-5q-4-9-12-23.5t-37-52T631.5 51 536-1.5 408-25q-144 0-246.5 84T59 283zm201 16q0-67 51.5-116.5T453 133q83 0 149 51t98.5 125.5T733 463v45h-53q-420 0-420-209zm23.5 912.5Q274 1235 297 1270l94 133q31 45 84 45h100q55 0 82-45l97-133q23-35 14-58.5t-45-23.5h-45q-27 0-41.5 9.5T606 1233l-80 119h-4l-80-119q-14-26-28.5-35.5T371 1188h-41q-37 0-46.5 23.5z"/><glyph unicode="ã" horiz-adv-x="1058" d="M59 283q0 67 23.5 121t61 90.5 92 63.5 108 42 118 24.5 114 12T678 639h53v27q0 227-225 227-119 0-234-66-59-27-92 25l-16 29q-32 63 22 92 153 88 336 88 194 0 301-105t107-301V68q0-68-68-68h-51q-68 0-68 68v61q0 17 1.5 33t3.5 24l2 7h-5q-4-9-12-23.5t-37-52T631.5 51 536-1.5 408-25q-144 0-246.5 84T59 283zm127 972q0 84 54 139.5t139 55.5q41 0 75.5-14.5t58.5-35 45-40.5 45-34.5 48-14.5q35 0 54.5 26.5T727 1403q2 19 18 30t43 11h17q59 0 59-58 0-92-52-147t-140-55q-41 0-75.5 14.5t-58.5 35-45.5 40.5-45.5 34.5-48 14.5q-36 0-55.5-26t-21.5-66q-7-41-60-41h-16q-60 0-60 65zm74-956q0-67 51.5-116.5T453 133q83 0 149 51t98.5 125.5T733 463v45h-53q-420 0-420-209z"/><glyph unicode="ä" horiz-adv-x="1058" d="M59 283q0 67 23.5 121t61 90.5 92 63.5 108 42 118 24.5 114 12T678 639h53v27q0 227-225 227-119 0-234-66-59-27-92 25l-16 29q-32 63 22 92 153 88 336 88 194 0 301-105t107-301V68q0-68-68-68h-51q-68 0-68 68v61q0 17 1.5 33t3.5 24l2 7h-5q-4-9-12-23.5t-37-52T631.5 51 536-1.5 408-25q-144 0-246.5 84T59 283zm201 16q0-67 51.5-116.5T453 133q83 0 149 51t98.5 125.5T733 463v45h-53q-420 0-420-209zm12 1010v71q0 68 68 68h29q67 0 67-68v-71q0-68-67-68h-29q-68 0-68 68zm342 0v71q0 68 68 68h29q67 0 67-68v-71q0-68-67-68h-29q-68 0-68 68z"/><glyph unicode="å" horiz-adv-x="1058" d="M59 283q0 67 23.5 121t61 90.5 92 63.5 108 42 118 24.5 114 12T678 639h53v27q0 227-225 227-119 0-234-66-59-27-92 25l-16 29q-32 63 22 92 153 88 336 88 194 0 301-105t107-301V68q0-68-68-68h-51q-68 0-68 68v61q0 17 1.5 33t3.5 24l2 7h-5q-4-9-12-23.5t-37-52T631.5 51 536-1.5 408-25q-144 0-246.5 84T59 283zm201 16q0-67 51.5-116.5T453 133q83 0 149 51t98.5 125.5T733 463v45h-53q-420 0-420-209zm92 1016q0 69 51 111t123 42q71 0 122.5-42t51.5-111q0-68-51.5-110T526 1163q-72 0-123 42t-51 110zm107 0q0-30 18.5-49t48.5-19q29 0 48.5 19.5T594 1315q0 32-19 51.5t-49 19.5q-31 0-49-19.5t-18-51.5z"/><glyph unicode="æ" horiz-adv-x="1746" d="M63 291q0 68 24 122.5t60.5 89.5 93 61 108 39T467 624t112.5 9.5T682 635h51v31q0 227-233 227-113 0-228-66-58-30-92 25l-16 29q-30 63 24 92 148 88 326 88 260 0 344-182h4q123 182 367 182 209 0 326.5-135.5T1673 571q0-27-19.5-48t-49.5-21H924q9-169 105-262t241-93q134 0 248 80 63 37 92-20l16-31q37-59-18-90-157-111-351-111-154 0-268.5 68.5T813 236h-4q-7-21-21.5-48t-47-66.5-74-70.5-107-53.5T418-25q-149 0-252 85.5T63 291zm201 10q0-69 52-117.5T461 135q81 0 145.5 51.5T703 313t32 154v35h-96q-375 0-375-201zm668 334h541q-4 126-75.5 197T1227 903q-116 0-194-70T932 635z"/><glyph unicode="ç" horiz-adv-x="1093" d="M78 518q0 232 156 387.5T631 1061q200 0 342-111 53-35 12-92l-20-31q-34-51-93-16-108 78-231 78-157 0-258.5-104.5T281 520t102.5-266.5T645 147q138 0 264 95 56 38 92-19l17-30q32-56-19-91Q852-18 653-25l-14-77q66-8 106.5-47T786-252q0-88-60-130t-148-42q-107 0-107 59 0 28 10 45t27 17q8 0 24-3t29-3q39 0 63.5 16t24.5 49q0 56-96 66-21 2-30.5 17t-2.5 40l25 103Q336 10 207 158T78 518z"/><glyph unicode="è" horiz-adv-x="1116" d="M78 518q0 244 146.5 393.5T596 1061q211 0 328.5-136T1042 567q0-28-19.5-48.5T973 498H281q9-163 111.5-257T639 147q138 0 248 82 61 31 92-22l18-31q16-26 11-50.5T977 86Q820-25 627-25q-160 0-286 71.5t-194.5 195T78 518zm211 111h555q-4 132-74.5 204T592 905q-116 0-199-73.5T289 629zm81 795q10 24 52 24h61q54 0 80-47l80-139q18-29 9.5-51.5T610 1188h-41q-49 0-82 41l-100 137q-27 34-17 58z"/><glyph unicode="é" horiz-adv-x="1116" d="M78 518q0 244 146.5 393.5T596 1061q211 0 328.5-136T1042 567q0-28-19.5-48.5T973 498H281q9-163 111.5-257T639 147q138 0 248 82 61 31 92-22l18-31q16-26 11-50.5T977 86Q820-25 627-25q-160 0-286 71.5t-194.5 195T78 518zm211 111h555q-4 132-74.5 204T592 905q-116 0-199-73.5T289 629zm251.5 581.5Q528 1233 547 1264l82 137q26 47 80 47h59q42 0 53-24t-16-58l-100-137q-33-41-82-41h-35q-35 0-47.5 22.5z"/><glyph unicode="ê" horiz-adv-x="1116" d="M78 518q0 244 146.5 393.5T596 1061q211 0 328.5-136T1042 567q0-28-19.5-48.5T973 498H281q9-163 111.5-257T639 147q138 0 248 82 61 31 92-22l18-31q16-26 11-50.5T977 86Q820-25 627-25q-160 0-286 71.5t-194.5 195T78 518zm211 111h555q-4 132-74.5 204T592 905q-116 0-199-73.5T289 629zm64 582.5q-9 23.5 14 58.5l94 133q31 45 84 45h100q55 0 82-45l96-133q23-35 14-58.5t-44-23.5h-45q-27 0-41.5 9.5T676 1233l-80 119h-4l-80-119q-14-26-29-35.5t-43-9.5h-41q-37 0-46 23.5z"/><glyph unicode="ë" horiz-adv-x="1116" d="M78 518q0 244 146.5 393.5T596 1061q211 0 328.5-136T1042 567q0-28-19.5-48.5T973 498H281q9-163 111.5-257T639 147q138 0 248 82 61 31 92-22l18-31q16-26 11-50.5T977 86Q820-25 627-25q-160 0-286 71.5t-194.5 195T78 518zm211 111h555q-4 132-74.5 204T592 905q-116 0-199-73.5T289 629zm53 680v71q0 68 68 68h28q68 0 68-68v-71q0-68-68-68h-28q-68 0-68 68zm342 0v71q0 68 68 68h28q68 0 68-68v-71q0-68-68-68h-28q-68 0-68 68z"/><glyph unicode="ì" horiz-adv-x="485" d="M18 1424q10 24 52 24h61q54 0 80-47l80-139q18-29 9.5-51.5T258 1188h-41q-49 0-82 41L35 1366q-27 34-17 58zM143 68v901q0 67 68 67h63q68 0 68-67V68q0-68-68-68h-63q-68 0-68 68z"/><glyph unicode="í" horiz-adv-x="485" d="M143 68v901q0 67 68 67h63q68 0 68-67V68q0-68-68-68h-63q-68 0-68 68zm47.5 1142.5Q178 1233 197 1264l82 137q26 47 79 47h60q42 0 53-24t-16-58l-101-137q-33-41-82-41h-34q-35 0-47.5 22.5z"/><glyph unicode="î" horiz-adv-x="485" d="M2.5 1211.5Q-7 1235 16 1270l95 133q31 45 84 45h100q55 0 82-45l96-133q23-35 14-58.5t-45-23.5h-45q-27 0-41 9.5t-30 35.5l-80 119h-4l-80-119q-14-26-29-35.5t-43-9.5H49q-37 0-46.5 23.5zM143 68v901q0 67 68 67h63q68 0 68-67V68q0-68-68-68h-63q-68 0-68 68z"/><glyph unicode="ï" horiz-adv-x="485" d="M-6 1309v71q0 68 67 68h29q68 0 68-68v-71q0-68-68-68H61q-67 0-67 68zM143 68v901q0 67 68 67h63q68 0 68-67V68q0-68-68-68h-63q-68 0-68 68zm193 1241v71q0 68 67 68h29q68 0 68-68v-71q0-68-68-68h-29q-67 0-67 68z"/><glyph unicode="ð" horiz-adv-x="1183" d="M80 481q0 92 32 176t91.5 151T357 914.5 565 954q48 0 92.5-9.5t73-23.5 50.5-28 32-23l10-10h4q-61 169-229 281l-297-133q-34-12-50-8t-28 30l-8 21q-20 47 37 73l209 93q-76 42-197 77-63 18-45 84l12 33q22 63 84 45 211-57 361-147l211 94q34 12 50.5 7t25.5-28l12-24q20-45-37-68l-147-67q137-114 215.5-280t78.5-380q0-86-18-167.5T1009 237t-99-134.5T762 10 565-25q-112 0-205.5 43T206 132.5 113 294 80 481zm203-4q0-135 76.5-232.5T571 147q79 0 141.5 34.5t99 90.5 55 121.5T885 528q0 117-79.5 192T594 795q-77 0-138-27t-98-72.5-56-101T283 477z"/><glyph unicode="ñ" horiz-adv-x="1210" d="M143 68v901q0 67 68 67h57q68 0 68-67v-92l-6-60h4q17 38 47.5 76.5t78 78.5 117.5 64.5 150 24.5q181 0 267.5-98.5T1081 664V68q0-68-67-68h-64q-67 0-67 68v550q0 60-7.5 103T848 802t-60 57.5T688 879q-150 0-248-110t-98-273V68q0-68-68-68h-63q-68 0-68 68zm148 1187q0 84 53.5 139.5T483 1450q41 0 75.5-14.5t58.5-35 45.5-40.5 45.5-34.5 48-14.5q35 0 54 26.5t21 65.5q2 19 18 30t44 11h16q60 0 60-58 0-92-52.5-147T776 1184q-41 0-75.5 14.5t-58.5 35-45 40.5-45 34.5-48 14.5q-36 0-56-26.5t-22-65.5q-7-41-59-41h-17q-59 0-59 65z"/><glyph unicode="ò" horiz-adv-x="1267" d="M76 520q0 153 74.5 277.5t202 194T633 1061q115 0 217.5-41t178-112T1148 736t44-216q0-154-75-279.5T914 45 633-25 352.5 45t-202 195.5T76 520zm200 0q0-160 104.5-266.5T633 147q150 0 253 106t103 267q0 159-103 264T633 889q-149 0-253-105T276 520zm129 904q10 24 52 24h61q54 0 80-47l80-139q18-29 9.5-51.5T645 1188h-41q-49 0-82 41l-100 137q-27 34-17 58z"/><glyph unicode="ó" horiz-adv-x="1267" d="M76 520q0 153 74.5 277.5t202 194T633 1061q115 0 217.5-41t178-112T1148 736t44-216q0-154-75-279.5T914 45 633-25 352.5 45t-202 195.5T76 520zm200 0q0-160 104.5-266.5T633 147q150 0 253 106t103 267q0 159-103 264T633 889q-149 0-253-105T276 520zm303.5 690.5Q567 1233 586 1264l82 137q26 47 80 47h59q42 0 53-24t-16-58l-101-137q-33-41-81-41h-35q-35 0-47.5 22.5z"/><glyph unicode="ô" horiz-adv-x="1267" d="M76 520q0 153 74.5 277.5t202 194T633 1061q115 0 217.5-41t178-112T1148 736t44-216q0-154-75-279.5T914 45 633-25 352.5 45t-202 195.5T76 520zm200 0q0-160 104.5-266.5T633 147q150 0 253 106t103 267q0 159-103 264T633 889q-149 0-253-105T276 520zm113.5 691.5Q380 1235 403 1270l95 133q31 45 84 45h100q55 0 82-45l96-133q23-35 14-58.5t-45-23.5h-45q-27 0-41 9.5t-30 35.5l-80 119h-4l-80-119q-14-26-29-35.5t-43-9.5h-41q-37 0-46.5 23.5z"/><glyph unicode="õ" horiz-adv-x="1267" d="M76 520q0 153 74.5 277.5t202 194T633 1061q115 0 217.5-41t178-112T1148 736t44-216q0-154-75-279.5T914 45 633-25 352.5 45t-202 195.5T76 520zm200 0q0-160 104.5-266.5T633 147q150 0 253 106t103 267q0 159-103 264T633 889q-149 0-253-105T276 520zm19 735q0 84 53.5 139.5T487 1450q41 0 75.5-14.5t58.5-35 45.5-40.5 45.5-34.5 48-14.5q35 0 54.5 26.5T836 1403q2 19 18 30t43 11h16q60 0 60-58 0-92-52.5-147T780 1184q-41 0-75.5 14.5t-58.5 35-45 40.5-45 34.5-48 14.5q-36 0-56-26.5t-22-65.5q-7-41-59-41h-17q-59 0-59 65z"/><glyph unicode="ö" horiz-adv-x="1267" d="M76 520q0 153 74.5 277.5t202 194T633 1061q115 0 217.5-41t178-112T1148 736t44-216q0-154-75-279.5T914 45 633-25 352.5 45t-202 195.5T76 520zm200 0q0-160 104.5-266.5T633 147q150 0 253 106t103 267q0 159-103 264T633 889q-149 0-253-105T276 520zm105 789v71q0 68 68 68h28q68 0 68-68v-71q0-68-68-68h-28q-68 0-68 68zm342 0v71q0 68 68 68h28q68 0 68-68v-71q0-68-68-68h-28q-68 0-68 68z"/><glyph unicode="÷" d="M111 571v25q0 68 67 68h899q68 0 68-68v-25q0-67-68-67H178q-67 0-67 67zm419-413v51q0 67 68 67h57q68 0 68-67v-51q0-68-68-68h-57q-68 0-68 68zm0 800v52q0 67 68 67h57q68 0 68-67v-52q0-67-68-67h-57q-68 0-68 67z"/><glyph unicode="ø" horiz-adv-x="1269" d="M78 520q0 153 74.5 277.5t202 194T635 1061q146 0 276-68l41 58q39 53 90 20 48-34 19-74l-51-71q86-73 135-178.5t49-227.5q0-154-75-279.5T916 45 635-25q-145 0-260 62l-43-60q-37-55-88-20-50 38-19 76l47 67q-92 75-143 183T78 520zm201 0q0-155 104-264l422 590q-78 43-170 43-148 0-252-105T279 520zm202-336q67-37 154-37 150 0 253 106t103 267q0 148-94 248z"/><glyph unicode="ù" horiz-adv-x="1202" d="M131 373v596q0 67 68 67h63q66 0 66-67V418q0-59 7.5-101.5t27.5-80 60-57 99-19.5q103 0 181.5 55.5T821 359t39 192v418q0 67 68 67h63q68 0 68-67V68q0-68-68-68h-57q-68 0-68 68v92l6 59h-4q-18-41-51.5-81.5t-81-78-114-61T483-25q-177 0-264.5 97T131 373zm237 1051q10 24 52 24h61q54 0 80-47l80-139q18-29 9.5-51.5T608 1188h-41q-49 0-82 41l-100 137q-27 34-17 58z"/><glyph unicode="ú" horiz-adv-x="1202" d="M131 373v596q0 67 68 67h63q66 0 66-67V418q0-59 7.5-101.5t27.5-80 60-57 99-19.5q103 0 181.5 55.5T821 359t39 192v418q0 67 68 67h63q68 0 68-67V68q0-68-68-68h-57q-68 0-68 68v92l6 59h-4q-18-41-51.5-81.5t-81-78-114-61T483-25q-177 0-264.5 97T131 373zm407.5 837.5Q526 1233 545 1264l82 137q26 47 80 47h59q42 0 53-24t-16-58l-101-137q-33-41-81-41h-35q-35 0-47.5 22.5z"/><glyph unicode="û" horiz-adv-x="1202" d="M131 373v596q0 67 68 67h63q66 0 66-67V418q0-59 7.5-101.5t27.5-80 60-57 99-19.5q103 0 181.5 55.5T821 359t39 192v418q0 67 68 67h63q68 0 68-67V68q0-68-68-68h-57q-68 0-68 68v92l6 59h-4q-18-41-51.5-81.5t-81-78-114-61T483-25q-177 0-264.5 97T131 373zm220 838.5q-9 23.5 14 58.5l94 133q31 45 84 45h100q55 0 82-45l96-133q23-35 14-58.5t-44-23.5h-46q-27 0-41 9.5t-30 35.5l-80 119h-4l-80-119q-14-26-29-35.5t-43-9.5h-41q-37 0-46 23.5z"/><glyph unicode="ü" horiz-adv-x="1202" d="M131 373v596q0 67 68 67h63q66 0 66-67V418q0-59 7.5-101.5t27.5-80 60-57 99-19.5q103 0 181.5 55.5T821 359t39 192v418q0 67 68 67h63q68 0 68-67V68q0-68-68-68h-57q-68 0-68 68v92l6 59h-4q-18-41-51.5-81.5t-81-78-114-61T483-25q-177 0-264.5 97T131 373zm211 936v71q0 68 68 68h28q68 0 68-68v-71q0-68-68-68h-28q-68 0-68 68zm342 0v71q0 68 68 68h28q68 0 68-68v-71q0-68-68-68h-28q-68 0-68 68z"/><glyph unicode="ý" horiz-adv-x="1028" d="M21.5-360Q14-335 27-309l16 35q21 49 76 34 55-22 82-22 59 0 105 44t73 112l51 118L29 958q-15 35-.5 56.5T80 1036h80q59 0 76-53l243-625 37-125h4q17 70 35 123l236 625q17 55 75 55h74q37 0 51.5-21.5T993 958L537-182q-45-119-135-183.5T201-430q-62 0-144 33-28 12-35.5 37zm441 1568.5Q450 1231 469 1262l82 137q26 47 80 47h59q42 0 53-24t-16-58l-100-137q-33-41-82-41h-35q-35 0-47.5 22.5z"/><glyph unicode="þ" horiz-adv-x="1212" d="M147-342v1720q0 68 68 68h64q65 0 65-68V975l-2-86h4q2 2 18 22t30.5 36 43.5 38.5 60 38 77.5 26.5 98.5 11q208 0 333.5-152T1133 518q0-240-130-391.5T666-25q-67 0-124.5 17.5t-92 42.5-60 50-35.5 43l-10 17h-4q4-37 4-90v-397q0-68-65-68h-64q-68 0-68 68zm193 858q0-162 80.5-265.5T635 147q129 0 213 103t84 268q0 164-81 267.5T641 889q-131 0-216-92t-85-281z"/><glyph unicode="ÿ" horiz-adv-x="1028" d="M21.5-360Q14-335 27-309l16 35q21 49 76 34 55-22 82-22 59 0 105 44t73 112l51 118L29 958q-15 35-.5 56.5T80 1036h80q59 0 76-53l243-625 37-125h4q17 70 35 123l236 625q17 55 75 55h74q37 0 51.5-21.5T993 958L537-182q-45-119-135-183.5T201-430q-62 0-144 33-28 12-35.5 37zM266 1307v71q0 68 68 68h28q68 0 68-68v-71q0-68-68-68h-28q-68 0-68 68zm342 0v71q0 68 68 68h29q67 0 67-68v-71q0-68-67-68h-29q-68 0-68 68z"/><glyph unicode="Œ" horiz-adv-x="1937" d="M90 725q0 205 97.5 374.5t269.5 267 383 97.5q52 0 134.5-9t115.5-9h667q68 0 68-68v-41q0-32-18-49.5t-50-17.5h-571V817h450q68 0 68-67v-41q0-68-68-68h-450V176h606q68 0 68-67V68q0-68-68-68h-700q-33 0-116.5-9T840-18q-210 0-382.5 98t-270 268.5T90 725zm209 0q0-158 68-287.5T559.5 233 840 158q36 0 72.5 4t54.5 8l18 4v1100q-63 14-145 14-236 0-388.5-162T299 725z"/><glyph unicode="œ" horiz-adv-x="2027" d="M76 516q0 160 75 285.5T351 994t276 67 265.5-65T1077 815h4q63 118 171 182t255 64q211 0 330-136t119-358q0-28-21-48.5t-51-20.5h-690q12-165 113-258t243-93q135 0 250 82 62 32 90-22l19-31q32-60-21-90-59-43-149-77t-201-34q-157 0-272.5 67T1085 227h-4q-70-119-184.5-185.5T629-25q-152 0-277.5 66T151 231.5 76 516zm203 0q0-165 102.5-267T633 147t252.5 103.5T989 522q0 163-104.5 265T633 889q-148 0-251-104T279 516zm921 113h553q-4 128-74.5 201T1505 903q-117 0-200.5-73.5T1200 629z"/><glyph unicode="Ÿ" horiz-adv-x="1161" d="M34.5 1423q13.5 23 53.5 23h82q55 0 78-47l244-428q19-36 41-82t35-73l12-28h4q43 101 88 183l241 428q23 47 78 47h82q40 0 53.5-23t-6.5-57L682 612V68q0-68-68-68h-67q-68 0-68 68v544L41 1366q-20 34-6.5 57zM322 1667v72q0 67 67 67h29q67 0 67-67v-72q0-68-67-68h-29q-67 0-67 68zm342 0v72q0 67 67 67h29q67 0 67-67v-72q0-68-67-68h-29q-67 0-67 68z"/><glyph unicode="ˆ" horiz-adv-x="1021" d="M269 1569.5q-9 23.5 14 58.5l94 133q31 45 84 45h100q55 0 82-45l96-133q23-35 14-58.5t-44-23.5h-45q-27 0-41.5 9.5T592 1591l-80 119h-4l-80-119q-14-26-29-35.5t-43-9.5h-41q-37 0-46 23.5z"/><glyph unicode="˜" horiz-adv-x="1021" d="M172 1614q0 84 54 139t139 55q41 0 75.5-14.5t58.5-35 45-40.5 45-34.5 48-14.5q35 0 54.5 26.5T713 1761q2 19 18 30t43 11h17q59 0 59-57 0-92-52.5-147.5T657 1542q-41 0-75.5 14.5t-58.5 35-45 40.5-45 34.5-48 14.5q-36 0-56-26.5t-22-65.5q-7-41-59-41h-17q-59 0-59 66z"/><glyph horiz-adv-x="913"/><glyph horiz-adv-x="1827"/><glyph horiz-adv-x="913"/><glyph horiz-adv-x="1827"/><glyph horiz-adv-x="609"/><glyph horiz-adv-x="456"/><glyph horiz-adv-x="304"/><glyph horiz-adv-x="304"/><glyph horiz-adv-x="228"/><glyph horiz-adv-x="365"/><glyph horiz-adv-x="101"/><glyph unicode="‐" horiz-adv-x="860" d="M131 563v41q0 32 18 50t50 18h463q67 0 67-68v-41q0-67-67-67H199q-68 0-68 67z"/><glyph unicode="‑" horiz-adv-x="860" d="M131 563v41q0 32 18 50t50 18h463q67 0 67-68v-41q0-67-67-67H199q-68 0-68 67z"/><glyph unicode="‒" horiz-adv-x="860" d="M131 563v41q0 32 18 50t50 18h463q67 0 67-68v-41q0-67-67-67H199q-68 0-68 67z"/><glyph unicode="–" horiz-adv-x="1341" d="M133 571v25q0 68 66 68h944q32 0 49.5-18t17.5-50v-25q0-67-67-67H199q-66 0-66 67z"/><glyph unicode="—" horiz-adv-x="1751" d="M133 571v25q0 68 66 68h1353q32 0 50-18t18-50v-25q0-67-68-67H199q-66 0-66 67z"/><glyph unicode="‘" horiz-adv-x="428" d="M94 1100l103 315q18 53 75 53h19q71 0 55-73l-74-312q-12-61-71-61h-51q-37 0-52.5 21.5T94 1100z"/><glyph unicode="’" horiz-adv-x="423" d="M98 1098l72 311q12 59 74 59h49q37 0 52-20t3-55l-102-316q-18-55-76-55h-16q-36 0-50.5 20t-5.5 56z"/><glyph unicode="‚" horiz-adv-x="462" d="M78-158l74 314q12 59 73 59h49q37 0 52.5-21t3.5-55L227-176q-18-55-75-55h-17q-70 0-57 73z"/><glyph unicode="“" horiz-adv-x="729" d="M94 1100l103 315q18 53 75 53h19q71 0 55-73l-72-312q-12-61-73-61h-51q-37 0-52.5 21.5T94 1100zm301 0l103 315q18 53 75 53h19q71 0 55-73l-72-312q-15-61-73-61h-51q-37 0-52.5 21.5T395 1100z"/><glyph unicode="”" horiz-adv-x="724" d="M98 1098l72 311q12 59 74 59h51q37 0 52-20t3-55l-102-316q-18-55-78-55h-16q-36 0-50.5 20t-5.5 56zm299 0l74 311q12 59 74 59h51q37 0 51.5-20t3.5-55l-102-316q-21-55-78-55h-16q-36 0-51 20t-7 56z"/><glyph unicode="„" horiz-adv-x="763" d="M78-158l74 314q12 59 73 59h51q36 0 51.5-21t4.5-55L229-176q-21-55-77-55h-17q-73 0-57 73zm301 0l74 314q12 59 71 59h51q38 0 53-21t3-55L530-176q-21-55-77-55h-19q-35 0-49 19.5t-6 53.5z"/><glyph unicode="•" horiz-adv-x="841" d="M104 596q0 132 92.5 224.5T420 913q132 0 224.5-92.5T737 596t-92.5-224.5T420 279q-131 0-223.5 92.5T104 596z"/><glyph unicode="…" horiz-adv-x="1525" d="M127 68v79q0 68 68 68h73q68 0 68-68V68q0-68-68-68h-73q-68 0-68 68zm532 0v79q0 68 66 68h74q67 0 67-68V68q0-68-67-68h-74q-66 0-66 68zm531 0v79q0 68 67 68h74q68 0 68-68V68q0-68-68-68h-74q-67 0-67 68z"/><glyph horiz-adv-x="365"/><glyph unicode="‹" horiz-adv-x="657" d="M102 530q-41 48 0 95l265 336q32 38 84 38h41q43 0 54.5-23.5T530 918L262 578l268-338q28-34 19-58t-49-24h-49q-51 0-84 39z"/><glyph unicode="›" horiz-adv-x="657" d="M110 975.5q10 23.5 50 23.5h49q50 0 82-38l266-336q41-47 0-95L291 197q-33-39-82-39h-43q-43 0-54 24t15 58l268 338-268 340q-27 34-17 57.5z"/><glyph horiz-adv-x="456"/><glyph unicode="€" horiz-adv-x="1226" d="M82 594q0 33 13.5 48t47.5 15h52q-11 67 0 148h-50q-34 0-48.5 16T82 870t14.5 49.5T145 936h72q64 236 254 385t440 149q55 0 138-10 70-13 51-82l-15-55q-15-60-69-51-68 10-109 10-170 0-295.5-93.5T434 936h500q73 0 61-68-6-34-23-48.5T920 805H403q-10-72 0-148h478q76 0 61-67-6-34-23-48t-51-14H438q48-163 176.5-261.5T913 168q73 0 121 10 69 13 80-49l12-55q13-68-51-80-93-19-164-19-259 0-448 152.5T215 528h-72q-34 0-47.5 16T82 594z"/><glyph unicode="™" horiz-adv-x="1976" d="M82 1372v10q0 64 68 64h643q67 0 67-64v-10q0-63-67-63H549V612q0-67-68-67h-20q-68 0-68 67v697H150q-68 0-68 63zm848-758l63 768q1 31 19 47.5t49 16.5h22q58 0 80-51l189-420q7-16 14-37.5t10-35.5l4-13h4q13 49 29 86l189 420q22 51 79 51h23q31 0 49-16.5t19-47.5l61-768q3-69-66-69h-20q-62 0-68 63l-37 475q-1 16 0 30t2 23l1 9h-5l-174-381q-20-53-77-53h-13q-58 0-78 53l-174 381h-4l2-62-39-475q-3-63-67-63h-21q-68 0-65 69z"/><glyph unicode="◼" horiz-adv-x="1034" d="M0 0v1034h1034V0H0z"/><glyph unicode="ﬁ" horiz-adv-x="1144" d="M55 944v25q0 67 68 67h65v39q0 93 29.5 165t71.5 111.5 97 64.5 97 32.5 80 7.5h25q67 0 67-67v-39q0-62-71-68-29-2-50.5-5.5t-51-16.5-48.5-34.5-33-62.5-14-96v-31h547q67 0 67-67V68q0-68-67-68h-64q-67 0-67 68v809H387V68q0-68-68-68h-63q-68 0-68 68v809h-65q-68 0-68 67zm744 367v67q0 68 67 68h70q68 0 68-68v-67q0-68-68-68h-70q-32 0-49.5 18t-17.5 50z"/><glyph unicode="ﬂ" horiz-adv-x="1193" d="M55 932v26q0 32 18 50t50 18h65v49q0 93 29.5 165t71.5 111.5 97 64.5 97 32.5 80 7.5h25q67 0 67-67v-39q0-62-71-68-29-2-50.5-5.5t-51-16.5-48.5-34.5-33-62.5-14-96v-41h178q32 0 50-18t18-50v-26q0-32-18-50t-50-18H387V68q0-68-68-68h-63q-68 0-68 68v796h-65q-32 0-50 18t-18 50zm746-649v1095q0 68 67 68h64q67 0 67-68V307q0-78 26.5-105.5T1094 170q53-7 53-59V61q0-69-70-69-39 0-72 5t-72.5 23-67 48-46 85T801 283z"/><glyph unicode="ﬃ" horiz-adv-x="1802" d="M55 944v25q0 67 68 67h61l4 39q0 93 29.5 165t71.5 111.5 97 64.5 97 32.5 80 7.5h25q67 0 67-67v-39q0-62-71-68-29-2-50.5-5.5t-51-16.5-48.5-34.5-33-62.5-14-96v-31h461v39q0 93 29.5 165t71.5 111.5 96.5 64.5 96.5 32.5 79 7.5h26q32 0 50-17.5t18-49.5v-39q0-62-74-68-23-1-41-4t-42.5-10.5-42.5-22.5-34.5-37-25-58.5-8.5-82.5v-31h544q68 0 68-67V68q0-68-68-68h-63q-68 0-68 68v809h-413V68q0-68-68-68h-64q-67 0-67 68v809H387V68q0-68-68-68h-63q-66 0-72 68v809h-61q-68 0-68 67zm1403 367v67q0 68 68 68h69q68 0 68-68v-67q0-32-18-50t-50-18h-69q-68 0-68 68z"/><glyph unicode="ﬄ" horiz-adv-x="1853" d="M57 944v25q0 67 68 67h61l4 39q0 93 29.5 165t71.5 111.5 96.5 64.5 96.5 32.5 79 7.5h27q67 0 67-67v-39q0-33-17.5-49t-55.5-19q-29-2-50.5-5.5T483 1260t-48-34.5-32.5-62.5-13.5-96v-31h461v39q0 68 15.5 124.5t40 95 58 68 68 47 71.5 28.5 65.5 14.5 54.5 3.5h24q68 0 68-67v-39q0-62-72-68-23-1-41-4t-43-10.5-43-22.5-34.5-37-25.5-58.5-9-82.5v-31h178q67 0 67-67v-25q0-67-61-67h-184V68q0-68-66-68h-66q-65 0-65 68v809H389V68q0-68-67-68h-64q-66 0-72 68v809h-61q-68 0-68 67zm1405-661v1095q0 68 68 68h63q68 0 68-68V307q0-78 25.5-105.5T1753 170q53-6 53-59V61q0-69-67-69-40 0-73 5t-72.5 23-67 48-46 85-18.5 130z"/></font>
</defs>
</svg>
