<svg xmlns="http://www.w3.org/2000/svg"><defs><font horiz-adv-x="1228"><font-face units-per-em="2048" ascent="1536" descent="-512"/><glyph horiz-adv-x="2048"/><glyph horiz-adv-x="2048"/><glyph horiz-adv-x="2048"/><glyph horiz-adv-x="512"/><glyph horiz-adv-x="512"/><glyph horiz-adv-x="512"/><glyph unicode="!" horiz-adv-x="491" d="M186 35v55q0 35 35 35h51q35 0 35-35V35q0-35-35-35h-51q-35 0-35 35zm15 358v1006q0 35 35 35h18q35 0 35-35V393q0-35-35-35h-18q-35 0-35 35z"/><glyph unicode="&quot;" horiz-adv-x="579" d="M139 1096v321q0 35 35 35h19q34 0 34-35v-321q0-35-34-35h-19q-35 0-35 35zm213 0v321q0 35 35 35h19q34 0 34-35v-321q0-35-34-35h-19q-35 0-35 35z"/><glyph unicode="#" horiz-adv-x="1460" d="M92 444l2 15q6 30 39 30h279l80 453H219q-39 0-33 37l2 14q6 31 39 31h279l65 379q6 31 39 31h17q38 0 32-37l-65-373h387l66 379q6 31 38 31h17q39 0 33-37l-66-373h266q39 0 33-37l-2-14q-6-31-39-31h-272l-80-453h266q39 0 33-36l-2-15q-6-30-39-30H961L895 31q-6-31-39-31h-16q-39 0-33 37l65 371H485L420 31q-6-31-39-31h-16q-39 0-33 37l65 371H125q-39 0-33 36zm408 45h387l80 453H580z"/><glyph unicode="$" horiz-adv-x="1046" d="M119 178l14 17q21 24 49 2 57-50 148.5-93T539 61q136 0 227.5 78T858 344q0 80-41 142.5T711 589t-143.5 75.5-157.5 72T266 817 160 929.5 119 1087q0 136 103.5 242.5T492 1454v160q0 35 34 35h19q35 0 35-35v-158q104-4 182.5-37.5T889 1346q25-19 6-48l-10-18q-19-29-49-6-132 98-285 98-152 0-246-85.5T211 1090q0-75 41-132t106-95 143.5-71.5T659 720t144-84 106-119.5T950 348q0-149-100.5-253.5T580-23v-155q0-35-35-35h-19q-34 0-34 35v155q-69 4-132 21.5t-109.5 43-76.5 46-53 41.5q-24 24-2 49z"/><glyph unicode="%" horiz-adv-x="1402" d="M111 1190q0 110 78 189t188 79 189-79 79-189-79-188-189-78-188 78-78 188zM132 12q-6 12 7 31l1039 1370q18 21 43 21h26q22 0 28-12t-7-31L229 20Q212 0 186 0h-26q-22 0-28 12zm67 1178q0-77 51-130.5t127-53.5 128 53.5 52 130.5-52 131.5-128 54.5-127-54.5-51-131.5zm559-948q0 110 78 189t188 79 189-79 79-189-79-188.5T1024-25 836 53.5 758 242zm88 0q0-77 51-131t127-54 128 54 52 131-52 131.5-128 54.5-127-54.5T846 242z"/><glyph unicode="&" horiz-adv-x="1290" d="M115 391q0 132 71.5 241T385 776v4q-8 2-22 8t-50 30.5-63 57-49.5 93T178 1102q0 158 111.5 257t306.5 99h109q34 0 34-35v-12q0-35-34-35H590q-138 0-229-74.5T270 1104q0-36 6-69.5t28-75.5 58.5-72 103-51T621 815h333v174q0 35 35 35h19q34 0 34-35V815h164q35 0 35-35v-12q0-35-35-35h-164V504q0-265-122-397T586-25Q380-25 247.5 93T115 391zm92 4q0-143 102-238.5T586 61q368 0 368 443v229H625q-208 0-313-91T207 395z"/><glyph unicode="'" horiz-adv-x="358" d="M135 1178v239q0 35 35 35h18q35 0 35-35v-239q0-35-35-35h-18q-35 0-35 35z"/><glyph unicode="(" horiz-adv-x="524" d="M127 686q0 413 211 774 14 25 41 25h16q20 0 26.5-11t-3.5-30q-207-373-207-760 0-450 209-838 9-19 3-30t-26-11h-16q-29 0-41 21Q240 11 183.5 234.5T127 686z"/><glyph unicode=")" horiz-adv-x="524" d="M99 1474q6 11 26 11h18q27 0 41-25 211-361 211-774 0-229-55.5-451T184-170q-14-25-43-25h-14q-20 0-27 12t2 31q209 385 209 836 0 387-207 760-11 19-5 30z"/><glyph unicode="*" horiz-adv-x="983" d="M117 1155l6 19q9 35 43 22l285-98-9 301q-3 35 33 35h27q36 0 33-35l-9-301 287 98q33 10 43-22l6-19q13-34-22-43l-287-86v-4l180-238q20-30-8-49l-14-10q-30-23-49 6L492 977h-5L317 733q-22-29-49-8l-16 10q-29 19-6 49l180 238v4l-287 86q-32 10-22 43z"/><glyph unicode="+" d="M86 573v13q0 35 35 35h450v503q0 35 35 35h19q34 0 34-35V621h449q35 0 35-35v-13q0-34-35-34H659V35q0-35-34-35h-19q-35 0-35 35v504H121q-35 0-35 34z"/><glyph unicode="," horiz-adv-x="456" d="M68-236L182 96q9 29 41 29h39q21 0 28.5-11T289 84L152-248q-12-26-41-26H96q-41 0-28 38z"/><glyph unicode="-" horiz-adv-x="872" d="M154 573v13q0 35 34 35h496q35 0 35-35v-13q0-34-35-34H188q-34 0-34 34z"/><glyph unicode="." horiz-adv-x="432" d="M154 35v59q0 35 34 35h56q35 0 35-35V35q0-35-35-35h-56q-34 0-34 35z"/><glyph unicode="/" horiz-adv-x="770" d="M94-47l496 1534q12 29 41 29h18q19 0 27-11t2-28L182-57q-12-29-41-29h-18q-19 0-27 11t-2 28z"/><glyph unicode="0" horiz-adv-x="1265" d="M150 717q0 129 15 236.5t50 202.5 90 160.5T443 1420t190 38 190-38 138-103.5 90-160.5 50-202.5 15-236.5-15-237-50-203.5-90-161-138-103T633-25 443 12.5t-138 103-90 161T165 480t-15 237zm92 0q0-147 19-260.5T323 251t121-141 189-49 189 49 121 141 62 205.5 19 260.5q0 116-11 210.5t-39 179-71.5 142-112 90.5-157.5 33-157.5-33-112-90.5-71.5-142-39-179T242 717z"/><glyph unicode="1" horiz-adv-x="874" d="M98 35v12q0 35 35 35h291v1167l2 72h-4q-15-27-76-88l-145-146q-25-25-49 0l-11 11q-27 24-2 49l267 268q19 19 43 19h28q35 0 35-35V82h283q34 0 34-35V35q0-35-34-35H133Q98 0 98 35z"/><glyph unicode="2" horiz-adv-x="1114" d="M115 35v41q0 80 26 150.5T211.5 352 313 457t120.5 94 127 86.5 120.5 89T782.5 822 853 933.5t26 131.5q0 132-91 219.5T545 1372q-62 0-118.5-18.5t-97.5-49-67-56.5-45-52q-22-29-49-8l-8 6q-29 19-10 47 22 32 51 63t78 69 119 61.5 149 23.5q103 0 185-32.5t133.5-87.5 78.5-125 27-148-26-148-70-124-101.5-104T653 595.5 527 509t-120.5-89T305 324.5 235 213 209 82h749q35 0 35-35V35q0-35-35-35H154q-39 0-39 35z"/><glyph unicode="3" horiz-adv-x="1122" d="M109 150q-25 24 0 49l16 16q23 23 49 0 35-33 76.5-63t122-60.5T535 61q142 0 250 100t108 253q0 107-56 186.5T695.5 718 510 756h-70q-30 0-39 26l-4 9q-9 26 9 47l382 448q14 16 30 32.5t25 25.5l9 8v4q-39-4-111-4H188q-34 0-34 34v13q0 35 34 35h752q35 0 35-31v-6q0-26-17-43L512 838q57 0 116-11t124.5-41.5 116-76 83.5-122T985 414q0-183-134-311T530-25q-75 0-146 19T259 44t-88 55.5-62 50.5z"/><glyph unicode="4" horiz-adv-x="1185" d="M61 444v2q0 25 15 43l712 924q18 21 43 21h21q35 0 35-35V492h178q35 0 35-35v-13q0-34-35-34H887V35q0-35-35-35h-18q-35 0-35 35v375H96q-35 0-35 34zm123 48h615v671l6 129h-4q-35-51-72-98L184 496v-4z"/><glyph unicode="5" horiz-adv-x="1107" d="M127 154q-22 28 6 49l17 12q28 21 49-6 18-23 42-45t62-47.5T395 76t115-15q168 0 282.5 107.5T907 436q0 162-114.5 270.5T510 815q-138 0-256-72-21-13-47-6l-12 4q-28 9-25 41l74 619q3 33 37 33h598q34 0 34-35v-13q0-34-34-34H326l-52-428-14-88h4q11 7 32 18t85.5 29T510 901q205 0 347-135.5T999 436q0-127-65.5-233t-178-167T510-25q-61 0-118 14t-96.5 33-76 45.5-56 46T127 154z"/><glyph unicode="6" horiz-adv-x="1185" d="M133 645q0 109 21 219t69.5 218 118 191T517 1407t233 51q119 0 217-43 33-11 16-45l-10-18q-15-30-47-17-81 37-181 37-97 0-180-38.5T423 1231t-102.5-150T254 902.5 225 713h4q60 90 170 143t236 53q192 0 316-125t124-331q0-113-35.5-205t-96-151-140-90.5T635-25q-154 0-269.5 91.5T191.5 309 133 645zm100-106q0-76 29-159t79-154.5 127.5-118T633 61q163 0 256.5 109T983 453q0 170-97.5 270T631 823q-80 0-155-26.5T348.5 729t-84-91.5T233 539z"/><glyph unicode="7" horiz-adv-x="1007" d="M63 1386v13q0 35 35 35h838q35 0 35-31v-8q0-25-10-43L303 25Q290 0 262 0h-18q-20 0-27 11t2 30l578 1178q16 32 34.5 65.5T861 1335l11 17v4q-40-4-112-4H98q-35 0-35 34z"/><glyph unicode="8" horiz-adv-x="1204" d="M131 401q0 73 23.5 141t54 111.5 71 82 61 53T379 813q-191 116-191 293 0 70 27 132.5t78.5 112T427 1429t185 29q194 0 309-100t115-262q0-76-25.5-151.5T948 815t-61-83-37-40q103-57 160-130t57-179q0-169-134-288.5T606-25q-90 0-174.5 29t-152 82-108 135T131 401zm92 5q0-101 56-182t142-123 181-42q93 0 178.5 40.5t140 114T975 373q0 46-14 85t-44 70.5-63 56-84 49.5-94 43-106.5 45T461 770Q223 621 223 406zm58 702q0-44 14-82t44-69 61.5-55 82-48.5 89-41 98.5-41 96-40.5q14 11 38.5 39.5t58.5 76 57.5 114T944 1092q0 130-92.5 206T610 1374q-150 0-239.5-76.5T281 1108z"/><glyph unicode="9" horiz-adv-x="1185" d="M111 981q0 113 35.5 205t96 150.5 140 90T551 1458q154 0 269.5-91.5t174-242.5 58.5-336q0-109-21-219t-69.5-218-118-191T669 26 436-25q-119 0-217 43-32 11-16 43l10 23q12 28 47 14 86-37 180-37 97 0 180 38.5t142 103 102.5 150 67 178.5T961 721h-5q-60-91-169.5-144T551 524q-192 0-316 125.5T111 981zm92 0q0-170 97.5-270.5T555 610q159 0 278 91.5T952 895q0 76-28.5 158.5t-78.5 154-127.5 118T553 1372q-163 0-256.5-108.5T203 981z"/><glyph unicode=":" horiz-adv-x="425" d="M156 35v51q0 35 34 35h48q34 0 34-35V35q0-35-34-35h-48q-34 0-34 35zm0 903v51q0 35 34 35h48q34 0 34-35v-51q0-35-34-35h-48q-34 0-34 35z"/><glyph unicode=";" horiz-adv-x="548" d="M141-236l97 332q9 29 41 29h38q40 0 27-41L225-248q-9-26-41-26h-14q-39 0-29 38zm92 1166v59q0 35 35 35h56q34 0 34-35v-59q0-35-34-35h-56q-35 0-35 35z"/><glyph unicode="<" d="M131 571v17q0 29 27 41l831 372q41 16 41-26v-25q0-29-26-41L258 582v-4l746-328q26-12 26-41v-25q0-42-41-26L158 530q-27 12-27 41z"/><glyph unicode="=" d="M147 410v12q0 35 35 35h865q34 0 34-35v-12q0-35-34-35H182q-35 0-35 35zm0 327v13q0 34 35 34h865q34 0 34-34v-13q0-35-34-35H182q-35 0-35 35z"/><glyph unicode=">" d="M199 184v25q0 29 26 41l746 328v4L225 909q-26 12-26 41v25q0 42 41 26l831-372q27-12 27-41v-17q0-29-27-41L240 158q-41-16-41 26z"/><glyph unicode="?" horiz-adv-x="886" d="M96 1327q-23 30 8 49 127 82 277 82 175 0 284-99.5T774 1106q0-69-20.5-127.5t-53-100.5-72-80.5T549 723t-72.5-74.5-53-89.5T403 449v-56q0-35-34-35h-19q-35 0-35 35v56q0 68 20 126t52.5 100 71.5 80.5 78.5 75 72 75T662 996t20 112q0 112-83.5 188T383 1372q-124 0-231-67-30-17-48 10zM299 35v55q0 35 35 35h51q35 0 35-35V35q0-35-35-35h-51q-35 0-35 35z"/><glyph unicode="@" horiz-adv-x="1562" d="M127 498q0 152 57 290.5T336 1027t226 159 274 59q127 0 222-30.5t148.5-83 79-114.5 25.5-134V178h108q35 0 35-35v-12q0-35-35-35H911q-164 0-279.5 116.5T516 494t115.5 283T911 895h308q-2 54-23 100t-63 85-115 61-170 22q-130 0-247-52.5T400.5 969 268 757t-49-259q0-176 77.5-325T510-65.5 813-164q35 0 35-35v-16q0-35-35-35-189 10-346.5 111.5T218 131.5 127 498zm481-4q0-131 92-223.5T922 178h297v635H926q-133 0-225.5-94T608 494z"/><glyph unicode="A" horiz-adv-x="1224" d="M43 41l512 1364q9 29 39 29h37q30 0 39-29L1182 41q3-10 3-17 0-24-32-24h-23q-29 0-38 27L915 496H307L133 29Q124 0 94 0H72Q40 0 40 24q0 7 3 17zm295 537h547l-217 581q-10 27-23.5 70t-22.5 73l-8 29h-4q-30-111-53-172z"/><glyph unicode="B" horiz-adv-x="1239" d="M215 35v1364q0 35 35 35h446q159 0 261-98.5t102-260.5q0-113-50-192T872 762v-4q108-30 176-128.5t68-234.5q0-178-112.5-286.5T717 0H250q-35 0-35 35zm88 47h406q145 0 230 83.5t85 229.5q0 144-88.5 231T707 713H303V82zm0 713h391q121 0 197 77t76 203-74.5 201.5T692 1352H303V795z"/><glyph unicode="C" horiz-adv-x="1460" d="M115 727q0 206 90 373t253 262.5 367 95.5q93 0 177.5-17t145.5-44.5 99-50.5 66-46q23-20 4-49l-10-12q-22-26-50-4-191 139-430 139-135 0-250.5-49T380 1190 253 984.5 207 727q0-139 46-261.5T380 253t199-142 255-52q257 0 460 170 25 22 49-2l9-10q11-12 11-24 0-13-13-25-31-28-70-54.5T1175 52 1020-4 834-25q-127 0-239.5 38T395 120 244.5 282 148 489t-33 238z"/><glyph unicode="D" horiz-adv-x="1499" d="M215 35v1364q0 35 35 35h416q324 0 519-190.5T1380 717q0-225-90-388T1040 83 666 0H250q-35 0-35 35zm88 47h348q292 0 464.5 166T1288 717q0 302-173 468.5T651 1352H303V82z"/><glyph unicode="E" horiz-adv-x="1128" d="M215 35v1364q0 35 35 35h715q34 0 34-35v-13q0-34-34-34H303V764h537q34 0 34-35v-12q0-35-34-35H303V82h701q34 0 34-35V35q0-35-34-35H250q-35 0-35 35z"/><glyph unicode="F" horiz-adv-x="1005" d="M215 35v1364q0 35 35 35h653q35 0 35-35v-13q0-34-35-34H303V754h514q35 0 35-35v-12q0-35-35-35H303V35q0-35-35-35h-18q-35 0-35 35z"/><glyph unicode="G" horiz-adv-x="1525" d="M115 717q0 204 93 374t257 268.5 364 98.5q88 0 169-15t141-39.5 97-44 67-40.5q28-22 4-49l-11-13q-19-28-49-8-66 46-173.5 85.5T829 1374q-133 0-249-51t-197.5-138.5-128.5-209T207 717q0-185 78-335t218-236.5T817 59q86 0 168.5 24.5t138.5 59 99.5 69T1288 270l21 25v276h-222q-34 0-34 35v12q0 35 34 35h275q35 0 35-35V35q0-35-35-35h-19q-34 0-34 35v90l2 61h-4q-7-9-20.5-23t-60.5-50.5-99.5-64T990-2 817-25q-147 0-277.5 58T316 190 169 426t-54 291z"/><glyph unicode="H" horiz-adv-x="1515" d="M215 35v1364q0 35 35 35h18q35 0 35-35V760h909v639q0 35 35 35h19q34 0 34-35V35q0-35-34-35h-19q-35 0-35 35v643H303V35q0-35-35-35h-18q-35 0-35 35z"/><glyph unicode="I" horiz-adv-x="518" d="M215 35v1364q0 35 35 35h18q35 0 35-35V35q0-35-35-35h-18q-35 0-35 35z"/><glyph unicode="J" horiz-adv-x="1021" d="M59 403q0 33 35 33h21q17 0 24-8.5t8-34.5q6-155 77-244.5T440 59q58 0 108.5 17.5t94 54 69 103T737 389v963H430q-35 0-35 34v13q0 35 35 35h361q34 0 34-35V391q0-110-33-193.5T702.5 67t-122-69.5T442-25q-58 0-111.5 13.5T227 34t-87 80-59 122.5T59 403z"/><glyph unicode="K" horiz-adv-x="1153" d="M215 35v1364q0 35 35 35h18q35 0 35-35V795h266l396 616q14 23 41 23h28q22 0 29-12t-4-31L645 758v-4l442-713q8-11 8-20 0-5-2-9-6-12-28-12h-31q-27 0-41 23L569 713H303V35q0-35-35-35h-18q-35 0-35 35z"/><glyph unicode="L" horiz-adv-x="1001" d="M215 35v1364q0 35 35 35h18q35 0 35-35V82h649q35 0 35-35V35q0-35-35-35H250q-35 0-35 35z"/><glyph unicode="M" horiz-adv-x="1699" d="M162 37l110 1364q3 33 35 33h25q29 0 41-27l405-875 70-161h4q37 91 70 161l405 875q12 27 41 27h25q31 0 34-33L1538 37q0-37-35-37h-18q-32 0-35 33l-86 1061q-3 31-4.5 78.5t-1.5 79.5v32h-4q-41-120-74-190L907 303q-12-27-41-27h-32q-29 0-41 27l-371 791q-14 30-33 78.5t-31 81.5l-12 34h-4q0-124-6-194L250 33q-3-33-35-33h-18q-35 0-35 37z"/><glyph unicode="N" horiz-adv-x="1527" d="M215 35v1364q0 35 35 35h20q26 0 43-23l801-1102q21-29 50-74t48-75l19-31h4q-10 108-10 180v1090q0 35 35 35h18q35 0 35-35V35q0-35-35-35h-21q-26 0-43 23L414 1124q-21 29-50 74.5t-48 75.5l-19 31h-4q10-109 10-181V35q0-35-35-35h-18q-35 0-35 35z"/><glyph unicode="O" horiz-adv-x="1675" d="M113 727q0 152 56 287.5t152 233 230.5 154T838 1458t286.5-56.5 230.5-154 152-233 56-287.5q0-208-94.5-380.5t-261-272T838-25 468.5 74.5t-261 272T113 727zm92 0q0-186 82-339t227.5-241T838 59t323 88 227 241 82 339q0 181-82 329.5t-227 233-323 84.5q-134 0-251.5-50t-201-135.5-132-205.5T205 727z"/><glyph unicode="P" horiz-adv-x="1191" d="M215 35v1364q0 35 35 35h436q191 0 313.5-113.5T1122 1016q0-192-122.5-307T686 594H303V35q0-35-35-35h-18q-35 0-35 35zm88 641h379q159 0 253.5 90.5T1030 1016t-94.5 247.5T682 1352H303V676z"/><glyph unicode="Q" horiz-adv-x="1677" d="M115 725q0 204 94.5 372t260 264.5T836 1458q207 0 374-96.5t261-264 94-372.5q0-146-49-279t-140-231l160-166q24-25 0-49l-8-6q-24-24-49 0l-158 164Q1119-25 836-25 634-25 468 75.5t-259.5 272T115 725zm92 0q0-184 83-337t227.5-241T836 59q119 0 230 42t196 118l-160 166q-24 25 0 49l8 6q24 24 49 0l158-164q73 89 114.5 206t41.5 243q0 183-83 331.5t-229 233-325 84.5q-131 0-247.5-49.5t-200-135.5T256 982.5 207 725z"/><glyph unicode="R" horiz-adv-x="1230" d="M215 35v1364q0 35 35 35h385q173 0 258-43 92-46 145.5-135t53.5-209q0-152-79.5-260T805 651v-4q15-16 33-51l299-555q5-11 5-19 0-6-3-11-7-11-27-11h-29q-29 0-41 25L715 635H303V35q0-35-35-35h-18q-35 0-35 35zm88 682h389q140 0 223.5 91t83.5 239q0 95-45 168t-123 108q-66 29-200 29H303V717z"/><glyph unicode="S" horiz-adv-x="1056" d="M121 178l14 17q22 26 49 2 57-50 147.5-93T535 61q143 0 234 77.5T860 344q0 64-25 116t-67.5 89-97.5 68-116 57.5T432.5 728 317 788.5t-97.5 74T152 961t-25 129q0 165 123.5 266.5T559 1458q114 0 201-35.5t137-76.5q27-20 8-48l-12-18q-19-29-49-6-132 98-289 98-89 0-165-32t-123.5-96-47.5-148q0-61 25-110.5t67.5-84 97.5-64 116-55T646.5 730 762 668t97.5-76.5T927 489t25-135q0-165-114-272T532-25q-229 0-409 154-13 13-13 25t11 24z"/><glyph unicode="T" horiz-adv-x="1181" d="M12 1386v13q0 35 35 35h1088q34 0 34-35v-13q0-34-34-34H635V35q0-35-35-35h-18q-35 0-35 35v1317H47q-35 0-35 34z"/><glyph unicode="U" horiz-adv-x="1460" d="M195 492v907q0 35 34 35h19q35 0 35-35V496q0-202 121-319.5T729 59t326.5 118.5T1178 500v899q0 35 34 35h19q35 0 35-35V492q0-234-148.5-375.5T731-25 344 116.5 195 492z"/><glyph unicode="V" horiz-adv-x="1222" d="M41 1393q-3 10-3 17 0 24 32 24h22q30 0 39-29L553 274l55-172h4q31 104 56 172l424 1131q9 29 38 29h23q32 0 32-24 0-7-3-17L670 29q-9-29-39-29h-39q-30 0-39 29z"/><glyph unicode="W" horiz-adv-x="1878" d="M96 1395q-2 7-2 13 0 26 33 26h20q30 0 39-31L481 266l35-153h4q19 81 39 153l320 1139q10 29 39 29h36q29 0 39-29l320-1139 39-153h4q17 83 35 153l305 1137q9 31 39 31h20q33 0 33-26 0-6-2-13L1417 29q-10-29-39-29h-49q-29 0-39 29L995 1081q-12 41-26 98t-21 93l-8 37h-8q-28-136-55-228L582 29Q572 0 543 0h-49q-30 0-39 31z"/><glyph unicode="X" horiz-adv-x="1122" d="M57 12q-3 5-3 10 0 9 7 19l439 717-387 635q-11 17-4 29t28 12h31q25 0 41-23l260-434 94-160h4q45 90 88 160l263 434q14 23 40 23h31q22 0 28.5-12t-5.5-29L623 758l438-717q8-11 8-20-1-5-3-9-6-12-28-12h-28q-27 0-41 23L651 545l-92 153h-4q-43-83-86-155L156 23Q142 0 115 0H86Q64 0 57 12z"/><glyph unicode="Y" horiz-adv-x="1110" d="M45 1422q7 12 29 12h24q25 0 41-23l326-543 88-161h4q45 91 88 161l326 543q16 23 41 23h24q22 0 29-12 3-5 3-10 0-9-7-19L600 623V35q0-35-35-35h-18q-35 0-35 35v588L49 1393q-7 10-7 19 0 5 3 10z"/><glyph unicode="Z" horiz-adv-x="1155" d="M70 35v10q0 25 14 45l774 1131q22 33 46.5 65.5T942 1336l14 16v4q-32-4-104-4H147q-34 0-34 34v13q0 35 34 35h881q35 0 35-35v-10q0-26-14-46L274 213q-22-33-46.5-65.5T190 98l-14-16v-4q33 4 105 4h753q35 0 35-35V35q0-35-35-35H104Q70 0 70 35z"/><glyph unicode="[" horiz-adv-x="514" d="M190-160v1610q0 35 35 35h152q35 0 35-35v-12q0-35-35-35h-98V-113h98q35 0 35-34v-13q0-35-35-35H225q-35 0-35 35z"/><glyph unicode="\" horiz-adv-x="770" d="M92 1477q-6 17 2 28t27 11h18q29 0 41-29L676-47q6-17-2-28t-27-11h-18q-29 0-41 29z"/><glyph unicode="]" horiz-adv-x="514" d="M102-147q0 34 35 34h99v1516h-99q-35 0-35 35v12q0 35 35 35h152q35 0 35-35V-160q0-35-35-35H137q-35 0-35 35v13z"/><glyph unicode="^" d="M175.5 527q-7.5 11 .5 30l373 850q12 27 41 27h8q29 0 41-27l373-850q8-19 .5-30T985 516h-20q-29 0-41 27l-330 768-330-768q-12-27-41-27h-20q-20 0-27.5 11z"/><glyph unicode="_" horiz-adv-x="1077" d="M31-35Q31 0 66 0h946q35 0 35-35v-12q0-35-35-35H66q-35 0-35 35v12z"/><glyph unicode="`" horiz-adv-x="1042" d="M419 1751q5 12 27 12h37q27 0 41-22l99-164q11-17 5-29t-26-12h-18q-26 0-43 23l-115 161q-12 19-7 31z"/><glyph unicode="a" horiz-adv-x="1026" d="M80 272q0 56 16.5 103.5t42 81.5 66 61 79.5 44.5 92 30 93 18.5 93 9.5 82.5 4 70.5.5h67v34q0 306-280 306-143 0-264-78-29-19-50 8l-8 12q-23 30 6 49 132 93 320 93 178 0 270-98t92-289V35q0-35-34-35h-17q-35 0-35 35v100q0 24 2 47t4 34l3 11h-5q2 0-10-26t-39-63-66.5-74-104-63T428-25q-64 0-124.5 18T192 46t-81.5 93.5T80 272zm90 7q0-89 69.5-156.5T432 55q80 0 148 39t111 102 67 139.5T782 489v56h-65q-41 0-65.5-.5t-73-2.5-81-6.5-79.5-14-78-22-66-33-55.5-46.5-34.5-62-14-79z"/><glyph unicode="b" horiz-adv-x="1169" d="M172 35v1364q0 35 35 35h16q35 0 35-35V901q0-21-2-42t-4-31l-2-11h4q4 9 11.5 25t38 56 68.5 70.5 106 55.5 147 25q203 0 322.5-148T1067 512q0-242-128-389.5T608-25q-72 0-135 24T371.5 57 305 125t-39 58l-12 24h-4q8-37 8-90V35q0-35-35-35h-16q-35 0-35 35zm84 475q0-69 13.5-134T312 253t70.5-101T483 84t129-25q156 0 260.5 122T977 512q0 205-99 329T621 965q-73 0-137-26.5T368 859t-82-143-30-206z"/><glyph unicode="c" horiz-adv-x="1091" d="M98 510q0 119 42.5 221t115 171 169 108 202.5 39q203 0 344-123 24-21 2-49l-10-15q-21-27-50-4-123 107-286 107-185 0-312-126.5T188 510q0-200 127.5-325.5T627 59q185 0 315 119 25 25 47-4l10-14q7-10 7-19 0-14-15-28Q840-25 627-25q-108 0-204.5 38T254 119.5t-114 170T98 510z"/><glyph unicode="d" horiz-adv-x="1169" d="M102 512q0 242 128 389.5T561 1049q72 0 135-24t101.5-58 66.5-68 40-58l11-24h5q-9 37-9 84v498q0 35 35 35h17q34 0 34-35V35q0-35-34-35h-17q-35 0-35 35v94q0 21 2.5 40.5T918 198l2 9h-5q-2-5-5.5-13.5T891 161t-32.5-46-49-48.5-67.5-46T654.5-12 545-25q-203 0-323 148.5T102 512zm91 0q0-205 99-329T549 59q73 0 136.5 26.5T801 165t82 142.5T913 514q0 69-13.5 134T857 771t-70.5 101T686 940t-129 25q-156 0-260-122T193 512z"/><glyph unicode="e" horiz-adv-x="1112" d="M100 510q0 126 41 229.5T251 910t158.5 103 188.5 36q197 0 307.5-132T1016 561q0-17-10.5-26t-26.5-9H190q0-215 126.5-341T629 59q94 0 168.5 32.5T918 164q28 22 47-6l12-17q18-25-8-45-53-45-141-83T629-25q-108 0-204.5 38T256 119.5t-114 170T100 510zm97 96h729q-7 178-100 270.5T596 969q-148 0-260-95T197 606z"/><glyph unicode="f" horiz-adv-x="595" d="M70 975v8q0 35 34 35h95v47q0 92 24.5 163t59.5 110.5 81.5 64.5 84 33 73.5 8h19q34 0 34-35v-12q0-18-10-25.5t-33-9.5q-36-1-64-6.5t-64.5-23.5-60.5-48-41-85.5-17-131.5v-49h245q35 0 35-35v-8q0-35-35-35H285V35q0-35-35-35h-17q-34 0-34 35v905h-95q-34 0-34 35z"/><glyph unicode="g" horiz-adv-x="1157" d="M104 535q0 235 121 374.5T553 1049q56 0 106-11t84-29 62.5-39.5T851 927t29-39 16-29l5-11h4q-6 14-6 39v102q0 35 35 35h16q35 0 35-35V6q0-113-38.5-199.5T841.5-330t-148-75T518-430q-153 0-291 63-33 14-16 48l10 18q15 27 45 12 128-57 252-57 80 0 147.5 20.5t120.5 62T869-153 899 6v119q0 21 2 42t4 31l2 11h-4q-48-98-134.5-153.5T559 0Q357 0 230.5 146T104 535zm91 2q0-213 101.5-333T565 84q71 0 129 23.5t106 73 74.5 137T901 524q0 121-27.5 209t-77 137.5-109.5 72T553 965q-171 0-264.5-113T195 537z"/><glyph unicode="h" horiz-adv-x="1183" d="M172 35v1364q0 35 35 35h16q35 0 35-35V844q0-21-2-42t-4-32l-2-10h4q12 32 34 67.5t60.5 75.5 86 72 114 53 139.5 21q97 0 164.5-27.5T957 939t53-124.5 16-165.5V35q0-35-35-35h-16q-35 0-35 35v583q0 61-4 105t-19 93-41 79-74 50-114 20q-116 0-214-58.5t-157-165T258 504V35q0-35-35-35h-16q-35 0-35 35z"/><glyph unicode="i" horiz-adv-x="430" d="M164 1319v80q0 35 35 35h32q35 0 35-35v-80q0-35-35-35h-32q-35 0-35 35zm8-1284v954q0 35 35 35h16q35 0 35-35V35q0-35-35-35h-16q-35 0-35 35z"/><glyph unicode="j" horiz-adv-x="430" d="M-119-377q0 32 35 35 36 2 65 7.5T48-310t63 49 43 86.5T172-43V989q0 35 35 35h16q35 0 35-35V-41q0-95-25.5-167.5t-61-111.5T88-383 3.5-413.5-68-420h-16q-35 0-35 35v8zm283 1696v80q0 35 35 35h32q35 0 35-35v-80q0-35-35-35h-32q-35 0-35 35z"/><glyph unicode="k" horiz-adv-x="952" d="M172 35v1364q0 35 35 35h16q35 0 35-35V621h182l316 383q17 20 43 20h30q22 0 28-13t-9-30L514 584v-4L891 43q8-12 8-22-1-5-3-9-6-12-28-12h-30q-27 0-41 23L440 541H258V35q0-35-35-35h-16q-35 0-35 35z"/><glyph unicode="l" horiz-adv-x="468" d="M174 207v1192q0 35 35 35h16q35 0 35-35V236q0-41 8-71t19-46 29.5-26.5 31-13.5 31.5-5q33-4 33-33V29q0-37-37-37-22 0-44 3.5t-52 17T227 48t-37.5 63-15.5 96z"/><glyph unicode="m" horiz-adv-x="1863" d="M172 35v954q0 35 35 35h16q35 0 35-35V844q0-21-2-42t-4-32l-2-10h4q38 116 155.5 202.5T647 1049q151 0 228.5-69.5T971 770h4q45 113 154 196t235 83q188 0 265-102t77-298V35q0-35-35-35h-16q-35 0-35 35v583q0 63-5.5 111t-22 95-44.5 77.5-74.5 49T1364 969q-106 0-195-67.5T1031.5 729 983 510V35q0-35-35-35h-16q-35 0-35 35v583q0 60-4 104.5t-19 94-41.5 80.5-73.5 51.5T647 969q-80 0-153.5-40T369 824t-81-147.5T258 510V35q0-35-35-35h-16q-35 0-35 35z"/><glyph unicode="n" horiz-adv-x="1183" d="M172 35v954q0 35 35 35h16q35 0 35-35V844q0-21-2-42t-4-32l-2-10h4q12 32 34 67.5t60.5 75.5 86 72 114 53 139.5 21q97 0 164.5-27.5T957 939t53-124.5 16-165.5V35q0-35-35-35h-16q-35 0-35 35v583q0 61-4 105t-19 93-41 79-74 50-114 20q-177 0-303.5-130.5T258 510V35q0-35-35-35h-16q-35 0-35 35z"/><glyph unicode="o" horiz-adv-x="1253" d="M96 518q0 147 71 269t193 192 267 70 266.5-70T1086 787t71-269q0-150-71-275T893.5 46.5 627-25q-108 0-206 42.5T251.5 132 138 305 96 518zm90 0q0-194 128.5-326.5T627 59t312 132.5T1067 518q0 189-128 318T627 965 314.5 836 186 518z"/><glyph unicode="p" horiz-adv-x="1169" d="M172-375V989q0 35 35 35h16q35 0 35-35v-88q0-21-1.5-41.5T254 829l-2-10h4q3 9 10.5 24.5T304 899t68 70 105.5 55 147.5 25q203 0 322.5-148T1067 512q0-242-127.5-389.5T612-25q-74 0-138.5 24t-103 58-66.5 68-39 58l-11 24h-4q8-37 8-90v-492q0-35-35-35h-16q-35 0-35 35zm84 885q0-86 24-166.5t67.5-144T460 97.5 612 59q156 0 260.5 122T977 512q0 205-99 329T621 965q-73 0-137-26.5T368 859t-82-143-30-206z"/><glyph unicode="q" horiz-adv-x="1169" d="M102 512q0 242 128 389.5T561 1049q72 0 135-23.5T797 968t66-68 39-58l11-23h5q-7 35-7 82v88q0 35 35 35h17q34 0 34-35V-375q0-35-34-35h-17q-35 0-35 35v492q0 24 2.5 46.5T918 196l2 11h-5q-2-5-5.5-13.5T891 161t-32.5-46-49-48.5-67.5-46T654.5-12 545-25q-203 0-323 148.5T102 512zm91 0q0-205 99-329T549 59q73 0 136.5 26.5T801 165t82 142.5T913 514q0 69-13.5 134T857 771t-70.5 101T686 940t-129 25q-156 0-260-122T193 512z"/><glyph unicode="r" horiz-adv-x="657" d="M172 35v954q0 35 35 35h16q35 0 35-35V829q0-21-2-42t-4-31l-2-11h4q40 125 130.5 205t213.5 80q43 0 43-35v-18q0-35-45-35-82 0-148.5-45.5T340.5 777 279 616.5 258 442V35q0-35-35-35h-16q-35 0-35 35z"/><glyph unicode="s" horiz-adv-x="868" d="M98 147l13 15q21 24 49 2 46-39 120.5-72T451 59q99 0 167 51t68 142q0 52-31 92.5T574.5 411 465 460t-120.5 49.5-110 58.5-80.5 84-31 120q0 131 95 204t233 73q173 0 278-88 27-20 8-48l-12-16q-20-26-49-4-92 72-232 72-97 0-164-47t-67-140q0-47 24-85t64-61.5 90.5-47 103-41.5 103-45 90.5-57.5 64-79T776 252q0-122-92.5-199.5T449-25q-121 0-210 39.5T102 100q-13 11-13 24 0 11 9 23z"/><glyph unicode="t" horiz-adv-x="616" d="M70 975v8q0 35 34 35h101v256q0 35 35 35h16q35 0 35-35v-256h233q35 0 35-35v-8q0-35-35-35H291V377q0-78 18.5-136t44.5-89 63.5-49.5T482 79t59-7q23-1 32-9t9-26V27q0-35-35-35Q372-8 288.5 93T205 371v569H104q-34 0-34 35z"/><glyph unicode="u" horiz-adv-x="1173" d="M158 375v614q0 35 35 35h16q35 0 35-35V406q0-61 4-105t19-93 41-79 74-50 114-20q124 0 221 66.5t147.5 172T915 524v465q0 35 35 35h17q34 0 34-35V35q0-35-34-35h-17q-35 0-35 35v145q0 21 2.5 42t4.5 32l2 10h-4q-12-32-33.5-67.5T827 121t-84-72T632-4 496-25q-183 0-260.5 98.5T158 375z"/><glyph unicode="v" horiz-adv-x="940" d="M42 1013q8 11 28 11h20q30 0 39-27l305-776 35-110h4q17 61 35 110l305 776q9 27 39 27h18q20 0 28-11 4-5 3-13 0-8-4-17L522 27q-9-27-39-27h-24q-30 0-39 27L43 983q-4 10-4 17-1 8 3 13z"/><glyph unicode="w" horiz-adv-x="1615" d="M49 985q-3 8-3 15 0 8 4 14 8 10 28 10h18q32 0 41-29l269-774 34-110h4q19 61 35 110l271 770q9 29 41 29h34q32 0 41-29l271-770 34-110h5q16 59 34 110l269 774q9 29 41 29h18q20 0 28-10 4-6 4-14 0-7-3-15L1231 29q-9-29-41-29h-31q-32 0-41 29L844 795l-35 110h-4q-17-61-35-110L498 29q-9-29-41-29h-31q-32 0-41 29z"/><glyph unicode="x" horiz-adv-x="929" d="M60 12q-2 4-2 9 0 10 8 22l340 498-302 440q-12 19-5.5 31t28.5 12h27q27 0 41-23l233-350 35-57h4l35 57 233 350q14 23 41 23h27q22 0 28-12t-6-31L524 541 864 43q8-13 8-22 0-5-2-9-6-12-28-12h-29q-27 0-41 23L504 424l-37 59h-4q-17-28-37-59L158 23Q144 0 117 0H88Q66 0 60 12z"/><glyph unicode="y" horiz-adv-x="985" d="M18-370q-2 6-2 11 0 7 4 13l9 14q16 29 47 15 3-1 13-6l15-7.5 15-6.5 17.5-6 17.5-3.5 20-1.5q124 0 203 184L449 6 41 983q-7 19 .5 30t26.5 11h20q27 0 39-27l328-790 37-96h4q14 47 34 96l328 790q12 27 39 27h21q19 0 26-11 4-5 4-13t-4-17L436-233q-37-87-104-142t-158-55q-68 0-139 39-13 7-17 21z"/><glyph unicode="z" horiz-adv-x="989" d="M74 35v10q0 26 14 43l606 762 80 94v4q-36-4-104-4H135q-35 0-35 35v10q0 35 35 35h721q35 0 35-35v-10q0-26-14-43L268 174q-16-21-36.5-44.5T198 93l-12-13v-4q39 4 107 4h586q34 0 34-35V35q0-35-34-35H109Q74 0 74 35z"/><glyph unicode="{" horiz-adv-x="595" d="M68 647v21q0 27 28 39 24 8 45.5 22.5t46 40.5 39.5 70.5T242 942v164q0 96 21 169t50 111 67 61.5 64.5 29.5 49.5 6h10q35 0 35-35v-12q0-35-35-35-17 0-35-4t-44.5-21.5-46-46.5-34-86.5T330 1108V920q0-56-16.5-103T273 742t-48-48-41-28l-16-7v-4q7-2 17.5-7t38.5-25 49.5-46.5 39-75T330 395V178q0-77 14.5-134.5t34-86.5 46-46.5T469-111t35-4q35 0 35-35v-12q0-35-35-35h-10q-23 0-49.5 6T380-161.5 313-100 263 11t-21 169v193q0 57-15 101.5T187.5 545t-46 40.5T96 608q-28 12-28 39z"/><glyph unicode="|" horiz-adv-x="464" d="M188-283v1856q0 35 35 35h19q34 0 34-35V-283q0-34-34-34h-19q-35 0-35 34z"/><glyph unicode="}" horiz-adv-x="598" d="M59-150q0 35 35 35 17 0 35 4t44.5 21.5 46 46.5 34 86.5T268 178v217q0 58 16.5 106t40.5 75.5 48 46.5 41 25l16 7v4q-7 3-17.5 8T374 693.5 324.5 742t-39 74.5T268 920v188q0 77-14.5 134.5t-34 86.5-46 46.5T129 1397t-35 4q-35 0-35 35v12q0 35 35 35h10q23 0 49.5-6t64.5-29.5 67-61.5 50-111 21-169V942q0-57 15-101.5t39.5-70.5 46-40.5T502 707q28-12 28-39v-21q0-27-28-39-24-8-45.5-22.5t-46-40.5-39.5-70.5T356 373V180q0-96-21-169t-50-111-67-61.5-64.5-29.5-49.5-6H94q-35 0-35 35v12z"/><glyph unicode="~" horiz-adv-x="1189" d="M152 489q11 124 73.5 183T385 731q54 0 98.5-16.5t72-41.5 56.5-54.5 53-54.5 61-41.5 81-16.5q41 0 71.5 17.5T925 570t23.5 57.5T958 688q3 35 37 35h13q35 0 32-37-7-133-70-195.5T807 428q-54 0-98.5 16.5t-72 41.5-56.5 54.5-53 54.5-61 41.5-81 16.5q-42 0-72.5-17.5T266 589t-23.5-58-9.5-60q-3-35-36-35h-13q-35 0-32 53z"/><glyph unicode="¡" horiz-adv-x="485" d="M180 934v55q0 35 35 35h51q35 0 35-35v-55q0-35-35-35h-51q-35 0-35 35zm19-1309V631q0 35 34 35h19q35 0 35-35V-375q0-35-35-35h-19q-34 0-34 35z"/><glyph unicode="¢" horiz-adv-x="1128" d="M119 717q0 114 26.5 212.5T224 1105t134.5 125.5T547 1288v135q0 35 35 35h18q35 0 35-35v-135q232-20 362-258 16-32-18-47l-18-6q-30-12-46 16-114 209-319 209-99 0-174.5-37.5t-120.5-105T233.5 906 211 717t22.5-189.5T301 374t120.5-105T596 231q205 0 319 209 16 29 46 17l18-8q35-12 18-46-128-238-362-258V8q0-35-35-35h-18q-35 0-35 35v137q-140 12-238.5 93t-144 203.5T119 717z"/><glyph unicode="£" horiz-adv-x="1134" d="M113 35v12q0 35 34 35h99v600h-58q-34 0-34 35v12q0 35 34 35h58v332q0 154 114 258t289 104q149 0 273-82 30-23 4-49l-13-16q-20-23-49-4-101 65-217 65-147 0-230-82.5T334 1087V764h371q34 0 34-35v-12q0-35-34-35H334V82h684q35 0 35-35V35q0-35-35-35H147q-34 0-34 35z"/><glyph unicode="¥" horiz-adv-x="1167" d="M74 1422q7 12 28 12h25q25 0 41-23l326-543 88-161h4q45 91 88 161l325 543q16 23 41 23h25q22 0 29-12t-4-29L735 803h187q34 0 34-35v-12q0-35-34-35H686l-57-98v-86h293q34 0 34-35v-13q0-34-34-34H629V35q0-35-35-35h-19q-34 0-34 35v420H242q-35 0-35 34v13q0 35 35 35h299v86l-60 98H242q-35 0-35 35v12q0 35 35 35h190L78 1393q-11 17-4 29z"/><glyph unicode="§" horiz-adv-x="792" d="M154 1149q0 133 91.5 221t231.5 88q82 0 160-47 31-19 8-49l-10-12q-19-22-47-7-60 31-113 31-99 0-165-63.5T244 1143q0-15 4-43l129-936q3-37-33-37h-16q-34 0-37 33l-133 938q-4 32-4 51zm4-1180l8 11q19 24 47 8 60-31 113-31 99 0 164 63.5T555 188q0 29-2 43l-129 936q-3 37 33 37h16q34 0 37-33l133-938q4-36 4-51 0-133-91.5-221T324-127q-82 0-160 47-32 19-6 49z"/><glyph unicode="¨" horiz-adv-x="1042" d="M334 1649v80q0 34 35 34h24q35 0 35-34v-80q0-35-35-35h-24q-35 0-35 35zm280 0v80q0 34 35 34h25q35 0 35-34v-80q0-35-35-35h-25q-35 0-35 35z"/><glyph unicode="©" horiz-adv-x="1699" d="M125 717q0 152 57 289.5T335.5 1243t230 157 280.5 58q150 0 285-58t232.5-157 154.5-236 57-290-57-291-154.5-236.5T1131 33 846-25q-197 0-362.5 98t-262 269T125 717zm92 0q0-183 83-333.5T527.5 147 846 61q177 0 323.5 86t230 236.5T1483 717q0 136-49.5 257.5t-134 208.5-202.5 138-251 51q-174 0-318.5-86T300 1049.5 217 717zm213-2q0 82 28.5 158.5t81.5 138 139 98.5 191 37q57 0 110-16.5t93-43 65-48.5 46-46q23-26-4-49l-17-14q-25-21-49 6-106 123-242 123-165 0-257.5-101.5T522 717q0-65 22.5-125.5t64.5-109 110.5-78T872 375q141 0 242 123 25 28 49 4l15-13q29-23 6-49-21-24-47-46t-65.5-48.5T979 303t-109-16q-106 0-191.5 36.5t-139 97.5T458 557.5 430 715z"/><glyph unicode="ª" horiz-adv-x="827" d="M154 573v7q0 34 34 34h449q35 0 35-34v-7q0-34-35-34H188q-34 0-34 34zm6 400q0 227 397 227h29v8q0 170-156 170-68 0-147-41-29-15-50 9l-4 6q-22 28 9 49 98 53 194 53 115 0 174.5-62t59.5-184V829q0-34-35-34h-10q-35 0-35 34v70h-4q-3-5-7.5-13T552 858t-39-35.5-55-28-71-12.5q-92 0-159.5 49.5T160 973zm84 8q0-51 37.5-87T389 858q88 0 142.5 77t54.5 171v20h-27q-33 0-56.5-1t-65-4.5T366 1107t-60-25-46-41-16-60z"/><glyph unicode="«" horiz-adv-x="954" d="M102 553q-21 25 0 49l299 377q17 20 43 20h27q23 0 29-12t-8-31L190 578l302-377q13-19 8-31t-27-12h-29q-26 0-43 20zm328 0q-21 25 0 49l299 377q17 20 43 20h27q23 0 28.5-12t-8.5-31L518 578l301-377q14-19 9-31t-27-12h-29q-26 0-43 20z"/><glyph unicode="¬" horiz-adv-x="1286" d="M180 737v13q0 34 35 34h864q35 0 35-34V371q0-35-35-35h-16q-35 0-35 35v331H215q-35 0-35 35z"/><glyph unicode="­" horiz-adv-x="872" d="M154 573v13q0 35 34 35h496q35 0 35-35v-13q0-34-35-34H188q-34 0-34 34z"/><glyph unicode="®" horiz-adv-x="1699" d="M125 717q0 152 57 289.5T335.5 1243t230 157 280.5 58q150 0 285-58t232.5-157 154.5-236 57-290-57-291-154.5-236.5T1131 33 846-25q-197 0-362.5 98t-262 269T125 717zm92 0q0-183 83-333.5T527.5 147 846 61q177 0 323.5 86t230 236.5T1483 717q0 136-49.5 257.5t-134 208.5-202.5 138-251 51q-174 0-318.5-86T300 1049.5 217 717zm391-375v750q0 34 35 34h238q105 0 171-65t66-172q0-87-45-145t-112-74v-4q8-10 26-45l141-273q9-19 2.5-30t-28.5-11h-25q-29 0-41 25L874 649H698V342q0-35-34-35h-21q-35 0-35 35zm90 385h172q71 0 113.5 43.5T1026 889q0 73-42.5 114T870 1044H698V727z"/><glyph unicode="¯" horiz-adv-x="1042" d="M276 1645v12q0 35 35 35h420q35 0 35-35v-12q0-35-35-35H311q-35 0-35 35z"/><glyph unicode="°" horiz-adv-x="743" d="M104 1186q0 110 78.5 189t188.5 79 189-79 79-189-79-188-189-78-188.5 78-78.5 188zm89 0q0-77 51-131t127-54 128 54 52 131-52 131.5-128 54.5-127-54.5-51-131.5z"/><glyph unicode="±" d="M86 573v13q0 35 35 35h450v503q0 35 35 35h19q34 0 34-35V621h449q35 0 35-35v-13q0-34-35-34H659V35q0-35-34-35h-19q-35 0-35 35v504H121q-35 0-35 34zm41-839q0 35 35 35h905q35 0 35-35v-13q0-34-35-34H162q-35 0-35 34v13z"/><glyph unicode="²" horiz-adv-x="696" d="M70 915q0 70 25 128t65 98.5 88 76.5 96 68 88 65 65 77 25 96q0 74-51.5 126T336 1702q-92 0-168-76-24-24-49 0l-2 2q-24 27-2 49 94 99 221 99 126 0 196-73t70-179q0-62-24.5-114.5t-64-89.5-87-70-95.5-65-88-65.5-65.5-79.5T150 940h434q34 0 34-35v-4q0-35-34-35H106q-36 0-36 49z"/><glyph unicode="³" horiz-adv-x="714" d="M74 952q-25 25 2 49l6 7q24 24 49-2 81-86 205-86 79 0 145 59.5t66 146.5q0 89-66.5 143T328 1323h-37q-30 0-39 25-12 23 6 47l203 237q10 12 23 24.5t20 19.5l8 7v5q-37-7-78-7H133q-35 0-35 35v4q0 35 35 35h453q35 0 35-26v-9q0-17-17-37l-246-288q36-3 71-12t71.5-29.5 64-49.5 45-75 17.5-103q0-117-86.5-198.5T334 846q-92 0-158 33T74 952z"/><glyph unicode="´" horiz-adv-x="1042" d="M416 1548q-7 12 4 29l98 164q14 22 41 22h37q22 0 27-12t-7-31l-114-161q-17-23-43-23h-15q-21 0-28 12z"/><glyph unicode="¶" horiz-adv-x="1103" d="M82 965q0 129 67 237.5t179 170 243 61.5h396q34 0 34-35v-13q0-34-34-34H659V-68q0-34-34-34h-17q-35 0-35 34v562q-131 0-243.5 62t-180 171T82 965zM786-68v1256q0 35 35 35h17q34 0 34-35V-68q0-34-34-34h-17q-35 0-35 34z"/><glyph unicode="·" horiz-adv-x="432" d="M154 557v59q0 35 34 35h56q35 0 35-35v-59q0-35-35-35h-56q-34 0-34 35z"/><glyph unicode="¸" horiz-adv-x="1042" d="M383-377q0 16 7.5 28.5T414-336q5 0 20-3t33-3q111 0 111 76 0 34-29 53.5T473-188q-16 2-27.5 14t-7.5 33l37 174h72l-29-156q64-9 102.5-46.5T659-262q0-79-53-117.5T473-418q-90 0-90 41z"/><glyph unicode="¹" horiz-adv-x="565" d="M66 901v4q0 35 34 35h162v666l2 45h-2q-8-17-47-56l-65-63q-25-25-50 0l-6 6q-22 25 2 49l148 150q18 18 43 18h18q35 0 35-35V940h156q34 0 34-35v-4q0-35-34-35H100q-34 0-34 35z"/><glyph unicode="º" horiz-adv-x="950" d="M139 1124q0 139 97.5 235.5T473 1456t236.5-96.5T807 1124q0-144-97.5-242T473 784t-236.5 98-97.5 242zm37-551v7q0 34 35 34h532q35 0 35-34v-7q0-34-35-34H211q-35 0-35 34zm43 551q0-113 73.5-188.5T473 860t180.5 75.5T727 1124q0 109-73.5 182.5T473 1380t-180.5-73.5T219 1124z"/><glyph unicode="»" horiz-adv-x="954" d="M129 170q-6 12 8 31l301 377-301 378q-14 19-8 31t29 12h26q26 0 43-20l299-377q21-24 0-49L227 178q-17-20-43-20h-26q-23 0-29 12zm327.5 0q-5.5 12 8.5 31l301 377-301 378q-14 19-8.5 31t28.5 12h27q26 0 43-20l299-377q21-24 0-49L555 178q-17-20-43-20h-27q-23 0-28.5 12z"/><glyph unicode="¼" horiz-adv-x="1837" d="M115 580v4q0 34 35 34h161v666l2 45h-2q-8-16-47-55l-65-64q-25-24-49 0l-7 7q-22 25 2 49l148 149q19 19 43 19h18q35 0 35-35V618h156q35 0 35-34v-4q0-35-35-35H150q-35 0-35 35zM518 11q-7 11 2 30l656 1366q12 27 41 27h14q20 0 26.5-11t-2.5-30L602 27Q590 0 561 0h-16q-20 0-27 11zm586 263v11q0 17 14 34l424 549q18 21 43 21h2q35 0 35-35V322h104q35 0 35-35v-4q0-35-35-35h-104V35q0-35-35-35h-8q-35 0-35 35v213h-405q-35 0-35 26zm113 48h327v301l6 133h-4q-34-56-71-103l-258-327v-4z"/><glyph unicode="½" horiz-adv-x="1810" d="M113 580v4q0 34 34 34h162v666l2 45h-2q-8-16-47-55l-65-64q-25-25-50 0l-6 7q-22 25 2 49l148 149q19 19 43 19h18q35 0 35-35V618h156q35 0 35-34v-4q0-35-35-35H147q-34 0-34 35zM516 11q-7 11 2 30l656 1366q12 27 40 27h15q20 0 26.5-11t-2.5-30L600 27Q588 0 559 0h-16q-20 0-27 11zm643 38q0 70 25 128t65 98.5 88.5 76T1434 419t88 65 65 77 25 96q0 74-52 126.5T1425 836q-92 0-168-76-25-24-49 0l-2 2q-24 27-2 49 93 98 221 98 126 0 196.5-73t70.5-179q0-62-24.5-114.5t-64-89-87-70-96-65-88.5-65-65.5-79.5T1239 74h434q35 0 35-35v-4q0-35-35-35h-477q-37 0-37 49z"/><glyph unicode="¾" horiz-adv-x="1882" d="M111 631q-25 25 2 49l6 6q23 24 49-2 81-86 205-86 79 0 145 60t66 147q0 89-66.5 142.5T365 1001h-37q-30 0-39 25-12 23 6 47l203 238q10 12 23 24.5t21 19.5l7 7v4q-37-6-78-6H170q-35 0-35 35v4q0 35 35 35h453q34 0 34-27v-8q0-18-16-37l-246-289q46-3 89.5-18t86-44.5 68-82.5T664 805q0-117-86.5-199T371 524q-92 0-158 33.5T111 631zM563 11q-7 11 2 30l656 1366q12 27 41 27h14q20 0 26.5-11t-2.5-30L647 27Q635 0 606 0h-16q-20 0-27 11zm586 263v11q0 17 14 34l424 549q18 21 43 21h2q35 0 35-35V322h105q34 0 34-35v-4q0-35-34-35h-105V35q0-35-35-35h-8q-35 0-35 35v213h-405q-35 0-35 26zm113 48h327v301l6 133h-4q-34-56-71-103l-258-327v-4z"/><glyph unicode="¿" horiz-adv-x="915" d="M168-82q0 69 20.5 127.5t53 100.5 72 80.5T393 301t72.5 74.5 53 89.5T539 575v56q0 35 34 35h19q35 0 35-35v-56q0-68-20-126t-52.5-100-71.5-80.5-78.5-75-72-75T280 28 260-84q0-112 83.5-188T559-348q125 0 232 67 29 16 47-10l8-12q23-30-8-49-127-82-277-82-175 0-284 99.5T168-82zM522 934v55q0 35 35 35h51q35 0 35-35v-55q0-35-35-35h-51q-35 0-35 35z"/><glyph unicode="À" horiz-adv-x="1224" d="M43 41l512 1364q9 29 39 29h37q30 0 39-29L1182 41q13-41-29-41h-23q-29 0-38 27L915 496H307L133 29Q124 0 94 0H72Q30 0 43 41zm295 537h547l-217 581q-10 27-23.5 70t-22.5 73l-8 29h-4q-30-111-53-172zm91.5 1173q5.5 12 27.5 12h37q27 0 41-22l98-164q11-17 5-29t-26-12h-18q-26 0-43 23l-115 161q-12 19-6.5 31z"/><glyph unicode="Á" horiz-adv-x="1224" d="M43 41l512 1364q9 29 39 29h37q30 0 39-29L1182 41q13-41-29-41h-23q-29 0-38 27L915 496H307L133 29Q124 0 94 0H72Q30 0 43 41zm295 537h547l-217 581q-10 27-23.5 70t-22.5 73l-8 29h-4q-30-111-53-172zm248 970q-7 12 4 29l98 164q14 22 41 22h37q22 0 27-12t-7-31l-114-161q-17-23-43-23h-15q-21 0-28 12z"/><glyph unicode="Â" horiz-adv-x="1224" d="M43 41l512 1364q9 29 39 29h37q30 0 39-29L1182 41q13-41-29-41h-23q-29 0-38 27L915 496H307L133 29Q124 0 94 0H72Q30 0 43 41zm295 537h547l-217 581q-10 27-23.5 70t-22.5 73l-8 29h-4q-30-111-53-172zm81 970q-5 12 7 31l117 162q17 22 43 22h53q27 0 43-22l117-162q12-19 6.5-31t-25.5-12h-24q-27 0-41 23l-101 141h-4l-100-141q-14-23-41-23h-23q-22 0-27 12z"/><glyph unicode="Ã" horiz-adv-x="1224" d="M43 41l512 1364q9 29 39 29h37q30 0 39-29L1182 41q13-41-29-41h-23q-29 0-38 27L915 496H307L133 29Q124 0 94 0H72Q30 0 43 41zm276 1546q0 79 46.5 127.5T487 1763q38 0 69.5-15.5T610 1710t41.5-44.5 43.5-38 50-15.5q40 0 61 33.5t21 78.5q0 15 10 24t27 9h13q30 0 30-37 0-86-45.5-135T739 1536q-38 0-69.5 15.5t-53.5 38-41.5 45-43.5 38-50 15.5q-40 0-61-33t-21-80q0-15-10-24t-27-9h-12q-31 0-31 45zm19-1009h547l-217 581q-10 27-23.5 70t-22.5 73l-8 29h-4q-30-111-53-172z"/><glyph unicode="Ä" horiz-adv-x="1224" d="M43 41l512 1364q9 29 39 29h37q30 0 39-29L1182 41q13-41-29-41h-23q-29 0-38 27L915 496H307L133 29Q124 0 94 0H72Q30 0 43 41zm295 537h547l-217 581q-10 27-23.5 70t-22.5 73l-8 29h-4q-30-111-53-172zm88 1071v80q0 34 35 34h24q35 0 35-34v-80q0-35-35-35h-24q-35 0-35 35zm281 0v80q0 34 34 34h25q35 0 35-34v-80q0-35-35-35h-25q-34 0-34 35z"/><glyph unicode="Å" horiz-adv-x="1224" d="M43 41l512 1364q9 29 39 29h37q30 0 39-29L1182 41q13-41-29-41h-23q-29 0-38 27L915 496H307L133 29Q124 0 94 0H72Q30 0 43 41zm295 537h547l-217 581q-10 27-23.5 70t-22.5 73l-8 29h-4q-30-111-53-172zm137 1075q0 59 39.5 98t97.5 39q59 0 98.5-39.5T750 1653t-39.5-97.5T612 1516q-58 0-97.5 39t-39.5 98zm72 0q0-29 18-47.5t47-18.5 47.5 18.5T678 1653q0 31-18 49t-48 18q-29 0-47-18t-18-49z"/><glyph unicode="Æ" horiz-adv-x="1656" d="M37 11q-7 11 0 30l561 1366q9 27 39 27h856q35 0 35-35v-13q0-34-35-34H831V764h537q35 0 35-35v-12q0-35-35-35H831V82h701q35 0 35-35V35q0-35-35-35H778q-35 0-35 35v647H393L125 27Q116 0 86 0H63Q44 0 37 11zm391 753h315v588h-73z"/><glyph unicode="Ç" horiz-adv-x="1464" d="M117 727q0 206 90 373t253 262.5 367 95.5q93 0 177.5-17t145.5-44.5 99-50.5 66-46q23-20 4-49l-10-12q-22-25-49-4-191 139-431 139-135 0-250.5-49T382 1190 255 984.5 209 727q0-139 46-261.5T382 253t199-142 255-52q257 0 460 170 26 22 50-2l8-10q22-25-2-49-30-27-68.5-53.5t-102.5-60T1030.5-1 850-25l-19-98q64-9 103-46.5t39-92.5q0-79-53.5-117.5T786-418q-90 0-90 41 0 16 7.5 28.5T727-336q5 0 20-3t33-3q111 0 111 76 0 34-29 53.5T786-188q-16 2-27 14t-7 33l24 118Q582-9 430.5 95T198 364t-81 363z"/><glyph unicode="È" horiz-adv-x="1128" d="M215 35v1364q0 35 35 35h715q34 0 34-35v-13q0-34-34-34H303V764h537q34 0 34-35v-12q0-35-34-35H303V82h701q34 0 34-35V35q0-35-34-35H250q-35 0-35 35zm235 1716q5 12 27 12h37q27 0 41-22l98-164q11-17 5.5-29t-25.5-12h-19q-26 0-43 23l-114 161q-12 19-7 31z"/><glyph unicode="É" horiz-adv-x="1128" d="M215 35v1364q0 35 35 35h715q34 0 34-35v-13q0-34-34-34H303V764h537q34 0 34-35v-12q0-35-34-35H303V82h701q34 0 34-35V35q0-35-34-35H250q-35 0-35 35zm391 1513q-7 12 4 29l99 164q14 22 41 22h36q22 0 27.5-12t-6.5-31l-115-161q-17-23-43-23h-14q-22 0-29 12z"/><glyph unicode="Ê" horiz-adv-x="1128" d="M215 35v1364q0 35 35 35h715q34 0 34-35v-13q0-34-34-34H303V764h537q34 0 34-35v-12q0-35-34-35H303V82h701q34 0 34-35V35q0-35-34-35H250q-35 0-35 35zm224.5 1513q-5.5 12 6.5 31l117 162q17 22 43 22h53q27 0 43-22l117-162q12-19 7-31t-25-12h-25q-27 0-41 23l-100 141h-4l-101-141q-14-23-41-23h-22q-22 0-27.5 12z"/><glyph unicode="Ë" horiz-adv-x="1128" d="M215 35v1364q0 35 35 35h715q34 0 34-35v-13q0-34-34-34H303V764h537q34 0 34-35v-12q0-35-34-35H303V82h701q34 0 34-35V35q0-35-34-35H250q-35 0-35 35zm231 1614v80q0 34 35 34h25q35 0 35-34v-80q0-35-35-35h-25q-35 0-35 35zm281 0v80q0 34 35 34h24q35 0 35-34v-80q0-35-35-35h-24q-35 0-35 35z"/><glyph unicode="Ì" horiz-adv-x="518" d="M77 1751q5 12 27 12h37q27 0 41-22l99-164q11-17 5-29t-26-12h-18q-26 0-43 23L84 1720q-12 19-7 31zM215 35v1364q0 35 35 35h18q35 0 35-35V35q0-35-35-35h-18q-35 0-35 35z"/><glyph unicode="Í" horiz-adv-x="518" d="M215 35v1364q0 35 35 35h18q35 0 35-35V35q0-35-35-35h-18q-35 0-35 35zm19 1513q-7 12 4 29l98 164q14 22 41 22h37q22 0 27-12t-7-31l-115-161q-17-23-43-23h-14q-21 0-28 12z"/><glyph unicode="Î" horiz-adv-x="518" d="M67 1548q-5 12 7 31l116 162q16 22 43 22h54q27 0 43-22l116-162q12-19 7-31t-25-12h-25q-27 0-41 23l-100 141h-4l-100-141q-14-23-41-23H94q-22 0-27 12zM215 35v1364q0 35 35 35h18q35 0 35-35V35q0-35-35-35h-18q-35 0-35 35z"/><glyph unicode="Ï" horiz-adv-x="518" d="M74 1649v80q0 34 35 34h24q35 0 35-34v-80q0-35-35-35h-24q-35 0-35 35zM215 35v1364q0 35 35 35h18q35 0 35-35V35q0-35-35-35h-18q-35 0-35 35zm139 1614v80q0 34 35 34h25q35 0 35-34v-80q0-35-35-35h-25q-35 0-35 35z"/><glyph unicode="Ð" horiz-adv-x="1499" d="M92 717v12q0 35 35 35h88v635q0 35 35 35h416q324 0 519-190.5T1380 717q0-225-90-388T1040 83 666 0H250q-35 0-35 35v647h-88q-35 0-35 35zM303 82h348q292 0 464.5 166T1288 717q0 302-173 468.5T651 1352H303V764h340q35 0 35-35v-12q0-35-35-35H303V82z"/><glyph unicode="Ñ" horiz-adv-x="1527" d="M215 35v1364q0 35 35 35h20q26 0 43-23l801-1102q21-29 50-74t48-75l19-31h4q-10 108-10 180v1090q0 35 35 35h18q35 0 35-35V35q0-35-35-35h-21q-26 0-43 23L414 1124q-21 29-50 74.5t-48 75.5l-19 31h-4q10-109 10-181V35q0-35-35-35h-18q-35 0-35 35zm256 1552q0 79 46.5 127.5T639 1763q38 0 69.5-15.5T762 1710t41.5-44.5 43.5-38 50-15.5q40 0 61 33.5t21 78.5q0 15 10 24t27 9h12q31 0 31-37 0-86-45.5-135T891 1536q-38 0-69.5 15.5t-53.5 38-41.5 45-43.5 38-50 15.5q-40 0-61-33t-21-80q0-15-10-24t-27-9h-12q-31 0-31 45z"/><glyph unicode="Ò" horiz-adv-x="1675" d="M113 727q0 152 56 287.5t152 233 230.5 154T838 1458t286.5-56.5 230.5-154 152-233 56-287.5q0-208-94.5-380.5t-261-272T838-25 468.5 74.5t-261 272T113 727zm92 0q0-186 82-339t227.5-241T838 59t323 88 227 241 82 339q0 181-82 329.5t-227 233-323 84.5q-134 0-251.5-50t-201-135.5-132-205.5T205 727zm450 1024q5 12 27 12h37q27 0 41-22l98-164q11-17 5.5-29t-25.5-12h-19q-26 0-43 23l-114 161q-12 19-7 31z"/><glyph unicode="Ó" horiz-adv-x="1675" d="M113 727q0 152 56 287.5t152 233 230.5 154T838 1458t286.5-56.5 230.5-154 152-233 56-287.5q0-208-94.5-380.5t-261-272T838-25 468.5 74.5t-261 272T113 727zm92 0q0-186 82-339t227.5-241T838 59t323 88 227 241 82 339q0 181-82 329.5t-227 233-323 84.5q-134 0-251.5-50t-201-135.5-132-205.5T205 727zm606 821q-7 12 4 29l98 164q14 22 41 22h37q22 0 27.5-12t-6.5-31l-115-161q-17-23-43-23h-14q-22 0-29 12z"/><glyph unicode="Ô" horiz-adv-x="1675" d="M113 727q0 152 56 287.5t152 233 230.5 154T838 1458t286.5-56.5 230.5-154 152-233 56-287.5q0-208-94.5-380.5t-261-272T838-25 468.5 74.5t-261 272T113 727zm92 0q0-186 82-339t227.5-241T838 59t323 88 227 241 82 339q0 181-82 329.5t-227 233-323 84.5q-134 0-251.5-50t-201-135.5-132-205.5T205 727zm439.5 821q-5.5 12 6.5 31l117 162q16 22 43 22h53q26 0 43-22l117-162q12-19 7-31t-25-12h-25q-27 0-41 23l-100 141h-4l-101-141q-14-23-41-23h-22q-22 0-27.5 12z"/><glyph unicode="Õ" horiz-adv-x="1675" d="M113 727q0 152 56 287.5t152 233 230.5 154T838 1458t286.5-56.5 230.5-154 152-233 56-287.5q0-208-94.5-380.5t-261-272T838-25 468.5 74.5t-261 272T113 727zm92 0q0-186 82-339t227.5-241T838 59t323 88 227 241 82 339q0 181-82 329.5t-227 233-323 84.5q-134 0-251.5-50t-201-135.5-132-205.5T205 727zm340 860q0 79 46.5 127.5T713 1763q38 0 69.5-15.5T836 1710t41.5-44.5 43.5-38 50-15.5q40 0 61 33.5t21 78.5q0 15 10 24t27 9h12q31 0 31-37 0-86-45.5-135T965 1536q-38 0-69.5 15.5t-53.5 38-41.5 45-43.5 38-50 15.5q-40 0-61-33t-21-80q0-15-10-24t-27-9h-13q-30 0-30 45z"/><glyph unicode="Ö" horiz-adv-x="1675" d="M113 727q0 152 56 287.5t152 233 230.5 154T838 1458t286.5-56.5 230.5-154 152-233 56-287.5q0-208-94.5-380.5t-261-272T838-25 468.5 74.5t-261 272T113 727zm92 0q0-186 82-339t227.5-241T838 59t323 88 227 241 82 339q0 181-82 329.5t-227 233-323 84.5q-134 0-251.5-50t-201-135.5-132-205.5T205 727zm446 922v80q0 34 35 34h25q34 0 34-34v-80q0-35-34-35h-25q-35 0-35 35zm281 0v80q0 34 35 34h24q35 0 35-34v-80q0-35-35-35h-24q-35 0-35 35z"/><glyph unicode="×" d="M121 84l436 496-436 495q-22 28 2 49l10 11q27 24 49-2l432-490 433 490q22 26 49 2l10-11q24-21 2-49L670 580l438-496q22-28-2-49l-10-10q-27-24-49 2L614 516 182 27q-22-26-49-2l-10 10q-24 21-2 49z"/><glyph unicode="Ø" horiz-adv-x="1673" d="M113 725q0 153 57.5 289.5t155 233.5 231 153.5T838 1458q211 0 393-117l80 113q22 28 57 2 33-26 12-53l-80-113q123-102 193-248t70-317q0-154-57.5-293t-155-239T1119 34 838-25Q624-25 444 94L365-18q-22-29-58-5-34 24-14 54l82 114Q253 250 183 401.5T113 725zm92 0q0-152 59.5-284.5T426 217l754 1055q-151 102-342 102-173 0-318-84.5t-230-234T205 725zm289-561Q645 59 836 59q130 0 247.5 51.5t202 140 134.5 212 50 260.5q0 152-58.5 280T1249 1221z"/><glyph unicode="Ù" horiz-adv-x="1460" d="M195 492v907q0 35 34 35h19q35 0 35-35V496q0-202 121-319.5T729 59t326.5 118.5T1178 500v899q0 35 34 35h19q35 0 35-35V492q0-234-148.5-375.5T731-25 344 116.5 195 492zm351 1259q5 12 27 12h37q27 0 41-22l99-164q11-17 5-29t-26-12h-18q-26 0-43 23l-115 161q-12 19-7 31z"/><glyph unicode="Ú" horiz-adv-x="1460" d="M195 492v907q0 35 34 35h19q35 0 35-35V496q0-202 121-319.5T729 59t326.5 118.5T1178 500v899q0 35 34 35h19q35 0 35-35V492q0-234-148.5-375.5T731-25 344 116.5 195 492zm508 1056q-7 12 4 29l98 164q14 22 41 22h37q22 0 27-12t-7-31l-115-161q-17-23-43-23h-14q-21 0-28 12z"/><glyph unicode="Û" horiz-adv-x="1460" d="M195 492v907q0 35 34 35h19q35 0 35-35V496q0-202 121-319.5T729 59t326.5 118.5T1178 500v899q0 35 34 35h19q35 0 35-35V492q0-234-148.5-375.5T731-25 344 116.5 195 492zm341 1056q-5 12 7 31l116 162q17 22 43 22h54q26 0 43-22l116-162q12-19 7-31t-25-12h-25q-27 0-41 23l-100 141h-4l-100-141q-14-23-41-23h-23q-22 0-27 12z"/><glyph unicode="Ü" horiz-adv-x="1460" d="M195 492v907q0 35 34 35h19q35 0 35-35V496q0-202 121-319.5T729 59t326.5 118.5T1178 500v899q0 35 34 35h19q35 0 35-35V492q0-234-148.5-375.5T731-25 344 116.5 195 492zm348 1157v80q0 34 35 34h24q35 0 35-34v-80q0-35-35-35h-24q-35 0-35 35zm280 0v80q0 34 35 34h25q35 0 35-34v-80q0-35-35-35h-25q-35 0-35 35z"/><glyph unicode="Ý" horiz-adv-x="1110" d="M45 1422q7 12 29 12h24q25 0 41-23l326-543 88-161h4q45 91 88 161l326 543q16 23 41 23h24q22 0 29-12t-4-29L600 623V35q0-35-35-35h-18q-35 0-35 35v588L49 1393q-11 17-4 29zm483 126q-7 12 4 29l99 164q14 22 41 22h37q22 0 27-12t-7-31l-115-161q-17-23-43-23h-14q-22 0-29 12z"/><glyph unicode="Þ" horiz-adv-x="1198" d="M215 35v1364q0 35 35 35h18q35 0 35-35v-232h383q191 0 313.5-113T1122 750q0-192-123-307T682 328H303V35q0-35-35-35h-18q-35 0-35 35zm88 375h379q159 0 253.5 90.5T1030 750t-94.5 247-253.5 88H303V410z"/><glyph unicode="ß" horiz-adv-x="1134" d="M172 35v1055q0 70 22 130t59 103.5 86.5 74T444 1443t113 15q152 0 241-84.5t89-197.5q0-62-25.5-116t-62-91.5-73-71.5-62-70.5T639 754q0-30 24-60.5t62-57.5 84-56 92-62.5 84-70 62-84.5 24-101q0-132-92-204T756-14q-158 0-291 59-25 13-25 41v18q0 43 41 27 124-61 277-61 95 0 159 49t64 143q0 60-44.5 112.5t-108 93-127 80.5-108 91.5T549 750q0 51 25.5 97t62 82 73 71.5 62 81T797 1176q0 77-64.5 137.5T553 1374q-117 0-206-79.5T258 1083V35q0-35-35-35h-16q-35 0-35 35z"/><glyph unicode="à" horiz-adv-x="1026" d="M80 272q0 56 16.5 103.5t42 81.5 66 61 79.5 44.5 92 30 93 18.5 93 9.5 82.5 4 70.5.5h67v34q0 306-280 306-143 0-264-78-29-19-50 8l-8 12q-23 30 6 49 132 93 320 93 178 0 270-98t92-289V35q0-35-34-35h-17q-35 0-35 35v100q0 24 2 47t4 34l3 11h-5q2 0-10-26t-39-63-66.5-74-104-63T428-25q-64 0-124.5 18T192 46t-81.5 93.5T80 272zm90 7q0-89 69.5-156.5T432 55q80 0 148 39t111 102 67 139.5T782 489v56h-65q-41 0-65.5-.5t-73-2.5-81-6.5-79.5-14-78-22-66-33-55.5-46.5-34.5-62-14-79zm153 1143q5 12 27 12h37q27 0 41-23l98-164q11-17 5.5-29t-25.5-12h-19q-26 0-43 23l-114 162q-12 19-7 31z"/><glyph unicode="á" horiz-adv-x="1026" d="M80 272q0 56 16.5 103.5t42 81.5 66 61 79.5 44.5 92 30 93 18.5 93 9.5 82.5 4 70.5.5h67v34q0 306-280 306-143 0-264-78-29-19-50 8l-8 12q-23 30 6 49 132 93 320 93 178 0 270-98t92-289V35q0-35-34-35h-17q-35 0-35 35v100q0 24 2 47t4 34l3 11h-5q2 0-10-26t-39-63-66.5-74-104-63T428-25q-64 0-124.5 18T192 46t-81.5 93.5T80 272zm90 7q0-89 69.5-156.5T432 55q80 0 148 39t111 102 67 139.5T782 489v56h-65q-41 0-65.5-.5t-73-2.5-81-6.5-79.5-14-78-22-66-33-55.5-46.5-34.5-62-14-79zm307 939q-7 12 4 29l99 164q14 23 41 23h36q22 0 27.5-12t-6.5-31l-115-162q-17-23-43-23h-14q-22 0-29 12z"/><glyph unicode="â" horiz-adv-x="1026" d="M80 272q0 56 16.5 103.5t42 81.5 66 61 79.5 44.5 92 30 93 18.5 93 9.5 82.5 4 70.5.5h67v34q0 306-280 306-143 0-264-78-29-19-50 8l-8 12q-23 30 6 49 132 93 320 93 178 0 270-98t92-289V35q0-35-34-35h-17q-35 0-35 35v100q0 24 2 47t4 34l3 11h-5q2 0-10-26t-39-63-66.5-74-104-63T428-25q-64 0-124.5 18T192 46t-81.5 93.5T80 272zm90 7q0-89 69.5-156.5T432 55q80 0 148 39t111 102 67 139.5T782 489v56h-65q-41 0-65.5-.5t-73-2.5-81-6.5-79.5-14-78-22-66-33-55.5-46.5-34.5-62-14-79zm142.5 939q-5.5 12 6.5 31l117 162q17 23 43 23h53q26 0 43-23l117-162q12-19 7-31t-25-12h-25q-27 0-41 23l-100 141h-4l-101-141q-14-23-41-23h-22q-22 0-27.5 12z"/><glyph unicode="ã" horiz-adv-x="1026" d="M80 272q0 56 16.5 103.5t42 81.5 66 61 79.5 44.5 92 30 93 18.5 93 9.5 82.5 4 70.5.5h67v34q0 306-280 306-143 0-264-78-29-19-50 8l-8 12q-23 30 6 49 132 93 320 93 178 0 270-98t92-289V35q0-35-34-35h-17q-35 0-35 35v100q0 24 2 47t4 34l3 11h-5q2 0-10-26t-39-63-66.5-74-104-63T428-25q-64 0-124.5 18T192 46t-81.5 93.5T80 272zm90 7q0-89 69.5-156.5T432 55q80 0 148 39t111 102 67 139.5T782 489v56h-65q-41 0-65.5-.5t-73-2.5-81-6.5-79.5-14-78-22-66-33-55.5-46.5-34.5-62-14-79zm43 978q0 79 46.5 128t121.5 49q38 0 69.5-15.5t53.5-38 41.5-45 43.5-38 50-15.5q40 0 61 34t21 79q0 32 37 32h12q31 0 31-36 0-86-45.5-135.5T633 1206q-38 0-69.5 15.5t-53.5 38-41.5 45-43.5 38-50 15.5q-40 0-61-33t-21-80q0-15-10-24t-27-9h-12q-31 0-31 45z"/><glyph unicode="ä" horiz-adv-x="1026" d="M80 272q0 56 16.5 103.5t42 81.5 66 61 79.5 44.5 92 30 93 18.5 93 9.5 82.5 4 70.5.5h67v34q0 306-280 306-143 0-264-78-29-19-50 8l-8 12q-23 30 6 49 132 93 320 93 178 0 270-98t92-289V35q0-35-34-35h-17q-35 0-35 35v100q0 24 2 47t4 34l3 11h-5q2 0-10-26t-39-63-66.5-74-104-63T428-25q-64 0-124.5 18T192 46t-81.5 93.5T80 272zm90 7q0-89 69.5-156.5T432 55q80 0 148 39t111 102 67 139.5T782 489v56h-65q-41 0-65.5-.5t-73-2.5-81-6.5-79.5-14-78-22-66-33-55.5-46.5-34.5-62-14-79zm149 1040v80q0 35 35 35h25q35 0 35-35v-80q0-35-35-35h-25q-35 0-35 35zm281 0v80q0 35 35 35h24q35 0 35-35v-80q0-35-35-35h-24q-35 0-35 35z"/><glyph unicode="å" horiz-adv-x="1026" d="M80 272q0 56 16.5 103.5t42 81.5 66 61 79.5 44.5 92 30 93 18.5 93 9.5 82.5 4 70.5.5h67v34q0 306-280 306-143 0-264-78-29-19-50 8l-8 12q-23 30 6 49 132 93 320 93 178 0 270-98t92-289V35q0-35-34-35h-17q-35 0-35 35v100q0 24 2 47t4 34l3 11h-5q2 0-10-26t-39-63-66.5-74-104-63T428-25q-64 0-124.5 18T192 46t-81.5 93.5T80 272zm90 7q0-89 69.5-156.5T432 55q80 0 148 39t111 102 67 139.5T782 489v56h-65q-41 0-65.5-.5t-73-2.5-81-6.5-79.5-14-78-22-66-33-55.5-46.5-34.5-62-14-79zm199 1044q0 59 39.5 98t97.5 39 97.5-39 39.5-98-39.5-98-97.5-39-97.5 39-39.5 98zm71 0q0-29 18.5-47.5T506 1257t47 18.5 18 47.5q0 31-18 49.5t-47 18.5-47.5-18.5T440 1323z"/><glyph unicode="æ" horiz-adv-x="1769" d="M82 272q0 55 14 100.5t35.5 78.5 57.5 59 70 43 83.5 29 88 18 94 9.5 89.5 4 86 .5h82v45q0 306-288 306-140 0-256-78-29-19-50 8l-10 12q-20 30 8 49 132 93 312 93 293 0 352-240h4q62 118 167.5 179t238.5 61q194 0 303.5-131T1673 569q0-16-10.5-25t-26.5-9H868q0-224 116.5-350T1286 59q94 0 168.5 32.5T1575 164q30 23 49-6l8-15q19-28-6-47-53-45-141-83t-199-38q-160 0-283 83.5T825 289h-4q-5-23-17.5-54.5t-43.5-79-71.5-86T580.5 3 434-25q-148 0-250 78T82 272zm90 7q0-92 69.5-158T434 55q80 0 147.5 39T692 196t66.5 139.5T782 489v46H641q-49 0-86-1.5t-88.5-7-89.5-16-79-29.5-66.5-45.5T189 369t-17-90zm705 335h706q-4 90-33 160t-75.5 111-102.5 61.5-119 20.5q-146 0-248.5-90.5T877 614z"/><glyph unicode="ç" horiz-adv-x="1095" d="M100 510q0 119 42.5 221t115 171 169 108 202.5 39q203 0 344-123 24-21 2-49l-10-15q-21-27-50-4-123 107-286 107-185 0-312-126.5T190 510q0-200 127.5-325.5T629 59q185 0 315 119 25 25 47-4l10-14q18-24-8-47-23-21-50.5-40t-72-43-105-39T639-25l-18-98q64-9 102.5-46.5T762-262q0-79-53.5-117.5T575-418q-90 0-90 41 0 16 7.5 28.5T516-336q5 0 20-3t33-3q111 0 111 76 0 34-29 53.5T575-188q-16 2-27 14t-7 33l24 121Q364 1 232 145T100 510z"/><glyph unicode="è" horiz-adv-x="1112" d="M100 510q0 126 41 229.5T251 910t158.5 103 188.5 36q197 0 307.5-132T1016 561q0-17-10.5-26t-26.5-9H190q0-215 126.5-341T629 59q94 0 168.5 32.5T918 164q28 22 47-6l12-17q18-25-8-45-53-45-141-83T629-25q-108 0-204.5 38T256 119.5t-114 170T100 510zm97 96h729q-7 178-100 270.5T596 969q-148 0-260-95T197 606zm224.5 816q5.5 12 27.5 12h36q27 0 41-23l99-164q11-17 5-29t-26-12h-18q-26 0-43 23l-115 162q-12 19-6.5 31z"/><glyph unicode="é" horiz-adv-x="1112" d="M100 510q0 126 41 229.5T251 910t158.5 103 188.5 36q197 0 307.5-132T1016 561q0-17-10.5-26t-26.5-9H190q0-215 126.5-341T629 59q94 0 168.5 32.5T918 164q28 22 47-6l12-17q18-25-8-45-53-45-141-83T629-25q-108 0-204.5 38T256 119.5t-114 170T100 510zm97 96h729q-7 178-100 270.5T596 969q-148 0-260-95T197 606zm379 612q-7 12 4 29l98 164q14 23 41 23h37q22 0 27-12t-7-31l-114-162q-17-23-44-23h-14q-21 0-28 12z"/><glyph unicode="ê" horiz-adv-x="1112" d="M100 510q0 126 41 229.5T251 910t158.5 103 188.5 36q197 0 307.5-132T1016 561q0-17-10.5-26t-26.5-9H190q0-215 126.5-341T629 59q94 0 168.5 32.5T918 164q28 22 47-6l12-17q18-25-8-45-53-45-141-83T629-25q-108 0-204.5 38T256 119.5t-114 170T100 510zm97 96h729q-7 178-100 270.5T596 969q-148 0-260-95T197 606zm212 612q-5 12 7 31l116 162q17 23 43 23h54q26 0 43-23l116-162q12-19 7-31t-25-12h-25q-26 0-40 23l-101 141h-4l-100-141q-14-23-41-23h-23q-22 0-27 12z"/><glyph unicode="ë" horiz-adv-x="1112" d="M100 510q0 126 41 229.5T251 910t158.5 103 188.5 36q197 0 307.5-132T1016 561q0-17-10.5-26t-26.5-9H190q0-215 126.5-341T629 59q94 0 168.5 32.5T918 164q28 22 47-6l12-17q18-25-8-45-53-45-141-83T629-25q-108 0-204.5 38T256 119.5t-114 170T100 510zm97 96h729q-7 178-100 270.5T596 969q-148 0-260-95T197 606zm219 713v80q0 35 35 35h24q35 0 35-35v-80q0-35-35-35h-24q-35 0-35 35zm280 0v80q0 35 35 35h25q35 0 35-35v-80q0-35-35-35h-25q-35 0-35 35z"/><glyph unicode="ì" horiz-adv-x="430" d="M34 1422q5 12 27 12h37q27 0 41-23l99-164q11-17 5-29t-26-12h-18q-26 0-43 23L41 1391q-12 19-7 31zM172 35v954q0 35 35 35h16q35 0 35-35V35q0-35-35-35h-16q-35 0-35 35z"/><glyph unicode="í" horiz-adv-x="430" d="M172 35v954q0 35 35 35h16q35 0 35-35V35q0-35-35-35h-16q-35 0-35 35zm19 1183q-7 12 4 29l98 164q14 23 41 23h37q22 0 27-12t-7-31l-115-162q-17-23-43-23h-14q-21 0-28 12z"/><glyph unicode="î" horiz-adv-x="430" d="M24 1218q-5 12 7 31l116 162q17 23 43 23h54q26 0 43-23l116-162q12-19 7-31t-25-12h-25q-27 0-41 23l-100 141h-4l-100-141q-14-23-41-23H51q-22 0-27 12zM172 35v954q0 35 35 35h16q35 0 35-35V35q0-35-35-35h-16q-35 0-35 35z"/><glyph unicode="ï" horiz-adv-x="430" d="M31 1319v80q0 35 35 35h24q35 0 35-35v-80q0-35-35-35H66q-35 0-35 35zM172 35v954q0 35 35 35h16q35 0 35-35V35q0-35-35-35h-16q-35 0-35 35zm139 1284v80q0 35 35 35h25q35 0 35-35v-80q0-35-35-35h-25q-35 0-35 35z"/><glyph unicode="ð" horiz-adv-x="1183" d="M102 471q0 94 31.5 180t91 155.5 156 110.5T596 958q63 0 120.5-14t94.5-34 64.5-39.5T916 837l12-14h4q-74 230-281 375l-321-149q-31-12-45 16l-6 14q-15 30 16 45l268 125q-110 60-278 109-34 9-25 43l4 10q9 34 43 25 210-58 352-144l222 105q34 13 45-19l6-12q13-33-17-45l-176-82q146-111 233-283t87-403q0-84-18-165t-58-156-96.5-132-140-91T563-25q-107 0-196 42.5T221 130t-88 158.5T102 471zm91 0q0-79 25.5-153t72-132.5T409 92t158-35q81 0 149 29.5T830 164t78 111.5 46.5 130T969 539q0 148-104 243t-271 95q-99 0-177.5-35t-126-93T218 619.5 193 471z"/><glyph unicode="ñ" horiz-adv-x="1183" d="M172 35v954q0 35 35 35h16q35 0 35-35V844q0-21-2-42t-4-32l-2-10h4q12 32 34 67.5t60.5 75.5 86 72 114 53 139.5 21q97 0 164.5-27.5T957 939t53-124.5 16-165.5V35q0-35-35-35h-16q-35 0-35 35v583q0 61-4 105t-19 93-41 79-74 50-114 20q-177 0-303.5-130.5T258 510V35q0-35-35-35h-16q-35 0-35 35zm158 1222q0 79 46.5 128t121.5 49q38 0 69.5-15.5t53.5-38 41.5-45 43.5-38 50-15.5q40 0 61 34t21 79q0 32 36 32h13q31 0 31-36 0-86-45.5-135.5T750 1206q-38 0-69.5 15.5t-53.5 38-41.5 45-43.5 38-50 15.5q-40 0-61-33t-21-80q0-15-10-24t-27-9h-13q-30 0-30 45z"/><glyph unicode="ò" horiz-adv-x="1253" d="M96 518q0 147 71 269t193 192 267 70 266.5-70T1086 787t71-269q0-150-71-275T893.5 46.5 627-25q-108 0-206 42.5T251.5 132 138 305 96 518zm90 0q0-194 128.5-326.5T627 59t312 132.5T1067 518q0 189-128 318T627 965 314.5 836 186 518zm258 904q5 12 27 12h37q27 0 41-23l98-164q11-17 5.5-29t-25.5-12h-19q-26 0-43 23l-114 162q-12 19-7 31z"/><glyph unicode="ó" horiz-adv-x="1253" d="M96 518q0 147 71 269t193 192 267 70 266.5-70T1086 787t71-269q0-150-71-275T893.5 46.5 627-25q-108 0-206 42.5T251.5 132 138 305 96 518zm90 0q0-194 128.5-326.5T627 59t312 132.5T1067 518q0 189-128 318T627 965 314.5 836 186 518zm414 700q-7 12 4 29l98 164q14 23 41 23h37q22 0 27.5-12t-6.5-31l-115-162q-17-23-43-23h-14q-22 0-29 12z"/><glyph unicode="ô" horiz-adv-x="1253" d="M96 518q0 147 71 269t193 192 267 70 266.5-70T1086 787t71-269q0-150-71-275T893.5 46.5 627-25q-108 0-206 42.5T251.5 132 138 305 96 518zm90 0q0-194 128.5-326.5T627 59t312 132.5T1067 518q0 189-128 318T627 965 314.5 836 186 518zm247.5 700q-5.5 12 6.5 31l117 162q17 23 43 23h53q26 0 43-23l117-162q12-19 7-31t-25-12h-25q-27 0-41 23l-100 141h-4l-101-141q-14-23-41-23h-22q-22 0-27.5 12z"/><glyph unicode="õ" horiz-adv-x="1253" d="M96 518q0 147 71 269t193 192 267 70 266.5-70T1086 787t71-269q0-150-71-275T893.5 46.5 627-25q-108 0-206 42.5T251.5 132 138 305 96 518zm90 0q0-194 128.5-326.5T627 59t312 132.5T1067 518q0 189-128 318T627 965 314.5 836 186 518zm148 739q0 79 46.5 128t121.5 49q38 0 69.5-15.5t53.5-38 41.5-45 43.5-38 50-15.5q40 0 61 34t21 79q0 32 37 32h12q31 0 31-36 0-86-45.5-135.5T754 1206q-38 0-69.5 15.5t-53.5 38-41.5 45-43.5 38-50 15.5q-40 0-61-33t-21-80q0-15-10-24t-27-9h-12q-31 0-31 45z"/><glyph unicode="ö" horiz-adv-x="1253" d="M96 518q0 147 71 269t193 192 267 70 266.5-70T1086 787t71-269q0-150-71-275T893.5 46.5 627-25q-108 0-206 42.5T251.5 132 138 305 96 518zm90 0q0-194 128.5-326.5T627 59t312 132.5T1067 518q0 189-128 318T627 965 314.5 836 186 518zm254 801v80q0 35 35 35h25q35 0 35-35v-80q0-35-35-35h-25q-35 0-35 35zm281 0v80q0 35 35 35h24q35 0 35-35v-80q0-35-35-35h-24q-35 0-35 35z"/><glyph unicode="÷" d="M127 573v13q0 35 35 35h905q35 0 35-35v-13q0-34-35-34H162q-35 0-35 34zm428-383v52q0 34 35 34h47q35 0 35-34v-52q0-34-35-34h-47q-35 0-35 34zm0 728v51q0 35 35 35h47q35 0 35-35v-51q0-35-35-35h-47q-35 0-35 35z"/><glyph unicode="ø" horiz-adv-x="1255" d="M98 518q0 147 71 269t193 192 267 70q153 0 282-80l58 80q18 28 57 2 36-26 12-54l-57-82q84-74 131-176.5t47-220.5q0-150-71-275T895.5 46.5 629-25q-148 0-267 72l-55-78q-19-28-55-2-35 28-14 56l53 75q-91 75-142 184T98 518zm90 0q0-105 40.5-195T340 168l522 731q-109 66-233 66-184 0-312.5-129T188 518zm224-401q99-58 217-58 184 0 312 132.5T1069 518q0 97-36.5 181T930 844z"/><glyph unicode="ù" horiz-adv-x="1173" d="M158 375v614q0 35 35 35h16q35 0 35-35V406q0-61 4-105t19-93 41-79 74-50 114-20q124 0 221 66.5t147.5 172T915 524v465q0 35 35 35h17q34 0 34-35V35q0-35-34-35h-17q-35 0-35 35v145q0 21 2.5 42t4.5 32l2 10h-4q-12-32-33.5-67.5T827 121t-84-72T632-4 496-25q-183 0-260.5 98.5T158 375zm241 1047q5 12 27 12h37q27 0 41-23l98-164q11-17 5.5-29t-25.5-12h-19q-26 0-43 23l-114 162q-12 19-7 31z"/><glyph unicode="ú" horiz-adv-x="1173" d="M158 375v614q0 35 35 35h16q35 0 35-35V406q0-61 4-105t19-93 41-79 74-50 114-20q124 0 221 66.5t147.5 172T915 524v465q0 35 35 35h17q34 0 34-35V35q0-35-34-35h-17q-35 0-35 35v145q0 21 2.5 42t4.5 32l2 10h-4q-12-32-33.5-67.5T827 121t-84-72T632-4 496-25q-183 0-260.5 98.5T158 375zm395 843q-7 12 4 29l98 164q14 23 41 23h37q22 0 27.5-12t-6.5-31l-115-162q-17-23-43-23h-14q-22 0-29 12z"/><glyph unicode="û" horiz-adv-x="1173" d="M158 375v614q0 35 35 35h16q35 0 35-35V406q0-61 4-105t19-93 41-79 74-50 114-20q124 0 221 66.5t147.5 172T915 524v465q0 35 35 35h17q34 0 34-35V35q0-35-34-35h-17q-35 0-35 35v145q0 21 2.5 42t4.5 32l2 10h-4q-12-32-33.5-67.5T827 121t-84-72T632-4 496-25q-183 0-260.5 98.5T158 375zm228.5 843q-5.5 12 6.5 31l117 162q17 23 43 23h53q26 0 43-23l117-162q12-19 7-31t-25-12h-25q-27 0-41 23l-100 141h-4l-101-141q-14-23-41-23h-22q-22 0-27.5 12z"/><glyph unicode="ü" horiz-adv-x="1173" d="M158 375v614q0 35 35 35h16q35 0 35-35V406q0-61 4-105t19-93 41-79 74-50 114-20q124 0 221 66.5t147.5 172T915 524v465q0 35 35 35h17q34 0 34-35V35q0-35-34-35h-17q-35 0-35 35v145q0 21 2.5 42t4.5 32l2 10h-4q-12-32-33.5-67.5T827 121t-84-72T632-4 496-25q-183 0-260.5 98.5T158 375zm235 944v80q0 35 35 35h25q34 0 34-35v-80q0-35-34-35h-25q-35 0-35 35zm281 0v80q0 35 35 35h24q35 0 35-35v-80q0-35-35-35h-24q-35 0-35 35z"/><glyph unicode="ý" horiz-adv-x="985" d="M18-370q-4 14 2 24l9 14q16 29 47 15 3-1 13-6l15-7.5 15-6.5 17.5-6 17.5-3.5 20-1.5q124 0 203 184L449 6 41 983q-7 19 .5 30t26.5 11h20q27 0 39-27l328-790 37-96h4q14 47 34 96l328 790q12 27 39 27h21q19 0 26-11t0-30L436-233q-37-87-104-142t-158-55q-68 0-139 39-13 7-17 21zm449 1588q-7 12 4 29l98 164q14 23 41 23h37q22 0 27.5-12t-6.5-31l-115-162q-17-23-43-23h-14q-22 0-29 12z"/><glyph unicode="þ" horiz-adv-x="1171" d="M174-375v1774q0 35 35 35h16q35 0 35-35V911l-2-82h4q3 9 10 24t36.5 52.5T375 972t104.5 53 147.5 24q203 0 322.5-148T1069 512q0-242-127.5-389.5T614-25q-74 0-138 23T374 53.5t-65.5 65T270 174l-10 23h-4q4-38 4-91v-481q0-35-35-35h-16q-35 0-35 35zm84 885q0-69 15-134.5t45-123 71.5-101 99.5-69T614 57q156 0 260.5 123T979 512q0 205-99 329T623 965q-73 0-137-26.5T370 859t-82-143-30-206z"/><glyph unicode="ÿ" horiz-adv-x="985" d="M18-370q-4 14 2 24l9 14q16 29 47 15 3-1 13-6l15-7.5 15-6.5 17.5-6 17.5-3.5 20-1.5q124 0 203 184L449 6 41 983q-7 19 .5 30t26.5 11h20q27 0 39-27l328-790 37-96h4q14 47 34 96l328 790q12 27 39 27h21q19 0 26-11t0-30L436-233q-37-87-104-142t-158-55q-68 0-139 39-13 7-17 21zm289 1689v80q0 35 35 35h25q34 0 34-35v-80q0-35-34-35h-25q-35 0-35 35zm281 0v80q0 35 35 35h24q35 0 35-35v-80q0-35-35-35h-24q-35 0-35 35z"/><glyph unicode="Œ" horiz-adv-x="1892" d="M115 717q0 154 53.5 289.5T316 1241t229 156 291 57q36 0 122.5-10t114.5-10h656q34 0 34-35v-13q0-34-34-34h-662V764h537q34 0 34-35v-12q0-35-34-35h-537V82h700q35 0 35-35V35q0-35-35-35h-692q-27 0-114.5-10T836-20q-208 0-373.5 97T206 342.5 115 717zm92 0q0-185 77.5-333.5T506 149t330-86q34 0 69.5 4.5T960 76l19 4v1274q-67 16-143 16-186 0-330-86t-221.5-234.5T207 717z"/><glyph unicode="œ" horiz-adv-x="2078" d="M98 510q0 119 42.5 221t115 171 169 108 202.5 39q157 0 286.5-82.5T1106 743h4q59 146 181.5 226t273.5 80q197 0 307-132t110-356q0-17-10-26t-26-9h-789q6-221 131-344t307-123q94 0 168.5 32.5T1884 164q30 23 49-6l9-15q19-28-7-47-53-45-141-83t-199-38q-162 0-292 82t-191 226h-4q-63-144-192.5-226T627-25q-107 0-203 38.5T255.5 120t-115 169.5T98 510zm90 0q0-200 127.5-325.5T627 59q185 0 312.5 127T1067 520q0 131-61.5 234T844 911t-217 54q-184 0-311.5-127.5T188 510zm975 96h729q-7 178-100 270.5T1563 969q-148 0-260.5-95T1163 606z"/><glyph unicode="Ÿ" horiz-adv-x="1110" d="M45 1422q7 12 29 12h24q25 0 41-23l326-543 88-161h4q45 91 88 161l326 543q16 23 41 23h24q22 0 29-12t-4-29L600 623V35q0-35-35-35h-18q-35 0-35 35v588L49 1393q-11 17-4 29zm311 227v80q0 34 35 34h25q35 0 35-34v-80q0-35-35-35h-25q-35 0-35 35zm281 0v80q0 34 35 34h24q35 0 35-34v-80q0-35-35-35h-24q-35 0-35 35z"/><glyph unicode="ˆ" horiz-adv-x="1040" d="M327 1548q-5 12 7 31l117 162q16 22 43 22h53q27 0 43-22l117-162q12-19 6.5-31t-25.5-12h-24q-27 0-41 23l-101 141h-4l-100-141q-14-23-41-23h-23q-22 0-27 12z"/><glyph unicode="˜" horiz-adv-x="1042" d="M227 1587q0 79 46.5 127.5T395 1763q38 0 69.5-15.5T518 1710t41.5-44.5 43.5-38 50-15.5q40 0 61 33.5t21 78.5q0 15 10 24t27 9h12q31 0 31-37 0-86-45.5-135T647 1536q-38 0-69.5 15.5t-53.5 38-41.5 45-43.5 38-50 15.5q-40 0-61-33t-21-80q0-15-10-24t-27-9h-12q-31 0-31 45z"/><glyph horiz-adv-x="895"/><glyph horiz-adv-x="1790"/><glyph horiz-adv-x="895"/><glyph horiz-adv-x="1790"/><glyph horiz-adv-x="596"/><glyph horiz-adv-x="447"/><glyph horiz-adv-x="298"/><glyph horiz-adv-x="298"/><glyph horiz-adv-x="223"/><glyph horiz-adv-x="358"/><glyph horiz-adv-x="99"/><glyph unicode="‐" horiz-adv-x="872" d="M154 573v13q0 35 34 35h496q35 0 35-35v-13q0-34-35-34H188q-34 0-34 34z"/><glyph unicode="‑" horiz-adv-x="872" d="M154 573v13q0 35 34 35h496q35 0 35-35v-13q0-34-35-34H188q-34 0-34 34z"/><glyph unicode="‒" horiz-adv-x="872" d="M154 573v13q0 35 34 35h496q35 0 35-35v-13q0-34-35-34H188q-34 0-34 34z"/><glyph unicode="–" horiz-adv-x="1282" d="M154 573v13q0 35 34 35h906q34 0 34-35v-13q0-34-34-34H188q-34 0-34 34z"/><glyph unicode="—" horiz-adv-x="1691" d="M154 573v13q0 35 34 35h1315q35 0 35-35v-13q0-34-35-34H188q-34 0-34 34z"/><glyph unicode="‘" horiz-adv-x="397" d="M117 1098l100 323q10 29 39 29h10q40 0 31-39l-80-321q-6-31-37-31h-35q-40 0-28 39z"/><glyph unicode="’" horiz-adv-x="393" d="M119 1098l80 321q6 31 37 31h34q41 0 29-39l-100-324q-9-28-39-28h-10q-40 0-31 39z"/><glyph unicode="‚" horiz-adv-x="442" d="M98-227l80 321q6 31 37 31h35q41 0 29-39L178-238q-9-28-39-28h-10q-37 0-31 39z"/><glyph unicode="“" horiz-adv-x="622" d="M117 1098l100 323q10 29 39 29h10q37 0 31-39l-80-321q-6-31-37-31h-35q-40 0-28 39zm225 0l100 323q10 29 39 29h11q36 0 30-39l-80-321q-6-31-36-31h-35q-41 0-29 39z"/><glyph unicode="”" horiz-adv-x="618" d="M119 1098l80 321q6 31 37 31h34q41 0 29-39l-100-324q-9-28-39-28h-10q-40 0-31 39zm225 0l80 321q6 31 37 31h35q40 0 28-39l-100-324q-9-28-39-28h-10q-40 0-31 39z"/><glyph unicode="„" horiz-adv-x="667" d="M98-227l80 321q6 31 37 31h35q41 0 29-39L178-238q-9-28-39-28h-10q-40 0-31 39zm226 0l79 321q6 31 37 31h35q41 0 29-39L403-238q-9-28-38-28h-11q-39 0-30 39z"/><glyph unicode="•" horiz-adv-x="782" d="M121 596q0 112 78.5 191T391 866t192-79 79-191-79-191-192-79-191.5 79T121 596z"/><glyph unicode="…" horiz-adv-x="1304" d="M154 35v59q0 35 34 35h56q35 0 35-35V35q0-35-35-35h-56q-34 0-34 35zm436 0v59q0 35 35 35h55q35 0 35-35V35q0-35-35-35h-55q-35 0-35 35zm436 0v59q0 35 35 35h55q35 0 35-35V35q0-35-35-35h-55q-35 0-35 35z"/><glyph horiz-adv-x="358"/><glyph unicode="‹" horiz-adv-x="626" d="M102 553q-21 25 0 49l299 377q17 20 43 20h27q23 0 29-12t-8-31L190 578l302-377q13-19 8-31t-27-12h-29q-26 0-43 20z"/><glyph unicode="›" horiz-adv-x="626" d="M129 170q-6 12 8 31l301 377-301 378q-14 19-8 31t29 12h26q26 0 43-20l299-377q21-24 0-49L227 178q-17-20-43-20h-26q-23 0-29 12z"/><glyph horiz-adv-x="447"/><glyph unicode="€" horiz-adv-x="1212" d="M92 600q0 22 7.5 31.5T127 641h76q-5 28-4.5 86.5T205 823h-78q-20 0-27.5 9.5T92 864t7.5 31.5T127 905h92q58 245 244.5 399T901 1458q76 0 148-14 36-6 26-43l-4-17q-8-32-43-26-68 14-127 14-217 0-375-128.5T313 905h633q40 0 31-45-8-37-41-37H297q-15-81-4-182h606q40 0 31-45-8-37-41-37H305q46-222 208.5-360T901 61q78 0 148 17 34 7 43-23l4-18q10-32-25-41-92-21-170-21-259 0-448.5 163.5T213 559h-86q-20 0-27.5 9.5T92 600z"/><glyph unicode="™" horiz-adv-x="1931" d="M86 1391v8q0 35 35 35h667q35 0 35-35v-8q0-35-35-35H494V575q0-34-35-34h-10q-35 0-35 34v781H121q-35 0-35 35zm823-813l68 823q3 33 35 33h10q29 0 41-27l246-526q8-18 15-38.5t10-32.5l3-11h4q11 41 29 82l246 526q12 27 41 27h10q32 0 35-33l67-823q0-37-34-37h-9q-31 0-34 32l-56 639 2 58h-4l-248-535q-12-26-40-26h-13q-29 0-41 26l-248 535h-4l2-58-55-639q-3-32-35-32h-8q-35 0-35 37z"/><glyph unicode="◼" horiz-adv-x="1024" d="M0 0v1024h1024V0H0z"/><glyph unicode="ﬁ" horiz-adv-x="1026" d="M70 981v8q0 35 34 35h95v41q0 92 24.5 163t59.5 110.5 81.5 64.5 84 33 73.5 8h19q34 0 34-35v-12q0-18-10-25.5t-33-9.5q-36-1-64-6.5t-64.5-23.5-60.5-48-41-85.5-17-131.5v-43h534q35 0 35-35V35q0-35-35-35h-16q-35 0-35 35v911H285V35q0-35-35-35h-17q-34 0-34 35v911h-95q-34 0-34 35zm690 338v80q0 35 35 35h32q35 0 35-35v-80q0-35-35-35h-32q-35 0-35 35z"/><glyph unicode="ﬂ" horiz-adv-x="1064" d="M70 975v8q0 35 34 35h95v47q0 92 24.5 163t59.5 110.5 81.5 64.5 84 33 73.5 8h19q34 0 34-35v-12q0-18-10-25.5t-33-9.5q-36-1-64-6.5t-64.5-23.5-60.5-48-41-85.5-17-131.5v-49h245q35 0 35-35v-8q0-35-35-35H285V35q0-35-35-35h-17q-34 0-34 35v905h-95q-34 0-34 35zm700-768v1192q0 35 35 35h16q35 0 35-35V236q0-41 8-71t19-46 29.5-26.5 31-13.5 31.5-5q33-4 33-33V29q0-37-37-37-22 0-44 3.5t-52 17T823 48t-37.5 63-15.5 96z"/><glyph unicode="ﬃ" horiz-adv-x="1622" d="M70 981v8q0 35 34 35h95v41q0 92 24.5 163t59.5 110.5 81.5 64.5 84 33 73.5 8h19q34 0 34-35v-12q0-18-10-25.5t-33-9.5q-36-1-64-6.5t-64.5-23.5-60.5-48-41-85.5-17-131.5v-43h510v41q0 92 24.5 163t59.5 110.5 81.5 64.5 84 33 73.5 8h19q34 0 34-35v-12q0-18-10-25.5t-33-9.5q-36-1-64-6.5t-64.5-23.5-60.5-48-41-85.5-17-131.5v-43h534q35 0 35-35V35q0-35-35-35h-16q-35 0-35 35v911H881V35q0-35-35-35h-17q-34 0-34 35v911H285V35q0-35-35-35h-17q-34 0-34 35v911h-95q-34 0-34 35zm1286 338v80q0 35 35 35h32q35 0 35-35v-80q0-35-35-35h-32q-35 0-35 35z"/><glyph unicode="ﬄ" horiz-adv-x="1662" d="M72 981v8q0 35 34 35h95v41q0 92 24.5 163t59.5 110.5 81.5 64.5 84 33 73.5 8h19q35 0 35-35v-12q0-18-10-25.5t-33-9.5q-36-1-64-6.5t-64.5-23.5-61-48-41.5-85.5-17-131.5v-43h510v41q0 92 24.5 163t59.5 110.5 81.5 64.5 84 33 73.5 8h19q35 0 35-35v-12q0-18-10.5-25.5t-33.5-9.5q-36-1-64-6.5t-64.5-23.5-60.5-48-41-85.5-17-131.5v-43h245q35 0 35-35v-8q0-35-35-35H883V35q0-35-35-35h-17q-34 0-34 35v911H287V35q0-35-35-35h-16q-35 0-35 35v911h-95q-34 0-34 35zm1296-774v1192q0 35 35 35h16q35 0 35-35V236q0-41 8-71t19-46 29.5-26.5 31-13.5 31.5-5q33-4 33-33V29q0-37-37-37-22 0-44 3.5t-52 17-52 35.5-37.5 63-15.5 96z"/></font>
</defs>
</svg>
