<svg width="1293" height="336" viewBox="0 0 1293 336" xmlns="http://www.w3.org/2000/svg" xmlns:sketch="http://www.bohemiancoding.com/sketch/ns"><title>Logo copy</title><g sketch:type="MSLayerGroup" transform="translate(-19 -20) translate(19 20)" fill="#fff"><rect sketch:type="MSShapeGroup" x="740" y="4" width="143" height="143" rx="10"/><rect sketch:type="MSShapeGroup" x="943" y="3" width="145" height="145" rx="35"/><rect sketch:type="MSShapeGroup" x="1144" width="149" height="149" rx="250"/><path d="M494.292 89l-4.51 12.391h44.114l14.892 40.626c.794 2.788 2.78 3.983 5.56 3.983h4.368c3.574 0 4.964-2.191 3.971-5.775l-48.051-130.242c-.794-2.788-2.78-3.983-5.361-3.983h-6.552c-2.581 0-4.567 1.195-5.361 3.983l-45.627 123.67h-72.044v-122.674c0-3.186-1.786-4.979-4.762-4.979h-4.167c-3.175 0-4.762 1.792-4.762 4.979v130.043c0 3.186 1.587 4.979 4.762 4.979h86.888c2.78 0 4.765-1.195 5.56-3.983l14.693-40.626h.093l-.054-.012 3.987-12.879.302-.13 18.413-50.076c2.182-6.562 5.355-18.294 5.355-18.294h.397s2.975 11.732 5.157 18.294l18.446 50.706h-35.708z" sketch:type="MSShapeGroup"/><path d="M613 6h20.582c22.007 0 37.867 13.343 37.867 35.249 0 14.538-7.137 25.092-17.843 30.868 14.275 3.983 23.394 17.724 23.394 34.651 0 24.893-18.438 39.232-41.832 39.232h-44.41c-3.172 0-4.758-1.792-4.758-4.979v-130.043c0-3.186 1.586-4.979 4.758-4.979h8.992v128h35.91c16.84 0 27.34-10.562 27.34-27.301 0-16.739-11.292-27.699-27.538-27.699h-22.462v-13h21.2c14.2 0 23.8-9.877 23.8-24.296 0-14.222-9-23.704-24-23.704h-21v-12zM225.75 146h-8.992c-3.172 0-4.758-1.792-4.758-4.979v-130.043c0-3.186 1.586-4.979 4.758-4.979h42.824c22.007 0 37.867 13.343 37.867 35.249 0 14.538-7.137 25.092-17.843 30.868 14.275 3.983 23.394 17.724 23.394 34.651 0 24.893-18.438 39.232-41.832 39.232h-22.168v-12h22.66c16.84 0 27.34-10.562 27.34-27.301 0-16.739-11.292-27.699-27.538-27.699h-22.462v-13h21.2c14.2 0 23.8-9.877 23.8-24.296 0-14.222-9-23.704-24-23.704h-34v.73h-.25v127.27zM147.136 101.391h-43.233l-14.693 40.626c-.794 2.788-2.78 3.983-5.56 3.983h-4.17c-3.773 0-5.163-2.191-4.17-5.775l48.051-130.242c.794-2.788 2.78-3.983 5.361-3.983h6.552c2.581 0 4.567 1.195 5.361 3.983l48.051 130.242c.993 3.585-.397 5.775-3.971 5.775h-4.368c-1.769 0-3.217-.484-4.24-1.554l-20.181-55.446h.072l-18.446-50.706c-2.182-6.562-5.157-18.294-5.157-18.294h-.397s-3.174 11.732-5.355 18.294l-18.645 50.706h34.626l4.51 12.391zM4.735 146h4.143c2.959 0 4.735-1.792 4.735-4.979v-57.752h46.168c3.157 0 4.735-1.792 4.735-4.979v-2.589c0-3.186-1.578-4.78-4.735-4.78h-46.168v-52.575h54.454c3.157 0 4.932-1.792 4.932-4.979v-2.39c0-3.186-1.776-4.979-4.932-4.979h-63.332c-3.157 0-4.735 1.792-4.735 4.979v130.043c0 3.186 1.578 4.979 4.735 4.979zM463.382 333h68.236c2.188 0 3.382-1.2 3.382-3.4v-1.2c0-2.2-1.194-3.4-3.382-3.4h-63.064v-128.6c0-2.2-1.194-3.4-3.382-3.4h-1.79c-2.188 0-3.382 1.2-3.382 3.4v133.2c0 2.2 1.194 3.4 3.382 3.4zM561.558 333h1.884c2.302 0 3.558-1.2 3.558-3.4v-133.2c0-2.2-1.256-3.4-3.558-3.4h-1.884c-2.302 0-3.558 1.2-3.558 3.4v133.2c0 2.2 1.256 3.4 3.558 3.4zM606.39 333h1.795c1.994 0 3.19-1.2 3.39-3.2l8.375-103.6c.598-6.8.598-19 .598-19 .399 0 4.786 12.4 7.777 19l36.092 77.2c.798 1.8 1.994 2.6 3.988 2.6h3.19c1.994 0 3.19-.8 3.988-2.6l36.292-77.2c3.19-6.8 7.179-18.6 7.179-18.6.399 0 .399 11.8.997 18.6l8.375 103.6c.199 2 1.396 3.2 3.39 3.2h1.795c2.393 0 3.39-1.2 3.39-3.6l-10.768-133.2c-.199-2-1.396-3.2-3.39-3.2h-2.393c-1.994 0-3.19.8-3.988 2.6l-39.482 85.4c-3.19 6.8-6.78 15.8-6.78 15.8-.399 0-3.988-9-7.179-15.8l-39.482-85.4c-.798-1.8-1.994-2.6-3.988-2.6h-2.393c-1.994 0-3.19 1.2-3.39 3.2l-10.768 133.2c0 2.4.997 3.6 3.39 3.6zM777.383 333h73.234c2.189 0 3.383-1.2 3.383-3.4v-1.2c0-2.2-1.194-3.4-3.383-3.4h-68.06v-58.6h52.139c2.189 0 3.383-1.2 3.383-3.4v-1.2c0-2.2-1.194-3.4-3.383-3.4h-52.139v-57.4h64.279c2.189 0 3.383-1.2 3.383-3.4v-1.2c0-2.2-1.194-3.4-3.383-3.4h-69.453c-2.189 0-3.383 1.2-3.383 3.4v133.2c0 2.2 1.194 3.4 3.383 3.4zM884 201v-4.6c0-2.2 1.193-3.4 3.381-3.4h37.391c12.928 0 19.491 1.4 25.06 4.2 11.535 5.8 19.292 17.6 19.292 33.6 0 20-11.535 35-27.844 39 0 0 1.392 1.6 3.182 5l29.037 54.2c1.193 2.4.199 4-2.387 4h-2.784c-1.989 0-3.182-.8-3.978-2.4l-31.822-59.6h-39.976v58.6c0 2.2-1.193 3.4-3.381 3.4h-1.79c-2.188 0-3.381-1.2-3.381-3.4v-115.6h9v49h38c18.4 0 30-13.2 30-32.2 0-12.4-6.2-22.4-16.4-27-4-1.8-8.4-2.8-19.6-2.8h-41zM1007.558 333h1.884c2.302 0 3.558-1.2 3.558-3.4v-133.2c0-2.2-1.256-3.4-3.558-3.4h-1.884c-2.302 0-3.558 1.2-3.558 3.4v133.2c0 2.2 1.256 3.4 3.558 3.4zM1115.3 336c27.039 0 44.463-13.419 50.472-18.826 1.602-1.602 1.602-3.204.2-4.807l-.801-1.001c-1.602-1.602-3.205-1.602-4.807-.2-6.009 5.007-21.631 16.623-45.064 16.623-36.452 0-61.287-28.84-61.287-65.29 0-36.25 25.036-63.287 60.686-63.287 21.631 0 36.252 9.413 42.06 13.619 1.803 1.402 3.405 1.202 4.807-.401l1.001-1.202c1.202-1.802 1.202-3.405-.401-4.807-5.808-4.807-21.831-15.421-47.668-15.421-40.658 0-69.499 30.843-69.499 71.499 0 40.656 28.24 73.501 70.3 73.501zM1200.401 333h1.801c2.201 0 3.401-1.2 3.401-3.4v-66.2h26.011l41.418 67.4c1 1.6 2.201 2.2 4.002 2.2h3.001c2.801 0 3.802-1.8 2.201-4l-43.218-69.6 40.417-62.2c1.401-2.4.4-4.2-2.401-4.2h-2.801c-1.801 0-3.001.6-4.002 2.2l-38.616 60.2h-26.011v-59c0-2.2-1.201-3.4-3.401-3.4h-1.801c-2.201 0-3.401 1.2-3.401 3.4v133.2c0 2.2 1.201 3.4 3.401 3.4z" sketch:type="MSShapeGroup"/></g></svg>