<svg width="1293" height="336" viewBox="0 0 1293 336" xmlns="http://www.w3.org/2000/svg"><title>Logo copy</title><g transform="translate(-19 -20) translate(19 20)" fill="#fff"><rect x="740" y="4" width="143" height="143" rx="10"/><rect x="943" y="3" width="145" height="145" rx="35"/><rect x="1144" width="149" height="149" rx="250"/><path d="M494.292 89l-4.51 12.39h44.115l14.892 40.627c.793 2.788 2.78 3.983 5.558 3.983h4.37c3.573 0 4.963-2.19 3.97-5.775L514.636 9.983c-.794-2.788-2.78-3.983-5.36-3.983h-6.553c-2.58 0-4.567 1.195-5.36 3.983l-45.628 123.67H379.69V10.98c0-3.188-1.785-4.98-4.76-4.98h-4.168C367.587 6 366 7.792 366 10.98v130.04c0 3.188 1.587 4.98 4.762 4.98h86.888c2.78 0 4.765-1.195 5.56-3.983l14.693-40.626h.093l-.054-.01 3.987-12.88.302-.13 18.413-50.076C502.825 31.732 506 20 506 20h.397s2.975 11.732 5.157 18.294L530 89h-35.708z"/><path d="M613 6h20.582c22.006 0 37.867 13.343 37.867 35.25 0 14.537-7.138 25.09-17.844 30.867C667.88 76.1 677 89.84 677 106.767 677 131.662 658.562 146 635.168 146h-44.41c-3.172 0-4.758-1.792-4.758-4.98V10.98C586 7.79 587.586 6 590.758 6h8.992v128h35.91c16.84 0 27.34-10.562 27.34-27.3 0-16.74-11.292-27.7-27.538-27.7H613V66h21.2c14.2 0 23.8-9.877 23.8-24.296C658 27.48 649 18 634 18h-21V6zM225.75 146h-8.992c-3.172 0-4.758-1.792-4.758-4.98V10.98C212 7.79 213.586 6 216.758 6h42.824c22.006 0 37.867 13.343 37.867 35.25 0 14.537-7.138 25.09-17.844 30.867C293.88 76.1 303 89.84 303 106.767 303 131.662 284.562 146 261.168 146H239v-12h22.66c16.84 0 27.34-10.562 27.34-27.3 0-16.74-11.292-27.7-27.538-27.7H239V66h21.2c14.2 0 23.8-9.877 23.8-24.296C284 27.48 275 18 260 18h-34v.73h-.25V146zM147.136 101.39h-43.233L89.21 142.018c-.795 2.788-2.78 3.983-5.56 3.983h-4.17c-3.773 0-5.163-2.19-4.17-5.775L123.362 9.983c.794-2.788 2.78-3.983 5.36-3.983h6.553c2.582 0 4.567 1.195 5.36 3.983l48.053 130.242c.993 3.584-.397 5.775-3.97 5.775h-4.37c-1.77 0-3.216-.484-4.24-1.554L155.93 89H156l-18.446-50.706C135.372 31.732 132.397 20 132.397 20H132s-3.174 11.732-5.355 18.294L108 89h34.626l4.51 12.39zM4.735 146h4.143c2.96 0 4.736-1.792 4.736-4.98V83.27H59.78c3.158 0 4.736-1.793 4.736-4.98V75.7c0-3.185-1.578-4.778-4.735-4.778H13.615V18.347h54.454c3.156 0 4.932-1.792 4.932-4.98V10.98C73 7.79 71.224 6 68.068 6H4.735C1.578 6 0 7.792 0 10.98v130.04C0 144.21 1.578 146 4.735 146zM463.382 333h68.236c2.188 0 3.382-1.2 3.382-3.4v-1.2c0-2.2-1.194-3.4-3.382-3.4h-63.064V196.4c0-2.2-1.193-3.4-3.382-3.4h-1.79c-2.188 0-3.382 1.2-3.382 3.4v133.2c0 2.2 1.194 3.4 3.382 3.4zM561.558 333h1.884c2.302 0 3.558-1.2 3.558-3.4V196.4c0-2.2-1.256-3.4-3.558-3.4h-1.884c-2.302 0-3.558 1.2-3.558 3.4v133.2c0 2.2 1.256 3.4 3.558 3.4zM606.39 333h1.795c1.994 0 3.19-1.2 3.39-3.2l8.374-103.6c.598-6.8.598-19 .598-19 .398 0 4.785 12.4 7.776 19l36.093 77.2c.797 1.8 1.994 2.6 3.988 2.6h3.19c1.994 0 3.19-.8 3.988-2.6l36.292-77.2c3.19-6.8 7.18-18.6 7.18-18.6.397 0 .397 11.8.996 18.6l8.376 103.6c.2 2 1.395 3.2 3.39 3.2h1.794c2.393 0 3.39-1.2 3.39-3.6l-10.768-133.2c-.2-2-1.396-3.2-3.39-3.2h-2.393c-1.995 0-3.19.8-3.99 2.6L676.98 281c-3.19 6.8-6.78 15.8-6.78 15.8-.4 0-3.99-9-7.18-15.8l-39.48-85.4c-.8-1.8-1.995-2.6-3.99-2.6h-2.392c-1.994 0-3.19 1.2-3.39 3.2L603 329.4c0 2.4.997 3.6 3.39 3.6zM777.383 333h73.234c2.19 0 3.383-1.2 3.383-3.4v-1.2c0-2.2-1.194-3.4-3.383-3.4h-68.06v-58.6h52.14c2.19 0 3.383-1.2 3.383-3.4v-1.2c0-2.2-1.194-3.4-3.383-3.4h-52.14V201h64.28c2.188 0 3.382-1.2 3.382-3.4v-1.2c0-2.2-1.195-3.4-3.384-3.4h-69.453c-2.19 0-3.383 1.2-3.383 3.4v133.2c0 2.2 1.194 3.4 3.383 3.4zM884 201v-4.6c0-2.2 1.193-3.4 3.38-3.4h37.392c12.927 0 19.49 1.4 25.06 4.2 11.535 5.8 19.29 17.6 19.29 33.6 0 20-11.534 35-27.843 39 0 0 1.392 1.6 3.182 5L973.5 329c1.192 2.4.198 4-2.388 4h-2.784c-1.99 0-3.182-.8-3.978-2.4L932.528 271h-39.976v58.6c0 2.2-1.193 3.4-3.38 3.4h-1.79c-2.19 0-3.382-1.2-3.382-3.4V214h9v49h38c18.4 0 30-13.2 30-32.2 0-12.4-6.2-22.4-16.4-27-4-1.8-8.4-2.8-19.6-2.8h-41zM1007.558 333h1.884c2.302 0 3.558-1.2 3.558-3.4V196.4c0-2.2-1.256-3.4-3.558-3.4h-1.884c-2.302 0-3.558 1.2-3.558 3.4v133.2c0 2.2 1.256 3.4 3.558 3.4zM1115.3 336c27.04 0 44.463-13.42 50.472-18.826 1.602-1.602 1.602-3.204.2-4.807l-.8-1c-1.603-1.603-3.205-1.603-4.808-.2-6.008 5.006-21.63 16.622-45.064 16.622-36.452 0-61.287-28.84-61.287-65.29 0-36.25 25.035-63.29 60.686-63.29 21.63 0 36.25 9.414 42.06 13.62 1.802 1.402 3.404 1.202 4.806-.4l1-1.202c1.203-1.803 1.203-3.405-.4-4.807-5.807-4.805-21.83-15.42-47.667-15.42-40.66 0-69.5 30.843-69.5 71.5 0 40.655 28.24 73.5 70.3 73.5zM1200.4 333h1.802c2.2 0 3.402-1.2 3.402-3.4v-66.2h26.01l41.418 67.4c1 1.6 2.2 2.2 4.002 2.2h3c2.802 0 3.803-1.8 2.202-4l-43.218-69.6 40.417-62.2c1.4-2.4.4-4.2-2.4-4.2h-2.802c-1.8 0-3.002.6-4.002 2.2l-38.615 60.2h-26.01v-59c0-2.2-1.202-3.4-3.403-3.4h-1.8c-2.2 0-3.402 1.2-3.402 3.4v133.2c0 2.2 1.2 3.4 3.4 3.4z"/></g></svg>