<?xml version="1.0" encoding="UTF-8" standalone="no"?>
<svg width="1293px" height="336px" viewBox="0 0 1293 336" version="1.1" xmlns="http://www.w3.org/2000/svg" xmlns:xlink="http://www.w3.org/1999/xlink" xmlns:sketch="http://www.bohemiancoding.com/sketch/ns">
    <title>Logo copy</title>
    <description>Created with Sketch (http://www.bohemiancoding.com/sketch)</description>
    <defs></defs>
    <g id="Logos-Final" stroke="none" stroke-width="1" fill="none" fill-rule="evenodd" sketch:type="MSPage">
        <g id="Logo-copy" sketch:type="MSArtboardGroup" transform="translate(-19.000000, -20.000000)" fill="#FFFFFF">
            <g id="Group" sketch:type="MSLayerGroup" transform="translate(19.000000, 20.000000)">
                <rect id="Rectangle-1" sketch:type="MSShapeGroup" x="740" y="4" width="143" height="143" rx="10"></rect>
                <rect id="Rectangle-1-copy" sketch:type="MSShapeGroup" x="943" y="3" width="145" height="145" rx="35"></rect>
                <rect id="Rectangle-1-copy-2" sketch:type="MSShapeGroup" x="1144" y="0" width="149" height="149" rx="250"></rect>
                <path d="M494.292384,89 L489.782364,101.391181 L533.896751,101.391181 L548.788741,142.01707 C549.58298,144.805121 551.568579,146 554.348417,146 L558.716734,146 C562.290811,146 563.68073,143.809388 562.687931,140.224751 L514.636444,9.9829303 C513.842205,7.19487909 511.856606,6 509.275328,6 L502.722853,6 C500.141574,6 498.155976,7.19487909 497.361736,9.9829303 L451.734865,133.652918 L379.690944,133.652916 L379.690944,10.9786629 C379.690944,7.79231863 377.905169,6 374.928876,6 L370.762067,6 C367.587356,6 366,7.79231863 366,10.9786629 L366,141.021337 C366,144.207681 367.587356,146 370.762067,146 L454.919853,146 L457.649764,146 C460.429602,146 462.415201,144.805121 463.20944,142.01707 L477.90287,101.391181 L477.996068,101.391181 L477.996068,101.391181 L477.942383,101.379395 L481.9292,88.4999991 L482.231628,88.3700628 L500.644628,38.2939481 C502.826446,31.7319885 506,20 506,20 L506.396694,20 C506.396694,20 509.371901,31.7319885 511.553719,38.2939481 L530,89 L494.292384,89 Z" id="LIMERICK" sketch:type="MSShapeGroup"></path>
                <path d="M613,6 L633.581699,6 C655.588235,6 671.448802,19.3428165 671.448802,41.2489331 C671.448802,55.7866287 664.311547,66.341394 653.605664,72.116643 C667.880174,76.0995733 677,89.8406828 677,106.768137 C677,131.661451 658.562092,146 635.167756,146 L590.75817,146 C587.586057,146 586,144.207681 586,141.021337 L586,10.9786629 C586,7.79231863 587.586057,6 590.75817,6 L599.75,6 L599.75,134 L606.5,134 L635.660377,134 C652.5,134 663,123.438406 663,106.699275 C663,89.9601449 651.707547,79 635.462264,79 L613,79 L613,66 L634.2,66 C648.4,66 658,56.1234568 658,41.7037037 C658,27.4814815 649,18 634,18 L613,18 L613,6 Z" id="Path" sketch:type="MSShapeGroup"></path>
                <path d="M225.75,146 L216.75817,146 C213.586057,146 212,144.207681 212,141.021337 L212,10.9786629 C212,7.79231863 213.586057,6 216.75817,6 L259.581699,6 C281.588235,6 297.448802,19.3428165 297.448802,41.2489331 C297.448802,55.7866287 290.311547,66.341394 279.605664,72.116643 C293.880174,76.0995733 303,89.8406828 303,106.768137 C303,131.661451 284.562092,146 261.167756,146 L239,146 L239,134 L261.660377,134 C278.5,134 289,123.438406 289,106.699275 C289,89.9601449 277.707547,79 261.462264,79 L239,79 L239,66 L260.2,66 C274.4,66 284,56.1234568 284,41.7037037 C284,27.4814815 275,18 260,18 L226,18 L226,18.73 L225.75,18.73 L225.75,146 Z" id="Path" sketch:type="MSShapeGroup"></path>
                <path d="M147.135789,101.391181 L103.90287,101.391181 L89.2094401,142.01707 C88.4152007,144.805121 86.4296021,146 83.649764,146 L79.4800069,146 C75.7073695,146 74.3174505,143.809388 75.3102498,140.224751 L123.361736,9.9829303 C124.155976,7.19487909 126.141574,6 128.722853,6 L135.275328,6 C137.856606,6 139.842205,7.19487909 140.636444,9.9829303 L188.687931,140.224751 C189.68073,143.809388 188.290811,146 184.716734,146 L180.348417,146 C178.579328,146 177.13191,145.516068 176.108518,144.445546 L155.92799,89 L156,89 L137.553719,38.2939481 C135.371901,31.7319885 132.396694,20 132.396694,20 L132,20 C132,20 128.826446,31.7319885 126.644628,38.2939481 L108,89 L142.625768,89 L147.135789,101.391181 Z" id="Path" sketch:type="MSShapeGroup"></path>
                <path d="M4.73513514,146 L8.87837838,146 C11.8378378,146 13.6135135,144.207681 13.6135135,141.021337 L13.6135135,83.2688478 L59.7810811,83.2688478 C62.9378378,83.2688478 64.5162162,81.4765292 64.5162162,78.2901849 L64.5162162,75.7012802 C64.5162162,72.514936 62.9378378,70.9217639 59.7810811,70.9217639 L13.6135135,70.9217639 L13.6135135,18.3470839 L68.0675676,18.3470839 C71.2243243,18.3470839 73,16.5547653 73,13.3684211 L73,10.9786629 C73,7.79231863 71.2243243,6 68.0675676,6 L4.73513514,6 C1.57837838,6 0,7.79231863 0,10.9786629 L0,141.021337 C0,144.207681 1.57837838,146 4.73513514,146 Z" id="Path" sketch:type="MSShapeGroup"></path>
                <path d="M463.381963,333 L531.618037,333 C533.806366,333 535,331.8 535,329.6 L535,328.4 C535,326.2 533.806366,325 531.618037,325 L468.554377,325 L468.554377,196.4 C468.554377,194.2 467.360743,193 465.172414,193 L463.381963,193 C461.193634,193 460,194.2 460,196.4 L460,329.6 C460,331.8 461.193634,333 463.381963,333 Z" id="Path" sketch:type="MSShapeGroup"></path>
                <path d="M561.55814,333 L563.44186,333 C565.744186,333 567,331.8 567,329.6 L567,196.4 C567,194.2 565.744186,193 563.44186,193 L561.55814,193 C559.255814,193 558,194.2 558,196.4 L558,329.6 C558,331.8 559.255814,333 561.55814,333 Z" id="Path" sketch:type="MSShapeGroup"></path>
                <path d="M606.389881,333 L608.184524,333 C610.178571,333 611.375,331.8 611.574405,329.8 L619.949405,226.2 C620.547619,219.4 620.547619,207.2 620.547619,207.2 C620.946429,207.2 625.333333,219.6 628.324405,226.2 L664.416667,303.4 C665.214286,305.2 666.410714,306 668.404762,306 L671.595238,306 C673.589286,306 674.785714,305.2 675.583333,303.4 L711.875,226.2 C715.065476,219.4 719.053571,207.6 719.053571,207.6 C719.452381,207.6 719.452381,219.4 720.050595,226.2 L728.425595,329.8 C728.625,331.8 729.821429,333 731.815476,333 L733.610119,333 C736.002976,333 737,331.8 737,329.4 L726.232143,196.2 C726.032738,194.2 724.83631,193 722.842262,193 L720.449405,193 C718.455357,193 717.258929,193.8 716.46131,195.6 L676.979167,281 C673.78869,287.8 670.199405,296.8 670.199405,296.8 C669.800595,296.8 666.21131,287.8 663.020833,281 L623.53869,195.6 C622.741071,193.8 621.544643,193 619.550595,193 L617.157738,193 C615.16369,193 613.967262,194.2 613.767857,196.2 L603,329.4 C603,331.8 603.997024,333 606.389881,333 Z" id="Path" sketch:type="MSShapeGroup"></path>
                <path d="M777.383085,333 L850.616915,333 C852.80597,333 854,331.8 854,329.6 L854,328.4 C854,326.2 852.80597,325 850.616915,325 L782.557214,325 L782.557214,266.4 L834.696517,266.4 C836.885572,266.4 838.079602,265.2 838.079602,263 L838.079602,261.8 C838.079602,259.6 836.885572,258.4 834.696517,258.4 L782.557214,258.4 L782.557214,201 L846.835821,201 C849.024876,201 850.218905,199.8 850.218905,197.6 L850.218905,196.4 C850.218905,194.2 849.024876,193 846.835821,193 L777.383085,193 C775.19403,193 774,194.2 774,196.4 L774,329.6 C774,331.8 775.19403,333 777.383085,333 Z" id="Path" sketch:type="MSShapeGroup"></path>
                <path d="M884,201 L884,196.4 C884,194.2 885.19332,193 887.381073,193 L924.771762,193 C937.699394,193 944.262653,194.4 949.831479,197.2 C961.366905,203 969.123484,214.8 969.123484,230.8 C969.123484,250.8 957.588058,265.8 941.279354,269.8 C941.279354,269.8 942.67156,271.4 944.46154,274.8 L973.49899,329 C974.69231,331.4 973.697877,333 971.11235,333 L968.327937,333 C966.339071,333 965.145751,332.2 964.350204,330.6 L932.528341,271 L892.552126,271 L892.552126,329.6 C892.552126,331.8 891.358806,333 889.171053,333 L887.381073,333 C885.19332,333 884,331.8 884,329.6 L884,214 L893,214 L893,263 L931,263 C949.4,263 961,249.8 961,230.8 C961,218.4 954.8,208.4 944.6,203.8 C940.6,202 936.2,201 925,201 L906,201 L884,201 Z" id="Path" sketch:type="MSShapeGroup"></path>
                <path d="M1007.55814,333 L1009.44186,333 C1011.74419,333 1013,331.8 1013,329.6 L1013,196.4 C1013,194.2 1011.74419,193 1009.44186,193 L1007.55814,193 C1005.25581,193 1004,194.2 1004,196.4 L1004,329.6 C1004,331.8 1005.25581,333 1007.55814,333 Z" id="Path" sketch:type="MSShapeGroup"></path>
                <path d="M1115.30012,336 C1142.33863,336 1159.76344,322.581492 1165.772,317.174033 C1167.37428,315.571823 1167.37428,313.969613 1165.97229,312.367403 L1165.17114,311.366022 C1163.56886,309.763812 1161.96658,309.763812 1160.3643,311.165746 C1154.35574,316.172652 1138.73349,327.788674 1115.30012,327.788674 C1078.84821,327.788674 1054.01284,298.948895 1054.01284,262.498619 C1054.01284,226.248619 1079.04849,199.211326 1114.69926,199.211326 C1136.33007,199.211326 1150.95089,208.624309 1156.75916,212.83011 C1158.56173,214.232044 1160.16401,214.031768 1161.56601,212.429558 L1162.56744,211.227901 C1163.76915,209.425414 1163.76915,207.823204 1162.16687,206.421271 C1156.35859,201.614641 1140.33577,191 1114.49898,191 C1073.84107,191 1045,221.842541 1045,262.498619 C1045,303.154696 1073.24022,336 1115.30012,336 Z" id="Path" sketch:type="MSShapeGroup"></path>
                <path d="M1200.40144,333 L1202.2022,333 C1204.40313,333 1205.60364,331.8 1205.60364,329.6 L1205.60364,263.4 L1231.61465,263.4 L1273.03218,330.8 C1274.03261,332.4 1275.23312,333 1277.03388,333 L1280.03515,333 C1282.83633,333 1283.83676,331.2 1282.23608,329 L1239.01779,259.4 L1279.43489,197.2 C1280.83549,194.8 1279.83506,193 1277.03388,193 L1274.23269,193 C1272.43193,193 1271.23142,193.6 1270.231,195.2 L1231.61465,255.4 L1205.60364,255.4 L1205.60364,196.4 C1205.60364,194.2 1204.40313,193 1202.2022,193 L1200.40144,193 C1198.20051,193 1197,194.2 1197,196.4 L1197,329.6 C1197,331.8 1198.20051,333 1200.40144,333 Z" id="Path" sketch:type="MSShapeGroup"></path>
            </g>
        </g>
    </g>
</svg>